<?xml version="1.0" encoding="utf-8"?>
<!-- Generator: Adobe Illustrator 18.1.0, SVG Export Plug-In . SVG Version: 6.00 Build 0)  -->
<svg version="1.1" id="Calque_1" xmlns="http://www.w3.org/2000/svg" xmlns:xlink="http://www.w3.org/1999/xlink" x="0px" y="0px"
	 viewBox="0 0 523.1 1027" style="enable-background:new 0 0 523.1 1027;" xml:space="preserve">
<g id="third">
	<polygon style="fill:#7F1710;" points="523.1,748.1 261.6,888.5 0,748.1 0,743.1 261.6,614.1 523.1,743.1 	"/>
	<polygon style="fill:#C92C2D;" points="523.1,743.1 261.6,883.5 0,743.1 261.6,609.1 	"/>
	<path style="fill:#F2F2F2;" d="M324.7,704.7c-33.1-18.4-84.8-18.4-117.9,0c-34.8,19.4-38.7,53-5.7,75.1
		c34.8,23.3,94.4,23.3,129.2,0C363.4,757.7,359.5,724.1,324.7,704.7z M183,742.9l61.2-3.2l-9.3,50.7c-11.2-2.7-21.6-7-30.2-12.7
		C189.7,767.8,182.6,755.2,183,742.9z M268.1,727.3l18.2-10.9l0.9,0.2c1.9,0.4,4.6,1.2,6.8,2.4c2.1,1.2,3.4,2.7,3.8,4.4
		c0.5,2.1,2.2,4.1,5.1,5.8c1.7,1,3.6,1.8,5.9,2.6l1.7,0.6l-18.3,11.4l-0.9-0.2c-1.6-0.4-4.6-1.3-7-2.8c-2.2-1.3-3.4-2.7-3.7-4.3
		c-0.5-2.4-2.1-4.4-5-6.1c-1.6-0.9-3.5-1.7-5.7-2.4L268.1,727.3z M239.4,791.5l9.4-52.7l15.7-9.4l0.9,0.2c1.9,0.4,4.6,1.2,6.8,2.5
		c2.1,1.3,3.4,2.8,3.7,4.5c0.4,2.2,2.1,4.2,5.1,6c3.9,2.4,9,3.7,11.3,4.1c0.9,0.2,1.9,0,2.5-0.5l0.1-0.1l0.3-0.1l21.2-13.3
		c0.5-0.4,0.7-0.8,0.4-1.3c-0.2-0.5-0.9-0.9-1.7-1c-2.1-0.3-6.2-1.5-9.2-3.2c-2.2-1.3-3.4-2.7-3.8-4.1c-0.5-2.3-2.2-4.3-5.1-5.9
		c-4.6-2.7-10.9-3.5-11.1-3.6c-1-0.1-1.8,0.1-2.2,0.4l-38.5,22.9c0,0,0,0-0.1,0l-62.2,3.2c1.4-12.5,10.4-24.7,26.6-33.7
		c31.5-17.6,80.6-17.6,112.1,0c33,18.4,36.5,50.3,5.1,71.2C304.1,792.9,269.7,797.6,239.4,791.5z"/>
</g>
<g id="second">
	<polygon style="fill:#7F1710;" points="523.1,512.9 261.6,647 0,512.9 0,508.4 261.6,378.9 523.1,508.4 	"/>
	<polygon style="fill:#C92C2D;" points="523.1,508.4 261.6,642.5 0,508.4 261.6,374.4 	"/>
	<g>
		<path style="fill:#F2F2F2;" d="M220.7,507.1c-0.2-0.1-0.5-0.1-0.8-0.1c-0.6,0-1.1,0.1-1.6,0.4c-0.2,0.1-0.3,0.3-0.4,0.4l-9.2,14.7
			c-0.1,0.2-0.2,0.4-0.1,0.6c0.1,0.4,0.6,0.7,1.2,0.8c0.8,0.2,1.8,0.1,2.4-0.3c0.2-0.1,0.4-0.3,0.5-0.4l9.1-14.7
			c0.2-0.3,0.2-0.5,0-0.7C221.6,507.4,221.2,507.2,220.7,507.1z"/>
		<path style="fill:#F2F2F2;" d="M349.5,516.2c-0.4-0.3-1-0.5-1.6-0.6l-0.2,0c-0.6,0-1.1,0.1-1.5,0.4l-9,6.2l-10.5-6.6l10.9-7.5
			c0.3-0.2,0.4-0.4,0.4-0.7c0-0.3-0.2-0.6-0.6-0.8c-0.8-0.5-2.3-0.5-3,0l-10.6,7.2l-7.4-4.6l11-7.4c0.3-0.2,0.4-0.4,0.4-0.7
			c0-0.3-0.2-0.6-0.6-0.8c-0.8-0.5-2.3-0.5-3,0l-10.6,7.1l-7.3-4.5l11-7.3c0.3-0.2,0.4-0.4,0.4-0.7c0-0.3-0.2-0.5-0.6-0.8
			c-0.8-0.5-2.2-0.5-3,0l-10.6,7l-10.9-6.8l9.6-6.2c0.3-0.2,0.5-0.4,0.5-0.7c0-0.3-0.2-0.5-0.5-0.7l-37-22.8
			c-3.8-2.3-8.8-3.6-14.2-3.6c-5.4,0-10.4,1.3-14.3,3.6l-6.7,4c-2.8,1.7-4.8,3.9-5.6,6.2l0,0.1L177.4,548c-0.2,0.3-0.2,0.6,0,0.9
			c0.2,0.3,0.6,0.6,1.1,0.7l7.3,1.9c3.2,0.8,6.5,1.2,10,1.2c7.6,0,15.1-2.1,20.6-5.7c2.9-1.9,5.2-4.2,6.7-6.8l25.3-42.4l0.4,0.3
			l62.7,40.5c4.3,2.8,9.9,4.3,15.7,4.3c5.9,0,11.2-1.5,15.1-4.3l6.6-4.7c3.3-2.3,5.2-5.4,5.3-8.6
			C354.3,522.2,352.7,518.9,349.5,516.2z M219,539.6c-1.3,2.2-3.3,4.1-5.8,5.8c-4.6,3-10.9,4.8-17.3,4.8c-2.9,0-5.7-0.3-8.3-1
			l-5.5-1.4l42.2-66.5l3.1,2.9c0.7,0.6,1.4,1.2,2.2,1.7l15.8,10.2L219,539.6z M345.6,532.3l-6.6,4.7c-3.1,2.2-7.4,3.4-12,3.4
			c-3.6,0-7.1-0.7-10.1-2.1l-0.2,0.1l-84.1-54.1c-3-2-4.7-4.6-4.7-7.4c0-2.9,1.8-5.6,5.1-7.5l6.7-4.1c3.1-1.9,7.1-2.9,11.4-2.9
			c4.3,0,8.3,1,11.3,2.9l35.9,22.2l-9.6,6.2c-0.3,0.2-0.5,0.4-0.5,0.7c0,0.3,0.2,0.5,0.5,0.7l47.3,29.6c0.8,0.5,2.3,0.5,3.1,0
			l9.4-6.5l1.2,4.1C350.8,526,349.2,529.7,345.6,532.3z"/>
		<path style="fill:#F2F2F2;" d="M259.2,473.7c-0.7-0.5-2.2-0.5-2.9,0l-4,2.5l-3.9-2.5c-0.4-0.2-0.9-0.4-1.4-0.4
			c-0.6,0-1.1,0.1-1.5,0.4c-0.3,0.2-0.5,0.4-0.5,0.7c0,0.2,0.2,0.5,0.5,0.7l4.3,2.7l-4.4,2.7c-0.3,0.2-0.5,0.5-0.5,0.7
			c0,0.2,0.2,0.5,0.5,0.7c0.7,0.5,2.2,0.5,2.9,0l4-2.5l3.9,2.5c0.8,0.5,2.2,0.5,2.9,0c0.3-0.2,0.5-0.4,0.5-0.7
			c0-0.2-0.2-0.5-0.5-0.7l-4.3-2.7l4.3-2.7c0.3-0.2,0.5-0.4,0.5-0.7C259.7,474.2,259.5,473.9,259.2,473.7z"/>
	</g>
</g>
<g id="first">
	<polygon style="fill:#7F1710;" points="523.1,277.7 261.6,411.7 0,277.7 0,272.5 261.6,143.6 523.1,272.5 	"/>
	<polygon style="fill:#C92C2D;" points="523.1,272.5 261.6,406.5 0,272.5 261.6,138.5 	"/>
	<g>
		<path style="fill:#F2F2F2;" d="M209.8,296.9c1.4,0.1,3.2,0.9,3.9,1.7l1.9,2.3c1.5,1.8,5.3,3,8.3,2.5l3.9-0.6
			c1.4-0.2,3.5,0.2,4.6,0.9l2.9,1.9c2.3,1.5,6.4,1.8,9.1,0.7l3.5-1.4c1.3-0.5,3.4-0.6,4.8-0.1l3.6,1.2c2.9,0.9,6.7,0.5,8.8-1.1
			l0.1-0.1l2.8-2.1c0.9-0.7,3-1.2,4.4-1l3,0.3l2.2,3.8l20.9,30.9c0.3,0.4,1.1,0.4,1.3,0l5.3-12c0.1-0.3,0.5-0.4,0.9-0.3l16.9,4.8
			c0.6,0.2,1.2-0.3,0.9-0.7L300,295.1l4.8,1.4l44,13c0.6,0.2,1.1-0.2,0.8-0.6l-8-11.1c-0.2-0.3,0-0.5,0.3-0.6l15.6-4.1
			c0.5-0.1,0.5-0.7-0.1-0.8l-47.9-13.8l-0.7-2.5c-0.3-0.9,0.3-2.2,1.2-2.9l2.8-1.8c0,0,0,0,0,0c2-1.4,2.4-3.9,1-5.6l-1.8-2.3
			c-0.7-0.8-0.7-2.2-0.1-3l1.6-2.1c1.3-1.7,0.6-4.2-1.5-5.6l-2.7-1.8c-1-0.7-1.6-1.9-1.4-2.8l0.6-2.3c0.4-1.8-1.3-4-3.8-5l-3.3-1.2
			c-1.2-0.4-2.3-1.5-2.5-2.4l-0.5-2.3c-0.4-1.8-3-3.6-5.7-4l-3.6-0.5c-1.3-0.2-2.8-1-3.4-1.8l-1.5-2.1c-1.1-1.6-4.4-2.9-7.1-2.8
			l-3.6,0.1c-1.3,0.1-3.1-0.4-4-1.1l-2.3-1.7c-1.8-1.3-5.4-1.9-8-1.3l-3.3,0.8c-1.2,0.3-3.1,0.2-4.2-0.3l-3-1.2
			c-2.3-1-6-0.9-8.2,0.2l-2.8,1.4c-1,0.5-2.9,0.7-4.2,0.5l-3.4-0.6c-2.3-0.4-5.2,0-7.1,1.2c-0.3,0.2-0.5,0.3-0.7,0.5l-2.1,1.8
			c-0.1,0.1-0.2,0.2-0.4,0.3c-0.9,0.6-2.4,1-3.5,1l-3.6,0c-1.7,0-3.6,0.5-5,1.4c-0.8,0.5-1.4,1.1-1.8,1.7l-1.2,2.2
			c-0.4,0.8-1.9,1.7-3.2,1.9l-3.5,0.7c-1,0.2-2,0.6-2.8,1.1c-1.4,0.9-2.3,2.1-2.4,3.2l-0.2,2.3c-0.1,0.7-0.8,1.7-1.8,2.3
			c-0.1,0.1-0.3,0.2-0.4,0.2l-3.1,1.4c-0.3,0.1-0.6,0.3-0.9,0.5c-1.9,1.2-2.9,3.1-2.3,4.7l0.9,2.3c0.3,0.9-0.1,2.1-1,2.8l-2.4,1.9
			c-2,1.5-2.3,4-0.8,5.7l1.9,2.1c0.7,0.8,0.8,2.1,0.3,3l-1.5,2.4c-1.2,1.8-0.4,4.4,1.9,5.6l2.9,1.6c1.1,0.6,1.8,1.9,1.6,2.8
			l-0.4,2.6c-0.3,2.1,1.6,4.3,4.4,5.1l3.6,1c1.3,0.4,2.6,1.5,2.9,2.4l0.8,2.6c0.6,2,3.6,3.9,6.7,4L209.8,296.9z M210.4,293.7
			l-3.9-0.2c-1.2-0.1-2.3-0.8-2.6-1.6l-0.8-2.6c-0.6-1.8-3.1-3.9-5.6-4.6l-3.5-1c-1.1-0.3-1.8-1.2-1.7-2l0.4-2.6
			c0.3-1.8-1.1-4.3-3.2-5.4l-2.9-1.6c-0.9-0.5-1.2-1.5-0.7-2.2l1.5-2.4c1.1-1.7,0.8-4.2-0.6-5.7l-1.9-2.1c-0.6-0.6-0.5-1.6,0.3-2.2
			l2.4-1.9c1.7-1.4,2.6-3.8,2-5.5l-0.9-2.3c-0.2-0.6,0.3-1.6,1.2-2l3.1-1.4c2.3-1,4.1-3.1,4.2-4.8l0.2-2.3c0.1-0.7,1-1.4,2-1.7
			l3.5-0.7c2.5-0.5,5.2-2.2,6.1-3.7l1.2-2.2c0.4-0.7,1.5-1.2,2.6-1.2l3.6,0c2.2,0,4.8-0.7,6.5-1.8c0.3-0.2,0.6-0.4,0.9-0.6l2.1-1.8
			c0.1-0.1,0.1-0.1,0.2-0.2c0.7-0.4,2-0.7,2.8-0.5l3.4,0.6c2.4,0.5,6.1,0,8.1-1l2.8-1.4c0.8-0.4,2.3-0.4,3.2-0.1l3,1.2
			c2.1,0.9,5.8,1.1,8.2,0.6l3.3-0.8c1-0.2,2.4,0,3.1,0.5l2.3,1.7c1.7,1.2,5.1,2.2,7.7,2.1l3.6-0.1c1.1,0,2.3,0.4,2.8,1.1l1.5,2.1
			c1,1.5,4,3.1,6.5,3.4l3.6,0.5c1.1,0.2,2.1,0.9,2.2,1.6l0.5,2.3c0.3,1.7,2.5,3.7,4.8,4.6l3.3,1.2c1,0.4,1.6,1.2,1.5,1.9l-0.6,2.3
			c-0.4,1.7,0.8,4.1,2.7,5.3l2.7,1.8c0.8,0.5,1.1,1.5,0.6,2.2l-1.7,2.1c-1.2,1.5-1.1,4.1,0.2,5.7l1.8,2.3c0.5,0.6,0.3,1.7-0.4,2.2
			l-2.8,1.8c-1.8,1.3-2.9,3.6-2.3,5.5l0.7,2.6c0.2,0.7-0.5,1.7-1.4,2l-3.4,1.2c-0.8,0.3-1.5,0.7-2.2,1.2c-1.5,1.1-2.5,2.4-2.7,3.7
			l-0.4,2.6c-0.1,0.4-0.6,1-1.2,1.3l-0.1,0l0,0c-0.3,0.2-0.7,0.3-1.1,0.3l-3.8,0.4c-1.9,0.2-3.9,1-5.4,2.1c-0.7,0.5-1.3,1.1-1.6,1.6
			l-1.6,2.4c-0.5,0.7-1.9,1.2-3,1.1l-3.9-0.4c-2.8-0.3-6.4,0.6-8.4,2l-2.9,2.1c-0.8,0.5-2.4,0.7-3.4,0.4l-3.6-1.2
			c-2.6-0.8-6.7-0.7-9.1,0.2l-3.5,1.4c-1,0.4-2.6,0.3-3.5-0.3l-2.9-1.8c-2.1-1.3-6-2-8.8-1.6l-3.9,0.6c-1.2,0.2-2.6-0.3-3.2-1
			l-1.9-2.3C216.5,295.3,213.1,293.9,210.4,293.7z M303,319.9c-0.4-0.1-0.8,0-0.9,0.3l-3.6,7.9c-0.1,0.1-0.3,0.1-0.4,0l-16-23.5
			l-1.7-2.8c1.7-0.5,3.2-1.4,3.9-2.5l1.6-2.4c0.6-0.9,2.2-1.8,3.7-1.9l3.9-0.4c0.3,0,0.6-0.1,0.8-0.1l3.8,5.3l16.4,23.2
			c0.1,0.1-0.1,0.3-0.3,0.2L303,319.9z M335.1,295.9l5.2,7.3c0.1,0.1-0.1,0.3-0.3,0.2l-41.1-12c0.3-0.4,0.4-0.8,0.5-1.3l0.4-2.6
			c0.1-0.6,0.7-1.4,1.5-2c0.3-0.2,0.7-0.4,1-0.6l3.4-1.2c1.3-0.4,2.4-1.2,3.1-2.2l3.6,1l33.3,9.6c0.2,0.1,0.2,0.2,0,0.3l-10.4,2.7
			C335.1,295.3,335,295.6,335.1,295.9z"/>
		<path style="fill:#F2F2F2;" d="M209.5,280.7c19.4,16.2,56.2,16.2,75.4,0c14.2-12,12.9-29-2.2-40.1c-19.1-14-52.7-14-71.6,0
			C196.1,251.7,195.1,268.8,209.5,280.7z M218.7,282.6c-20.7-11.9-19.5-32.7,1.2-43.7c15.5-8.2,38.1-8.2,53.8,0
			c20.9,10.9,22.4,31.8,1.9,43.7C259.5,291.9,235,291.9,218.7,282.6z"/>
	</g>
</g>
</svg>
