<?xml version="1.0" encoding="utf-8"?>
<!-- Generator: Adobe Illustrator 18.1.0, SVG Export Plug-In . SVG Version: 6.00 Build 0)  -->
<svg version="1.1" id="Calque_1" xmlns="http://www.w3.org/2000/svg" xmlns:xlink="http://www.w3.org/1999/xlink" x="0px" y="0px"
	 viewBox="0 0 465.2 667.7" style="enable-background:new 0 0 465.2 667.7;" xml:space="preserve">
<g id="third">
	<polygon style="fill:#7F1710;" points="465.2,534.1 232.6,667.7 0,534.9 0,529.6 232.6,424.8 465.2,529.8 	"/>
	<polygon style="fill:#C92C2D;" points="465.2,529.7 232.6,660.2 0,529.7 232.6,410.6 	"/>
	<path style="fill:none;" d="M201.3,574.3l11.9-18.8c0.1-0.2,0.1-0.4,0.1-0.6l-4.6-15c-0.3-1,0.1-2,1-2.8l9.5-8.5l-9.8,0.9
		c-0.5,0-0.9,0.2-1.1,0.5L196,545.4c-0.7,0.9-1.8,1.5-3.2,1.8l-7.3,1.7c-0.7,0.2-1.1,0.6-1,1l1.4,11.8c0.2,1.5-0.9,2.9-2.7,3.7
		l-5.5,2.5c6.8,4.3,14.6,7.7,23,10l0.2-2.3C200.9,575.2,201.1,574.7,201.3,574.3z"/>
	<path style="fill:none;" d="M239.8,514.5c1.9,1.2,3.1,2.7,3.4,4.4c0.2,1.1,1.1,2.1,2.5,3c1.7,1,3.7,1.7,4.8,2l0.6,0.2l12.4-8
		l-1.1-0.4c-1.6-0.5-3-1.1-4.1-1.8c-2-1.2-3.2-2.6-3.6-4.1c-0.3-1.2-1.1-2.2-2.6-3c-1.5-0.9-3.3-1.4-4.6-1.7l-0.5-0.1l-12.4,7.6
		l1.1,0.3C237.4,513.2,238.7,513.8,239.8,514.5z"/>
	<path style="fill:none;" d="M181.7,562.2l-1.3-11.8c-0.2-1.7,1.5-3.4,4-3.9l7.3-1.7c0.4-0.1,0.7-0.3,0.8-0.5l12.4-15.3
		c0.8-1,2.4-1.7,4.1-1.9l12-1.1l-1.4-3.8c-0.2-0.4-0.7-0.7-1.4-0.6l-27.8,1.6c-0.1,0-0.2,0-0.3,0l-0.3,0.1l-17.4-0.3
		c-1,0.1-2.3-0.3-9.9-3.5c-1-0.4-2.2-0.9-3.3-1.4c-7.9,15.4-4,33.3,14.2,47c0.4,0.3,0.9,0.6,1.3,0.9l6.3-2.8
		C181.4,563,181.7,562.6,181.7,562.2z"/>
	<path style="fill:none;" d="M172.6,520.6l16.8,0.2c0.3,0,0.6-0.1,0.8-0.1l27.7-1.6c0.4,0,0.9,0,1.3,0l25.9-16l0.2-0.1l0,0
		c0.4-0.3,1-0.4,1.6-0.3c0,0,4.4,0.6,7.7,2.5c2,1.2,3.1,2.6,3.5,4.2c0.2,1,1.1,2,2.6,2.9c2.3,1.4,5.3,2.1,6.3,2.2
		c0.6,0.1,1.1,0.4,1.2,0.7c0.2,0.4,0,0.7-0.4,1l-14.5,9.4l-0.2,0.1l-0.1,0c-0.4,0.3-1.1,0.5-1.8,0.4c-1.6-0.3-5.2-1.2-7.9-2.9
		c-2-1.3-3.2-2.7-3.5-4.3c-0.2-1.2-1.1-2.3-2.5-3.2c-1.5-0.9-3.4-1.5-4.7-1.8l-0.5-0.1l-10,6.2c0.5,0.4,1,0.9,1.2,1.4l1.6,4.2
		c0.3,0.9,0,1.9-0.8,2.7l-11.1,10.1c-0.2,0.2-0.3,0.5-0.2,0.7l4.7,14.9c0.2,0.7,0.1,1.5-0.3,2.2l-11.8,18.9
		c-0.1,0.1-0.1,0.2-0.1,0.4l-0.3,3.4c29.1,6.8,62.6,1.9,84.2-14c28.4-21,23.3-51.7-7.1-68.8c-28.3-15.8-71.6-15.8-100.1,0
		c-9.8,5.4-16.9,12.1-21.3,19.4c1,0.4,2.4,1,4.3,1.8C167.4,518.6,171.5,520.3,172.6,520.6z"/>
	<path style="fill:#F2F2F2;" d="M173.3,565.1c-18.2-13.6-22.2-31.6-14.2-47c-1-0.4-1.9-0.8-2.5-1l-1.2,0.6
		c-8.4,16.2-4.4,35,14.7,49.4c0.3,0.2,0.5,0.4,0.8,0.6l3.7-1.7C174.2,565.7,173.8,565.4,173.3,565.1z"/>
	<path style="fill:#F2F2F2;" d="M292.2,567.1c29.8-22.2,24.1-54.5-7.9-72.3c-29.6-16.5-74.9-16.5-104.9,0
		c-10,5.5-17.5,12.3-22.2,19.8c0.5,0.1,1.3,0.4,3.2,1.1c4.4-7.3,11.6-14,21.3-19.4c28.6-15.8,71.9-15.8,100.1,0
		c30.4,17,35.5,47.8,7.1,68.8c-21.6,15.9-55.1,20.8-84.2,14l-0.3,3.2C235.1,589.1,269.8,583.8,292.2,567.1z"/>
	<path style="fill:#F2F2F2;" d="M177.6,568l-3.8,1.7c7.7,5.1,16.7,8.9,26.5,11.5l0.3-3.2C192.2,575.7,184.4,572.3,177.6,568z"/>
	<path style="fill:#F2F2F2;" d="M162.4,519.5c7.6,3.2,8.9,3.6,9.9,3.5l17.4,0.3l0.3-0.1c0.1,0,0.2,0,0.3,0l27.8-1.6
		c0.7,0,1.3,0.2,1.4,0.6l1.4,3.8l2.1-0.2l0.5,2.4l-4.4,0.4l-9.5,8.5c-0.9,0.8-1.2,1.8-1,2.8l4.6,15c0.1,0.2,0,0.4-0.1,0.6
		l-11.9,18.8c-0.3,0.5-0.5,0.9-0.5,1.4l-0.2,2.3c1.4,0.4,2.8,0.7,4.2,1.1l0.3-3.4c0-0.1,0.1-0.3,0.1-0.4l11.8-18.9
		c0.4-0.7,0.6-1.5,0.3-2.2l-4.7-14.9c-0.1-0.3,0-0.5,0.2-0.7l11.1-10.1c0.9-0.8,1.2-1.8,0.8-2.7l-1.6-4.2c-0.2-0.5-0.6-1-1.2-1.4
		l-0.9,0.6c-0.3,0.2-0.8,0.3-1.2,0.3c-0.3,0-0.5,0-0.7-0.1l-0.6,0.5l-0.3-0.2l-0.3-0.2l0.7-0.5c-0.4-0.4-0.3-1,0.3-1.3l0.2-0.1
		c-0.4,0-0.8-0.1-1.3,0l-27.7,1.6c-0.3,0-0.6,0-0.8,0.1l-16.8-0.2c-1.1-0.3-5.2-2-7.9-3.1c-1.9-0.8-3.2-1.3-4.3-1.8
		c-0.5,0.8-0.9,1.6-1.3,2.4C160.2,518.6,161.4,519.1,162.4,519.5z"/>
	<path style="fill:#F2F2F2;" d="M159.1,518.1c0.4-0.8,0.9-1.6,1.3-2.4c-1.9-0.8-2.7-1-3.2-1.1c-0.6,1-1.2,2-1.8,3.1l1.2-0.6
		C157.2,517.3,158.1,517.7,159.1,518.1z"/>
	<path style="fill:#F2F2F2;" d="M200.6,578l-0.3,3.2c1.4,0.4,2.8,0.7,4.2,1l0.3-3.2C203.4,578.8,202,578.4,200.6,578z"/>
	<path style="fill:#F2F2F2;" d="M185.8,561.8l-1.4-11.8c-0.1-0.4,0.4-0.9,1-1l7.3-1.7c1.4-0.3,2.5-1,3.2-1.8l12.3-15.4
		c0.2-0.3,0.6-0.5,1.1-0.5l9.8-0.9l1.7-1.5c0.2-0.2,0.3-0.5,0.2-0.7L221,526l-12,1.1c-1.8,0.2-3.3,0.9-4.1,1.9l-12.4,15.3
		c-0.2,0.2-0.5,0.4-0.8,0.5l-7.3,1.7c-2.5,0.6-4.2,2.2-4,3.9l1.3,11.8c0,0.4-0.2,0.8-0.7,1l-6.3,2.8c1,0.7,1.9,1.3,3,2l5.5-2.5
		C184.9,564.7,186,563.2,185.8,561.8z"/>
	<path style="fill:#F2F2F2;" d="M174.6,566l-3.7,1.7c0.9,0.7,1.9,1.4,2.9,2l3.8-1.7C176.6,567.4,175.6,566.7,174.6,566z"/>
	<path style="fill:#F2F2F2;" d="M220.9,527.1l-1.7,1.5l4.4-0.4l-0.5-2.4L221,526l0.1,0.4C221.2,526.7,221.1,526.9,220.9,527.1z"/>
	<path style="fill:#F2F2F2;" d="M232.7,514.1c1.3,0.3,3.1,0.8,4.7,1.8c1.4,0.9,2.3,2,2.5,3.2c0.3,1.6,1.5,3,3.5,4.3
		c2.7,1.7,6.2,2.6,7.9,2.9c0.7,0.1,1.4,0,1.8-0.4l0.1,0l0.2-0.1l14.5-9.4c0.4-0.3,0.5-0.6,0.4-1c-0.2-0.3-0.7-0.6-1.2-0.7
		c-1-0.2-4-0.9-6.3-2.2c-1.5-0.9-2.3-1.9-2.6-2.9c-0.4-1.6-1.5-3-3.5-4.2c-3.3-1.9-7.6-2.5-7.7-2.5c-0.6-0.1-1.2,0-1.6,0.3l0,0
		l-0.2,0.1l-25.9,16c1.2,0.1,2.2,0.5,2.9,1l10-6.2L232.7,514.1z M247.1,504.8l0.5,0.1c1.3,0.3,3.1,0.8,4.6,1.7
		c1.4,0.9,2.3,1.9,2.6,3c0.3,1.5,1.5,2.9,3.6,4.1c1.2,0.7,2.5,1.3,4.1,1.8l1.1,0.4l-12.4,8l-0.6-0.2c-1.1-0.3-3.2-0.9-4.8-2
		c-1.5-0.9-2.3-1.9-2.5-3c-0.3-1.7-1.5-3.2-3.4-4.4c-1.1-0.7-2.4-1.2-3.9-1.7l-1.1-0.3L247.1,504.8z"/>
	<path style="fill:#F2F2F2;" d="M219.2,519.2l-0.2,0.1c-0.6,0.4-0.7,0.9-0.3,1.3l-0.7,0.5l0.3,0.2l0.3,0.2l0.6-0.5
		c0.2,0.1,0.5,0.1,0.7,0.1c0.5,0,0.9-0.1,1.2-0.3l0.9-0.6C221.4,519.7,220.4,519.3,219.2,519.2z"/>
</g>
<g id="second">
	<polygon style="fill:#7F1710;" points="465.2,320.8 232.6,454.3 0,321.6 0,316.2 232.6,211.5 465.2,316.5 	"/>
	<polygon style="fill:#C92C2D;" points="465.2,316.5 232.6,449.3 0,316.5 232.6,201.9 	"/>
	<path style="fill:#F2F2F2;" d="M284.7,360.1l-1.5-1c19.2-22.9,11.9-48.8-15.2-65l11.6-7.3l2.8,1.6l0.9-3.6l0.8-2.5l-10.3,1.4
		l3.2,1.8l-11.6,7.2c-12-6.6-28.1-10.8-44.6-11.6c-16.3-0.8-33.3,1.8-47.7,7l-1.3-0.8l-1.9,1l19.8,46.8l-35.5,21.5l10.1,6.9l34-21.5
		l84.4,19.6L284.7,360.1z M197.5,339.5l-3.4-0.8l-1.1-2.1l68.6-42.6l3,1.7L197.5,339.5z M173.5,290.4c14.6-5.2,32.9-8.2,48.6-7.4
		c13.1,0.7,27,4,37.6,10L192.1,334L173.5,290.4z M165,359.4l-4.4-2.8l30.4-18.5l1.2,2.1l3.2,0.8L165,359.4z M200.9,340.3l65.8-43.4
		c27.1,16.7,31.6,41,12.3,61.9L200.9,340.3z"/>
</g>
<g id="first">
	<polygon style="fill:#7F1710;" points="465.2,116.6 232.6,248.2 0,115.4 0,110.1 232.6,5.3 465.2,111.2 	"/>
	<polygon style="fill:#C92C2D;" points="465.2,111.2 232.6,242.9 0,110.1 232.6,0 	"/>
	<path style="fill:#F2F2F2;" d="M158.7,90.4l12.2,6.4c3.1,1.7,6.3,3.3,9.4,5c3.1,1.6,6.4,3.3,9.6,5.1c0.1,0.1,0.2,0.2,0.3,0.2
		c0.2,0.1,0.3,0.3,0.6,0.3c0.3,0.1,0.6,0.1,0.8,0.1c0.6,0,1.2-0.2,1.5-0.5c0.4-0.3,0.4-0.7,0.4-0.9c0-0.4-0.3-0.7-0.8-1
		c-4.2-2.2-8.4-4.5-12.4-6.6c-3.8-2.1-7.6-4.1-11.4-6.1l-5.1-2.8l-1.5-0.8l0.1,0c0.3-0.2,0.5-0.4,0.7-0.5c0.2-0.2,0.5-0.4,0.8-0.6
		c1.1-0.8,2.1-1.5,3-2.2c2-1.6,4.4-2.2,7.1-1.7c1.5,0.2,2.9,0.5,4.4,0.8c1.7,0.3,3.7,0.7,5.7,1c0.7,0.1,1.4,0.2,2.1,0.3
		c2.7,0.4,5.5,0.9,8.3,1.1c4.4,0.2,8-1.1,10.3-4c0.9-1.1,1.5-2.1,1.8-3c1.3-3.8,4.5-7.2,9.8-10.4c3.9-2.4,8.1-3.3,12.5-2.6
		c1.8,0.3,3.7,0.9,5.4,1.6c4.2,1.9,5.9,4.6,4.8,7.2c-0.2,0.5,0,0.9,0.5,1.1c0.2,0.1,0.5,0.2,0.9,0.2c0.5,0,1-0.1,1.4-0.3
		c0.4-0.2,0.6-0.5,0.6-0.8c0.1-1.3,0.3-2.7-0.2-4c-0.8-2.1-2.7-3.9-5.9-5.4c-0.3-0.1-0.6-0.3-0.9-0.4c-2.7-1.1-5.8-1.7-8.9-1.7
		c-3.8,0-7.5,0.9-10.5,2.4c-3.8,2-7.2,4.5-10.1,7.4c-1.7,1.8-2.6,3.7-3.4,5.8l-0.4,0.9c-1.1,2.6-3.9,3.8-8,3.5
		c-2.3-0.2-4.5-0.6-6.4-0.9c-1-0.2-2-0.4-3.1-0.6c-3.5-0.7-7.1-1.4-10.9-1.6c-3.2-0.2-6,0.6-8.6,2.3c-1.5,1-3.1,2.1-4.6,3.1
		l-1.7,1.2c-0.9,0.6-1.3,1-1.3,1.5C157.5,89.7,157.9,90,158.7,90.4z"/>
	<path style="fill:#F2F2F2;" d="M291.5,92.5c-1.9-1.6-4.3-2.8-7.1-3.6c-2.8-0.8-5.5-1.2-8.1-1.2c-2,0-4,0.2-5.9,0.7
		c-0.6,0.1-1.3,0.4-1.6,0.8c-0.2,0.3-0.2,0.7,0,1c0.1,0.2,0.3,0.4,0.6,0.5c0.6,0.3,1.6,0.1,2.2,0c3.2-0.8,6.5-0.8,9.6-0.1
		c3.2,0.8,5.9,2.1,8,3.8c3,2.5,3.4,5.1,1.1,7.9c-2.4,3-5.2,5.3-8.5,6.8c-2.8,1.3-5.9,2.4-8.9,3.4l-1.1,0.4c-4,1.4-6.6,3-7.6,4.9
		c-1,1.9-0.6,4.2,1.3,6.8c0.9,1.3,2.1,2.5,3.3,3.8l0.1,0.1c0.7,0.7,1.4,1.5,2.1,2.3c2.1,2.4,3.9,4.6,5.7,6.8
		c1.2,1.5,0.2,2.9-0.8,3.8c-1.2,1-2.4,2.1-3.6,3.2l-2.6,2.3l-2-1.1c-2.2-1.2-4.4-2.4-6.6-3.7c-2-1.1-4-2.3-6.1-3.4
		c-2.8-1.5-5.5-3-8.2-4.4c-3.8-2.1-7.8-4.3-11.7-6.3c-1-0.5-2.2-1-3.8-1.4l-0.1,0l-0.1,0c0,0-0.3,0-0.5,0.2
		c-0.3,0.2-0.4,0.7-0.3,1.2c0.1,0.6,0.4,1.2,0.8,1.4l18.4,9.9c4.3,2.3,8.6,4.6,13,7l6.2,3.3c0.7,0.4,1.3,0.6,1.7,0.6c0,0,0,0,0,0
		c0.7,0,1.3-0.4,2-1c0.7-0.6,1.4-1.3,2.1-1.9c1.2-1.1,2.5-2.2,3.8-3.3c3.1-2.6,3.7-5.4,1.6-8.3l-0.4-0.6c-0.6-0.9-1.3-1.9-2.1-2.7
		c-1-1.1-2-2.1-3-3.1c-1.2-1.3-2.5-2.6-3.6-3.9c-1.3-1.5-2.3-2.8-2.9-4.2c-0.3-0.7-0.4-1.4-0.1-2.1c0.4-1,1.4-1.8,3.1-2.5
		c0.7-0.3,1.5-0.5,2.2-0.7c0.4-0.1,0.8-0.2,1.2-0.4c0.6-0.2,1.1-0.4,1.7-0.6c1.4-0.4,2.8-0.9,4.1-1.4c4.9-1.9,8.2-4.8,11.4-7.6
		c2.5-2.2,3.8-4.5,3.8-6.9C295.1,96.6,293.9,94.5,291.5,92.5z M268.9,128.2L268.9,128.2L268.9,128.2L268.9,128.2z"/>
	<path style="fill:#F2F2F2;" d="M237.9,141.8c-1.3-1.7-2.8-3.4-4.2-5.1l-0.1-0.1c-1.5-1.8-3.2-3.7-4.6-5.6c-1.6-2.2-2.8-4.3-3.6-6.3
		c-1-2.6,0.7-5.1,4.7-6.9c1.2-0.5,2.6-1,3.8-1.4c0.6-0.2,1.2-0.4,1.8-0.6c1-0.4,2.1-0.7,3.2-1.1c2.3-0.8,4.7-1.5,6.8-2.5
		c6.5-2.9,12.1-6.9,17.5-12.5c3.2-3.4,4.1-7,2.5-10.4c-1.6-3.4-4.4-6.1-8.6-8.1c-2.2-1-4.9-1.9-7.9-2.5c-8-1.6-15.4-0.6-21.9,2.9
		c-5.6,3-10.4,6.8-14.4,11.2c-2.5,2.7-3.7,5.6-5,8.7l-0.4,1c-1.9,4.5-5.6,6.6-11.7,6.6c-0.9,0-1.9,0-2.9-0.1
		c-0.9-0.1-2.2-0.2-3.3-0.4c-2.8-0.5-5.3-1-7.6-1.5l-1.9-0.4c-5.1-1.1-10.4-2.2-16-2.5c-4.6-0.2-8.6,0.9-12.2,3.4
		c-2.6,1.8-5.2,3.6-7.8,5.5l-1.9,1.4c-1.1,0.8-1.6,1.2-1.6,1.7c0,0.5,0.6,0.8,1.3,1.3c3.2,1.9,6.4,3.8,9.5,5.7
		c2.9,1.8,6,3.7,9.1,5.5c3.1,1.8,6.3,3.8,9.4,5.7c3.4,2.1,6.9,4.2,10.4,6.3l2.3,1.3c3.5,2,7.1,4.1,10.6,6.1
		c3.3,1.9,6.8,3.8,10.1,5.8c3.2,1.9,6.4,3.7,9.6,5.6c3.6,2.1,7.4,4.3,11.1,6.4c0.8,0.5,1.4,0.7,1.9,0.7c0.7,0,1.4-0.4,2.1-1.1
		c0.9-0.8,1.9-1.6,2.8-2.3c2.6-2.2,5.2-4.4,7.7-6.6c3.3-2.9,4.2-6,2.7-9.1C240,145.1,239,143.3,237.9,141.8z M209.4,106.9
		c0-0.3,0.1-0.6,0.2-0.9c0.7-1.4,1.5-2.8,2.2-4.3c0.7-1.3,1.4-2.6,2-4c1.8-3.5,4.3-6.3,7.7-8.8c0.5-0.4,1-0.7,1.5-1.1
		c2.1-1.5,4.2-3.1,6.7-4.4c3.8-2,8-3,12.4-3c3,0,6,0.5,8.8,1.5c4.4,1.5,7.6,3.3,9.7,5.6c3.5,3.8,2.8,8.1-2,12.5
		c-0.8,0.7-1.6,1.4-2.4,2c-0.3,0.2-0.6,0.5-0.9,0.7c-4.5,4.1-10.7,7.3-18.7,9.8c-1.3,0.4-2.6,0.9-3.9,1.4c-1.3,0.5-2.6,1-3.9,1.4
		c-4.9,1.5-9.8,1.3-14-0.6c-0.3-0.1-0.5-0.2-0.8-0.4C210.7,112.5,209.2,110.1,209.4,106.9z M222.4,120.2c-1.4,2.2-1.4,4.6,0,7.9
		l2,3.2c2,2.4,4,5,6,7.5c1.8,2.2,3.5,4.5,5.3,6.7c1.5,1.9,2.1,3.7,1.8,5.4c-0.3,2-1.9,4-4.6,5.9c-1.6,1.1-3.1,2.4-4.5,3.7
		c-0.7,0.6-1.4,1.2-2.1,1.9l-1,0.8l-80.5-47l0.6-0.4c0.4-0.3,0.6-0.5,0.7-0.6c0.1-0.1,0.2-0.2,0.4-0.3l3.7-2.6c1.5-1,3-2.1,4.4-3.1
		c2.4-1.7,5.1-2.4,8-2.2l0.7,0.1c2.4,0.2,4.8,0.4,7.1,0.8c4.2,0.8,8.4,1.7,12.5,2.5l0.2,0c1.5,0.3,3.1,0.6,4.7,1l5,0.5
		c4.6,0.3,8.1-0.2,10.9-1.4l1.8-0.8c0.7,2,3.4,5.6,6,7c2.4,1.3,7.7,2.7,10.9,2.7c0.3,0,0.6,0,0.8,0L222.4,120.2z"/>
</g>
</svg>
