<?xml version="1.0" encoding="utf-8"?>
<!-- Generator: Adobe Illustrator 18.1.0, SVG Export Plug-In . SVG Version: 6.00 Build 0)  -->
<!DOCTYPE svg PUBLIC "-//W3C//DTD SVG 1.1//EN" "http://www.w3.org/Graphics/SVG/1.1/DTD/svg11.dtd">
<svg version="1.1" id="Calque_1" xmlns="http://www.w3.org/2000/svg" xmlns:xlink="http://www.w3.org/1999/xlink" x="0px" y="0px"
	 viewBox="0 0 800 1280" enable-background="new 0 0 800 1280" xml:space="preserve">
<g>
	<polygon fill="#7F0401" points="797.7,1017.7 400.1,1243.3 2.6,1019 2.6,1009.9 400.1,830.9 797.7,1010.4 	"/>
	<polygon fill="#C82B2D" points="797.7,1010.2 400.1,1233.3 2.6,1010.2 400.1,806.5 	"/>
	<polygon fill="#7F0401" points="797.7,653 400.1,881.3 2.6,654.4 2.6,645.3 400.1,466.2 797.7,645.8 	"/>
	<polygon fill="#C82B2D" points="797.7,645.8 400.1,872.7 2.6,645.8 400.1,449.8 	"/>
	<polygon fill="#7F0401" points="797.7,302.1 400.1,534.8 6.4,304 6.4,294.9 400.1,108.1 797.7,292.9 	"/>
	<polygon fill="#C82B2D" points="797.7,292.9 400.1,525.7 6.4,294.9 400.1,98.9 	"/>
	<g>
		<path fill="none" d="M346.7,1086.3l20.3-32.2c0.2-0.3,0.3-0.7,0.1-1l-7.8-25.6c-0.5-1.6,0.1-3.4,1.6-4.7l16.2-14.5l-16.8,1.5
			c-0.8,0.1-1.5,0.4-1.8,0.8l-21,26.3c-1.2,1.5-3.1,2.6-5.5,3.1l-12.5,2.9c-1.1,0.3-1.9,1-1.8,1.8l2.4,20.2c0.3,2.5-1.5,4.9-4.7,6.4
			l-9.3,4.2c11.6,7.4,24.9,13.1,39.4,17.1l0.4-4C345.9,1087.9,346.2,1087.1,346.7,1086.3z"/>
		<path fill="none" d="M412.4,984.1c3.3,2.1,5.3,4.6,5.9,7.5c0.3,1.8,1.8,3.6,4.3,5.1c2.9,1.8,6.4,2.9,8.3,3.4l1,0.3l21.2-13.7
			l-1.9-0.6c-2.7-0.9-5.1-2-7-3.1c-3.5-2.1-5.5-4.5-6.1-7c-0.4-2-1.9-3.7-4.4-5.2c-2.6-1.5-5.7-2.4-7.9-2.9l-0.9-0.2l-21.1,13
			l1.9,0.6C408.3,982,410.6,983,412.4,984.1z"/>
		<path fill="none" d="M313.1,1065.7l-2.2-20.3c-0.3-2.9,2.5-5.7,6.8-6.7l12.5-2.9c0.6-0.1,1.1-0.4,1.4-0.8l21.2-26.1
			c1.4-1.7,4-2.9,7-3.2l20.5-1.8l-2.4-6.6c-0.3-0.7-1.3-1.2-2.4-1.1l-47.5,2.8c-0.2,0-0.4,0-0.5,0.1l-0.6,0.1l-29.7-0.4
			c-1.8,0.2-3.9-0.6-16.9-6c-1.8-0.7-3.8-1.6-5.6-2.3c-13.5,26.3-6.8,57,24.3,80.3c0.7,0.5,1.5,1.1,2.2,1.6l10.8-4.9
			C312.7,1067,313.1,1066.4,313.1,1065.7z"/>
		<path fill="none" d="M297.6,994.6l28.7,0.4c0.5-0.1,1-0.1,1.4-0.2l47.3-2.7c0.8,0,1.5,0,2.2,0.1l44.3-27.4l0.4-0.2l0,0
			c0.7-0.5,1.7-0.7,2.7-0.6c0.1,0,7.5,1,13.1,4.3c3.3,2,5.4,4.4,6,7.2c0.4,1.8,1.9,3.4,4.4,4.9c3.9,2.3,9.1,3.5,10.7,3.8
			c1,0.2,1.8,0.7,2.1,1.3c0.3,0.6,0.1,1.3-0.6,1.7l-24.8,16.1l-0.4,0.2l-0.1,0.1c-0.7,0.6-1.9,0.9-3.1,0.7c-2.8-0.5-8.8-2.1-13.5-5
			c-3.5-2.2-5.5-4.6-6-7.3c-0.4-2.1-1.8-3.9-4.3-5.4c-2.6-1.6-5.8-2.5-8-3l-0.9-0.2l-17.1,10.6c0.9,0.7,1.6,1.5,2,2.4l2.7,7.2
			c0.6,1.6,0.1,3.3-1.4,4.6l-19,17.2c-0.4,0.4-0.6,0.8-0.4,1.2l8,25.5c0.4,1.3,0.2,2.6-0.5,3.8l-20.1,32.3c-0.1,0.2-0.2,0.4-0.2,0.6
			l-0.5,5.7c49.8,11.6,107.1,3.3,143.9-23.9c48.6-35.9,39.9-88.4-12.1-117.5c-48.3-27.1-122.3-27.1-171.2,0
			c-16.7,9.2-28.9,20.7-36.5,33.1c1.8,0.7,4.1,1.7,7.3,3C288.7,991.2,295.7,994.1,297.6,994.6z"/>
		<path fill="#F2F2F2" d="M298.9,1070.6c-31.1-23.3-37.9-54-24.3-80.3c-1.7-0.7-3.2-1.3-4.3-1.7l-2,1c-14.3,27.6-7.5,59.9,25.1,84.5
			c0.4,0.3,0.9,0.6,1.4,1l6.4-2.9C300.3,1071.7,299.6,1071.2,298.9,1070.6z"/>
		<path fill="#F2F2F2" d="M502,1074.1c50.9-37.9,41.3-93.1-13.5-123.6c-50.7-28.2-128.1-28.2-179.3,0c-17.1,9.4-29.9,21.1-37.9,33.8
			c0.9,0.1,2.3,0.6,5.5,1.9c7.6-12.5,19.8-23.9,36.5-33.1c48.8-27.1,122.9-27.1,171.2,0c52,29.1,60.7,81.6,12.1,117.5
			c-36.9,27.2-94.1,35.6-143.9,23.9l-0.4,5.4C404.3,1111.6,463.8,1102.6,502,1074.1z"/>
		<path fill="#F2F2F2" d="M306.1,1075.6l-6.4,2.9c13.1,8.7,28.6,15.3,45.3,19.7l0.5-5.5C331.1,1088.7,317.7,1083,306.1,1075.6z"/>
		<path fill="#F2F2F2" d="M280.1,992.7c13,5.4,15.2,6.2,16.9,6l29.7,0.4l0.6-0.1c0.2,0,0.4-0.1,0.5-0.1l47.5-2.8
			c1.1-0.1,2.1,0.4,2.4,1.1l2.4,6.6l3.6-0.3l0.8,4.2l-7.5,0.7l-16.2,14.5c-1.5,1.4-2.1,3.1-1.6,4.7l7.8,25.6c0.1,0.3,0,0.7-0.1,1
			l-20.3,32.2c-0.5,0.8-0.8,1.6-0.8,2.4l-0.4,4c2.4,0.7,4.7,1.3,7.2,1.8l0.5-5.7c0-0.2,0.1-0.4,0.2-0.6l20.1-32.3
			c0.8-1.2,0.9-2.5,0.5-3.8l-8-25.5c-0.1-0.4,0-0.9,0.4-1.2l19-17.2c1.5-1.3,2-3,1.4-4.6l-2.7-7.2c-0.3-0.9-1-1.7-2-2.4l-1.5,0.9
			c-0.6,0.3-1.3,0.5-2.1,0.5c-0.4,0-0.8,0-1.2-0.1l-1,0.8l-0.5-0.3l-0.5-0.3l1.1-0.9c-0.7-0.7-0.6-1.6,0.4-2.2l0.3-0.2
			c-0.7-0.1-1.5-0.1-2.2-0.1l-47.3,2.7c-0.5,0-1,0.1-1.4,0.2l-28.7-0.4c-1.9-0.5-8.8-3.4-13.5-5.3c-3.2-1.3-5.5-2.3-7.3-3
			c-0.8,1.4-1.6,2.7-2.3,4.1C276.4,991.1,278.4,992,280.1,992.7z"/>
		<path fill="#F2F2F2" d="M274.5,990.3c0.7-1.4,1.5-2.7,2.3-4.1c-3.2-1.3-4.6-1.8-5.5-1.9c-1.1,1.7-2.1,3.5-3,5.3l2-1
			C271.3,989,272.8,989.7,274.5,990.3z"/>
		<path fill="#F2F2F2" d="M345.5,1092.7l-0.5,5.5c2.4,0.6,4.8,1.2,7.2,1.8l0.4-5.4C350.2,1094,347.9,1093.4,345.5,1092.7z"/>
		<path fill="#F2F2F2" d="M320.2,1065l-2.4-20.2c-0.1-0.8,0.7-1.5,1.8-1.8l12.5-2.9c2.4-0.6,4.3-1.7,5.5-3.1l21-26.3
			c0.4-0.5,1.1-0.8,1.8-0.8l16.8-1.5l2.9-2.6c0.4-0.4,0.5-0.8,0.4-1.2l-0.2-0.7l-20.5,1.8c-3,0.3-5.6,1.5-7,3.2l-21.2,26.1
			c-0.3,0.4-0.8,0.7-1.4,0.8l-12.5,2.9c-4.2,1-7.1,3.8-6.8,6.7l2.2,20.3c0.1,0.6-0.4,1.3-1.2,1.7l-10.8,4.9c1.6,1.2,3.3,2.3,5,3.4
			l9.3-4.2C318.7,1069.9,320.4,1067.5,320.2,1065z"/>
		<path fill="#F2F2F2" d="M301.1,1072.2l-6.4,2.9c1.6,1.2,3.3,2.3,5,3.5l6.4-2.9C304.4,1074.5,302.7,1073.4,301.1,1072.2z"/>
		<path fill="#F2F2F2" d="M380.1,1005.7l-2.9,2.6l7.5-0.7l-0.8-4.2l-3.6,0.3l0.2,0.7C380.7,1004.9,380.5,1005.4,380.1,1005.7z"/>
		<path fill="#F2F2F2" d="M400.3,983.6c2.2,0.5,5.4,1.4,8,3c2.5,1.5,3.9,3.3,4.3,5.4c0.5,2.7,2.5,5.1,6,7.3c4.7,2.9,10.7,4.5,13.5,5
			c1.2,0.2,2.4-0.1,3.1-0.7l0.1-0.1l0.4-0.2l24.8-16.1c0.7-0.4,0.9-1.1,0.6-1.7c-0.3-0.6-1.1-1.1-2.1-1.3c-1.7-0.3-6.8-1.5-10.7-3.8
			c-2.5-1.5-4-3.2-4.4-4.9c-0.6-2.8-2.6-5.2-6-7.2c-5.6-3.3-13-4.3-13.1-4.3c-1-0.1-2,0.1-2.7,0.6l0,0l-0.4,0.2l-44.3,27.4
			c2,0.2,3.7,0.8,5,1.7l17.1-10.6L400.3,983.6z M425,967.6l0.9,0.2c2.2,0.5,5.3,1.4,7.9,2.9c2.5,1.5,3.9,3.2,4.4,5.2
			c0.6,2.6,2.6,4.9,6.1,7c2,1.2,4.3,2.2,7,3.1l1.9,0.6l-21.2,13.7l-1-0.3c-1.9-0.5-5.4-1.6-8.3-3.4c-2.5-1.6-4-3.3-4.3-5.1
			c-0.6-2.9-2.6-5.4-5.9-7.5c-1.8-1.1-4.1-2.1-6.7-2.9l-1.9-0.6L425,967.6z"/>
		<path fill="#F2F2F2" d="M377.2,992.2l-0.3,0.2c-1,0.6-1.1,1.5-0.4,2.2l-1.1,0.9l0.5,0.3l0.5,0.3l1-0.8c0.4,0.1,0.8,0.1,1.2,0.1
			c0.8,0,1.5-0.2,2.1-0.5l1.5-0.9C381,993,379.2,992.4,377.2,992.2z"/>
	</g>
	<path fill="#F2F2F2" d="M505.4,709.8l-2.8-1.9c30.2-39.4,16-83.7-33.6-114.2l21.4-13.2l5.2,3l1.7-6.6l1.5-4.7l-18.9,2.3l5.9,3.4
		L464.4,591c-22-12.4-51.5-21.3-81.7-23.2c-29.9-1.8-72.4,6.7-98.9,15.8l-2.3-1.6l-3.5,1.8l-3.2,1.7l92.1,53.1l-113.2,68.1
		l40.9,24.1l44.3-28l-8.1-9.8l62.1-38.8l106.8,59.8l2.3-1.7L505.4,709.8z M374.6,640l78.2-47.5l15,9l-77.5,48 M284.2,588.2
		c26.8-9.2,71.8-17.9,100.4-15.9c24.1,1.6,46.3,8.8,65.4,16.5L369.8,637L284.2,588.2z M387.8,651.2L322.2,692l7.9,10l-34.9,22
		L263.9,707l108.2-65.4 M395.2,652.7l78.7-49.3c39.9,27.4,51.9,70.6,21,103.9L395.2,652.7z"/>
	<g>
		<path fill="#F2F2F2" d="M430.8,282.2l0.2,0.1l19.2-1.2c1-0.1,1.9-0.4,2.6-1c0.8-0.6,1.1-1.4,1-2.2l-2.2-20.4l5.7-4.3l11.3,5.9
			l9.2-7l-11.2-5.9l9.5-7.1l-10.6-5.5l-9.5,7.1l-10.7-5.6l-0.3-0.2l-9.2,6.8l11,4.6l-5.5,2.7l-31.9,2.1c-1,0.1-1.8,1.6-2.5,2.1
			c-0.8,0.6-1.1,1.9-1.1,2.7l0.9,12.6L430.8,282.2z M452,246.7l-11-5.5l4.2-2.9l11,5.8l9.6-7.1l4.8,2.5l-9.5,7.1l11.2,5.9l-4.1,3.1
			l-11.2-5.9l-8.9,6.7l2.3,22c-0.1,0.1-0.2,0.5-0.4,0.5l-17.9,1.1L410,267.7l-0.8-11.6c0.1-0.1,0.2-0.9,0.4-0.9l33.2-2.1L452,246.7z
			"/>
		<path fill="#F2F2F2" d="M391.1,276l30.2,16.9c1.6,0.9,3.6,1.8,5.7,1.7c2.1-0.1,4.1-0.8,5.5-1.9c1.5-1.1,2.2-2.6,2.1-4.1
			c-0.1-1.5-1.1-2.9-2.8-3.8l-30.2-16.7c-1.5-0.8-3.5-1.2-5.6-1.1c-2.1,0.1-4,0.8-5.4,1.8c-1.5,1.1-2.3,2.5-2.2,4
			C388.5,274.4,389.5,275.1,391.1,276z M393,270.8c0.8-0.6,2-1,3.2-1.1c1.3-0.1,2.4,0.2,3.3,0.6l30.2,16.7c0.9,0.5,1.4,1.1,1.4,1.8
			c0,0.7-0.1,0.7-0.8,1.3c-0.8,0.6-2.1,1.1-3.4,1.1c0,0-1,0-1,0c-1.3,0-1.7-0.7-2.6-1.2l-30.1-16.2c-0.8-0.5-1.3-0.8-1.3-1.4
			C391.8,271.7,392.2,271.3,393,270.8z"/>
		<path fill="#F2F2F2" d="M368.4,344.3c-0.1-1-0.8-2-1.9-2.6l-0.2-0.1l51.3-47.9l-25.5-14.3l-0.3-0.2l-63.2,39.8l-1-0.6
			c-1.9-1.2-5.1-1.1-7.3,0.2l-10.8,6.4c-1.3,0.8-2.1,1.9-2.2,3c-0.1,1.2,0.5,2.3,1.7,3.1l41.2,25.3c1.1,0.7,2.4,1,3.9,0.9l0.3,0
			c1.6-0.2,3-0.8,3.9-1.7l8.8-8.4C368.1,346.3,368.5,345.3,368.4,344.3z M352.5,354l-41.2-25.3c-0.2-0.1-0.5-0.4-0.5-0.8
			c0-0.3,0.3-0.7,0.7-0.9l10.8-6.4c0.4-0.2,0.9-0.4,1.4-0.4c0.6,0,1.2,0.1,1.6,0.3l3.1,1.9l63.4-40l20.7,11.6l-51.5,47.9l3.2,1.9
			c0.3,0.2,0.5,0.4,0.5,0.6c0,0.2-0.1,0.5-0.3,0.7l-8.8,8.4c-0.4,0.3-0.9,0.6-1.7,0.6C353.5,354.4,352.9,354.3,352.5,354z"/>
		<path fill="#F2F2F2" d="M470.1,298.3l-1,1c-25.1,25-52.3,40.4-83.2,47.1l-3.6,0.8l59.7,35.9l0.7,0.4l0.5-2.4
			c5-23.4,23.4-44.5,56.4-64.4l1.9-1.2l-31-17L470.1,298.3z M390.3,348.4c29.8-7.2,56.1-22.4,80.5-46.3l24.7,13.6
			c-31.5,19.4-49.6,39.9-55.4,62.6L390.3,348.4z"/>
		<path fill="#F2F2F2" d="M439.8,384l-57.6-34.7c-2.5-1.5-7.5-0.6-10.7,1.8l-7.6,5.8c-2.1,1.6-3.2,3.6-3.2,5.4
			c0.1,1.2,0.7,2.2,1.7,2.8l57.7,35.6c1.1,0.7,2.5,1,4.1,0.9c2.4-0.2,5-1.2,7-2.8l7.6-6.2c2-1.6,3.1-3.6,2.9-5.5
			C441.6,385.7,440.9,384.7,439.8,384z M438,387.2c0.1,0.9-0.7,2.2-1.9,3.2l-7.6,7.5c-1.3,1.1-3.1,3.2-4.6,3.2c0,0,0,0,0,0
			c-0.7,0-1.2-1.3-1.6-1.5l-57.7-36.1c-0.3-0.2-0.4-0.7-0.4-1c0-0.7,0.6-2.1,2-3.2l7.6-5.9c1.3-1,3.1-1.7,4.5-1.8
			c0.6,0,1.2,0,1.5,0.2l57.6,34.8C437.8,386.6,438,386.8,438,387.2z"/>
		<path fill="#F2F2F2" d="M537.8,286.5l-9,7.3l-1.5-0.8l9-7.3l-9-4.7l-9,7.2l-1.5-0.8l9-7.2l-8.9-4.7l-9,7.1l-1.5-0.8l9-7.1
			l-8.8-4.6l-9,7.1l-1.5-0.8l9-7l-12-6.4l-29.9,29.2l48.2,26.4l0.3,0.2l38.3-25.8L537.8,286.5z M499.7,269.7l-9,7.1l7.3,3.9l9-7.1
			l2.9,1.6l-9,7.1l7.4,3.9l9-7.2l3,1.6l-9,7.2l7.5,4l9-7.2l3,1.6l-9,7.3l7.5,4l9-7.3l5.8,3l-32.7,22l-43.2-23.6l25.5-24.9
			L499.7,269.7z"/>
		<path fill="#F2F2F2" d="M312.7,313.5c-0.1-1-0.6-1.9-1.7-2.5l-5.1-3.1c0.9-0.8,1.5-1.8,1.4-2.8c0-0.9-0.6-1.8-1.5-2.4l0.9-0.6
			l6.1,3.6l6.8-11.5c2.5,0.7,4.8,1.2,6.9,1.5l1,0.1l0.7-0.6c6.9-5.9,14.5-9.6,22.6-13.4c8.1-3.9,16.4-7.9,23.6-14.2
			c7.7-6.8,11.8-14.8,11.2-21.7c-0.5-5.6-3.8-10.4-9.8-14.2c-1-3.8-4-7.1-9-9.8l-1.3-0.7l-1,1c-1,1-1.8,2-2.6,2.9
			c-1.1,1.3-2.1,2.5-3.5,3.7c-1.2-0.2-2.6-0.6-4-1c-2.6-0.7-5-1.4-7.1-1.3c-0.4,0-0.8,0.1-1.3,0.2c-1.8,0.6-4.6,1.1-8.7,1.3
			c-3.2,0.2-6.7,0.3-10.2,0.4c-3.5,0.1-7.5,0.2-11.1,0.4c-1.1,0.1-2.3,0.2-3.5,0.3c-4.2,0.3-9,2.9-9.8,6.7c-0.6,3,0.8,7.2,5,9.6
			c0.4,0.2,0.8,0.4,1.2,0.6c2.2,0.9,5,0.9,7.7,0.8c2.8-0.1,5.6-0.2,7.7,0.8c2.3,1.1,3.2,2.3,4.3,3.8c0.7,1,1.5,2.1,2.8,3.2
			c-17.7,1.2-36,2.7-54.8,17.2l-0.9,0.8c-3,2.7-5.2,4.6-5,6.6c0.1,1,0.7,1.8,2,2.6l0.4,0.2l-0.9,0.6l-0.3-0.2
			c-1.9-1.1-5.2-0.9-7.2,0.4l-0.2,0.1l-3.3-2c-0.9-0.6-2.2-0.8-3.6-0.7c-1.3,0.1-2.5,0.5-3.4,1.1l-10.7,4.8l-0.3,0.1
			c-1.2,0.8-1.8,1.9-1.8,2.9c0,0.9,0.6,1.8,1.5,2.4l54.3,33.5c1,0.6,2.3,0.9,3.7,0.8c1.4-0.1,2.7-0.5,3.7-1.3l6.5-8.1
			C312.2,315.6,312.7,314.5,312.7,313.5z M256,283.4l0.3-0.2c0.4-0.3,0.9-0.4,1.4-0.5c0.5,0,1,0.1,1.3,0.3l5.4,3.3l2.5-1.7
			c0.7-0.5,2.1-0.6,2.7-0.2l3.2,1.9l1-1.5c0.1-0.1,0.2-0.2,0.4-0.3l2.2-1.5c0.1-0.1,0.2-0.1,0.3-0.2l2.2-1.1l-4-2.4
			c-0.5-0.3-0.8-0.6-0.8-0.8c-0.1-0.8,2-2.6,4.1-4.5l0.8-0.7c18.1-14,35.4-15.2,53.6-16.4l11.5-0.8l-6.7-2c-1-0.3-1.9-0.7-2.6-1.1
			c-1.6-0.9-2.3-2-3.2-3.2c-1.1-1.5-2.3-3.3-5.3-4.7c-2.9-1.3-6.4-1.2-9.5-1.1c-2.4,0.1-4.6,0.1-6-0.5c-0.3-0.1-0.6-0.3-0.9-0.5
			c-3.2-1.8-4.2-4.7-3.8-7c0.5-2.5,3.8-4.2,6.7-4.2c0,0,0,0,0,0c4.3-1,9.3-0.7,14.2-0.8c3.8-0.1,7.3-0.3,10.5-0.5
			c4.5-0.3,7.6-0.8,9.6-1.6c1.1-0.3,3.7,0.5,5.9,1.1c1.8,0.5,3.7,1,5.5,1.3l0.9,0.1l0.7-0.5c2.1-1.6,3.4-3.3,4.6-4.7
			c0.4-0.5,0.9-1.1,1.4-1.7c3.8,2.3,5.9,4.9,6.5,7.9l0.1,0.5l0.5,0.3c5.6,3.4,8.6,7.7,9,12.7c0.5,6.3-3.2,13.5-10.4,19.8
			c-6.8,6-14.9,9.9-22.8,13.7c-7.6,3.7-15.6,7.5-22.6,13.3c-2.1-0.3-4.4-0.9-6.9-1.6l-2.5-0.7l0,1.8l-5.4,9.1l-5.2-3.1l-1.1,1.2
			c-0.1,0.1-0.1,0.1-0.2,0.2l-2.2,1.6c-0.2,0.1-0.3,0.2-0.6,0.3l-2.8,1l3.9,2.4c0.1,0.1,0.4,0.3,0.4,0.5c0,0.2-0.2,0.5-0.5,0.7
			l-2.9,2.1l8.3,5c0.1,0.1,0.4,0.3,0.4,0.5c0,0.2-0.2,0.5-0.5,0.7l-6.5,8c-0.4,0.2-0.8,0.3-1.3,0.4c-0.5,0-1-0.1-1.4-0.3l-54.3-33.4
			c-0.1-0.1-0.3-0.2-0.3-0.4c0-0.2,0.2-0.5,0.3-0.6L256,283.4z"/>
	</g>
</g>
</svg>
