<?xml version="1.0" encoding="utf-8"?>
<!-- Generator: Adobe Illustrator 18.1.0, SVG Export Plug-In . SVG Version: 6.00 Build 0)  -->
<svg version="1.1" id="Calque_1" xmlns="http://www.w3.org/2000/svg" xmlns:xlink="http://www.w3.org/1999/xlink" x="0px" y="0px"
	 viewBox="210.5 21.7 174.3 250.9" enable-background="new 210.5 21.7 174.3 250.9" xml:space="preserve">
<g>
	<g id="third">
		<polygon fill="#7F0401" points="384.8,223.1 297.7,272.6 210.5,223.4 210.5,221.4 297.7,182.2 384.8,221.5 		"/>
		<polygon fill="#C82B2D" points="384.8,221.5 297.7,270.4 210.5,221.5 297.7,176.8 		"/>
		<path fill="#F2F2F2" d="M317,208.4c-11.1-6.2-28.1-6.2-39.3,0c-3.7,2.1-6.6,4.6-8.3,7.4c0,0,0.1,0,0.2,0c-0.1,0-0.1,0-0.2,0
			c-0.2,0.4-0.5,0.8-0.7,1.2c-3.1,6.1-1.6,13.1,5.5,18.5c0.1,0.1,0.2,0.1,0.3,0.2l0,0c0.4,0.3,0.7,0.5,1.1,0.8l0,0
			c2.9,1.9,6.3,3.3,9.9,4.3c0.5,0.1,1.1,0.3,1.6,0.4l0.1-1.2l0.1-1.2c0,0,0-0.1,0-0.1l4.4-7.1c0.2-0.3,0.2-0.5,0.1-0.8l-1.8-5.6
			c0-0.1,0-0.2,0.1-0.3l4.2-3.8c0.3-0.3,0.4-0.7,0.3-1l-0.6-1.6c-0.1-0.2-0.2-0.4-0.4-0.5c0,0,0,0,0.1-0.1l3.7-2.3l0.2,0.1
			c0.5,0.1,1.2,0.3,1.8,0.7c0.5,0.3,0.9,0.7,0.9,1.2c0.1,0.6,0.5,1.1,1.3,1.6c1,0.6,2.3,1,3,1.1c0.3,0,0.5,0,0.7-0.2l0,0l0.1,0
			l5.4-3.5c0.2-0.1,0.2-0.2,0.1-0.4c-0.1-0.1-0.2-0.2-0.5-0.3c-0.4-0.1-1.5-0.3-2.3-0.8c-0.5-0.3-0.9-0.7-1-1.1
			c-0.1-0.6-0.6-1.1-1.3-1.6c-1.2-0.7-2.9-0.9-2.9-0.9c-0.2,0-0.4,0-0.6,0.1l-0.1,0l-9.7,6c-0.1,0-0.1,0.1-0.2,0.1c0,0,0,0,0,0
			l0.1,0c-0.2,0-0.3,0-0.5,0l-10.4,0.6c-0.1,0-0.2,0-0.3,0l-6.3-0.1c-0.4-0.1-1.9-0.7-3-1.2c-0.7-0.3-1.2-0.5-1.6-0.7c0,0,0,0,0-0.1
			c1.7-2.7,4.3-5.2,8-7.3c10.7-5.9,26.9-5.9,37.5,0c11.4,6.4,13.3,17.9,2.7,25.8c-8.1,6-20.6,7.8-31.5,5.2l-0.1,1.2
			c11.4,2.6,24.4,0.6,32.8-5.7C331.2,227.2,329.1,215.1,317,208.4z M303.1,212.1l0.2,0c0.5,0.1,1.2,0.3,1.7,0.6
			c0.5,0.3,0.9,0.7,1,1.1c0.1,0.6,0.6,1.1,1.3,1.5c0.4,0.3,0.9,0.5,1.5,0.7l0.4,0.1l-4.6,3l-0.2-0.1c-0.4-0.1-1.2-0.4-1.8-0.7
			c-0.5-0.4-0.9-0.7-0.9-1.1c-0.1-0.6-0.6-1.2-1.3-1.6c-0.4-0.2-0.9-0.5-1.5-0.6l-0.4-0.1L303.1,212.1z M289,224.3
			c-0.3,0.3-0.5,0.7-0.4,1l1.7,5.6c0,0.1,0,0.2,0,0.2l-4.5,7.1c-0.1,0.2-0.2,0.4-0.2,0.5l-0.1,0.8c-3.1-0.9-6.1-2.1-8.6-3.7l2-0.9
			c0.7-0.4,1.1-0.9,1.1-1.4l-0.5-4.4c0-0.2,0.2-0.3,0.4-0.4l2.7-0.6c0.5-0.1,0.9-0.4,1.2-0.7l4.6-5.8c0.1-0.1,0.2-0.2,0.4-0.2
			l3.6-0.3L289,224.3z M271.4,217.6c2.9,1.2,3.3,1.4,3.7,1.3l6.5,0.1l0.1,0c0,0,0.1,0,0.1,0l10.4-0.6c0.1,0,0.1,0,0.2,0l-0.1-0.1
			l-0.1-0.1c0.1,0,0.2,0.2,0.2,0.2c0.2,0,0.3,0.1,0.3,0.2l0.5,1.4l0,0l-4.4,0.4c-0.7,0.1-1.2,0.3-1.5,0.7l-4.6,5.7
			c-0.1,0.1-0.2,0.2-0.3,0.2l-2.7,0.6c-0.9,0.2-1.6,0.8-1.5,1.5l0.5,4.5c0,0.1-0.1,0.3-0.3,0.4l-2.3,1.1c0,0,0,0,0,0l0,0
			c-0.2-0.1-0.4-0.2-0.5-0.4c-6.8-5.1-8.3-11.8-5.4-17.5C270.6,217.3,271,217.5,271.4,217.6z"/>
	</g>
	<g id="second">
		<polygon fill="#7F0401" points="384.8,143.2 297.7,193.2 210.5,143.5 210.5,141.5 297.7,102.2 384.8,141.6 		"/>
		<polygon fill="#C82B2D" points="384.8,141.6 297.7,191.3 210.5,141.6 297.7,98.6 		"/>
		<path fill="#F2F2F2" d="M320.7,155.6l-0.6-0.4c6.6-8.6,3.5-18.4-7.4-25l4.7-2.9l1.1,0.7l0.4-1.4l0.3-1l-4.1,0.5l1.3,0.7l-4.7,2.9
			c-4.8-2.7-11.3-4.7-17.9-5.1c-6.6-0.4-15.9,1.5-21.7,3.5l-0.5-0.4l-0.8,0.4l-0.7,0.4l20.2,11.6l-24.8,14.9l9,5.3l9.7-6.1l-1.8-2.1
			l13.6-8.5l23.4,13.1l0.5-0.4L320.7,155.6z M292.1,140.3l17.1-10.4l3.3,2l-17,10.5L292.1,140.3z M272.3,129c5.9-2,15.7-3.9,22-3.5
			c5.3,0.4,10.2,1.9,14.3,3.6L291,139.7L272.3,129z M295,142.8l-14.4,8.9l1.7,2.2l-7.7,4.8l-6.9-3.7l23.7-14.3L295,142.8z
			 M296.6,143.1l17.3-10.8c8.7,6,11.4,15.5,4.6,22.8L296.6,143.1z"/>
	</g>
	<g id="first">
		<polygon fill="#7F0401" points="384.8,66.2 297.7,117.3 211.3,66.6 211.3,64.7 297.7,23.7 384.8,64.2 		"/>
		<polygon fill="#C82B2D" points="384.8,64.2 297.7,115.3 211.3,64.7 297.7,21.7 		"/>
		<path fill="#F2F2F2" d="M306.4,84.2l-12.6-7.6c-0.5-0.3-1.6-0.1-2.3,0.4l-1.7,1.3c-0.5,0.4-0.7,0.8-0.7,1.2c0,0.3,0.2,0.5,0.4,0.6
			l12.7,7.8c0.2,0.2,0.5,0.2,0.9,0.2c0.5,0,1.1-0.3,1.5-0.6l1.7-1.4c0.4-0.4,0.7-0.8,0.6-1.2C306.8,84.6,306.6,84.3,306.4,84.2z
			 M306,84.9c0,0.2-0.2,0.5-0.4,0.7l-1.7,1.6c-0.3,0.2-0.7,0.7-1,0.7l0,0c-0.2,0-0.3-0.3-0.4-0.3l-12.7-7.9c-0.1,0-0.1-0.2-0.1-0.2
			c0-0.2,0.1-0.5,0.4-0.7l1.7-1.3c0.3-0.2,0.7-0.4,1-0.4c0.1,0,0.3,0,0.3,0l12.6,7.6C305.9,84.8,306,84.8,306,84.9z"/>
		<path fill="#F2F2F2" d="M304.4,61.9L304.4,61.9l4.3-0.2c0.2,0,0.4-0.1,0.6-0.2c0.2-0.1,0.2-0.3,0.2-0.5l-0.5-4.5l1.2-0.9l2.5,1.3
			l2-1.5l-2.5-1.3l2.1-1.6l-2.3-1.2l-2.1,1.6l-2.3-1.2l-0.1,0l-2,1.5l2.4,1l-1.2,0.6l-7,0.5c-0.2,0-0.4,0.4-0.5,0.5
			c-0.2,0.1-0.2,0.4-0.2,0.6l0.2,2.8L304.4,61.9z M309,54.1l-2.4-1.2l0.9-0.6l2.4,1.3l2.1-1.6l1.1,0.5l-2.1,1.6l2.5,1.3l-0.9,0.7
			l-2.5-1.3l-2,1.5l0.5,4.8c0,0,0,0.1-0.1,0.1l-3.9,0.2l-4.8-2.7l-0.2-2.5c0,0,0-0.2,0.1-0.2l7.3-0.5L309,54.1z"/>
		<path fill="#F2F2F2" d="M295.7,60.5l6.6,3.7c0.4,0.2,0.8,0.4,1.2,0.4c0.5,0,0.9-0.2,1.2-0.4c0.3-0.2,0.5-0.6,0.5-0.9
			c0-0.3-0.2-0.6-0.6-0.8l-6.6-3.7c-0.3-0.2-0.8-0.3-1.2-0.2c-0.5,0-0.9,0.2-1.2,0.4c-0.3,0.2-0.5,0.5-0.5,0.9
			C295.1,60.2,295.3,60.3,295.7,60.5z M296.1,59.4c0.2-0.1,0.4-0.2,0.7-0.2c0.3,0,0.5,0,0.7,0.1l6.6,3.7c0.2,0.1,0.3,0.2,0.3,0.4
			c0,0.2,0,0.2-0.2,0.3c-0.2,0.1-0.5,0.2-0.7,0.2h-0.2c-0.3,0-0.4-0.2-0.6-0.3l-6.6-3.6c-0.2-0.1-0.3-0.2-0.3-0.3
			C295.8,59.6,295.9,59.5,296.1,59.4z"/>
		<path fill="#F2F2F2" d="M290.7,75.5c0-0.2-0.2-0.4-0.4-0.6l0,0l11.2-10.5l-5.6-3.1l-0.1,0L282,69.9l-0.2-0.1
			c-0.4-0.3-1.1-0.2-1.6,0l-2.4,1.4c-0.3,0.2-0.5,0.4-0.5,0.7c0,0.3,0.1,0.5,0.4,0.7l9,5.5c0.2,0.2,0.5,0.2,0.9,0.2h0.1
			c0.4,0,0.7-0.2,0.9-0.4l1.9-1.8C290.6,75.9,290.7,75.7,290.7,75.5z M287.2,77.6l-9-5.5c0,0-0.1-0.1-0.1-0.2c0-0.1,0.1-0.2,0.2-0.2
			l2.4-1.4c0.1,0,0.2-0.1,0.3-0.1c0.1,0,0.3,0,0.4,0.1l0.7,0.4l13.9-8.8l4.5,2.5L289.1,75l0.7,0.4c0.1,0,0.1,0.1,0.1,0.1
			c0,0,0,0.1-0.1,0.2l-1.9,1.8c-0.1,0.1-0.2,0.1-0.4,0.1C287.4,77.7,287.3,77.7,287.2,77.6z"/>
		<path fill="#F2F2F2" d="M313,65.4l-0.2,0.2c-5.5,5.5-11.5,8.9-18.2,10.3l-0.8,0.2l13.1,7.9l0.2,0.1l0.1-0.5
			c1.1-5.1,5.1-9.8,12.4-14.1l0.4-0.3L313,65.4L313,65.4z M295.5,76.4c6.5-1.6,12.3-4.9,17.6-10.2l5.4,3
			c-6.9,4.3-10.9,8.7-12.1,13.7L295.5,76.4z"/>
		<path fill="#F2F2F2" d="M327.9,62.8l-2,1.6l-0.3-0.2l2-1.6l-2-1l-2,1.6l-0.3-0.2l2-1.6l-2-1l-2,1.6l-0.3-0.2l2-1.6l-1.9-1l-2,1.6
			l-0.3-0.2l2-1.5l-2.6-1.4l-6.6,6.4l10.6,5.8l0.1,0l8.4-5.7L327.9,62.8z M319.5,59.1l-2,1.6l1.6,0.9l2-1.6l0.6,0.4l-2,1.6l1.6,0.9
			l2-1.6l0.7,0.4l-2,1.6l1.6,0.9l2-1.6l0.7,0.4l-2,1.6l1.6,0.9l2-1.6l1.3,0.7l-7.2,4.8l-9.5-5.2l5.6-5.5L319.5,59.1z"/>
		<path fill="#F2F2F2" d="M278.5,68.7c0-0.2-0.1-0.4-0.4-0.5l-1.1-0.7c0.2-0.2,0.3-0.4,0.3-0.6c0-0.2-0.1-0.4-0.3-0.5l0.2-0.1
			l1.3,0.8l1.5-2.5c0.5,0.2,1.1,0.3,1.5,0.3l0.2,0l0.2-0.1c1.5-1.3,3.2-2.1,5-2.9c1.8-0.9,3.6-1.7,5.2-3.1c1.7-1.5,2.6-3.2,2.5-4.8
			c-0.1-1.2-0.8-2.3-2.1-3.1c-0.2-0.8-0.9-1.6-2-2.1l-0.3-0.2l-0.2,0.2c-0.2,0.2-0.4,0.4-0.6,0.6c-0.2,0.3-0.5,0.5-0.8,0.8
			c-0.3,0-0.6-0.1-0.9-0.2c-0.6-0.2-1.1-0.3-1.6-0.3c-0.1,0-0.2,0-0.3,0c-0.4,0.1-1,0.2-1.9,0.3c-0.7,0-1.5,0.1-2.2,0.1
			c-0.8,0-1.6,0-2.4,0.1c-0.2,0-0.5,0-0.8,0.1c-0.9,0.1-2,0.6-2.1,1.5c-0.1,0.7,0.2,1.6,1.1,2.1c0.1,0,0.2,0.1,0.3,0.1
			c0.5,0.2,1.1,0.2,1.7,0.2c0.6,0,1.2,0,1.7,0.2c0.5,0.2,0.7,0.5,0.9,0.8c0.2,0.2,0.3,0.5,0.6,0.7c-3.9,0.3-7.9,0.6-12,3.8l-0.2,0.2
			c-0.7,0.6-1.1,1-1.1,1.4c0,0.2,0.2,0.4,0.4,0.6l0.1,0l-0.2,0.1l-0.1,0c-0.4-0.2-1.1-0.2-1.6,0.1l0,0l-0.7-0.4
			c-0.2-0.1-0.5-0.2-0.8-0.2c-0.3,0-0.5,0.1-0.7,0.2l-2.3,1.1l-0.1,0c-0.3,0.2-0.4,0.4-0.4,0.6c0,0.2,0.1,0.4,0.3,0.5l11.9,7.3
			c0.2,0.1,0.5,0.2,0.8,0.2c0.3,0,0.6-0.1,0.8-0.3l1.4-1.8C278.4,69.2,278.5,69,278.5,68.7z M266.1,62.1L266.1,62.1
			c0.2-0.1,0.3-0.1,0.4-0.2c0.1,0,0.2,0,0.3,0.1l1.2,0.7l0.5-0.4c0.2-0.1,0.5-0.1,0.6,0l0.7,0.4l0.2-0.3c0,0,0,0,0.1-0.1l0.5-0.3
			c0,0,0,0,0.1,0l0.5-0.2l-0.9-0.5c-0.1-0.1-0.2-0.1-0.2-0.2c0-0.2,0.4-0.6,0.9-1l0.2-0.2c4-3.1,7.8-3.3,11.8-3.6l2.5-0.2l-1.5-0.4
			c-0.2-0.1-0.4-0.2-0.6-0.2c-0.4-0.2-0.5-0.4-0.7-0.7c-0.2-0.3-0.5-0.7-1.2-1c-0.6-0.3-1.4-0.3-2.1-0.2c-0.5,0-1,0-1.3-0.1
			c-0.1,0-0.1-0.1-0.2-0.1c-0.7-0.4-0.9-1-0.8-1.5c0.1-0.5,0.8-0.9,1.5-0.9l0,0c0.9-0.2,2-0.2,3.1-0.2c0.8,0,1.6-0.1,2.3-0.1
			c1-0.1,1.7-0.2,2.1-0.4c0.2-0.1,0.8,0.1,1.3,0.2c0.4,0.1,0.8,0.2,1.2,0.3l0.2,0l0.2-0.1c0.5-0.4,0.7-0.7,1-1
			c0.1-0.1,0.2-0.2,0.3-0.4c0.8,0.5,1.3,1.1,1.4,1.7l0,0.1l0.1,0.1c1.2,0.7,1.9,1.7,2,2.8c0.1,1.4-0.7,3-2.3,4.3
			c-1.5,1.3-3.3,2.2-5,3c-1.7,0.8-3.4,1.6-5,2.9c-0.5-0.1-1-0.2-1.5-0.4l-0.5-0.2v0.4l-1.2,2l-1.1-0.7l-0.2,0.3c0,0,0,0,0,0
			l-0.5,0.4c0,0-0.1,0-0.1,0.1l-0.6,0.2l0.9,0.5c0,0,0.1,0.1,0.1,0.1c0,0,0,0.1-0.1,0.2l-0.6,0.5l1.8,1.1c0,0,0.1,0.1,0.1,0.1
			c0,0,0,0.1-0.1,0.2l-1.4,1.8c-0.1,0-0.2,0.1-0.3,0.1c-0.1,0-0.2,0-0.3-0.1l-11.9-7.3c0,0-0.1,0-0.1-0.1c0,0,0-0.1,0.1-0.1
			L266.1,62.1z"/>
	</g>
</g>
</svg>
