<?xml version="1.0" encoding="utf-8"?>
<!-- Generator: Adobe Illustrator 18.1.0, SVG Export Plug-In . SVG Version: 6.00 Build 0)  -->
<svg version="1.1" id="Calque_1" xmlns="http://www.w3.org/2000/svg" xmlns:xlink="http://www.w3.org/1999/xlink" x="0px" y="0px"
	 viewBox="0 0 529.5 859" style="enable-background:new 0 0 529.5 859;" xml:space="preserve">
<g>
	<defs>
		<rect id="SVGID_3_" x="0" y="0" width="529.5" height="859"/>
	</defs>
	<clipPath id="SVGID_1_">
		<use xlink:href="#SVGID_3_"  style="overflow:visible;"/>
	</clipPath>
	<path style="clip-path:url(#SVGID_1_);fill:#FFFFFF;" d="M499.8,586.7C318.5,394.9,138.4,204.4-41.6,14c-0.5,0.3-1,0.7-1.5,1
		C-24.9,46.2-6,77,12.6,107.9c18.6,31,37.3,62,55.9,93c18.8,31.2,37.6,62.5,56.4,93.7c18.8,31.2,37.6,62.5,56.3,93.7
		c18.6,31,37.3,62,56,93c18.7,31.1,37.4,62.3,57.1,95c-182.7,0.4-363.4,0.7-544.6,1.1c-22.6,62.3-44.9,123.8-67.8,187.1
		C-44.9,705.1,226.5,646.1,499.8,586.7z"/>
</g>
</svg>
