<?xml version="1.0" encoding="utf-8"?>
<!-- Generator: Adobe Illustrator 18.1.0, SVG Export Plug-In . SVG Version: 6.00 Build 0)  -->
<svg version="1.1" id="Calque_1" xmlns="http://www.w3.org/2000/svg" xmlns:xlink="http://www.w3.org/1999/xlink" x="0px" y="0px"
	 viewBox="0 0 610 664" style="enable-background:new 0 0 610 664;" xml:space="preserve">
<g>
	<defs>
		<rect id="SVGID_3_" x="0" width="610" height="664"/>
	</defs>
	<clipPath id="SVGID_1_">
		<use xlink:href="#SVGID_3_"  style="overflow:visible;"/>
	</clipPath>
	<path style="clip-path:url(#SVGID_1_);fill:#BB292B;" d="M10.4,440.9C157.3,285.6,303.2,131.3,449-23c0.4,0.3,0.8,0.6,1.2,0.8
		C435.5,3.1,420.2,28,405.1,53.1c-15.1,25.1-30.2,50.2-45.3,75.3c-15.2,25.3-30.5,50.6-45.7,75.9c-15.2,25.3-30.4,50.6-45.6,75.9
		c-15.1,25.1-30.2,50.2-45.3,75.3c-15.2,25.2-30.3,50.5-46.2,77c148,0.3,294.4,0.6,441.1,0.9c18.3,50.4,36.3,100.3,54.9,151.6
		C451.6,536.8,231.9,489,10.4,440.9z"/>
</g>
</svg>
