<?xml version="1.0" encoding="utf-8"?>
<!-- Generator: Adobe Illustrator 18.1.0, SVG Export Plug-In . SVG Version: 6.00 Build 0)  -->
<svg version="1.1" id="Calque_1" xmlns="http://www.w3.org/2000/svg" xmlns:xlink="http://www.w3.org/1999/xlink" x="0px" y="0px"
	 viewBox="0 0 328 145.5" style="enable-background:new 0 0 328 145.5;" xml:space="preserve">
<g>
	<g>
		<path style="fill:#FFFFFF;" d="M224,72.8c23.1-24.4,46-48.6,68.9-72.8c0.1,0,0.1,0.1,0.2,0.1c-2.3,4-4.7,7.9-7.1,11.8
			c-2.4,3.9-4.7,7.9-7.1,11.8c-2.4,4-4.8,7.9-7.2,11.9c-2.4,4-4.8,7.9-7.2,11.9c-2.4,3.9-4.7,7.9-7.1,11.8c-2.4,4-4.8,7.9-7.3,12.1
			c23.2,0,46.2,0.1,69.3,0.1c2.9,7.9,5.7,15.7,8.6,23.8C293.3,87.9,258.8,80.4,224,72.8z"/>
		<path style="fill:#FFFFFF;" d="M212.8,106.8c0.5,0,0.9,0,1.3,0c2.9,0,5.7,0,8.6,0c0.9,0,1.4,0.2,1.9,1c4.6,6.4,9.3,12.7,13.9,19.1
			c0.3,0.4,0.7,0.9,1.1,1.5c0.4-0.5,0.6-0.8,0.9-1.2c4.7-6.5,9.5-12.9,14.2-19.4c0.5-0.7,1-1,1.8-0.9c2.9,0.1,5.7,0,8.6,0
			c0.4,0,0.8,0,1.2,0c0,12.6,0,25.2,0,37.7c-0.8,0.3-6.1,0.3-7.2,0c0-0.3-0.1-0.7-0.1-1c0-7.5,0-15-0.1-22.5c0-2.2-0.1-4.4-0.1-6.6
			c0-0.2,0-0.3-0.1-0.5c-0.1,0-0.1,0-0.1-0.1c0,0-0.1,0-0.1,0c-0.1,0-0.1,0.1-0.2,0.1c0,0.1-0.1,0.1-0.1,0.2
			c-0.1,0.1-0.2,0.2-0.3,0.3c-6.1,8.1-12.1,16.2-18.2,24.3c0,0.1-0.1,0.1-0.1,0.2c0,0-0.1,0-0.2,0.1c-6.3-8.6-12.7-17.2-19-25.8
			c-0.1,0-0.2,0.1-0.2,0.1c-0.2,2.1-0.1,4.1-0.1,6.2c0,2.1,0,4.1,0,6.2c0,2.1,0,4.2,0,6.3c0,2.1,0,4.1,0,6.2c0,2.1,0,4.2,0,6.2
			c-0.9,0.3-6.2,0.3-7.3,0.1C212.8,132,212.8,119.5,212.8,106.8z"/>
	</g>
	<path style="fill:#FFFFFF;" d="M52.9,144.5c-0.2-1.5-0.1-36.8,0.1-37.7c0.3,0,0.7,0,1,0c9.9,0,19.8,0,29.7,0c2,0,4,0.2,5.8,1
		c4.5,1.7,7,5,7.4,9.8c0.1,1.4,0,2.8-0.2,4.2c-0.6,3.5-2.7,5.9-5.9,7.4c-1,0.4-2,0.7-3.2,1.2c1.7,2.4,3.4,4.7,5.1,7.1
		c1.7,2.3,3.3,4.6,5.1,7.1c-0.4,0.1-0.6,0.1-0.9,0.1c-2.2,0-4.4,0-6.6,0c-0.7,0-1-0.2-1.4-0.8c-2.9-4-5.7-8-8.6-12
		c-0.2-0.2-0.3-0.4-0.5-0.7c-0.2-0.4-0.6-0.5-1.1-0.5c-0.8,0-1.6,0-2.3,0c-4.9,0-9.8,0-14.8,0c-0.4,0-0.8,0-1.2,0
		c-0.2,1.2-0.1,2.3-0.1,3.4c0,1.2,0,2.3,0,3.5c0,1.1,0,2.3,0,3.4c0,1.1,0,2.3,0,3.3C59.3,144.7,54,144.8,52.9,144.5z M60.2,124.2
		c0.5,0,0.9,0,1.3,0c1.9,0,3.9,0,5.8,0c5,0,10,0,15,0c1.4,0,2.8-0.1,4.1-0.6c0.9-0.4,1.7-0.9,2.3-1.8c1.8-2.9,0.4-6.7-2.8-7.8
		c-1.3-0.4-2.6-0.5-3.9-0.5c-6.9,0-13.8,0-20.7,0c-0.4,0-0.7,0.1-1.1,0.1C60.2,117.1,60.2,120.6,60.2,124.2z"/>
	<path style="fill:#FFFFFF;" d="M200.5,111.4c-1.6,1.6-3,3.1-4.5,4.7c-0.4-0.2-0.7-0.3-1-0.4c-5.9-2.8-12.1-3.8-18.6-3.3
		c-1.8,0.1-3.5,0.4-5.2,0.7c-1.1,0.2-2.2,0.7-3.1,1.4c-1.1,0.9-1.4,2.1-1,3.2c0.3,0.8,0.9,1.3,1.6,1.6c1.1,0.6,2.4,0.9,3.7,1
		c4.8,0.4,9.7,0.8,14.5,1.3c3,0.3,5.9,0.8,8.7,1.9c1.2,0.5,2.5,1.1,3.6,1.8c2.1,1.4,3.2,3.5,3.4,6c0.5,4.7-1.3,8.3-5.4,10.8
		c-2.5,1.5-5.2,2.3-8,2.7c-7.3,1-14.5,0.8-21.7-1.2c-3.3-0.9-6.4-2.4-9.3-4.4c-0.1-0.1-0.3-0.2-0.5-0.4c0.6-0.9,1.3-1.7,1.9-2.5
		c0.6-0.8,1.3-1.7,2-2.6c0.3,0.2,0.6,0.3,0.9,0.5c4.1,2.6,8.5,4,13.2,4.6c3.6,0.4,7.1,0.5,10.7,0c1.8-0.2,3.5-0.6,5.1-1.5
		c0.8-0.5,1.7-1,2.3-1.7c1.6-1.7,1.3-4.1-0.6-5.5c-1.2-0.9-2.6-1.4-4.1-1.6c-1.8-0.3-3.6-0.5-5.4-0.6c-3.1-0.2-6.3-0.3-9.4-0.5
		c-2.6-0.2-5.2-0.5-7.6-1.3c-1.1-0.4-2.3-0.8-3.3-1.4c-3.1-1.7-4.3-4.5-4.1-8c0.2-3,1.7-5.3,4.2-7.1c2.1-1.5,4.5-2.4,7.1-3
		c4.4-1,8.9-1.1,13.4-0.7c3.4,0.2,6.7,0.9,10,2C196.1,108.8,198.3,109.9,200.5,111.4z"/>
	<path style="fill:#FFFFFF;" d="M7.5,130.7c-0.1,1.6-0.1,3.1-0.1,4.6c0,1.5,0,3,0,4.6c0,1.5,0,3,0,4.5c-0.9,0.3-6.2,0.3-7.2,0.1
		c-0.2-1-0.2-36.8,0.1-37.7c0.4,0,0.7,0,1.1,0c9.8,0,19.6,0,29.4,0c1.7,0,3.3,0.2,4.9,0.6c5.1,1.4,8.3,5.4,8.5,10.7
		c0.1,1.5-0.1,3-0.5,4.4c-1,3.6-3.4,5.8-6.8,7.1c-2.1,0.8-4.4,1.1-6.7,1.1c-2.3,0-4.5,0-6.8,0c-4.9,0-9.8,0-14.7,0
		C8.4,130.7,8,130.7,7.5,130.7z M7.4,124.1c0.5,0,0.8,0.1,1.1,0.1c0.8,0,1.6,0,2.4,0c6.2,0,12.4,0,18.6,0c1.2,0,2.5-0.2,3.7-0.5
		c1.1-0.2,2.1-0.9,2.7-1.9c1.9-2.9,0.5-6.8-2.7-7.9c-1.3-0.4-2.6-0.5-4-0.5c-6.8,0-13.7,0-20.5,0c-0.4,0-0.8,0-1.3,0.1
		C7.4,117.1,7.4,120.6,7.4,124.1z"/>
	<path style="fill:#FFFFFF;" d="M132,144.6c-2.5,0-4.8,0-7.3,0c0-0.4-0.1-0.8-0.1-1.2c0-4.1,0-8.2,0-12.3c0-1-0.3-1.6-0.9-2.3
		c-6.6-7-13.2-13.9-19.8-20.9c-0.3-0.3-0.5-0.6-0.9-1c0.4,0,0.6-0.1,0.9-0.1c2.3,0,4.6,0,6.9,0c0.7,0,1.2,0.2,1.7,0.8
		c4.9,5.2,9.8,10.3,14.7,15.5c0.3,0.3,0.6,0.7,1,1.1c0.4-0.4,0.7-0.6,0.9-0.9c4.9-5.2,9.8-10.3,14.6-15.5c0.6-0.6,1.1-0.8,1.9-0.8
		c2.5,0,5,0,7.7,0c-0.3,0.4-0.5,0.6-0.7,0.9c-6.6,7-13.1,13.9-19.7,20.8c-0.8,0.9-1.2,1.8-1.2,3c0.1,3.9,0,7.9,0,11.8
		C132,143.7,132,144.1,132,144.6z"/>
</g>
</svg>
