<?xml version="1.0" encoding="utf-8"?>
<!-- Generator: Adobe Illustrator 18.1.0, SVG Export Plug-In . SVG Version: 6.00 Build 0)  -->
<svg version="1.1" id="Calque_1" xmlns="http://www.w3.org/2000/svg" xmlns:xlink="http://www.w3.org/1999/xlink" x="0px" y="0px"
	 viewBox="0 0 132.7 58.8" style="enable-background:new 0 0 132.7 58.8;" xml:space="preserve">
<g>
	<g>
		<path style="fill:#C92C2D;" d="M90.6,29.5c9.3-9.9,18.6-19.7,27.8-29.5c0,0,0.1,0,0.1,0.1c-0.9,1.6-1.9,3.2-2.9,4.8
			c-1,1.6-1.9,3.2-2.9,4.8c-1,1.6-1.9,3.2-2.9,4.8c-1,1.6-1.9,3.2-2.9,4.8c-1,1.6-1.9,3.2-2.9,4.8c-1,1.6-1.9,3.2-2.9,4.9
			c9.4,0,18.7,0,28,0.1c1.2,3.2,2.3,6.4,3.5,9.6C118.6,35.5,104.7,32.5,90.6,29.5z"/>
		<path style="fill:#C92C2D;" d="M86,43.2c0.2,0,0.4,0,0.5,0c1.2,0,2.3,0,3.5,0c0.4,0,0.6,0.1,0.8,0.4c1.9,2.6,3.7,5.1,5.6,7.7
			c0.1,0.2,0.3,0.4,0.4,0.6c0.1-0.2,0.3-0.3,0.4-0.5c1.9-2.6,3.8-5.2,5.7-7.8c0.2-0.3,0.4-0.4,0.7-0.4c1.2,0,2.3,0,3.5,0
			c0.2,0,0.3,0,0.5,0c0,5.1,0,10.2,0,15.2c-0.3,0.1-2.5,0.1-2.9,0c0-0.1,0-0.3,0-0.4c0-3,0-6.1,0-9.1c0-0.9,0-1.8,0-2.7
			c0-0.1,0-0.1,0-0.2c0,0,0,0-0.1,0c0,0,0,0,0,0c0,0,0,0-0.1,0.1c0,0,0,0-0.1,0.1c0,0-0.1,0.1-0.1,0.1c-2.4,3.3-4.9,6.6-7.3,9.8
			c0,0,0,0-0.1,0.1c0,0,0,0-0.1,0c-2.6-3.5-5.1-7-7.7-10.4c0,0-0.1,0-0.1,0c-0.1,0.8,0,1.7,0,2.5c0,0.8,0,1.7,0,2.5
			c0,0.8,0,1.7,0,2.5c0,0.8,0,1.7,0,2.5c0,0.8,0,1.7,0,2.5c-0.4,0.1-2.5,0.1-3,0C86,53.4,86,48.3,86,43.2z"/>
	</g>
	<path style="fill:#C92C2D;" d="M21.4,58.4c-0.1-0.6-0.1-14.9,0-15.2c0.1,0,0.3,0,0.4,0c4,0,8,0,12,0c0.8,0,1.6,0.1,2.4,0.4
		c1.8,0.7,2.8,2,3,4c0,0.6,0,1.1-0.1,1.7c-0.3,1.4-1.1,2.4-2.4,3c-0.4,0.2-0.8,0.3-1.3,0.5c0.7,1,1.4,1.9,2,2.9
		c0.7,0.9,1.4,1.9,2.1,2.9c-0.2,0-0.3,0-0.4,0c-0.9,0-1.8,0-2.7,0c-0.3,0-0.4-0.1-0.6-0.3c-1.2-1.6-2.3-3.2-3.5-4.8
		c-0.1-0.1-0.1-0.2-0.2-0.3c-0.1-0.2-0.2-0.2-0.4-0.2c-0.3,0-0.6,0-0.9,0c-2,0-4,0-6,0c-0.2,0-0.3,0-0.5,0c-0.1,0.5,0,0.9,0,1.4
		c0,0.5,0,0.9,0,1.4c0,0.5,0,0.9,0,1.4c0,0.5,0,0.9,0,1.4C24,58.5,21.8,58.6,21.4,58.4z M24.4,50.2c0.2,0,0.4,0,0.5,0
		c0.8,0,1.6,0,2.4,0c2,0,4,0,6.1,0c0.6,0,1.1,0,1.6-0.3c0.4-0.1,0.7-0.4,0.9-0.7c0.7-1.2,0.2-2.7-1.1-3.2c-0.5-0.2-1-0.2-1.6-0.2
		c-2.8,0-5.6,0-8.4,0c-0.1,0-0.3,0-0.5,0C24.4,47.4,24.4,48.8,24.4,50.2z"/>
	<path style="fill:#C92C2D;" d="M81.1,45c-0.6,0.7-1.2,1.3-1.8,1.9c-0.1-0.1-0.3-0.1-0.4-0.2c-2.4-1.1-4.9-1.5-7.5-1.3
		c-0.7,0.1-1.4,0.2-2.1,0.3c-0.5,0.1-0.9,0.3-1.2,0.6c-0.4,0.4-0.6,0.8-0.4,1.3c0.1,0.3,0.4,0.5,0.6,0.7c0.5,0.2,1,0.4,1.5,0.4
		c2,0.2,3.9,0.3,5.9,0.5c1.2,0.1,2.4,0.3,3.5,0.8c0.5,0.2,1,0.4,1.4,0.7c0.8,0.6,1.3,1.4,1.4,2.4c0.2,1.9-0.5,3.4-2.2,4.4
		c-1,0.6-2.1,0.9-3.2,1.1c-3,0.4-5.9,0.3-8.8-0.5c-1.3-0.4-2.6-1-3.7-1.8c-0.1,0-0.1-0.1-0.2-0.2c0.2-0.4,0.5-0.7,0.8-1
		c0.3-0.3,0.5-0.7,0.8-1c0.1,0.1,0.3,0.1,0.4,0.2c1.6,1,3.4,1.6,5.4,1.8c1.4,0.2,2.9,0.2,4.3,0c0.7-0.1,1.4-0.3,2-0.6
		c0.3-0.2,0.7-0.4,0.9-0.7c0.6-0.7,0.5-1.7-0.2-2.2c-0.5-0.4-1.1-0.6-1.7-0.6c-0.7-0.1-1.4-0.2-2.2-0.2c-1.3-0.1-2.5-0.1-3.8-0.2
		c-1-0.1-2.1-0.2-3.1-0.5c-0.5-0.1-0.9-0.3-1.3-0.6c-1.3-0.7-1.7-1.8-1.7-3.2c0.1-1.2,0.7-2.2,1.7-2.9c0.9-0.6,1.8-1,2.9-1.2
		c1.8-0.4,3.6-0.4,5.4-0.3c1.4,0.1,2.7,0.3,4,0.8C79.3,44,80.2,44.4,81.1,45z"/>
	<path style="fill:#C92C2D;" d="M3,52.9c-0.1,0.6,0,1.3,0,1.9c0,0.6,0,1.2,0,1.8c0,0.6,0,1.2,0,1.8c-0.4,0.1-2.5,0.1-2.9,0
		C0,58,0,43.6,0.1,43.2c0.1,0,0.3,0,0.5,0c4,0,7.9,0,11.9,0c0.7,0,1.3,0.1,2,0.2c2.1,0.6,3.4,2.2,3.5,4.3c0,0.6,0,1.2-0.2,1.8
		c-0.4,1.4-1.4,2.3-2.7,2.9c-0.9,0.3-1.8,0.4-2.7,0.4c-0.9,0-1.8,0-2.7,0c-2,0-4,0-5.9,0C3.4,52.9,3.2,52.9,3,52.9z M3,50.2
		c0.2,0,0.3,0,0.4,0c0.3,0,0.7,0,1,0c2.5,0,5,0,7.5,0c0.5,0,1-0.1,1.5-0.2c0.5-0.1,0.8-0.4,1.1-0.8c0.8-1.2,0.2-2.8-1.1-3.2
		c-0.5-0.2-1.1-0.2-1.6-0.2c-2.8,0-5.5,0-8.3,0c-0.2,0-0.3,0-0.5,0C3,47.3,3,48.8,3,50.2z"/>
	<path style="fill:#C92C2D;" d="M53.4,58.5c-1,0-2,0-3,0c0-0.2,0-0.3,0-0.5c0-1.7,0-3.3,0-5c0-0.4-0.1-0.7-0.4-0.9
		c-2.7-2.8-5.3-5.6-8-8.5c-0.1-0.1-0.2-0.2-0.4-0.4c0.2,0,0.3,0,0.4,0c0.9,0,1.9,0,2.8,0c0.3,0,0.5,0.1,0.7,0.3c2,2.1,4,4.2,5.9,6.3
		c0.1,0.1,0.3,0.3,0.4,0.4c0.1-0.1,0.3-0.3,0.4-0.4c2-2.1,4-4.2,5.9-6.3c0.2-0.2,0.5-0.3,0.8-0.3c1,0,2,0,3.1,0
		c-0.1,0.2-0.2,0.3-0.3,0.4c-2.7,2.8-5.3,5.6-8,8.4c-0.3,0.4-0.5,0.7-0.5,1.2c0,1.6,0,3.2,0,4.8C53.4,58.1,53.4,58.3,53.4,58.5z"/>
</g>
</svg>
