<svg xmlns="http://www.w3.org/2000/svg" viewBox="210.5 21.7 174.3 250.9" enable-background="new 210.5 21.7 174.3 250.9"><g><path fill="#7F0401" d="M384.8 223.1l-87.1 49.5-87.2-49.2v-2l87.2-39.2 87.1 39.3z"/><path fill="#C82B2D" d="M384.8 221.5l-87.1 48.9-87.2-48.9 87.2-44.7z"/><path fill="#F2F2F2" d="M317 208.4c-11.1-6.2-28.1-6.2-39.3 0-3.7 2.1-6.6 4.6-8.3 7.4h.2-.2c-.2.4-.5.8-.7 1.2-3.1 6.1-1.6 13.1 5.5 18.5.1.1.2.1.3.2.4.3.7.5 1.1.8 2.9 1.9 6.3 3.3 9.9 4.3.5.1 1.1.3 1.6.4l.1-1.2.1-1.2v-.1l4.4-7.1c.2-.3.2-.5.1-.8l-1.8-5.6c0-.1 0-.2.1-.3l4.2-3.8c.3-.3.4-.7.3-1l-.6-1.6c-.1-.2-.2-.4-.4-.5l.1-.1 3.7-2.3.2.1c.5.1 1.2.3 1.8.7.5.3.9.7.9 1.2.1.6.5 1.1 1.3 1.6 1 .6 2.3 1 3 1.1.3 0 .5 0 .7-.2h.1l5.4-3.5c.2-.1.2-.2.1-.4-.1-.1-.2-.2-.5-.3-.4-.1-1.5-.3-2.3-.8-.5-.3-.9-.7-1-1.1-.1-.6-.6-1.1-1.3-1.6-1.2-.7-2.9-.9-2.9-.9-.2 0-.4 0-.6.1h-.1l-9.7 6c-.1 0-.1.1-.2.1h.1-.5l-10.4.6h-.3l-6.3-.1c-.4-.1-1.9-.7-3-1.2-.7-.3-1.2-.5-1.6-.7v-.1c1.7-2.7 4.3-5.2 8-7.3 10.7-5.9 26.9-5.9 37.5 0 11.4 6.4 13.3 17.9 2.7 25.8-8.1 6-20.6 7.8-31.5 5.2l-.1 1.2c11.4 2.6 24.4.6 32.8-5.7 11.5-8.2 9.4-20.3-2.7-27zm-13.9 3.7h.2c.5.1 1.2.3 1.7.6s.9.7 1 1.1c.1.6.6 1.1 1.3 1.5.4.3.9.5 1.5.7l.4.1-4.6 3-.2-.1c-.4-.1-1.2-.4-1.8-.7-.5-.4-.9-.7-.9-1.1-.1-.6-.6-1.2-1.3-1.6-.4-.2-.9-.5-1.5-.6l-.4-.1 4.6-2.8zM289 224.3c-.3.3-.5.7-.4 1l1.7 5.6v.2l-4.5 7.1c-.1.2-.2.4-.2.5l-.1.8c-3.1-.9-6.1-2.1-8.6-3.7l2-.9c.7-.4 1.1-.9 1.1-1.4l-.5-4.4c0-.2.2-.3.4-.4l2.7-.6c.5-.1.9-.4 1.2-.7l4.6-5.8c.1-.1.2-.2.4-.2l3.6-.3-3.4 3.2zm-17.6-6.7c2.9 1.2 3.3 1.4 3.7 1.3l6.5.1h.2l10.4-.6h.2l-.1-.1-.1-.1c.1 0 .2.2.2.2.2 0 .3.1.3.2l.5 1.4-4.4.4c-.7.1-1.2.3-1.5.7l-4.6 5.7c-.1.1-.2.2-.3.2l-2.7.6c-.9.2-1.6.8-1.5 1.5l.5 4.5c0 .1-.1.3-.3.4l-2.3 1.1c-.2-.1-.4-.2-.5-.4-6.8-5.1-8.3-11.8-5.4-17.5.4.1.8.3 1.2.4z"/></g><g><path fill="#7F0401" d="M384.8 143.2l-87.1 50-87.2-49.7v-2l87.2-39.3 87.1 39.4z"/><path fill="#C82B2D" d="M384.8 141.6l-87.1 49.7-87.2-49.7 87.2-43z"/><path fill="#F2F2F2" d="M320.7 155.6l-.6-.4c6.6-8.6 3.5-18.4-7.4-25l4.7-2.9 1.1.7.4-1.4.3-1-4.1.5 1.3.7-4.7 2.9c-4.8-2.7-11.3-4.7-17.9-5.1-6.6-.4-15.9 1.5-21.7 3.5l-.5-.4-.8.4-.7.4 20.2 11.6-24.8 14.9 9 5.3 9.7-6.1-1.8-2.1 13.6-8.5 23.4 13.1.5-.4.8-.7zm-28.6-15.3l17.1-10.4 3.3 2-17 10.5-3.4-2.1zM272.3 129c5.9-2 15.7-3.9 22-3.5 5.3.4 10.2 1.9 14.3 3.6L291 139.7 272.3 129zm22.7 13.8l-14.4 8.9 1.7 2.2-7.7 4.8-6.9-3.7 23.7-14.3 3.6 2.1zm1.6.3l17.3-10.8c8.7 6 11.4 15.5 4.6 22.8l-21.9-12z"/></g><g><path fill="#7F0401" d="M384.8 66.2l-87.1 51.1-86.4-50.7v-1.9l86.4-41 87.1 40.5z"/><path fill="#C82B2D" d="M384.8 64.2l-87.1 51.1-86.4-50.6 86.4-43z"/><path fill="#F2F2F2" d="M306.4 84.2l-12.6-7.6c-.5-.3-1.6-.1-2.3.4l-1.7 1.3c-.5.4-.7.8-.7 1.2 0 .3.2.5.4.6l12.7 7.8c.2.2.5.2.9.2.5 0 1.1-.3 1.5-.6l1.7-1.4c.4-.4.7-.8.6-1.2-.1-.3-.3-.6-.5-.7zm-.4.7c0 .2-.2.5-.4.7l-1.7 1.6c-.3.2-.7.7-1 .7-.2 0-.3-.3-.4-.3l-12.7-7.9c-.1 0-.1-.2-.1-.2 0-.2.1-.5.4-.7l1.7-1.3c.3-.2.7-.4 1-.4h.3l12.6 7.6c.2.1.3.1.3.2zM304.4 61.9l4.3-.2c.2 0 .4-.1.6-.2.2-.1.2-.3.2-.5l-.5-4.5 1.2-.9 2.5 1.3 2-1.5-2.5-1.3 2.1-1.6-2.3-1.2-2.1 1.6-2.3-1.2h-.1l-2 1.5 2.4 1-1.2.6-7 .5c-.2 0-.4.4-.5.5-.2.1-.2.4-.2.6l.2 2.8 5.2 2.7zm4.6-7.8l-2.4-1.2.9-.6 2.4 1.3L312 52l1.1.5-2.1 1.6 2.5 1.3-.9.7-2.5-1.3-2 1.5.5 4.8s0 .1-.1.1l-3.9.2-4.8-2.7-.2-2.5s0-.2.1-.2l7.3-.5 2-1.4zM295.7 60.5l6.6 3.7c.4.2.8.4 1.2.4.5 0 .9-.2 1.2-.4.3-.2.5-.6.5-.9 0-.3-.2-.6-.6-.8l-6.6-3.7c-.3-.2-.8-.3-1.2-.2-.5 0-.9.2-1.2.4-.3.2-.5.5-.5.9 0 .3.2.4.6.6zm.4-1.1c.2-.1.4-.2.7-.2.3 0 .5 0 .7.1l6.6 3.7c.2.1.3.2.3.4s0 .2-.2.3c-.2.1-.5.2-.7.2h-.2c-.3 0-.4-.2-.6-.3l-6.6-3.6c-.2-.1-.3-.2-.3-.3 0-.1.1-.2.3-.3zM290.7 75.5c0-.2-.2-.4-.4-.6l11.2-10.5-5.6-3.1h-.1L282 69.9l-.2-.1c-.4-.3-1.1-.2-1.6 0l-2.4 1.4c-.3.2-.5.4-.5.7 0 .3.1.5.4.7l9 5.5c.2.2.5.2.9.2h.1c.4 0 .7-.2.9-.4l1.9-1.8c.1-.2.2-.4.2-.6zm-3.5 2.1l-9-5.5s-.1-.1-.1-.2.1-.2.2-.2l2.4-1.4c.1 0 .2-.1.3-.1.1 0 .3 0 .4.1l.7.4 13.9-8.8 4.5 2.5L289.1 75l.7.4c.1 0 .1.1.1.1s0 .1-.1.2l-1.9 1.8c-.1.1-.2.1-.4.1-.1.1-.2.1-.3 0zM313 65.4l-.2.2c-5.5 5.5-11.5 8.9-18.2 10.3l-.8.2 13.1 7.9.2.1.1-.5c1.1-5.1 5.1-9.8 12.4-14.1l.4-.3-7-3.8zm-17.5 11c6.5-1.6 12.3-4.9 17.6-10.2l5.4 3c-6.9 4.3-10.9 8.7-12.1 13.7l-10.9-6.5zM327.9 62.8l-2 1.6-.3-.2 2-1.6-2-1-2 1.6-.3-.2 2-1.6-2-1-2 1.6-.3-.2 2-1.6-1.9-1-2 1.6-.3-.2 2-1.5-2.6-1.4-6.6 6.4 10.6 5.8h.1l8.4-5.7-2.8-1.4zm-8.4-3.7l-2 1.6 1.6.9 2-1.6.6.4-2 1.6 1.6.9 2-1.6.7.4-2 1.6 1.6.9 2-1.6.7.4-2 1.6 1.6.9 2-1.6 1.3.7-7.2 4.8-9.5-5.2 5.6-5.5 1.4.4zM278.5 68.7c0-.2-.1-.4-.4-.5l-1.1-.7c.2-.2.3-.4.3-.6 0-.2-.1-.4-.3-.5l.2-.1 1.3.8 1.5-2.5c.5.2 1.1.3 1.5.3h.2l.2-.1c1.5-1.3 3.2-2.1 5-2.9 1.8-.9 3.6-1.7 5.2-3.1 1.7-1.5 2.6-3.2 2.5-4.8-.1-1.2-.8-2.3-2.1-3.1-.2-.8-.9-1.6-2-2.1l-.3-.2-.2.2-.6.6c-.2.3-.5.5-.8.8-.3 0-.6-.1-.9-.2-.6-.2-1.1-.3-1.6-.3h-.3c-.4.1-1 .2-1.9.3-.7 0-1.5.1-2.2.1-.8 0-1.6 0-2.4.1-.2 0-.5 0-.8.1-.9.1-2 .6-2.1 1.5-.1.7.2 1.6 1.1 2.1.1 0 .2.1.3.1.5.2 1.1.2 1.7.2.6 0 1.2 0 1.7.2s.7.5.9.8c.2.2.3.5.6.7-3.9.3-7.9.6-12 3.8l-.2.2c-.7.6-1.1 1-1.1 1.4 0 .2.2.4.4.6h.1l-.2.1h-.1c-.4-.2-1.1-.2-1.6.1l-.7-.4c-.2-.1-.5-.2-.8-.2-.3 0-.5.1-.7.2l-2.3 1.1h-.1c-.3.2-.4.4-.4.6 0 .2.1.4.3.5l11.9 7.3c.2.1.5.2.8.2.3 0 .6-.1.8-.3l1.4-1.8c.2-.1.3-.3.3-.6zm-12.4-6.6c.2-.1.3-.1.4-.2.1 0 .2 0 .3.1l1.2.7.5-.4c.2-.1.5-.1.6 0l.7.4.2-.3.1-.1.5-.3h.1l.5-.2-.9-.5c-.1-.1-.2-.1-.2-.2 0-.2.4-.6.9-1l.2-.2c4-3.1 7.8-3.3 11.8-3.6l2.5-.2-1.5-.4c-.2-.1-.4-.2-.6-.2-.4-.2-.5-.4-.7-.7-.2-.3-.5-.7-1.2-1-.6-.3-1.4-.3-2.1-.2-.5 0-1 0-1.3-.1-.1 0-.1-.1-.2-.1-.7-.4-.9-1-.8-1.5.1-.5.8-.9 1.5-.9.9-.2 2-.2 3.1-.2.8 0 1.6-.1 2.3-.1 1-.1 1.7-.2 2.1-.4.2-.1.8.1 1.3.2l1.2.3h.2l.2-.1c.5-.4.7-.7 1-1 .1-.1.2-.2.3-.4.8.5 1.3 1.1 1.4 1.7v.1l.1.1c1.2.7 1.9 1.7 2 2.8.1 1.4-.7 3-2.3 4.3-1.5 1.3-3.3 2.2-5 3-1.7.8-3.4 1.6-5 2.9-.5-.1-1-.2-1.5-.4l-.5-.2v.4l-1.2 2-1.1-.7-.2.3-.5.4s-.1 0-.1.1l-.6.2.9.5.1.1s0 .1-.1.2l-.6.5 1.8 1.1.1.1s0 .1-.1.2l-1.4 1.8c-.1 0-.2.1-.3.1-.1 0-.2 0-.3-.1L264 63.5s-.1 0-.1-.1c0 0 0-.1.1-.1l2.1-1.2z"/></g></svg>