<svg xmlns="http://www.w3.org/2000/svg" viewBox="0 0 465.2 667.7" enable-background="new 0 0 465.2 667.7"><g><path fill="#7F1710" d="M465.2 534.1L232.6 667.7 0 534.9v-5.3l232.6-104.8 232.6 105z"/><path fill="#C92C2D" d="M465.2 529.7L232.6 660.2 0 529.7l232.6-119.1z"/><path d="M201.3 574.3l11.9-18.8c.1-.2.1-.4.1-.6l-4.6-15c-.3-1 .1-2 1-2.8l9.5-8.5-9.8.9c-.5 0-.9.2-1.1.5L196 545.4c-.7.9-1.8 1.5-3.2 1.8l-7.3 1.7c-.7.2-1.1.6-1 1l1.4 11.8c.2 1.5-.9 2.9-2.7 3.7l-5.5 2.5c6.8 4.3 14.6 7.7 23 10l.2-2.3c0-.4.2-.9.4-1.3zM239.8 514.5c1.9 1.2 3.1 2.7 3.4 4.4.2 1.1 1.1 2.1 2.5 3 1.7 1 3.7 1.7 4.8 2l.6.2 12.4-8-1.1-.4c-1.6-.5-3-1.1-4.1-1.8-2-1.2-3.2-2.6-3.6-4.1-.3-1.2-1.1-2.2-2.6-3-1.5-.9-3.3-1.4-4.6-1.7l-.5-.1-12.4 7.6 1.1.3c1.7.3 3 .9 4.1 1.6zM181.7 562.2l-1.3-11.8c-.2-1.7 1.5-3.4 4-3.9l7.3-1.7c.4-.1.7-.3.8-.5l12.4-15.3c.8-1 2.4-1.7 4.1-1.9l12-1.1-1.4-3.8c-.2-.4-.7-.7-1.4-.6l-27.8 1.6h-.3l-.3.1-17.4-.3c-1 .1-2.3-.3-9.9-3.5-1-.4-2.2-.9-3.3-1.4-7.9 15.4-4 33.3 14.2 47 .4.3.9.6 1.3.9l6.3-2.8c.4-.2.7-.6.7-1zM172.6 520.6l16.8.2c.3 0 .6-.1.8-.1l27.7-1.6h1.3l25.9-16 .2-.1c.4-.3 1-.4 1.6-.3 0 0 4.4.6 7.7 2.5 2 1.2 3.1 2.6 3.5 4.2.2 1 1.1 2 2.6 2.9 2.3 1.4 5.3 2.1 6.3 2.2.6.1 1.1.4 1.2.7.2.4 0 .7-.4 1l-14.5 9.4-.2.1h-.1c-.4.3-1.1.5-1.8.4-1.6-.3-5.2-1.2-7.9-2.9-2-1.3-3.2-2.7-3.5-4.3-.2-1.2-1.1-2.3-2.5-3.2-1.5-.9-3.4-1.5-4.7-1.8l-.5-.1-10 6.2c.5.4 1 .9 1.2 1.4l1.6 4.2c.3.9 0 1.9-.8 2.7L213 538.4c-.2.2-.3.5-.2.7l4.7 14.9c.2.7.1 1.5-.3 2.2l-11.8 18.9c-.1.1-.1.2-.1.4l-.3 3.4c29.1 6.8 62.6 1.9 84.2-14 28.4-21 23.3-51.7-7.1-68.8-28.3-15.8-71.6-15.8-100.1 0-9.8 5.4-16.9 12.1-21.3 19.4 1 .4 2.4 1 4.3 1.8 2.4 1.3 6.5 3 7.6 3.3z" fill="none"/><path d="M173.3 565.1c-18.2-13.6-22.2-31.6-14.2-47-1-.4-1.9-.8-2.5-1l-1.2.6c-8.4 16.2-4.4 35 14.7 49.4.3.2.5.4.8.6l3.7-1.7c-.4-.3-.8-.6-1.3-.9zM292.2 567.1c29.8-22.2 24.1-54.5-7.9-72.3-29.6-16.5-74.9-16.5-104.9 0-10 5.5-17.5 12.3-22.2 19.8.5.1 1.3.4 3.2 1.1 4.4-7.3 11.6-14 21.3-19.4 28.6-15.8 71.9-15.8 100.1 0 30.4 17 35.5 47.8 7.1 68.8-21.6 15.9-55.1 20.8-84.2 14l-.3 3.2c30.7 6.8 65.4 1.5 87.8-15.2zM177.6 568l-3.8 1.7c7.7 5.1 16.7 8.9 26.5 11.5l.3-3.2c-8.4-2.3-16.2-5.7-23-10zM162.4 519.5c7.6 3.2 8.9 3.6 9.9 3.5l17.4.3.3-.1h.3l27.8-1.6c.7 0 1.3.2 1.4.6l1.4 3.8 2.1-.2.5 2.4-4.4.4-9.5 8.5c-.9.8-1.2 1.8-1 2.8l4.6 15c.1.2 0 .4-.1.6l-11.9 18.8c-.3.5-.5.9-.5 1.4l-.2 2.3c1.4.4 2.8.7 4.2 1.1l.3-3.4c0-.1.1-.3.1-.4l11.8-18.9c.4-.7.6-1.5.3-2.2l-4.7-14.9c-.1-.3 0-.5.2-.7l11.1-10.1c.9-.8 1.2-1.8.8-2.7l-1.6-4.2c-.2-.5-.6-1-1.2-1.4l-.9.6c-.3.2-.8.3-1.2.3-.3 0-.5 0-.7-.1l-.6.5-.3-.2-.3-.2.7-.5c-.4-.4-.3-1 .3-1.3l.2-.1c-.4 0-.8-.1-1.3 0l-27.7 1.6c-.3 0-.6 0-.8.1l-16.8-.2c-1.1-.3-5.2-2-7.9-3.1-1.9-.8-3.2-1.3-4.3-1.8-.5.8-.9 1.6-1.3 2.4 1.3.4 2.5.9 3.5 1.3zM159.1 518.1c.4-.8.9-1.6 1.3-2.4-1.9-.8-2.7-1-3.2-1.1-.6 1-1.2 2-1.8 3.1l1.2-.6c.6.2 1.5.6 2.5 1zM200.6 578l-.3 3.2c1.4.4 2.8.7 4.2 1l.3-3.2c-1.4-.2-2.8-.6-4.2-1zM185.8 561.8l-1.4-11.8c-.1-.4.4-.9 1-1l7.3-1.7c1.4-.3 2.5-1 3.2-1.8l12.3-15.4c.2-.3.6-.5 1.1-.5l9.8-.9 1.7-1.5c.2-.2.3-.5.2-.7v-.5l-12 1.1c-1.8.2-3.3.9-4.1 1.9l-12.4 15.3c-.2.2-.5.4-.8.5l-7.3 1.7c-2.5.6-4.2 2.2-4 3.9l1.3 11.8c0 .4-.2.8-.7 1l-6.3 2.8c1 .7 1.9 1.3 3 2l5.5-2.5c1.7-.8 2.8-2.3 2.6-3.7zM174.6 566l-3.7 1.7c.9.7 1.9 1.4 2.9 2l3.8-1.7c-1-.6-2-1.3-3-2zM220.9 527.1l-1.7 1.5 4.4-.4-.5-2.4-2.1.2.1.4c.1.3 0 .5-.2.7zM232.7 514.1c1.3.3 3.1.8 4.7 1.8 1.4.9 2.3 2 2.5 3.2.3 1.6 1.5 3 3.5 4.3 2.7 1.7 6.2 2.6 7.9 2.9.7.1 1.4 0 1.8-.4h.1l.2-.1 14.5-9.4c.4-.3.5-.6.4-1-.2-.3-.7-.6-1.2-.7-1-.2-4-.9-6.3-2.2-1.5-.9-2.3-1.9-2.6-2.9-.4-1.6-1.5-3-3.5-4.2-3.3-1.9-7.6-2.5-7.7-2.5-.6-.1-1.2 0-1.6.3l-.2.1-25.9 16c1.2.1 2.2.5 2.9 1l10-6.2h.5zm14.4-9.3l.5.1c1.3.3 3.1.8 4.6 1.7 1.4.9 2.3 1.9 2.6 3 .3 1.5 1.5 2.9 3.6 4.1 1.2.7 2.5 1.3 4.1 1.8l1.1.4-12.4 8-.6-.2c-1.1-.3-3.2-.9-4.8-2-1.5-.9-2.3-1.9-2.5-3-.3-1.7-1.5-3.2-3.4-4.4-1.1-.7-2.4-1.2-3.9-1.7l-1.1-.3 12.2-7.5zM219.2 519.2l-.2.1c-.6.4-.7.9-.3 1.3l-.7.5.3.2.3.2.6-.5c.2.1.5.1.7.1.5 0 .9-.1 1.2-.3l.9-.6c-.6-.5-1.6-.9-2.8-1z" fill="#F2F2F2"/></g><g><path fill="#7F1710" d="M465.2 320.8L232.6 454.3 0 321.6v-5.4l232.6-104.7 232.6 105z"/><path fill="#C92C2D" d="M465.2 316.5L232.6 449.3 0 316.5l232.6-114.6z"/><path d="M284.7 360.1l-1.5-1c19.2-22.9 11.9-48.8-15.2-65l11.6-7.3 2.8 1.6.9-3.6.8-2.5-10.3 1.4 3.2 1.8-11.6 7.2c-12-6.6-28.1-10.8-44.6-11.6-16.3-.8-33.3 1.8-47.7 7l-1.3-.8-1.9 1 19.8 46.8-35.5 21.5 10.1 6.9 34-21.5 84.4 19.6 2-1.5zm-87.2-20.6l-3.4-.8-1.1-2.1 68.6-42.6 3 1.7-67.1 43.8zm-24-49.1c14.6-5.2 32.9-8.2 48.6-7.4 13.1.7 27 4 37.6 10l-67.6 41-18.6-43.6zm-8.5 69l-4.4-2.8 30.4-18.5 1.2 2.1 3.2.8-30.4 18.4zm35.9-19.1l65.8-43.4c27.1 16.7 31.6 41 12.3 61.9l-78.1-18.5z" fill="#F2F2F2"/></g><g><path fill="#7F1710" d="M465.2 116.6L232.6 248.2 0 115.4v-5.3L232.6 5.3l232.6 105.9z"/><path fill="#C92C2D" d="M465.2 111.2L232.6 242.9 0 110.1 232.6 0z"/><path d="M158.7 90.4l12.2 6.4c3.1 1.7 6.3 3.3 9.4 5 3.1 1.6 6.4 3.3 9.6 5.1.1.1.2.2.3.2.2.1.3.3.6.3.3.1.6.1.8.1.6 0 1.2-.2 1.5-.5.4-.3.4-.7.4-.9 0-.4-.3-.7-.8-1-4.2-2.2-8.4-4.5-12.4-6.6-3.8-2.1-7.6-4.1-11.4-6.1l-5.1-2.8-1.5-.8h.1c.3-.2.5-.4.7-.5.2-.2.5-.4.8-.6 1.1-.8 2.1-1.5 3-2.2 2-1.6 4.4-2.2 7.1-1.7 1.5.2 2.9.5 4.4.8 1.7.3 3.7.7 5.7 1l2.1.3c2.7.4 5.5.9 8.3 1.1 4.4.2 8-1.1 10.3-4 .9-1.1 1.5-2.1 1.8-3 1.3-3.8 4.5-7.2 9.8-10.4 3.9-2.4 8.1-3.3 12.5-2.6 1.8.3 3.7.9 5.4 1.6 4.2 1.9 5.9 4.6 4.8 7.2-.2.5 0 .9.5 1.1.2.1.5.2.9.2.5 0 1-.1 1.4-.3.4-.2.6-.5.6-.8.1-1.3.3-2.7-.2-4-.8-2.1-2.7-3.9-5.9-5.4-.3-.1-.6-.3-.9-.4-2.7-1.1-5.8-1.7-8.9-1.7-3.8 0-7.5.9-10.5 2.4-3.8 2-7.2 4.5-10.1 7.4-1.7 1.8-2.6 3.7-3.4 5.8l-.4.9c-1.1 2.6-3.9 3.8-8 3.5-2.3-.2-4.5-.6-6.4-.9-1-.2-2-.4-3.1-.6-3.5-.7-7.1-1.4-10.9-1.6-3.2-.2-6 .6-8.6 2.3-1.5 1-3.1 2.1-4.6 3.1l-1.7 1.2c-.9.6-1.3 1-1.3 1.5-.1.2.3.5 1.1.9zM291.5 92.5c-1.9-1.6-4.3-2.8-7.1-3.6-2.8-.8-5.5-1.2-8.1-1.2-2 0-4 .2-5.9.7-.6.1-1.3.4-1.6.8-.2.3-.2.7 0 1 .1.2.3.4.6.5.6.3 1.6.1 2.2 0 3.2-.8 6.5-.8 9.6-.1 3.2.8 5.9 2.1 8 3.8 3 2.5 3.4 5.1 1.1 7.9-2.4 3-5.2 5.3-8.5 6.8-2.8 1.3-5.9 2.4-8.9 3.4l-1.1.4c-4 1.4-6.6 3-7.6 4.9-1 1.9-.6 4.2 1.3 6.8.9 1.3 2.1 2.5 3.3 3.8l.1.1c.7.7 1.4 1.5 2.1 2.3 2.1 2.4 3.9 4.6 5.7 6.8 1.2 1.5.2 2.9-.8 3.8-1.2 1-2.4 2.1-3.6 3.2l-2.6 2.3-2-1.1c-2.2-1.2-4.4-2.4-6.6-3.7-2-1.1-4-2.3-6.1-3.4-2.8-1.5-5.5-3-8.2-4.4-3.8-2.1-7.8-4.3-11.7-6.3-1-.5-2.2-1-3.8-1.4h-.2s-.3 0-.5.2c-.3.2-.4.7-.3 1.2.1.6.4 1.2.8 1.4l18.4 9.9c4.3 2.3 8.6 4.6 13 7l6.2 3.3c.7.4 1.3.6 1.7.6.7 0 1.3-.4 2-1s1.4-1.3 2.1-1.9c1.2-1.1 2.5-2.2 3.8-3.3 3.1-2.6 3.7-5.4 1.6-8.3l-.4-.6c-.6-.9-1.3-1.9-2.1-2.7-1-1.1-2-2.1-3-3.1-1.2-1.3-2.5-2.6-3.6-3.9-1.3-1.5-2.3-2.8-2.9-4.2-.3-.7-.4-1.4-.1-2.1.4-1 1.4-1.8 3.1-2.5.7-.3 1.5-.5 2.2-.7.4-.1.8-.2 1.2-.4.6-.2 1.1-.4 1.7-.6 1.4-.4 2.8-.9 4.1-1.4 4.9-1.9 8.2-4.8 11.4-7.6 2.5-2.2 3.8-4.5 3.8-6.9-.2-2.4-1.4-4.5-3.8-6.5zm-22.6 35.7zM237.9 141.8c-1.3-1.7-2.8-3.4-4.2-5.1l-.1-.1c-1.5-1.8-3.2-3.7-4.6-5.6-1.6-2.2-2.8-4.3-3.6-6.3-1-2.6.7-5.1 4.7-6.9 1.2-.5 2.6-1 3.8-1.4l1.8-.6c1-.4 2.1-.7 3.2-1.1 2.3-.8 4.7-1.5 6.8-2.5 6.5-2.9 12.1-6.9 17.5-12.5 3.2-3.4 4.1-7 2.5-10.4-1.6-3.4-4.4-6.1-8.6-8.1-2.2-1-4.9-1.9-7.9-2.5-8-1.6-15.4-.6-21.9 2.9-5.6 3-10.4 6.8-14.4 11.2-2.5 2.7-3.7 5.6-5 8.7l-.4 1c-1.9 4.5-5.6 6.6-11.7 6.6-.9 0-1.9 0-2.9-.1-.9-.1-2.2-.2-3.3-.4-2.8-.5-5.3-1-7.6-1.5l-1.9-.4c-5.1-1.1-10.4-2.2-16-2.5-4.6-.2-8.6.9-12.2 3.4-2.6 1.8-5.2 3.6-7.8 5.5l-1.9 1.4c-1.1.8-1.6 1.2-1.6 1.7s.6.8 1.3 1.3c3.2 1.9 6.4 3.8 9.5 5.7 2.9 1.8 6 3.7 9.1 5.5 3.1 1.8 6.3 3.8 9.4 5.7 3.4 2.1 6.9 4.2 10.4 6.3l2.3 1.3c3.5 2 7.1 4.1 10.6 6.1 3.3 1.9 6.8 3.8 10.1 5.8 3.2 1.9 6.4 3.7 9.6 5.6 3.6 2.1 7.4 4.3 11.1 6.4.8.5 1.4.7 1.9.7.7 0 1.4-.4 2.1-1.1.9-.8 1.9-1.6 2.8-2.3 2.6-2.2 5.2-4.4 7.7-6.6 3.3-2.9 4.2-6 2.7-9.1-1.2-2.4-2.2-4.2-3.3-5.7zm-28.5-34.9c0-.3.1-.6.2-.9.7-1.4 1.5-2.8 2.2-4.3.7-1.3 1.4-2.6 2-4 1.8-3.5 4.3-6.3 7.7-8.8.5-.4 1-.7 1.5-1.1 2.1-1.5 4.2-3.1 6.7-4.4 3.8-2 8-3 12.4-3 3 0 6 .5 8.8 1.5 4.4 1.5 7.6 3.3 9.7 5.6 3.5 3.8 2.8 8.1-2 12.5-.8.7-1.6 1.4-2.4 2-.3.2-.6.5-.9.7-4.5 4.1-10.7 7.3-18.7 9.8-1.3.4-2.6.9-3.9 1.4-1.3.5-2.6 1-3.9 1.4-4.9 1.5-9.8 1.3-14-.6-.3-.1-.5-.2-.8-.4-3.3-1.8-4.8-4.2-4.6-7.4zm13 13.3c-1.4 2.2-1.4 4.6 0 7.9l2 3.2c2 2.4 4 5 6 7.5 1.8 2.2 3.5 4.5 5.3 6.7 1.5 1.9 2.1 3.7 1.8 5.4-.3 2-1.9 4-4.6 5.9-1.6 1.1-3.1 2.4-4.5 3.7-.7.6-1.4 1.2-2.1 1.9l-1 .8-80.5-47 .6-.4c.4-.3.6-.5.7-.6.1-.1.2-.2.4-.3l3.7-2.6c1.5-1 3-2.1 4.4-3.1 2.4-1.7 5.1-2.4 8-2.2l.7.1c2.4.2 4.8.4 7.1.8 4.2.8 8.4 1.7 12.5 2.5h.2c1.5.3 3.1.6 4.7 1l5 .5c4.6.3 8.1-.2 10.9-1.4l1.8-.8c.7 2 3.4 5.6 6 7 2.4 1.3 7.7 2.7 10.9 2.7h.8l-.8.8z" fill="#F2F2F2"/></g></svg>