<svg xmlns="http://www.w3.org/2000/svg" viewBox="0 0 132.7 58.8" enable-background="new 0 0 132.7 58.8"><g fill="#C92C2D"><path d="M90.6 29.5c9.3-9.9 18.6-19.7 27.8-29.5 0 0 .1 0 .1.1-.9 1.6-1.9 3.2-2.9 4.8-1 1.6-1.9 3.2-2.9 4.8-1 1.6-1.9 3.2-2.9 4.8-1 1.6-1.9 3.2-2.9 4.8-1 1.6-1.9 3.2-2.9 4.8-1 1.6-1.9 3.2-2.9 4.9 9.4 0 18.7 0 28 .1 1.2 3.2 2.3 6.4 3.5 9.6-14-3.2-27.9-6.2-42-9.2zM86 43.2h4c.4 0 .6.1.8.4 1.9 2.6 3.7 5.1 5.6 7.7.1.2.3.4.4.6.1-.2.3-.3.4-.5l5.7-7.8c.2-.3.4-.4.7-.4h4v15.2c-.3.1-2.5.1-2.9 0V46h-.1l-.1.1-.1.1-.1.1c-2.4 3.3-4.9 6.6-7.3 9.8l-.1.1h-.1c-2.6-3.5-5.1-7-7.7-10.4H89c-.1.8 0 1.7 0 2.5v10c-.4.1-2.5.1-3 0V43.2zM21.4 58.4c-.1-.6-.1-14.9 0-15.2h12.4c.8 0 1.6.1 2.4.4 1.8.7 2.8 2 3 4 0 .6 0 1.1-.1 1.7-.3 1.4-1.1 2.4-2.4 3-.4.2-.8.3-1.3.5.7 1 1.4 1.9 2 2.9.7.9 1.4 1.9 2.1 2.9h-3.1c-.3 0-.4-.1-.6-.3-1.2-1.6-2.3-3.2-3.5-4.8-.1-.1-.1-.2-.2-.3-.1-.2-.2-.2-.4-.2h-7.4c-.1.5 0 .9 0 1.4V58.6c-.3-.1-2.5 0-2.9-.2zm3-8.2h9c.6 0 1.1 0 1.6-.3.4-.1.7-.4.9-.7.7-1.2.2-2.7-1.1-3.2-.5-.2-1-.2-1.6-.2h-8.9c.1 1.6.1 3 .1 4.4zM81.1 45c-.6.7-1.2 1.3-1.8 1.9-.1-.1-.3-.1-.4-.2-2.4-1.1-4.9-1.5-7.5-1.3l-2.1.3c-.5.1-.9.3-1.2.6-.4.4-.6.8-.4 1.3.1.3.4.5.6.7.5.2 1 .4 1.5.4 2 .2 3.9.3 5.9.5 1.2.1 2.4.3 3.5.8.5.2 1 .4 1.4.7.8.6 1.3 1.4 1.4 2.4.2 1.9-.5 3.4-2.2 4.4-1 .6-2.1.9-3.2 1.1-3 .4-5.9.3-8.8-.5-1.3-.4-2.6-1-3.7-1.8-.1 0-.1-.1-.2-.2.2-.4.5-.7.8-1 .3-.3.5-.7.8-1 .1.1.3.1.4.2 1.6 1 3.4 1.6 5.4 1.8 1.4.2 2.9.2 4.3 0 .7-.1 1.4-.3 2-.6.3-.2.7-.4.9-.7.6-.7.5-1.7-.2-2.2-.5-.4-1.1-.6-1.7-.6-.7-.1-1.4-.2-2.2-.2-1.3-.1-2.5-.1-3.8-.2-1-.1-2.1-.2-3.1-.5-.5-.1-.9-.3-1.3-.6-1.3-.7-1.7-1.8-1.7-3.2.1-1.2.7-2.2 1.7-2.9.9-.6 1.8-1 2.9-1.2 1.8-.4 3.6-.4 5.4-.3 1.4.1 2.7.3 4 .8.8.3 1.7.7 2.6 1.3zM3 52.9c-.1.6 0 1.3 0 1.9v3.6c-.4.1-2.5.1-2.9 0C0 58 0 43.6.1 43.2h12.4c.7 0 1.3.1 2 .2 2.1.6 3.4 2.2 3.5 4.3 0 .6 0 1.2-.2 1.8-.4 1.4-1.4 2.3-2.7 2.9-.9.3-1.8.4-2.7.4H3.8c-.4.1-.6.1-.8.1zm0-2.7h8.9c.5 0 1-.1 1.5-.2s.8-.4 1.1-.8c.8-1.2.2-2.8-1.1-3.2-.5-.2-1.1-.2-1.6-.2H3v4.4zM53.4 58.5h-3V53c0-.4-.1-.7-.4-.9-2.7-2.8-5.3-5.6-8-8.5l-.4-.4H44.8c.3 0 .5.1.7.3 2 2.1 4 4.2 5.9 6.3l.4.4.4-.4c2-2.1 4-4.2 5.9-6.3.2-.2.5-.3.8-.3H62c-.1.2-.2.3-.3.4-2.7 2.8-5.3 5.6-8 8.4-.3.4-.5.7-.5 1.2V58c.2.1.2.3.2.5z"/></g></svg>