<svg xmlns="http://www.w3.org/2000/svg" viewBox="0 0 328 145.5" enable-background="new 0 0 328 145.5"><g fill="#fff"><path d="M224 72.8c23.1-24.4 46-48.6 68.9-72.8.1 0 .1.1.2.1-2.3 4-4.7 7.9-7.1 11.8-2.4 3.9-4.7 7.9-7.1 11.8-2.4 4-4.8 7.9-7.2 11.9-2.4 4-4.8 7.9-7.2 11.9-2.4 3.9-4.7 7.9-7.1 11.8-2.4 4-4.8 7.9-7.3 12.1 23.2 0 46.2.1 69.3.1 2.9 7.9 5.7 15.7 8.6 23.8-34.7-7.4-69.2-14.9-104-22.5zM212.8 106.8h9.9c.9 0 1.4.2 1.9 1 4.6 6.4 9.3 12.7 13.9 19.1.3.4.7.9 1.1 1.5.4-.5.6-.8.9-1.2 4.7-6.5 9.5-12.9 14.2-19.4.5-.7 1-1 1.8-.9 2.9.1 5.7 0 8.6 0h1.2v37.7c-.8.3-6.1.3-7.2 0 0-.3-.1-.7-.1-1 0-7.5 0-15-.1-22.5 0-2.2-.1-4.4-.1-6.6 0-.2 0-.3-.1-.5-.1 0-.1 0-.1-.1h-.1c-.1 0-.1.1-.2.1 0 .1-.1.1-.1.2l-.3.3c-6.1 8.1-12.1 16.2-18.2 24.3 0 .1-.1.1-.1.2 0 0-.1 0-.2.1-6.3-8.6-12.7-17.2-19-25.8-.1 0-.2.1-.2.1-.2 2.1-.1 4.1-.1 6.2v24.9c-.9.3-6.2.3-7.3.1v-37.8zM52.9 144.5c-.2-1.5-.1-36.8.1-37.7h30.7c2 0 4 .2 5.8 1 4.5 1.7 7 5 7.4 9.8.1 1.4 0 2.8-.2 4.2-.6 3.5-2.7 5.9-5.9 7.4-1 .4-2 .7-3.2 1.2 1.7 2.4 3.4 4.7 5.1 7.1 1.7 2.3 3.3 4.6 5.1 7.1-.4.1-.6.1-.9.1h-6.6c-.7 0-1-.2-1.4-.8-2.9-4-5.7-8-8.6-12-.2-.2-.3-.4-.5-.7-.2-.4-.6-.5-1.1-.5H60.4c-.2 1.2-.1 2.3-.1 3.4v10.2c-1 .4-6.3.5-7.4.2zm7.3-20.3h22.1c1.4 0 2.8-.1 4.1-.6.9-.4 1.7-.9 2.3-1.8 1.8-2.9.4-6.7-2.8-7.8-1.3-.4-2.6-.5-3.9-.5H61.3c-.4 0-.7.1-1.1.1v10.6zM200.5 111.4c-1.6 1.6-3 3.1-4.5 4.7-.4-.2-.7-.3-1-.4-5.9-2.8-12.1-3.8-18.6-3.3-1.8.1-3.5.4-5.2.7-1.1.2-2.2.7-3.1 1.4-1.1.9-1.4 2.1-1 3.2.3.8.9 1.3 1.6 1.6 1.1.6 2.4.9 3.7 1 4.8.4 9.7.8 14.5 1.3 3 .3 5.9.8 8.7 1.9 1.2.5 2.5 1.1 3.6 1.8 2.1 1.4 3.2 3.5 3.4 6 .5 4.7-1.3 8.3-5.4 10.8-2.5 1.5-5.2 2.3-8 2.7-7.3 1-14.5.8-21.7-1.2-3.3-.9-6.4-2.4-9.3-4.4-.1-.1-.3-.2-.5-.4.6-.9 1.3-1.7 1.9-2.5.6-.8 1.3-1.7 2-2.6.3.2.6.3.9.5 4.1 2.6 8.5 4 13.2 4.6 3.6.4 7.1.5 10.7 0 1.8-.2 3.5-.6 5.1-1.5.8-.5 1.7-1 2.3-1.7 1.6-1.7 1.3-4.1-.6-5.5-1.2-.9-2.6-1.4-4.1-1.6-1.8-.3-3.6-.5-5.4-.6-3.1-.2-6.3-.3-9.4-.5-2.6-.2-5.2-.5-7.6-1.3-1.1-.4-2.3-.8-3.3-1.4-3.1-1.7-4.3-4.5-4.1-8 .2-3 1.7-5.3 4.2-7.1 2.1-1.5 4.5-2.4 7.1-3 4.4-1 8.9-1.1 13.4-.7 3.4.2 6.7.9 10 2 2.1.9 4.3 2 6.5 3.5zM7.5 130.7c-.1 1.6-.1 3.1-.1 4.6v9.1c-.9.3-6.2.3-7.2.1-.2-1-.2-36.8.1-37.7h30.5c1.7 0 3.3.2 4.9.6 5.1 1.4 8.3 5.4 8.5 10.7.1 1.5-.1 3-.5 4.4-1 3.6-3.4 5.8-6.8 7.1-2.1.8-4.4 1.1-6.7 1.1H7.5zm-.1-6.6c.5 0 .8.1 1.1.1h21c1.2 0 2.5-.2 3.7-.5 1.1-.2 2.1-.9 2.7-1.9 1.9-2.9.5-6.8-2.7-7.9-1.3-.4-2.6-.5-4-.5H8.7c-.4 0-.8 0-1.3.1v10.6zM132 144.6h-7.3c0-.4-.1-.8-.1-1.2v-12.3c0-1-.3-1.6-.9-2.3-6.6-7-13.2-13.9-19.8-20.9-.3-.3-.5-.6-.9-1 .4 0 .6-.1.9-.1h6.9c.7 0 1.2.2 1.7.8 4.9 5.2 9.8 10.3 14.7 15.5.3.3.6.7 1 1.1.4-.4.7-.6.9-.9 4.9-5.2 9.8-10.3 14.6-15.5.6-.6 1.1-.8 1.9-.8h7.7c-.3.4-.5.6-.7.9-6.6 7-13.1 13.9-19.7 20.8-.8.9-1.2 1.8-1.2 3 .1 3.9 0 7.9 0 11.8.3.2.3.6.3 1.1z"/></g></svg>