<?xml version="1.0" standalone="no"?>
<!DOCTYPE svg PUBLIC "-//W3C//DTD SVG 1.1//EN" "http://www.w3.org/Graphics/SVG/1.1/DTD/svg11.dtd" >
<svg xmlns="http://www.w3.org/2000/svg">
<metadata>
Created by FontPrep 20130207 at Thu Aug 14 13:17:52 2014
 By Toni Fisler
Copyright (c) 2004 - 2007 Linotype GmbH, www.linotype.com. All rights reserved.
</metadata>
<defs>
<font id="92550229aad14ffa2dc273e49410d17e" horiz-adv-x='1024' >
  <font-face 
    font-family="AvenirNext-Bold"
    font-weight="700"
    font-stretch="normal"
    units-per-em="2048"
    panose-1="2 11 8 3 2 2 2 2 2 4"
    ascent="1638"
    descent="-410"
    x-height="1020"
    cap-height="1450"
    bbox="-1100 -995 3201 2490"
    underline-thickness="102"
    underline-position="-102"
    unicode-range="U+000D-FE48"
  />
<missing-glyph horiz-adv-x="1048" 
d="M1049 1470v-1470h-1049v1470h1049zM946 102v1264h-844v-1264h844zM524.5 1145q-63.5 0 -109.5 -45t-59 -150l-102 17q14 147 90 213.5t186.5 66.5t182 -72.5t71.5 -195.5q0 -66 -25.5 -120t-102.5 -124q-77 -69 -89 -109t-12 -147h-94l-4 35q0 115 27 167t77 102
q81 80 100 115t19 91t-46 106t-109.5 50zM455 240v137h114v-137h-114z" />
    <glyph glyph-name="IJ" unicode="IJ" horiz-adv-x="1714" 
d="M1573 496q0 -355 -164.5 -445t-330.5 -90t-289 95.5t-164 244.5l309 105q14 -57 52 -92t93 -35q86 0 114 59t28 156v956h352v-954zM150 0v1450h352v-1450h-352z" />
    <glyph glyph-name="ij" unicode="ij" horiz-adv-x="1206" 
d="M612 -205q74 0 98.5 50.5t24.5 127.5v1047h336v-1047q0 -215 -88.5 -340t-318.5 -125q-84 0 -146 17l23 280q30 -10 71 -10zM1096 1345.5q0 -76.5 -56 -130.5t-138 -54q-81 0 -136 54.5t-55 130.5q0 116 75.5 150t115.5 34t76 -14.5t77 -54t41 -116zM135 0v1020h336
v-1020h-336zM496 1345.5q0 -76.5 -56 -130.5t-138 -54q-81 0 -136 54.5t-55 130.5q0 116 75.5 150t115.5 34t76 -14.5t77 -54t41 -116z" />
    <glyph glyph-name="napostrophe" unicode="&#x22;n" horiz-adv-x="1445" 
d="M240 1051h-258l137 399h297zM985 557q0 215 -119 215t-166 -63.5t-47 -155.5v-553h-338v1020h326v-141h4q61 111 156 140.5t173 29.5t213.5 -69.5t135.5 -348.5v-631h-338v557z" />
    <glyph glyph-name="fi" unicode="fi" horiz-adv-x="1361" 
d="M672 1315q-150 0 -150 -193v-102h228v-252h-228v-768h-336v768h-186v252h186v98q0 330 156 399.5t266 69.5t178 -20l-22 -267q-45 15 -92 15zM889 0v1020h338v-1020h-338zM1251 1345.5q0 -79.5 -58 -132t-137 -52.5t-134.5 54.5t-55.5 130.5q0 117 76 150.5t116 33.5
t74.5 -14.5t76.5 -52.5t42 -117.5z" />
    <glyph glyph-name="fl" unicode="fl" horiz-adv-x="1363" 
d="M672 1315q-150 0 -150 -193v-102h228v-252h-228v-768h-336v768h-186v252h186v98q0 330 156 399.5t266 69.5t178 -20l-22 -267q-45 15 -92 15zM889 0v1548h340v-1548h-340z" />
    <glyph glyph-name=".notdef" horiz-adv-x="1048" 
d="M1049 1470v-1470h-1049v1470h1049zM946 102v1264h-844v-1264h844zM524.5 1145q-63.5 0 -109.5 -45t-59 -150l-102 17q14 147 90 213.5t186.5 66.5t182 -72.5t71.5 -195.5q0 -66 -25.5 -120t-102.5 -124q-77 -69 -89 -109t-12 -147h-94l-4 35q0 115 27 167t77 102
q81 80 100 115t19 91t-46 106t-109.5 50zM455 240v137h114v-137h-114z" />
    <glyph glyph-name=".null" horiz-adv-x="1024" 
 />
    <glyph glyph-name=".null" horiz-adv-x="1024" 
 />
    <glyph glyph-name="nonmarkingreturn" unicode="&#xd;" horiz-adv-x="0" 
 />
    <glyph glyph-name="space" unicode=" " horiz-adv-x="512" 
 />
    <glyph glyph-name="exclam" unicode="!" horiz-adv-x="731" 
d="M565 173q0 -128 -79.5 -160.5t-142.5 -32.5t-120 57t-57 136t57.5 136.5t139.5 57.5t142 -54.5t60 -139.5zM193 485v965h344v-965h-344z" />
    <glyph glyph-name="quotedbl" unicode="&#x22;" horiz-adv-x="1019" 
d="M176 895v555h268v-555h-268zM575 895v555h267v-555h-267z" />
    <glyph glyph-name="numbersign" unicode="#" horiz-adv-x="1234" 
d="M551 827l-27 -204h160l29 204h-162zM1083 623v-213h-200l-62 -410h-225l59 410h-161l-60 -410h-225l59 410h-174v213h203l31 204h-174v213h200l60 410h227l-59 -410h159l60 410h225l-57 -410h172v-213h-203l-29 -204h174z" />
    <glyph glyph-name="dollar" unicode="$" horiz-adv-x="1323" 
d="M879 409.5q0 71.5 -42 107.5t-108 56v-323q70 4 110 46t40 113.5zM444 1062q0 -66 39 -101t105 -52v297q-55 -6 -99.5 -42t-44.5 -102zM578 252v358q-88 25 -169 55.5t-179.5 110t-98.5 265.5q0 187 139 302.5t318 124.5v142h149v-140q117 -4 240 -40.5t219 -114.5
q-100 -115 -199 -223q-51 51 -122.5 79.5t-137.5 30.5v-328q80 -25 162 -55.5t192.5 -114t110.5 -285.5t-139.5 -318.5t-333.5 -120.5v-150h-151v150q-133 4 -268.5 50t-237.5 138q109 113 215 225q79 -91 167.5 -116t123.5 -25z" />
    <glyph glyph-name="percent" unicode="%" horiz-adv-x="1865" 
d="M606 -70l-182 90l846 1496l190 -93zM608 1087.5q0 65.5 -47 112.5t-112.5 47t-112.5 -47t-47 -112.5t47 -111.5t112.5 -46t112.5 46t47 111.5zM724 814q-114 -114 -275.5 -114t-275.5 114t-114 274t113 273.5t276.5 113.5t276.5 -113.5t113 -273.5t-114 -274z
M1544.5 475.5q-46.5 46.5 -112.5 46.5t-113 -47t-47 -112.5t47 -111.5t113 -46t112.5 46.5t46.5 112t-46.5 112zM1821 362.5q0 -79.5 -31 -150.5t-83 -123t-124 -83t-151.5 -31t-151.5 31t-124 83t-83 123t-31 150.5t31 150.5t83 123t124 83t151.5 31t151.5 -31t124 -83
t83 -123t31 -150.5z" />
    <glyph glyph-name="ampersand" unicode="&#x26;" horiz-adv-x="1599" 
d="M428 418q0 -82 59 -132t133 -50q138 0 218 110l-256 266q-61 -25 -107.5 -68.5t-46.5 -125.5zM840 1104q0 60 -37 99.5t-99 39.5t-101.5 -38t-39.5 -92q0 -104 109 -191q70 29 119 75.5t49 106.5zM92 403q0 263 303 402q-149 145 -149 320q0 176 135 270t317 94
t312.5 -94t130.5 -278t-116 -264.5t-175 -111.5l182 -186l146 223h372l-313 -420l360 -358h-423l-138 141q-161 -170 -424 -170q-216 0 -368 112.5t-152 319.5z" />
    <glyph glyph-name="quotesingle" unicode="'" horiz-adv-x="620" 
d="M176 895v555h266v-555h-266z" />
    <glyph glyph-name="parenleft" unicode="(" horiz-adv-x="700" 
d="M324 590q0 -450 266 -817l-230 -113q-145 201 -223 439.5t-78 490.5t78 490.5t223 439.5l230 -113q-266 -367 -266 -817z" />
    <glyph glyph-name="parenright" unicode=")" horiz-adv-x="700" 
d="M377 590q0 450 -266 817l229 113q145 -201 223 -439.5t78 -490.5t-78 -490.5t-223 -439.5l-229 113q266 367 266 817z" />
    <glyph glyph-name="asterisk" unicode="*" horiz-adv-x="1001" 
d="M389 1450h225v-266l260 82l70 -205l-262 -82l166 -219l-184 -129l-166 223l-162 -215l-180 129l166 213l-265 88l72 205l260 -90v266z" />
    <glyph glyph-name="plus" unicode="+" horiz-adv-x="1363" 
d="M817 492v-429h-266v429h-436v258h434v428h266v-428h436v-258h-434z" />
    <glyph glyph-name="comma" unicode="," 
d="M317 -254h-276l154 582h321z" />
    <glyph glyph-name="hyphen" unicode="-" horiz-adv-x="667" 
d="M74 403v267h520v-267h-520z" />
    <glyph glyph-name="period" unicode="." 
d="M514 180q0 -86 -60.5 -143t-145.5 -57t-146.5 57t-61.5 140q0 84 62 144t147 60q84 0 144.5 -57.5t60.5 -143.5z" />
    <glyph glyph-name="slash" unicode="/" horiz-adv-x="849" 
d="M217 -106l-231 75l632 1592l232 -80z" />
    <glyph glyph-name="zero" unicode="0" horiz-adv-x="1323" 
d="M877 728q0 69 -8.5 151t-31 152.5t-64.5 118.5t-109.5 48t-142.5 -83.5t-75 -387.5t75 -387.5t142.5 -83.5t109.5 48t64.5 119t31 153.5t8.5 151.5zM1229 729q0 -154 -31 -293t-98.5 -244.5t-175 -168t-261 -62.5t-262 62.5t-177 168t-99.5 244.5t-31 293t31 292
t99.5 241.5t177 165t262 61.5t261 -61.5t175 -165t98.5 -241.5t31 -292z" />
    <glyph glyph-name="one" unicode="1" horiz-adv-x="1323" 
d="M580 0v1065l-271 -209l-178 244l477 350h316v-1450h-344z" />
    <glyph glyph-name="two" unicode="2" horiz-adv-x="1323" 
d="M139 0v287l566 512q53 51 85.5 104t32.5 125t-49 120t-133 48t-138 -60.5t-65 -158.5l-329 45q23 214 179 340.5t374 126.5t371 -114.5t153 -320.5t-102.5 -308.5t-151.5 -147.5l-336 -299h592v-299h-1049z" />
    <glyph glyph-name="three" unicode="3" horiz-adv-x="1323" 
d="M1194 422q0 -223 -164 -342t-383 -119q-330 0 -441.5 141.5t-139.5 243.5l319 84q20 -72 83.5 -126t162.5 -54q137 0 174 66.5t37 119.5q0 101 -86 145t-209 44h-92v252h100q113 0 162 26.5t70.5 59t21.5 98.5t-55.5 106.5t-127.5 40.5t-127 -44t-71 -117l-319 73
q53 179 202.5 274t349.5 95q199 0 348.5 -107.5t149.5 -302.5q0 -121 -68.5 -203.5t-175.5 -111.5v-6q122 -28 200.5 -121.5t78.5 -214.5z" />
    <glyph glyph-name="four" unicode="4" horiz-adv-x="1323" 
d="M735 1098h-6l-344 -537h350v537zM1055 283v-283h-322v283h-682v288l590 879h412v-889h200v-278h-198z" />
    <glyph glyph-name="five" unicode="5" horiz-adv-x="1323" 
d="M846 463q0 221 -324 221q-154 0 -327 -63l34 829h889v-295h-583l-13 -229q58 14 156 14q222 0 368 -121t146 -356t-166 -368.5t-378 -133.5q-213 0 -365.5 99t-200.5 270l313 96q23 -76 85.5 -125t149.5 -49t151.5 53t64.5 158z" />
    <glyph glyph-name="six" unicode="6" horiz-adv-x="1323" 
d="M887 476q0 101 -61.5 166t-164 65t-166 -63.5t-63.5 -161.5t61.5 -166t164.5 -68t166 63.5t63 164.5zM773 961q77 0 164 -34t190.5 -134.5t103.5 -305.5q0 -241 -164.5 -383.5t-406.5 -142.5t-407 142.5t-165 375.5q0 129 45 234.5t117 214.5l350 522h416l-357 -496
l-6 -10q43 17 120 17z" />
    <glyph glyph-name="seven" unicode="7" horiz-adv-x="1323" 
d="M129 1155v295h1053v-274l-555 -1176h-400l588 1155h-686z" />
    <glyph glyph-name="eight" unicode="8" horiz-adv-x="1323" 
d="M862 424q0 86 -56 142.5t-145 56.5t-145.5 -55.5t-56.5 -142.5t56 -139.5t146.5 -52.5t145.5 52.5t55 138.5zM836 1058q0 71 -52 118t-126 47t-121.5 -47.5t-47.5 -117.5t46.5 -121.5t124.5 -51.5t127 51t49 122zM1206 388q0 -89 -45 -174t-156 -169t-343 -84
t-388.5 116.5t-156.5 334.5q0 127 73.5 218.5t186.5 127.5v4q-94 35 -157.5 113.5t-63.5 188.5t41 188.5t110.5 131t161.5 79t249 26.5t303 -108t146 -300q0 -121 -61.5 -202.5t-159.5 -114.5v-6q113 -33 186.5 -126.5t73.5 -243.5z" />
    <glyph glyph-name="nine" unicode="9" horiz-adv-x="1323" 
d="M889 971q0 98 -60.5 166.5t-165 68.5t-167 -64.5t-62.5 -165.5t61.5 -166t164 -65t166 64t63.5 162zM546 489q-75 0 -161 34t-190.5 133.5t-104.5 306.5q0 241 164.5 383.5t408.5 142.5t407 -143t163 -375q0 -129 -45 -234.5t-117 -214.5l-350 -522h-416l361 500l4 6
q-49 -17 -124 -17z" />
    <glyph glyph-name="colon" unicode=":" horiz-adv-x="679" 
d="M482.5 45q-58.5 -57 -140.5 -57q-131 0 -167 75.5t-36 136.5t60 119t142 58t141 -57t59 -137.5t-58.5 -137.5zM482.5 701.5q-58.5 -58.5 -141.5 -58.5t-142.5 57t-59.5 136.5t60 137.5t142 58t141 -57t59 -136t-58.5 -137.5z" />
    <glyph glyph-name="semicolon" unicode=";" horiz-adv-x="679" 
d="M344 -254h-283l154 582h328zM482.5 701.5q-58.5 -56.5 -140.5 -56.5t-141.5 57t-59.5 137.5t58.5 137.5t141.5 57t141.5 -57t58.5 -138t-58.5 -137.5z" />
    <glyph glyph-name="less" unicode="&#x3c;" horiz-adv-x="1363" 
d="M162 514v211l1040 438v-278l-627 -269l627 -260v-280z" />
    <glyph glyph-name="equal" unicode="=" horiz-adv-x="1363" 
d="M139 307v252h1086v-252h-1086zM139 686v252h1086v-252h-1086z" />
    <glyph glyph-name="greater" unicode="&#x3e;" horiz-adv-x="1363" 
d="M162 76v280l626 260l-626 269v278l1040 -438v-211z" />
    <glyph glyph-name="question" unicode="?" horiz-adv-x="1118" 
d="M582 -20q-84 0 -142.5 56.5t-58.5 136.5t59 137t139.5 57t140.5 -54.5t60 -137.5t-57 -139t-141 -56zM1025.5 878q-53.5 -77 -175.5 -171q-70 -57 -90.5 -94t-20.5 -97v-53h-319v78q0 141 60.5 206.5t101.5 100.5l67 63q35 31 59.5 65t24.5 90t-39.5 95t-117.5 39
t-121 -58.5t-47 -131.5l-326 34q24 218 166.5 331.5t346.5 113.5t303 -74t140 -152t41 -193t-53.5 -192z" />
    <glyph glyph-name="at" unicode="@" horiz-adv-x="1638" 
d="M668 698q0 -168 102 -168q94 0 138 78.5t44 167.5q0 160 -114 160q-73 0 -121.5 -81.5t-48.5 -156.5zM59 722q0 165 62.5 304t169 241.5t250 161t297.5 58.5q322 0 534.5 -177t212.5 -489q0 -231 -118.5 -362t-301.5 -131q-82 0 -134 35.5t-60 95.5h-8q-29 -47 -90.5 -89
t-142.5 -42q-147 0 -226.5 96.5t-79.5 265.5t112.5 307t280.5 138q78 0 129 -33t66 -78h2l14 70h221l-63 -322q-27 -132 -27 -170q1 -74 61 -74t108 71t48 202q0 245 -145.5 372t-388.5 127t-400 -163t-157 -418t164 -409t433 -154q268 0 461 176l130 -144
q-229 -225 -623 -225q-347 0 -510.5 156.5t-222 297t-58.5 305.5z" />
    <glyph glyph-name="A" unicode="A" horiz-adv-x="1492" 
d="M743 1063l-184 -498h365zM1133 0l-113 285h-561l-107 -285h-381l609 1450h340l602 -1450h-389z" />
    <glyph glyph-name="B" unicode="B" horiz-adv-x="1361" 
d="M684 283q246 0 246 172q0 90 -67.5 124.5t-180.5 34.5h-195v-331h197zM883 1028q0 76 -56.5 109.5t-167.5 33.5h-172v-299h189q98 0 152.5 40t54.5 116zM1280 398q0 -96 -88 -247t-465 -151h-577v1450h577q327 0 410.5 -131t83.5 -247t-65.5 -194.5t-172.5 -113.5v-4
q128 -21 189 -86.5t84.5 -122.5t23.5 -153z" />
    <glyph glyph-name="C" unicode="C" horiz-adv-x="1425" 
d="M82 729q0 172 60.5 313.5t224.5 294t501 152.5q154 0 302.5 -54.5t240.5 -158.5l-237 -238q-49 68 -129 100.5t-168 32.5q-180 0 -297 -125.5t-117 -320.5t115.5 -318.5t295.5 -123.5q104 0 182.5 41t125.5 106l243 -229q-208 -240 -554 -240t-567.5 214t-221.5 554z" />
    <glyph glyph-name="D" unicode="D" horiz-adv-x="1585" 
d="M1139 730q0 226 -135 323.5t-338 97.5h-174v-848h165q333 0 407.5 152.5t74.5 274.5zM1503 736q0 -366 -241 -551t-572 -185h-540v1450h524q351 0 518.5 -119t239 -258t71.5 -337z" />
    <glyph glyph-name="E" unicode="E" horiz-adv-x="1243" 
d="M150 0v1450h974v-297h-637v-272h603v-281h-603v-301h674v-299h-1011z" />
    <glyph glyph-name="F" unicode="F" horiz-adv-x="1179" 
d="M496 1151v-299h561v-289h-561v-563h-346v1450h954v-299h-608z" />
    <glyph glyph-name="G" unicode="G" horiz-adv-x="1574" 
d="M82 727q0 174 60.5 315.5t224.5 294t501 152.5q172 0 319.5 -52.5t239.5 -140.5l-221 -252q-51 59 -135 97.5t-183 38.5q-190 0 -311.5 -127.5t-121.5 -330.5q0 -202 117 -327t325 -125q127 0 219 39v264h-276v283h598v-768q-241 -125 -575 -125t-557.5 212t-223.5 552z
" />
    <glyph glyph-name="H" unicode="H" horiz-adv-x="1564" 
d="M1065 0v606h-565v-606h-350v1450h350v-549h565v549h350v-1450h-350z" />
    <glyph glyph-name="I" unicode="I" horiz-adv-x="651" 
d="M150 0v1450h352v-1450h-352z" />
    <glyph glyph-name="J" unicode="J" horiz-adv-x="1083" 
d="M942 496q0 -355 -165 -445t-331 -90t-288.5 95.5t-163.5 244.5l309 105q14 -57 52 -92t94 -35q86 0 113.5 59t27.5 156v956h352v-954z" />
    <glyph glyph-name="K" unicode="K" horiz-adv-x="1456" 
d="M494 668v-668h-344v1450h344v-590h6l518 590h438l-625 -668l662 -782h-457l-538 668h-4z" />
    <glyph glyph-name="L" unicode="L" horiz-adv-x="1077" 
d="M150 0v1450h352v-1145h561v-305h-913z" />
    <glyph glyph-name="M" unicode="M" horiz-adv-x="1955" 
d="M150 0v1450h497l330 -930h8l315 930h506v-1450h-342l9 1026h-7l-376 -1026h-246l-367 1026h-6l8 -1026h-329z" />
    <glyph glyph-name="N" unicode="N" horiz-adv-x="1617" 
d="M150 0v1450h399l581 -946h7l-9 946h340v-1450h-397l-584 948h-6l8 -948h-339z" />
    <glyph glyph-name="O" unicode="O" horiz-adv-x="1742" 
d="M574.5 1050.5q-117.5 -123.5 -117.5 -320.5t115.5 -323t297.5 -126t299 125.5t117 321.5t-116.5 321t-297 125t-298 -123.5zM1661 732q0 -173 -59.5 -315.5t-165 -243.5t-251 -156.5t-315.5 -55.5t-314 55.5t-249.5 156.5t-165 243.5t-59.5 315.5t59.5 313.5t165 238.5
t249.5 151.5t314 53.5t315.5 -53.5t251 -151.5t165 -238.5t59.5 -313.5z" />
    <glyph glyph-name="P" unicode="P" horiz-adv-x="1310" 
d="M899 1023q0 73 -67 108.5t-179 35.5h-153v-342h147q176 0 214 62.5t38 135.5zM1249 1003q0 -239 -164 -347.5t-411 -108.5h-174v-547h-350v1450h532q400 0 483.5 -160.5t83.5 -286.5z" />
    <glyph glyph-name="Q" unicode="Q" horiz-adv-x="1755" 
d="M1270 737q0 192 -113.5 313t-293.5 121t-296 -120.5t-116 -314.5q0 -193 112.5 -315t293.5 -122t297 123t116 315zM848 0q-355 0 -564.5 197t-209.5 546q0 166 59.5 303.5t164.5 235.5t249.5 152.5t312.5 54.5t311.5 -54.5t248 -151.5t162.5 -233.5t58 -299.5
q0 -233 -88 -337t-127 -134v-7l306 7v-279h-883z" />
    <glyph glyph-name="R" unicode="R" horiz-adv-x="1357" 
d="M657 829q254 0 254 177q0 161 -233 161h-186v-338h165zM494 575v-575h-344v1450h552q380 0 467.5 -156.5t87.5 -292.5t-79.5 -236.5t-221.5 -143.5l379 -621h-409l-314 575h-118z" />
    <glyph glyph-name="S" unicode="S" horiz-adv-x="1210" 
d="M513 1162.5q-58 -35.5 -58 -106.5t53.5 -104t148.5 -63q95 -31 174.5 -60.5t188 -111.5t108.5 -271q0 -236 -160.5 -359.5t-394.5 -123.5q-156 0 -301 54.5t-241 154.5l229 234q53 -66 140.5 -110t149.5 -44q113 0 168.5 37.5t55.5 120.5q0 104 -114.5 144t-185.5 62
q-173 55 -272.5 148t-99.5 268q0 224 165.5 339.5t396.5 115.5q123 0 250.5 -45t224.5 -133l-224 -236q-45 57 -117.5 91t-149.5 34t-135 -35.5z" />
    <glyph glyph-name="T" unicode="T" horiz-adv-x="1189" 
d="M770 1151v-1151h-350v1151h-410v299h1170v-299h-410z" />
    <glyph glyph-name="U" unicode="U" horiz-adv-x="1511" 
d="M1378 547q0 -263 -172 -424.5t-454 -161.5t-449.5 161.5t-167.5 424.5v903h348v-875q0 -124 66.5 -211.5t206 -87.5t206 85.5t66.5 213.5v875h350v-903z" />
    <glyph glyph-name="V" unicode="V" horiz-adv-x="1396" 
d="M868 0h-350l-549 1450h393l336 -1028h9l333 1028h387z" />
    <glyph glyph-name="W" unicode="W" horiz-adv-x="2099" 
d="M1686 0h-347l-286 981h-6l-287 -981h-348l-412 1450h377l229 -965h6l258 965h365l260 -965h6l234 965h364z" />
    <glyph glyph-name="X" unicode="X" horiz-adv-x="1439" 
d="M1024 0l-317 512l-306 -512h-417l508 766l-467 684h421l271 -451l266 451h408l-459 -684l524 -766h-432z" />
    <glyph glyph-name="Y" unicode="Y" horiz-adv-x="1370" 
d="M854 0h-350v614l-545 836h424l309 -537l309 537h410l-557 -836v-614z" />
    <glyph glyph-name="Z" unicode="Z" horiz-adv-x="1300" 
d="M80 0v303l690 850h-674v297h1112v-281l-706 -866h721v-303h-1143z" />
    <glyph glyph-name="bracketleft" unicode="[" horiz-adv-x="700" 
d="M109 -319v1818h442v-209h-182v-1401h182v-208h-442z" />
    <glyph glyph-name="backslash" unicode="\" horiz-adv-x="849" 
d="M633 -106l-631 1587l231 80l631 -1592z" />
    <glyph glyph-name="bracketright" unicode="]" horiz-adv-x="700" 
d="M150 -319v208h182v1401h-182v209h442v-1818h-442z" />
    <glyph glyph-name="asciicircum" unicode="^" horiz-adv-x="1413" 
d="M958 702l-253 437l-252 -437h-303l436 748h241l435 -748h-304z" />
    <glyph glyph-name="underscore" unicode="_" horiz-adv-x="1024" 
d="M0 -336v182h1024v-182h-1024z" />
    <glyph glyph-name="grave" unicode="`" 
d="M219 1171l-299 295h340l213 -295h-254z" />
    <glyph glyph-name="a" unicode="a" horiz-adv-x="1159" 
d="M68 295q0 344 655 344v16q0 76 -53.5 112t-130.5 36q-137 0 -252 -105l-170 183q90 86 209.5 129t246.5 43q253 0 360 -129.5t107 -409.5v-514h-307v109h-6q-39 -63 -118 -98.5t-155 -35.5q-159 0 -272.5 77t-113.5 243zM377 313q0 -112 145 -112q102 0 156.5 56
t54.5 153v34h-43q-137 0 -225 -28t-88 -103z" />
    <glyph glyph-name="b" unicode="b" horiz-adv-x="1349" 
d="M879 697q-65 77 -175 77t-178.5 -80t-68.5 -182t68 -182t179 -80t175.5 78.5t64.5 185t-65 183.5zM1135 130.5q-133 -159.5 -353 -159.5q-102 0 -193 42t-140 120h-5v-133h-309v1548h336v-637h4q43 51 121 94.5t190 43.5t200.5 -43t185 -157.5t96.5 -336.5t-133 -381.5z
" />
    <glyph glyph-name="c" unicode="c" horiz-adv-x="1030" 
d="M654 772q-52 0 -95 -21.5t-73.5 -57.5t-48 -83t-17.5 -129t66 -156.5t173 -74.5q51 0 101.5 19.5t81.5 56.5l186 -228q-63 -61 -163.5 -96t-217.5 -35q-244 0 -405.5 148t-161.5 394t162.5 395t406.5 149q104 0 209.5 -37t169.5 -101l-194 -225q-29 37 -78.5 59.5
t-101.5 22.5z" />
    <glyph glyph-name="d" unicode="d" horiz-adv-x="1347" 
d="M891 512q0 102 -68 182t-178 80t-176 -76.5t-66 -184t65.5 -185.5t175.5 -78t178.5 80t68.5 182zM903 0v133h-4q-49 -78 -140 -120t-200 -42t-199 45t-152.5 120t-95 173.5t-32.5 262.5t132.5 320.5t348.5 156.5q113 0 190.5 -43t120.5 -95h5v637h335v-1548h-309z" />
    <glyph glyph-name="e" unicode="e" horiz-adv-x="1220" 
d="M641 -33q-238 0 -399.5 143.5t-161.5 392.5t157 399.5t390 150.5t374.5 -150t141.5 -405v-31q0 -31 -2 -49h-740q8 -82 80.5 -137.5t163.5 -55.5q148 0 225 107l234 -148q-150 -217 -463 -217zM834 627q0 80 -50.5 137t-148.5 57t-164 -57t-70 -137h433z" />
    <glyph glyph-name="f" unicode="f" horiz-adv-x="745" 
d="M672 1315q-150 0 -150 -193v-102h228v-252h-228v-768h-336v768h-186v252h186v98q0 330 156 399.5t266 69.5t178 -20l-22 -267q-45 15 -92 15z" />
    <glyph glyph-name="g" unicode="g" horiz-adv-x="1347" 
d="M471.5 701q-65.5 -73 -65.5 -183t65.5 -186t175 -76t178 76t68.5 184t-69 183t-178 75t-174.5 -73zM877 125q-104 -135 -317 -135q-217 0 -348.5 150.5t-131.5 373t132 379t353 156.5q96 0 184.5 -39t141.5 -121h4v131h317v-924q0 -289 -158.5 -438.5t-367.5 -149.5
t-351 41t-247 119l168 240q145 -129 338 -129q147 0 218 77.5t71 206.5v62h-6z" />
    <glyph glyph-name="h" unicode="h" horiz-adv-x="1263" 
d="M803 553q0 215 -150 215q-88 0 -135 -62.5t-47 -154.5v-551h-336v1548h336v-657h4q35 61 111 109.5t181 48.5q191 0 282.5 -121.5t91.5 -296.5v-631h-338v553z" />
    <glyph glyph-name="i" unicode="i" horiz-adv-x="606" 
d="M135 0v1020h336v-1020h-336zM496 1345.5q0 -76.5 -56 -130.5t-138 -54q-81 0 -136 54.5t-55 130.5q0 116 75.5 150t115.5 34t76 -14.5t77 -54t41 -116z" />
    <glyph glyph-name="j" unicode="j" horiz-adv-x="612" 
d="M18 -205q74 0 98.5 50.5t24.5 127.5v1047h336v-1047q0 -215 -88.5 -340t-318.5 -125q-84 0 -146 17l23 280q30 -10 71 -10zM502 1345.5q0 -76.5 -56 -130.5t-138 -54q-81 0 -136 54.5t-55 130.5q0 116 75.5 150t115.5 34t76 -14.5t77 -54t41 -116z" />
    <glyph glyph-name="k" unicode="k" horiz-adv-x="1218" 
d="M471 489v-489h-338v1548h338v-942h6l326 414h407l-393 -461l410 -559h-416l-334 489h-6z" />
    <glyph glyph-name="l" unicode="l" horiz-adv-x="610" 
d="M135 0v1548h340v-1548h-340z" />
    <glyph glyph-name="m" unicode="m" horiz-adv-x="1892" 
d="M1073 874q112 175 315 175t292 -125t89 -293v-631h-335v557q0 100 -22.5 140t-50.5 57.5t-72 17.5q-81 0 -126 -64t-45 -157v-551h-336v582q0 190 -145 190q-80 0 -124 -63.5t-44 -155.5v-553h-338v1020h326v-141h4q62 115 155 142.5t150 27.5q217 0 307 -175z" />
    <glyph glyph-name="n" unicode="n" horiz-adv-x="1261" 
d="M801 557q0 215 -119 215t-166 -63.5t-47 -155.5v-553h-338v1020h326v-141h4q61 112 156 141t173 29t213.5 -69.5t135.5 -348.5v-631h-338v557z" />
    <glyph glyph-name="o" unicode="o" horiz-adv-x="1294" 
d="M889 514q0 49 -16.5 96t-47 83t-75.5 58.5t-104.5 22.5t-104.5 -22.5t-75 -58.5t-45 -83t-15 -96t15 -96t46 -85t76 -60.5t104.5 -22.5t104.5 22.5t75.5 60.5t46 85t15.5 96zM1046.5 117.5q-165.5 -150.5 -401.5 -150.5t-400.5 150.5t-164.5 396t163 392.5t402 147
t403 -147t164 -392.5t-165.5 -396z" />
    <glyph glyph-name="p" unicode="p" horiz-adv-x="1345" 
d="M876.5 696.5q-63.5 77.5 -173.5 77.5q-111 0 -179.5 -79t-68.5 -183t68.5 -183t179.5 -79t174 79t63 184.5t-63.5 183zM1133 130.5q-133 -159.5 -353 -159.5q-94 0 -178 38t-131 104h-4v-605h-336v1512h320v-125h6q47 61 130 107.5t195 46.5t201.5 -43t186 -157.5
t96.5 -336.5t-133 -381.5z" />
    <glyph glyph-name="q" unicode="q" horiz-adv-x="1345" 
d="M891 512q0 102 -68 182t-178 80t-176 -76.5t-66 -184t65.5 -185.5t175.5 -78t178.5 80t68.5 182zM879 -492v605h-5q-49 -66 -131.5 -104t-188.5 -38t-196 45t-151.5 120t-94 173.5t-32.5 262.5t132.5 320.5t348.5 156.5q115 0 198 -46.5t130 -107.5h6v125h317v-1512h-333
z" />
    <glyph glyph-name="r" unicode="r" horiz-adv-x="811" 
d="M695 756q-56 0 -102 -24.5t-86 -75.5t-40 -132v-524h-336v1020h324v-148h4q39 78 110.5 127.5t165.5 49.5q45 0 72 -9l-14 -295q-42 11 -98 11z" />
    <glyph glyph-name="s" unicode="s" horiz-adv-x="966" 
d="M518 811q-47 0 -87 -18.5t-40 -62.5t44 -62.5t122 -35.5q158 -35 252 -107.5t94 -209.5q0 -178 -129.5 -263t-280.5 -85q-310 0 -470 158l188 199q45 -49 110 -82t123 -33q138 0 138 88q0 47 -50 70t-128 41q-159 37 -240.5 105t-81.5 198q0 169 129.5 255.5t294.5 86.5
q115 0 224.5 -36t184.5 -108l-184 -190q-97 92 -213 92z" />
    <glyph glyph-name="t" unicode="t" horiz-adv-x="761" 
d="M168 338v430h-164v252h162v268h330v-268h239v-252h-239v-389q0 -72 27.5 -107.5t93.5 -35.5t104 16l4 -246q-90 -31 -194 -31q-197 0 -280 95t-83 268z" />
    <glyph glyph-name="u" unicode="u" horiz-adv-x="1257" 
d="M803 0v141h-4q-57 -110 -155 -140t-176 -30t-212.5 70t-134.5 348v631h338v-553q0 -100 23.5 -141t52 -58.5t75.5 -17.5q88 0 134.5 65.5t46.5 153.5v551h335v-1020h-323z" />
    <glyph glyph-name="v" unicode="v" horiz-adv-x="1161" 
d="M762 0h-363l-401 1020h371l215 -662h6l215 662h358z" />
    <glyph glyph-name="w" unicode="w" horiz-adv-x="1783" 
d="M1430 0h-338l-201 635h-4l-197 -635h-338l-352 1020h362l177 -645h6l182 645h338l188 -645h4l179 645h348z" />
    <glyph glyph-name="x" unicode="x" horiz-adv-x="1216" 
d="M827 0l-219 313l-225 -313h-389l407 535l-368 485h391l190 -272l193 272h379l-367 -485l404 -535h-396z" />
    <glyph glyph-name="y" unicode="y" horiz-adv-x="1161" 
d="M234 -205q63 0 98 36t59 101l33 84l-426 1004h373l227 -655h6l203 655h356l-456 -1174q-65 -169 -165 -253.5t-284 -84.5q-99 0 -184 23l37 283q60 -19 123 -19z" />
    <glyph glyph-name="z" unicode="z" horiz-adv-x="1048" 
d="M70 0v262l479 500h-461v258h870v-252l-493 -508h514v-260h-909z" />
    <glyph glyph-name="braceleft" unicode="{" horiz-adv-x="700" 
d="M150 326q0 151 -138 151v225q138 0 138 144v350q0 139 75.5 221t204.5 82h168v-215h-96q-59 0 -76.5 -39t-17.5 -84v-342q0 -107 -65.5 -164.5t-125.5 -62.5v-4q65 -5 128 -60.5t63 -175.5v-334q0 -45 17 -83.5t77 -38.5h96v-215h-168q-129 0 -204.5 81.5t-75.5 221.5
v342z" />
    <glyph glyph-name="bar" unicode="|" horiz-adv-x="493" 
d="M381 1536v-2048h-266l-2 2048h268z" />
    <glyph glyph-name="braceright" unicode="}" horiz-adv-x="700" 
d="M688 477q-137 0 -137 -151v-342q0 -139 -76 -221t-205 -82h-168v215h97q59 0 76.5 38.5t17.5 83.5v334q0 119 62 174.5t128 61.5v4q-61 5 -125.5 63t-64.5 164v342q0 45 -17.5 84t-76.5 39h-97v215h168q129 0 205 -82t76 -221v-350q0 -115 56.5 -129.5t80.5 -14.5v-225z
" />
    <glyph glyph-name="asciitilde" unicode="~" horiz-adv-x="1363" 
d="M900 649q60 0 102 45t79 101l133 -207v-4q-57 -96 -122 -150.5t-146 -54.5q-82 0 -132 18.5t-112 58.5q-123 79 -224 79q-100 0 -169 -144l-135 213q104 203 281 203q120 0 252 -79q133 -79 193 -79z" />
    <glyph glyph-name="uni00A0" unicode="&#xa0;" horiz-adv-x="512" 
 />
    <glyph glyph-name="exclamdown" unicode="&#xa1;" horiz-adv-x="731" 
d="M193 -410v965h344v-965h-344zM565 866q0 -41 -15 -75.5t-43 -60t-64.5 -41t-77.5 -15.5t-78 15.5t-63.5 42t-42 61t-15.5 75.5t16.5 76t43 61.5t62.5 41t77 14.5t77.5 -15.5t64.5 -41t43 -61.5t15 -77z" />
    <glyph glyph-name="cent" unicode="&#xa2;" horiz-adv-x="1323" 
d="M455 511q0 -99 49 -174t139 -99v544q-92 -23 -140 -97.5t-48 -173.5zM799 -162h-156v133q-215 24 -346 172t-131 368q0 221 129.5 362.5t347.5 175.5v131h156v-131q214 -14 325 -129l-170 -213q-63 68 -155 79v-553q92 8 162 80l165 -209q-112 -112 -327 -133v-133z" />
    <glyph glyph-name="sterling" unicode="&#xa3;" horiz-adv-x="1323" 
d="M1083 1122q-74 78 -189 78t-164.5 -71.5t-49.5 -172.5v-104h319v-236h-319v-327h530v-289h-1063v289h195v327h-195v236h195v125q0 193 133 352.5t391 159.5t414 -141z" />
    <glyph glyph-name="currency" unicode="&#xa4;" horiz-adv-x="1323" 
d="M665 850q-108 0 -176 -72q-67 -72 -67 -182q0 -170 141 -236q45 -20 101 -20q111 0 177 73t66 183q0 170 -141 234q-45 20 -101 20zM1167 596q0 -68 -19 -144t-54 -128l168 -166l-166 -172l-172 172q-106 -68 -254 -68t-267 72l-174 -176l-170 170l177 174
q-72 112 -72 268q0 155 65 258l-168 166l168 166l168 -166q125 74 269 75t264 -71l162 162l172 -166l-166 -164q69 -110 69 -262z" />
    <glyph glyph-name="yen" unicode="&#xa5;" horiz-adv-x="1323" 
d="M1192 852v-211h-367v-133h367v-211h-367v-297h-323v297h-365v211h365v133h-365v211h260l-372 598h378l271 -532l264 532h367l-367 -598h254z" />
    <glyph glyph-name="brokenbar" unicode="&#xa6;" horiz-adv-x="493" 
d="M113 -358v741h268v-741h-268zM113 641v741h268v-741h-268z" />
    <glyph glyph-name="section" unicode="&#xa7;" horiz-adv-x="1243" 
d="M848 531q0 69 -49 103t-111 60l-176 72q-84 -34 -84 -111t66.5 -105t97.5 -40l192 -76q64 28 64 97zM1100 90q0 -197 -152.5 -295t-347.5 -98q-240 0 -358.5 93t-159.5 155l250 178q47 -78 126 -114t126 -36q78 0 125 28.5t47 68.5q0 71 -56.5 105t-172.5 74t-258 102.5
t-142 258.5q0 104 52 173t124 110q-109 80 -108 231q0 174 143.5 268.5t311.5 94.5q337 0 483 -211l-238 -180q-37 57 -96.5 90t-101.5 33q-73 0 -117.5 -26t-44.5 -78t59.5 -88t157.5 -71q201 -72 300 -154.5t99 -230.5q0 -82 -42 -149.5t-112 -106.5q103 -73 103 -225z
" />
    <glyph glyph-name="dieresis" unicode="&#xa8;" 
d="M256 1347q0 -71 -50 -119t-122 -48t-121 49t-49 116t48.5 117.5t120.5 50.5q73 0 123 -47.5t50 -118.5zM700 1347q0 -71 -50 -119t-121 -48t-120 49t-49 116t48.5 117.5t119.5 50.5q72 0 122 -47.5t50 -118.5z" />
    <glyph glyph-name="copyright" unicode="&#xa9;" horiz-adv-x="1638" 
d="M1196 379q-125 -129 -334 -129t-349 125t-140 341t140.5 345t344.5 129q102 0 193.5 -38t146.5 -108l-158 -143q-29 37 -79 58.5t-106 21.5t-99 -21.5t-73 -58.5t-45 -83t-15 -124t65 -155.5t180 -77.5t181 74zM1475 723q0 135 -51.5 255t-140.5 209t-208 141t-254 52
t-255 -52t-209 -141t-141 -209t-52 -255t51 -254t139 -208t208 -140t255 -51t255 51t209 140t141.5 208t52.5 254zM1597 724q0 -161 -61 -301t-166.5 -244.5t-247 -164t-302.5 -59.5t-303 59.5t-247.5 164t-167 244.5t-61.5 301t61.5 301t167 244.5t247.5 165t303 60.5
t302.5 -60.5t247 -165t166.5 -244.5t61 -301z" />
    <glyph glyph-name="ordfeminine" unicode="&#xaa;" horiz-adv-x="786" 
d="M291 1061q0 -55 89 -55q40 0 69.5 28.5t29.5 73.5v25h-24q-164 0 -164 -72zM389 1481q225 0 255 -104.5t30 -157.5v-336h-191v55h-2q-46 -70 -180 -70t-171.5 66.5t-37.5 124.5q0 190 381 190v8q0 72 -91 72t-151 -57l-110 112q105 97 268 97z" />
    <glyph glyph-name="guillemotleft" unicode="&#xab;" horiz-adv-x="1112" 
d="M381 45l-330 475l330 475l199 -129l-236 -346l238 -346zM844 45l-330 475l330 475l198 -129l-235 -346l235 -346z" />
    <glyph glyph-name="logicalnot" unicode="&#xac;" horiz-adv-x="1363" 
d="M975 297v375h-871v252h1137v-627h-266z" />
    <glyph glyph-name="uni00AD" unicode="&#xad;" horiz-adv-x="667" 
d="M74 403v267h520v-267h-520z" />
    <glyph glyph-name="registered" unicode="&#xae;" horiz-adv-x="1228" 
d="M221 1009q0 -163 116 -279t279 -116t277.5 116.5t114.5 278.5t-115 277t-277 115t-278.5 -114.5t-116.5 -277.5zM147 1007.5q0 96.5 37 181.5t100.5 147.5t149.5 99.5t182.5 37t181.5 -37t147.5 -99.5t99 -147.5t36.5 -181.5t-36.5 -180.5t-99 -146.5t-147.5 -98
t-181.5 -35.5t-182.5 35.5t-149.5 98t-100.5 146.5t-37 180.5zM571 940v-192h-180v544h234q106 0 176.5 -42t70.5 -144q0 -103 -98 -141l125 -217h-205l-90 192h-33zM625 1067q25 0 41 13.5t16 31.5t-17.5 28.5t-39.5 10.5h-54v-84h54z" />
    <glyph glyph-name="macron" unicode="&#xaf;" 
d="M-37 1231v176h688v-176h-688z" />
    <glyph glyph-name="degree" unicode="&#xb0;" horiz-adv-x="851" 
d="M606 1142q0 75 -52 128t-128 53t-128 -53t-52 -128t52 -127t128 -52t128 52t52 127zM770 1142.5q0 -71.5 -26.5 -135t-72.5 -109.5t-109.5 -72.5t-135.5 -26.5t-135.5 26.5t-109.5 72.5t-72.5 109.5t-26.5 135t26.5 134t72.5 109t109.5 73t135.5 26.5t135.5 -26.5
t109.5 -73t72.5 -109t26.5 -134z" />
    <glyph glyph-name="plusminus" unicode="&#xb1;" horiz-adv-x="1363" 
d="M125 63v261h1137v-261h-1137zM827 678v-270h-266v270h-436v260h436v270h266v-270h435v-260h-435z" />
    <glyph glyph-name="twosuperior" unicode="&#xb2;" horiz-adv-x="860" 
d="M113 563v189l348 317q59 55 59 103q0 96 -92 96q-47 0 -76.5 -35t-34.5 -90l-225 26q16 142 113.5 223t232.5 81t231.5 -70.5t96.5 -209.5q0 -138 -156 -269l-178 -158h334v-203h-653z" />
    <glyph glyph-name="threesuperior" unicode="&#xb3;" horiz-adv-x="860" 
d="M756 1227q0 -135 -117 -195q66 -23 101.5 -78t35.5 -128t-29.5 -126t-77.5 -86.5t-107.5 -50t-155 -16.5t-194 61.5t-132.5 188.5l215 57q14 -45 46 -77t79 -32q121 -1 121 95t-160 96h-68v172h74q133 0 133 94q0 35 -26.5 56.5t-65.5 21.5t-67.5 -26.5t-38.5 -71.5
l-216 51q31 113 126 177.5t210 64.5q208 0 261 -92.5t53 -155.5z" />
    <glyph glyph-name="acute" unicode="&#xb4;" 
d="M395 1171h-254l213 295h340z" />
    <glyph glyph-name="mu" unicode="&#xb5;" horiz-adv-x="1363" 
d="M514 -463h-332v1483h332v-508q0 -163 53.5 -208.5t127.5 -45.5t118.5 63t44.5 164v535h332v-1020h-318v117h-2q-77 -131 -223 -131q-88 0 -133 41v-490z" />
    <glyph glyph-name="paragraph" unicode="&#xb6;" horiz-adv-x="1265" 
d="M49 1061q0 389 500 389h588v-1714h-238v1509h-174v-1509h-238v950q-201 4 -319.5 107t-118.5 268z" />
    <glyph glyph-name="periodcentered" unicode="&#xb7;" 
d="M514 596q0 -86 -60.5 -143.5t-145.5 -57.5t-146.5 57.5t-61.5 140.5q0 84 62 144t147 60q84 0 144.5 -57.5t60.5 -143.5z" />
    <glyph glyph-name="cedilla" unicode="&#xb8;" 
d="M369 -121q211 0 211 -174q0 -104 -93 -150.5t-182 -46.5q-164 0 -270 52l55 123q84 -39 180 -39q95 0 95 67q0 60 -97 60q-41 0 -82 -13l-63 60l137 182h168l-96 -123q10 2 12 2h25z" />
    <glyph glyph-name="onesuperior" unicode="&#xb9;" horiz-adv-x="860" 
d="M369 557v627l-152 -119l-123 166l297 219h217v-893h-239z" />
    <glyph glyph-name="ordmasculine" unicode="&#xba;" horiz-adv-x="786" 
d="M518 1177q0 52 -32.5 91t-92 39t-90.5 -39t-31 -91t31 -91t90.5 -39t92 39t32.5 91zM621.5 953.5q-91.5 -85.5 -227.5 -85.5q-135 0 -226.5 85.5t-91.5 223t90.5 222t227.5 84.5t228 -84.5t91 -222t-91.5 -223z" />
    <glyph glyph-name="guillemotright" unicode="&#xbb;" horiz-adv-x="1112" 
d="M270 45l-198 129l235 344l-237 348l200 129l330 -477zM731 45l-199 129l236 344l-236 348l199 129l332 -477z" />
    <glyph glyph-name="onequarter" unicode="&#xbc;" horiz-adv-x="1925" 
d="M369 557v627l-152 -119l-123 166l297 219h217v-893h-239zM641 -61l-178 79l786 1495l187 -81zM1470 637h-2l-180 -275h182v275zM1688 170v-170h-218v170h-409v190l358 533h269v-531h118v-192h-118z" />
    <glyph glyph-name="onehalf" unicode="&#xbd;" horiz-adv-x="1925" 
d="M369 557v627l-152 -119l-123 166l297 219h217v-893h-239zM641 -61l-178 79l786 1495l187 -81zM1178 0v188l348 320q59 50 59 113q0 37 -24.5 60.5t-68.5 23.5t-75 -34t-35 -91l-225 28q16 142 114 222.5t233 80.5t231 -70t96 -197t-62.5 -192t-93.5 -92l-178 -155h334
v-205h-653z" />
    <glyph glyph-name="threequarters" unicode="&#xbe;" horiz-adv-x="1925" 
d="M756 1227q0 -135 -117 -195q66 -23 101.5 -78t35.5 -128t-29.5 -126t-77.5 -86.5t-107.5 -50t-155 -16.5t-194 61.5t-132.5 188.5l215 57q14 -45 46 -77t79 -32q121 -1 121 95t-160 96h-68v172h74q133 0 133 94q0 35 -26.5 56.5t-65.5 21.5t-67.5 -26.5t-38.5 -71.5
l-216 51q31 113 126 177.5t210 64.5q208 0 261 -92.5t53 -155.5zM641 -61l-178 79l786 1495l187 -81zM1470 637h-2l-180 -275h182v275zM1688 170v-170h-218v170h-409v190l358 533h269v-531h118v-192h-118z" />
    <glyph glyph-name="questiondown" unicode="&#xbf;" horiz-adv-x="1118" 
d="M179.5 -341.5q-140.5 104.5 -140.5 291.5t89 266t132 112q76 58 98.5 95t22.5 101v54h319v-76q0 -141 -61 -207t-100 -102l-70 -62q-35 -33 -59.5 -66t-24.5 -89t41 -96t118 -40t121 58.5t46 134.5l327 -37q-23 -215 -167.5 -328.5t-344.5 -113.5q-206 0 -346.5 104.5z
M739 868q0 -41 -15 -75.5t-43 -61t-64.5 -42t-77.5 -15.5t-77 15.5t-63.5 41t-44 60t-16.5 75.5t15.5 77t43 61.5t64.5 41t78 15.5t76.5 -14.5t63.5 -41t44 -61.5t16 -76z" />
    <glyph glyph-name="Agrave" unicode="&#xc0;" horiz-adv-x="1492" 
d="M645 1565l-299 295h340l213 -295h-254zM743 1063l-184 -498h365zM1133 0l-113 285h-561l-107 -285h-381l609 1450h340l602 -1450h-389z" />
    <glyph glyph-name="Aacute" unicode="&#xc1;" horiz-adv-x="1492" 
d="M856 1565h-254l213 295h340zM743 1063l-184 -498h365zM1133 0l-113 285h-561l-107 -285h-381l609 1450h340l602 -1450h-389z" />
    <glyph glyph-name="Acircumflex" unicode="&#xc2;" horiz-adv-x="1492" 
d="M889 1565l-139 166l-140 -166h-262l254 295h303l250 -295h-266zM743 1063l-184 -498h365zM1133 0l-113 285h-561l-107 -285h-381l609 1450h340l602 -1450h-389z" />
    <glyph glyph-name="Atilde" unicode="&#xc3;" horiz-adv-x="1492" 
d="M467.5 1800.5q77.5 40.5 142.5 40.5t154 -41q88 -41 130 -41t60.5 23.5t28.5 60.5h145q-21 -185 -98.5 -227.5t-141.5 -42.5t-157 43q-73 41 -132 41t-83 -82h-147q21 185 98.5 225.5zM743 1063l-184 -498h365zM1133 0l-113 285h-561l-107 -285h-381l609 1450h340
l602 -1450h-389z" />
    <glyph glyph-name="Adieresis" unicode="&#xc4;" horiz-adv-x="1492" 
d="M698 1740q0 -71 -50 -119t-121.5 -48t-121 49t-49.5 116t49 118t121 51t122 -48t50 -119zM1143 1740q0 -71 -50.5 -119t-120.5 -48t-119.5 49t-49.5 116t48.5 118t119.5 51q72 0 122 -48t50 -119zM743 1063l-184 -498h365zM1133 0l-113 285h-561l-107 -285h-381l609 1450
h340l602 -1450h-389z" />
    <glyph glyph-name="Aring" unicode="&#xc5;" horiz-adv-x="1492" 
d="M872 1753q0 51 -34.5 85t-86.5 34t-86 -35t-34 -85t34.5 -84t86 -34t86 34t34.5 85zM909.5 1595.5q-65.5 -61.5 -157.5 -61.5q-91 0 -157.5 61t-66.5 157q0 95 64.5 157.5t158.5 62.5t159 -63t65 -157.5t-65.5 -156zM743 1063l-184 -498h365zM1133 0l-113 285h-561
l-107 -285h-381l609 1450h340l602 -1450h-389z" />
    <glyph glyph-name="AE" unicode="&#xc6;" horiz-adv-x="2115" 
d="M1053 1153h-21l-313 -557h334v557zM1053 0v313h-473l-181 -313h-407l848 1450h1157v-297h-611v-272h576v-281h-576v-301h648v-299h-981z" />
    <glyph glyph-name="Ccedilla" unicode="&#xc7;" horiz-adv-x="1425" 
d="M877 -121q210 0 210 -174q0 -104 -92.5 -150.5t-182.5 -46.5q-163 0 -269 52l55 123q84 -39 179 -39t95 67q0 60 -96 60q-41 0 -82 -13l-63 60l112 151q-290 36 -475.5 242.5t-185.5 515.5q0 174 60.5 315.5t224.5 294t501 152.5q154 0 302.5 -54.5t240.5 -158.5
l-237 -238q-49 68 -129 100.5t-168 32.5q-180 0 -297 -125.5t-117 -320.5t115.5 -318.5t295.5 -123.5q104 0 182.5 41t125.5 106l243 -229q-192 -222 -520 -238l-65 -86q10 2 12 2h25z" />
    <glyph glyph-name="Egrave" unicode="&#xc8;" horiz-adv-x="1243" 
d="M578 1565l-299 295h339l213 -295h-253zM150 0v1450h974v-297h-637v-272h603v-281h-603v-301h674v-299h-1011z" />
    <glyph glyph-name="Eacute" unicode="&#xc9;" horiz-adv-x="1243" 
d="M731 1565h-254l213 295h340zM150 0v1450h974v-297h-637v-272h603v-281h-603v-301h674v-299h-1011z" />
    <glyph glyph-name="Ecircumflex" unicode="&#xca;" horiz-adv-x="1243" 
d="M782 1565l-139 166l-139 -166h-262l254 295h303l250 -295h-267zM150 0v1450h974v-297h-637v-272h603v-281h-603v-301h674v-299h-1011z" />
    <glyph glyph-name="Edieresis" unicode="&#xcb;" horiz-adv-x="1243" 
d="M594 1740q0 -71 -50 -119t-122 -48t-121 49t-49 116t49 118t121 51t122 -48t50 -119zM1038 1740q0 -71 -50 -119t-121 -48t-120 49t-49 116t49 118t120 51t121 -48t50 -119zM150 0v1450h974v-297h-637v-272h603v-281h-603v-301h674v-299h-1011z" />
    <glyph glyph-name="Igrave" unicode="&#xcc;" horiz-adv-x="651" 
d="M248 1565l-299 295h340l213 -295h-254zM150 0v1450h352v-1450h-352z" />
    <glyph glyph-name="Iacute" unicode="&#xcd;" horiz-adv-x="651" 
d="M403 1565h-253l212 295h340zM150 0v1450h352v-1450h-352z" />
    <glyph glyph-name="Icircumflex" unicode="&#xce;" horiz-adv-x="651" 
d="M461 1565l-139 166l-140 -166h-262l254 295h303l250 -295h-266zM150 0v1450h352v-1450h-352z" />
    <glyph glyph-name="Idieresis" unicode="&#xcf;" horiz-adv-x="651" 
d="M274 1740q0 -71 -50 -119t-121.5 -48t-121 49t-49.5 116t49 118t121 51t122 -48t50 -119zM719 1740q0 -71 -50.5 -119t-120.5 -48t-119.5 49t-49.5 116t49 118t120 51t121 -48t50 -119zM150 0v1450h352v-1450h-352z" />
    <glyph glyph-name="Eth" unicode="&#xd0;" horiz-adv-x="1585" 
d="M1141 726q0 211 -125 315t-338 104h-184v-293h370v-219h-370v-326h151q348 0 422 154.5t74 264.5zM1317 231.5q-182 -145.5 -323.5 -188.5t-284.5 -43h-557v633h-125v219h125v598h559q340 0 564 -179.5t224 -536.5t-182 -502.5z" />
    <glyph glyph-name="Ntilde" unicode="&#xd1;" horiz-adv-x="1617" 
d="M534.5 1800.5q77.5 40.5 143.5 40.5t154 -41q87 -41 129 -41q43 0 61 23.5t29 60.5h145q-21 -185 -98.5 -227.5t-141.5 -42.5t-157 43q-73 41 -132 41t-83 -82h-148q21 185 98.5 225.5zM150 0v1450h399l581 -946h7l-9 946h340v-1450h-397l-584 948h-6l8 -948h-339z" />
    <glyph glyph-name="Ograve" unicode="&#xd2;" horiz-adv-x="1742" 
d="M825 1565l-299 295h340l213 -295h-254zM574.5 1050.5q-117.5 -123.5 -117.5 -320.5t115.5 -323t297.5 -126t299 125.5t117 321.5t-116.5 321t-297 125t-298 -123.5zM1661 732q0 -173 -59.5 -315.5t-165 -243.5t-251 -156.5t-315.5 -55.5t-314 55.5t-249.5 156.5
t-165 243.5t-59.5 315.5t59.5 313.5t165 238.5t249.5 151.5t314 53.5t315.5 -53.5t251 -151.5t165 -238.5t59.5 -313.5z" />
    <glyph glyph-name="Oacute" unicode="&#xd3;" horiz-adv-x="1742" 
d="M940 1565h-254l213 295h340zM574.5 1050.5q-117.5 -123.5 -117.5 -320.5t115.5 -323t297.5 -126t299 125.5t117 321.5t-116.5 321t-297 125t-298 -123.5zM1661 732q0 -173 -59.5 -315.5t-165 -243.5t-251 -156.5t-315.5 -55.5t-314 55.5t-249.5 156.5t-165 243.5
t-59.5 315.5t59.5 313.5t165 238.5t249.5 151.5t314 53.5t315.5 -53.5t251 -151.5t165 -238.5t59.5 -313.5z" />
    <glyph glyph-name="Ocircumflex" unicode="&#xd4;" horiz-adv-x="1742" 
d="M1010 1565l-140 166l-139 -166h-262l254 295h303l250 -295h-266zM574.5 1050.5q-117.5 -123.5 -117.5 -320.5t115.5 -323t297.5 -126t299 125.5t117 321.5t-116.5 321t-297 125t-298 -123.5zM1661 732q0 -173 -59.5 -315.5t-165 -243.5t-251 -156.5t-315.5 -55.5
t-314 55.5t-249.5 156.5t-165 243.5t-59.5 315.5t59.5 313.5t165 238.5t249.5 151.5t314 53.5t315.5 -53.5t251 -151.5t165 -238.5t59.5 -313.5z" />
    <glyph glyph-name="Otilde" unicode="&#xd5;" horiz-adv-x="1742" 
d="M592.5 1800.5q77.5 40.5 142.5 40.5t154 -41q88 -41 130 -41t60.5 23.5t28.5 60.5h145q-21 -185 -98.5 -227.5t-141.5 -42.5t-157 43q-73 41 -132 41t-83 -82h-147q21 185 98.5 225.5zM574.5 1050.5q-117.5 -123.5 -117.5 -320.5t115.5 -323t297.5 -126t299 125.5
t117 321.5t-116.5 321t-297 125t-298 -123.5zM1661 732q0 -173 -59.5 -315.5t-165 -243.5t-251 -156.5t-315.5 -55.5t-314 55.5t-249.5 156.5t-165 243.5t-59.5 315.5t59.5 313.5t165 238.5t249.5 151.5t314 53.5t315.5 -53.5t251 -151.5t165 -238.5t59.5 -313.5z" />
    <glyph glyph-name="Odieresis" unicode="&#xd6;" horiz-adv-x="1742" 
d="M821 1740q0 -71 -50 -119t-121.5 -48t-121 49t-49.5 116t49 118t121 51t122 -48t50 -119zM1266 1740q0 -71 -51 -119t-121 -48t-119 49t-49 116t48.5 118t119.5 51q72 0 122 -48t50 -119zM574.5 1050.5q-117.5 -123.5 -117.5 -320.5t115.5 -323t297.5 -126t299 125.5
t117 321.5t-116.5 321t-297 125t-298 -123.5zM1661 732q0 -173 -59.5 -315.5t-165 -243.5t-251 -156.5t-315.5 -55.5t-314 55.5t-249.5 156.5t-165 243.5t-59.5 315.5t59.5 313.5t165 238.5t249.5 151.5t314 53.5t315.5 -53.5t251 -151.5t165 -238.5t59.5 -313.5z" />
    <glyph glyph-name="multiply" unicode="&#xd7;" horiz-adv-x="1363" 
d="M1044 76l-362 354l-360 -354l-191 182l363 358l-365 357l193 186l362 -354l356 352l187 -178l-357 -354l367 -359z" />
    <glyph glyph-name="Oslash" unicode="&#xd8;" horiz-adv-x="1742" 
d="M438 727q0 -150 64 -246l594 645q-85 60 -206 60q-218 0 -335 -132.5t-117 -326.5zM868 268q192 0 312 130.5t120 313.5t-77 283l-598 -651q94 -76 243 -76zM262 225q-180 192 -180 520t222.5 535t565.5 207q258 0 449 -119l178 199l137 -121l-176 -191
q203 -207 203 -536t-166 -486t-311.5 -213.5t-315.5 -56.5h-10q-275 0 -459 141l-182 -194l-137 117z" />
    <glyph glyph-name="Ugrave" unicode="&#xd9;" horiz-adv-x="1511" 
d="M709 1565l-299 295h340l213 -295h-254zM1378 547q0 -263 -172 -424.5t-454 -161.5t-449.5 161.5t-167.5 424.5v903h348v-875q0 -124 66.5 -211.5t206 -87.5t206 85.5t66.5 213.5v875h350v-903z" />
    <glyph glyph-name="Uacute" unicode="&#xda;" horiz-adv-x="1511" 
d="M813 1565h-254l213 295h340zM1378 547q0 -263 -172 -424.5t-454 -161.5t-449.5 161.5t-167.5 424.5v903h348v-875q0 -124 66.5 -211.5t206 -87.5t206 85.5t66.5 213.5v875h350v-903z" />
    <glyph glyph-name="Ucircumflex" unicode="&#xdb;" horiz-adv-x="1511" 
d="M895 1565l-139 166l-140 -166h-262l254 295h303l250 -295h-266zM1378 547q0 -263 -172 -424.5t-454 -161.5t-449.5 161.5t-167.5 424.5v903h348v-875q0 -124 66.5 -211.5t206 -87.5t206 85.5t66.5 213.5v875h350v-903z" />
    <glyph glyph-name="Udieresis" unicode="&#xdc;" horiz-adv-x="1511" 
d="M707 1740q0 -71 -50.5 -119t-122 -48t-120.5 49t-49 116t48.5 118t120.5 51q73 0 123 -48t50 -119zM1151 1740q0 -71 -50 -119t-121 -48t-120 49t-49 116t49 118t120 51t121 -48t50 -119zM1378 547q0 -263 -172 -424.5t-454 -161.5t-449.5 161.5t-167.5 424.5v903h348
v-875q0 -124 66.5 -211.5t206 -87.5t206 85.5t66.5 213.5v875h350v-903z" />
    <glyph glyph-name="Yacute" unicode="&#xdd;" horiz-adv-x="1370" 
d="M813 1565h-254l213 295h340zM854 0h-350v614l-545 836h424l309 -537l309 537h410l-557 -836v-614z" />
    <glyph glyph-name="Thorn" unicode="&#xde;" horiz-adv-x="1310" 
d="M647 578q252 0 252 176q0 139 -99.5 153.5t-146.5 14.5h-153v-344h147zM1249 755q0 -237 -163.5 -346.5t-411.5 -109.5h-174v-299h-350v1450h350v-248h182q401 0 484 -160.5t83 -286.5z" />
    <glyph glyph-name="germandbls" unicode="&#xdf;" horiz-adv-x="1366" 
d="M881.5 308q66.5 48 66.5 164t-77.5 174.5t-198.5 58.5h-43v264h45q107 0 141.5 55t34.5 116t-43 110.5t-117 49.5q-126 0 -174.5 -81t-48.5 -195v-1024h-336v1026q0 381 207.5 464t331.5 83q231 0 374.5 -111.5t143.5 -298.5q0 -115 -61.5 -196.5t-151.5 -110.5v-2
q141 -29 227 -134.5t86 -264.5q0 -222 -142.5 -352t-381.5 -130q-96 0 -197 25v289q79 -27 163 -27q85 0 151.5 48z" />
    <glyph glyph-name="agrave" unicode="&#xe0;" horiz-adv-x="1159" 
d="M528 1171l-299 295h340l213 -295h-254zM68 295q0 344 655 344v16q0 76 -53.5 112t-130.5 36q-137 0 -252 -105l-170 183q90 86 209.5 129t246.5 43q253 0 360 -129.5t107 -409.5v-514h-307v109h-6q-39 -63 -118 -98.5t-155 -35.5q-159 0 -272.5 77t-113.5 243zM377 313
q0 -112 145 -112q102 0 156.5 56t54.5 153v34h-43q-137 0 -225 -28t-88 -103z" />
    <glyph glyph-name="aacute" unicode="&#xe1;" horiz-adv-x="1159" 
d="M639 1171h-254l213 295h340zM68 295q0 344 655 344v16q0 76 -53.5 112t-130.5 36q-137 0 -252 -105l-170 183q90 86 209.5 129t246.5 43q253 0 360 -129.5t107 -409.5v-514h-307v109h-6q-39 -63 -118 -98.5t-155 -35.5q-159 0 -272.5 77t-113.5 243zM377 313
q0 -112 145 -112q102 0 156.5 56t54.5 153v34h-43q-137 0 -225 -28t-88 -103z" />
    <glyph glyph-name="acircumflex" unicode="&#xe2;" horiz-adv-x="1159" 
d="M721 1171l-139 166l-140 -166h-262l254 295h303l250 -295h-266zM68 295q0 344 655 344v16q0 76 -53.5 112t-130.5 36q-137 0 -252 -105l-170 183q90 86 209.5 129t246.5 43q253 0 360 -129.5t107 -409.5v-514h-307v109h-6q-39 -63 -118 -98.5t-155 -35.5
q-159 0 -272.5 77t-113.5 243zM377 313q0 -112 145 -112q102 0 156.5 56t54.5 153v34h-43q-137 0 -225 -28t-88 -103z" />
    <glyph glyph-name="atilde" unicode="&#xe3;" horiz-adv-x="1159" 
d="M307.5 1407.5q77.5 40.5 140.5 40.5t154 -41q92 -41 133 -41t59.5 23.5t28.5 60.5h146q-21 -184 -98.5 -227t-142.5 -43t-157 43q-73 41 -130 41t-85 -82h-147q21 185 98.5 225.5zM68 295q0 344 655 344v16q0 76 -53.5 112t-130.5 36q-137 0 -252 -105l-170 183
q90 86 209.5 129t246.5 43q253 0 360 -129.5t107 -409.5v-514h-307v109h-6q-39 -63 -118 -98.5t-155 -35.5q-159 0 -272.5 77t-113.5 243zM377 313q0 -112 145 -112q102 0 156.5 56t54.5 153v34h-43q-137 0 -225 -28t-88 -103z" />
    <glyph glyph-name="adieresis" unicode="&#xe4;" horiz-adv-x="1159" 
d="M532 1347q0 -71 -50 -119t-121.5 -48t-121 49t-49.5 116t48.5 117.5t120.5 50.5q73 0 123 -47.5t50 -118.5zM977 1347q0 -71 -50 -119t-121 -48t-120 49t-49 116t48.5 117.5t119.5 50.5q72 0 122 -47.5t50 -118.5zM68 295q0 344 655 344v16q0 76 -53.5 112t-130.5 36
q-137 0 -252 -105l-170 183q90 86 209.5 129t246.5 43q253 0 360 -129.5t107 -409.5v-514h-307v109h-6q-39 -63 -118 -98.5t-155 -35.5q-159 0 -272.5 77t-113.5 243zM377 313q0 -112 145 -112q102 0 156.5 56t54.5 153v34h-43q-137 0 -225 -28t-88 -103z" />
    <glyph glyph-name="aring" unicode="&#xe5;" horiz-adv-x="1159" 
d="M709 1360q0 51 -35 85t-87 34t-86 -35t-34 -85t35 -84t86 -34t86 34t35 85zM745.5 1202.5q-65.5 -61.5 -157.5 -61.5q-91 0 -157 60.5t-66 156.5t64.5 158.5t157.5 62.5t158.5 -63t65.5 -157.5t-65.5 -156zM68 295q0 344 655 344v16q0 76 -53.5 112t-130.5 36
q-137 0 -252 -105l-170 183q90 86 209.5 129t246.5 43q253 0 360 -129.5t107 -409.5v-514h-307v109h-6q-39 -63 -118 -98.5t-155 -35.5q-159 0 -272.5 77t-113.5 243zM377 313q0 -112 145 -112q102 0 156.5 56t54.5 153v34h-43q-137 0 -225 -28t-88 -103z" />
    <glyph glyph-name="ae" unicode="&#xe6;" horiz-adv-x="1841" 
d="M68 295q0 192 176.5 261t478.5 69v14q0 164 -182 164q-72 0 -139.5 -31t-114.5 -74l-168 183q88 86 207.5 129t245.5 43t207 -45t122 -105q55 66 145 108t204 42q230 0 371.5 -149t141.5 -406q0 -44 -4 -80h-737q10 -86 79.5 -139.5t162.5 -53.5q150 0 225 107l231 -148
q-150 -217 -463 -217q-121 0 -222 48t-161 137q-107 -177 -413 -177q-152 0 -272.5 79.5t-120.5 240.5zM1452 627q0 80 -50 137t-149 57t-164 -57.5t-69 -136.5h432zM377 305q0 -104 165 -104q82 0 136.5 51t54.5 139v33h-43q-145 0 -229 -22.5t-84 -96.5z" />
    <glyph glyph-name="ccedilla" unicode="&#xe7;" horiz-adv-x="1030" 
d="M670 -121q211 0 211 -174q0 -104 -93 -150.5t-182 -46.5q-164 0 -270 52l55 123q84 -39 180 -39q95 0 95 67q0 60 -97 60q-41 0 -82 -13l-63 60l119 157q-205 29 -334 174t-129 376t162.5 379.5t406.5 148.5q104 0 209.5 -37t169.5 -101l-194 -225q-29 37 -78.5 59.5
t-101.5 22.5t-95 -21.5t-73.5 -57.5t-48 -83t-17.5 -129t66 -156.5t173 -74.5q51 0 101.5 19.5t81.5 56.5l186 -228q-116 -112 -323 -129l-72 -92q10 2 12 2h25z" />
    <glyph glyph-name="egrave" unicode="&#xe8;" horiz-adv-x="1220" 
d="M569 1171l-299 295h340l213 -295h-254zM641 -33q-238 0 -399.5 143.5t-161.5 392.5t157 399.5t390 150.5t374.5 -150t141.5 -405v-31q0 -31 -2 -49h-740q8 -82 80.5 -137.5t163.5 -55.5q148 0 225 107l234 -148q-150 -217 -463 -217zM834 627q0 80 -50.5 137t-148.5 57
t-164 -57t-70 -137h433z" />
    <glyph glyph-name="eacute" unicode="&#xe9;" horiz-adv-x="1220" 
d="M678 1171h-254l213 295h340zM641 -33q-238 0 -399.5 143.5t-161.5 392.5t157 399.5t390 150.5t374.5 -150t141.5 -405v-31q0 -31 -2 -49h-740q8 -82 80.5 -137.5t163.5 -55.5q148 0 225 107l234 -148q-150 -217 -463 -217zM834 627q0 80 -50.5 137t-148.5 57t-164 -57
t-70 -137h433z" />
    <glyph glyph-name="ecircumflex" unicode="&#xea;" horiz-adv-x="1220" 
d="M780 1171l-139 166l-139 -166h-262l254 295h303l250 -295h-267zM641 -33q-238 0 -399.5 143.5t-161.5 392.5t157 399.5t390 150.5t374.5 -150t141.5 -405v-31q0 -31 -2 -49h-740q8 -82 80.5 -137.5t163.5 -55.5q148 0 225 107l234 -148q-150 -217 -463 -217zM834 627
q0 80 -50.5 137t-148.5 57t-164 -57t-70 -137h433z" />
    <glyph glyph-name="edieresis" unicode="&#xeb;" horiz-adv-x="1220" 
d="M590 1347q0 -71 -50.5 -119t-122 -48t-120.5 49t-49 116t48 117.5t121 50.5t123 -47.5t50 -118.5zM1034 1347q0 -71 -50 -119t-121 -48t-120 49t-49 116t48.5 117.5t119.5 50.5q72 0 122 -47.5t50 -118.5zM641 -33q-238 0 -399.5 143.5t-161.5 392.5t157 399.5t390 150.5
t374.5 -150t141.5 -405v-31q0 -31 -2 -49h-740q8 -82 80.5 -137.5t163.5 -55.5q148 0 225 107l234 -148q-150 -217 -463 -217zM834 627q0 80 -50.5 137t-148.5 57t-164 -57t-70 -137h433z" />
    <glyph glyph-name="igrave" unicode="&#xec;" horiz-adv-x="606" 
d="M213 1171l-299 295h340l213 -295h-254zM135 0v1020h336v-1020h-336z" />
    <glyph glyph-name="iacute" unicode="&#xed;" horiz-adv-x="606" 
d="M391 1171h-254l213 295h340zM135 0v1020h336v-1020h-336z" />
    <glyph glyph-name="icircumflex" unicode="&#xee;" horiz-adv-x="606" 
d="M446 1171l-139 166l-139 -166h-262l254 295h303l250 -295h-267zM135 0v1020h336v-1020h-336z" />
    <glyph glyph-name="idieresis" unicode="&#xef;" horiz-adv-x="606" 
d="M256 1347q0 -71 -50 -119t-122 -48t-121 49t-49 116t48.5 117.5t120.5 50.5q73 0 123 -47.5t50 -118.5zM700 1347q0 -71 -50 -119t-121 -48t-120 49t-49 116t48.5 117.5t119.5 50.5q72 0 122 -47.5t50 -118.5zM135 0v1020h336v-1020h-336z" />
    <glyph glyph-name="eth" unicode="&#xf0;" horiz-adv-x="1294" 
d="M891 512q0 49 -16.5 95t-47 83t-76.5 59.5t-105.5 22.5t-104.5 -22.5t-76 -59.5t-46.5 -83t-15.5 -95t16.5 -96t47.5 -84t76 -59.5t104.5 -22.5t104.5 22.5t75.5 59.5t47 84t16.5 96zM1214 578q0 -281 -155 -446t-404 -165q-250 0 -412.5 149t-162.5 392q0 244 155.5 390
t385.5 146q104 0 167 -51l5 2q-107 156 -201 234l-221 -99l-164 144l223 96q-53 53 -154 121l261 145q57 -43 102 -83t74 -64l231 102l178 -145l-248 -107q340 -368 340 -761z" />
    <glyph glyph-name="ntilde" unicode="&#xf1;" horiz-adv-x="1261" 
d="M356.5 1407.5q77.5 40.5 140.5 40.5t154 -41q92 -41 133 -41t59.5 23.5t28.5 60.5h146q-21 -185 -98.5 -227.5t-141.5 -42.5t-157 43q-73 41 -131 41t-84 -82h-148q21 185 98.5 225.5zM801 557q0 215 -119 215t-166 -63.5t-47 -155.5v-553h-338v1020h326v-141h4
q61 112 156 141t173 29t213.5 -69.5t135.5 -348.5v-631h-338v557z" />
    <glyph glyph-name="ograve" unicode="&#xf2;" horiz-adv-x="1294" 
d="M559 1171l-299 295h340l213 -295h-254zM889 514q0 49 -16.5 96t-47 83t-75.5 58.5t-104.5 22.5t-104.5 -22.5t-75 -58.5t-45 -83t-15 -96t15 -96t46 -85t76 -60.5t104.5 -22.5t104.5 22.5t75.5 60.5t46 85t15.5 96zM1046.5 117.5q-165.5 -150.5 -401.5 -150.5
t-400.5 150.5t-164.5 396t163 392.5t402 147t403 -147t164 -392.5t-165.5 -396z" />
    <glyph glyph-name="oacute" unicode="&#xf3;" horiz-adv-x="1294" 
d="M725 1171h-254l213 295h340zM889 514q0 49 -16.5 96t-47 83t-75.5 58.5t-104.5 22.5t-104.5 -22.5t-75 -58.5t-45 -83t-15 -96t15 -96t46 -85t76 -60.5t104.5 -22.5t104.5 22.5t75.5 60.5t46 85t15.5 96zM1046.5 117.5q-165.5 -150.5 -401.5 -150.5t-400.5 150.5
t-164.5 396t163 392.5t402 147t403 -147t164 -392.5t-165.5 -396z" />
    <glyph glyph-name="ocircumflex" unicode="&#xf4;" horiz-adv-x="1294" 
d="M780 1180l-135 161l-135 -161h-256l248 286h295l241 -286h-258zM889 514q0 49 -16.5 96t-47 83t-75.5 58.5t-104.5 22.5t-104.5 -22.5t-75 -58.5t-45 -83t-15 -96t15 -96t46 -85t76 -60.5t104.5 -22.5t104.5 22.5t75.5 60.5t46 85t15.5 96zM1046.5 117.5
q-165.5 -150.5 -401.5 -150.5t-400.5 150.5t-164.5 396t163 392.5t402 147t403 -147t164 -392.5t-165.5 -396z" />
    <glyph glyph-name="otilde" unicode="&#xf5;" horiz-adv-x="1294" 
d="M266 1182q30 266 239 266q63 0 155 -41t133 -41t59 23.5t29 60.5h145q-21 -185 -98.5 -227.5t-141.5 -42.5t-157 43q-73 41 -131 41t-84 -82h-148zM889 514q0 49 -16.5 96t-47 83t-75.5 58.5t-104.5 22.5t-104.5 -22.5t-75 -58.5t-45 -83t-15 -96t15 -96t46 -85t76 -60.5
t104.5 -22.5t104.5 22.5t75.5 60.5t46 85t15.5 96zM1046.5 117.5q-165.5 -150.5 -401.5 -150.5t-400.5 150.5t-164.5 396t163 392.5t402 147t403 -147t164 -392.5t-165.5 -396z" />
    <glyph glyph-name="odieresis" unicode="&#xf6;" horiz-adv-x="1294" 
d="M594 1347q0 -71 -50 -119t-122 -48t-121 49t-49 116t48.5 117.5t120.5 50.5q73 0 123 -47.5t50 -118.5zM1038 1347q0 -71 -50 -119t-121 -48t-120 49t-49 116t48.5 117.5t119.5 50.5q72 0 122 -47.5t50 -118.5zM889 514q0 49 -16.5 96t-47 83t-75.5 58.5t-104.5 22.5
t-104.5 -22.5t-75 -58.5t-45 -83t-15 -96t15 -96t46 -85t76 -60.5t104.5 -22.5t104.5 22.5t75.5 60.5t46 85t15.5 96zM1046.5 117.5q-165.5 -150.5 -401.5 -150.5t-400.5 150.5t-164.5 396t163 392.5t402 147t403 -147t164 -392.5t-165.5 -396z" />
    <glyph glyph-name="divide" unicode="&#xf7;" horiz-adv-x="1363" 
d="M162 492v260h1038v-260h-1038zM504 239.5q0 34.5 14 66.5t39 55.5t56.5 37t68.5 13.5t68.5 -13.5t55 -37t38 -55.5t14.5 -66.5t-14.5 -66.5t-38 -55.5t-55 -37.5t-68.5 -14t-68.5 14t-56.5 37.5t-39 55.5t-14 66.5zM806.5 1122q51.5 -52 51.5 -122t-51.5 -121.5
t-123.5 -51.5t-125.5 49.5t-53.5 123.5q0 73 53.5 123.5t125.5 50.5t123.5 -52z" />
    <glyph glyph-name="oslash" unicode="&#xf8;" horiz-adv-x="1294" 
d="M893 491q0 94 -27 136l-342 -344q47 -41 116 -41q124 0 188.5 77.5t64.5 171.5zM393 538q0 -92 29 -135l340 345q-55 38 -117 38q-117 0 -184.5 -78t-67.5 -170zM80 512q0 243 163.5 393t401.5 150q193 0 328 -101l147 148l123 -119l-143 -141q113 -131 112 -330
q0 -240 -163 -392.5t-404 -152.5q-188 0 -321 96l-154 -151l-121 119l148 145q-117 135 -117 336z" />
    <glyph glyph-name="ugrave" unicode="&#xf9;" horiz-adv-x="1257" 
d="M582 1171l-299 295h340l213 -295h-254zM803 0v141h-4q-57 -110 -155 -140t-176 -30t-212.5 70t-134.5 348v631h338v-553q0 -100 23.5 -141t52 -58.5t75.5 -17.5q88 0 134.5 65.5t46.5 153.5v551h335v-1020h-323z" />
    <glyph glyph-name="uacute" unicode="&#xfa;" horiz-adv-x="1257" 
d="M702 1171h-253l213 295h339zM803 0v141h-4q-57 -110 -155 -140t-176 -30t-212.5 70t-134.5 348v631h338v-553q0 -100 23.5 -141t52 -58.5t75.5 -17.5q88 0 134.5 65.5t46.5 153.5v551h335v-1020h-323z" />
    <glyph glyph-name="ucircumflex" unicode="&#xfb;" horiz-adv-x="1257" 
d="M768 1171l-139 166l-140 -166h-262l254 295h303l250 -295h-266zM803 0v141h-4q-57 -110 -155 -140t-176 -30t-212.5 70t-134.5 348v631h338v-553q0 -100 23.5 -141t52 -58.5t75.5 -17.5q88 0 134.5 65.5t46.5 153.5v551h335v-1020h-323z" />
    <glyph glyph-name="udieresis" unicode="&#xfc;" horiz-adv-x="1257" 
d="M578 1347q0 -71 -50.5 -119t-122 -48t-120.5 49t-49 116t48 117.5t121 50.5t123 -47.5t50 -118.5zM1022 1347q0 -71 -50 -119t-121 -48t-120 49t-49 116t48.5 117.5t119.5 50.5q72 0 122 -47.5t50 -118.5zM803 0v141h-4q-57 -110 -155 -140t-176 -30t-212.5 70
t-134.5 348v631h338v-553q0 -100 23.5 -141t52 -58.5t75.5 -17.5q88 0 134.5 65.5t46.5 153.5v551h335v-1020h-323z" />
    <glyph glyph-name="yacute" unicode="&#xfd;" horiz-adv-x="1161" 
d="M700 1171h-254l213 295h340zM234 -205q63 0 98 36t59 101l33 84l-426 1004h373l227 -655h6l203 655h356l-456 -1174q-65 -169 -165 -253.5t-284 -84.5q-99 0 -184 23l37 283q60 -19 123 -19z" />
    <glyph glyph-name="thorn" unicode="&#xfe;" horiz-adv-x="1349" 
d="M879 697q-65 77 -175 77t-178.5 -80t-68.5 -182t68 -182t179 -80t175.5 78.5t64.5 185t-65 183.5zM1136.5 131q-131.5 -160 -354.5 -160q-94 0 -179 39t-130 105h-4v-607h-334v2040h334v-637h6q43 51 120 94.5t189 43.5t201.5 -43t186 -157.5t96.5 -336t-131.5 -381.5z
" />
    <glyph glyph-name="ydieresis" unicode="&#xff;" horiz-adv-x="1161" 
d="M549 1347q0 -71 -50 -119t-122 -48t-121 49t-49 117t48.5 117.5t121.5 49.5q72 0 122 -47.5t50 -118.5zM993 1347q0 -71 -50 -119t-121 -48t-120 49t-49 116t48.5 117.5t119.5 50.5q72 0 122 -47.5t50 -118.5zM234 -205q63 0 98 36t59 101l33 84l-426 1004h373l227 -655
h6l203 655h356l-456 -1174q-65 -169 -165 -253.5t-284 -84.5q-99 0 -184 23l37 283q60 -19 123 -19z" />
    <glyph glyph-name="Amacron" unicode="&#x100;" horiz-adv-x="1492" 
d="M401 1624v176h689v-176h-689zM743 1063l-184 -498h365zM1133 0l-113 285h-561l-107 -285h-381l609 1450h340l602 -1450h-389z" />
    <glyph glyph-name="amacron" unicode="&#x101;" horiz-adv-x="1159" 
d="M242 1231v176h688v-176h-688zM68 295q0 344 655 344v16q0 76 -53.5 112t-130.5 36q-137 0 -252 -105l-170 183q90 86 209.5 129t246.5 43q253 0 360 -129.5t107 -409.5v-514h-307v109h-6q-39 -63 -118 -98.5t-155 -35.5q-159 0 -272.5 77t-113.5 243zM377 313
q0 -112 145 -112q102 0 156.5 56t54.5 153v34h-43q-137 0 -225 -28t-88 -103z" />
    <glyph glyph-name="Abreve" unicode="&#x102;" horiz-adv-x="1492" 
d="M741 1565q-234 0 -291 107.5t-63 187.5h172q21 -113 184 -113q70 0 120 20.5t65 92.5h172q-11 -151 -108 -223t-251 -72zM743 1063l-184 -498h365zM1133 0l-113 285h-561l-107 -285h-381l609 1450h340l602 -1450h-389z" />
    <glyph glyph-name="abreve" unicode="&#x103;" horiz-adv-x="1159" 
d="M586 1354q70 0 120 20.5t64 91.5h172q-11 -150 -108.5 -222.5t-249.5 -72.5q-235 0 -291.5 107.5t-63.5 187.5h172q23 -112 185 -112zM68 295q0 344 655 344v16q0 76 -53.5 112t-130.5 36q-137 0 -252 -105l-170 183q90 86 209.5 129t246.5 43q253 0 360 -129.5
t107 -409.5v-514h-307v109h-6q-39 -63 -118 -98.5t-155 -35.5q-159 0 -272.5 77t-113.5 243zM377 313q0 -112 145 -112q102 0 156.5 56t54.5 153v34h-43q-137 0 -225 -28t-88 -103z" />
    <glyph glyph-name="Aogonek" unicode="&#x104;" horiz-adv-x="1492" 
d="M743 1063l-184 -498h365zM926 -300q0 147 209 300h-2l-113 285h-561l-107 -285h-381l609 1450h340l602 -1450h-199q-184 -144 -184 -242q0 -33 21.5 -53t64.5 -20t102 41l66 -127q-110 -82 -250 -82q-139 0 -178 68.5t-39 114.5z" />
    <glyph glyph-name="aogonek" unicode="&#x105;" horiz-adv-x="1159" 
d="M377 313q0 -112 145 -112q102 0 156.5 56t54.5 153v34h-43q-137 0 -225 -28t-88 -103zM68 295q0 344 655 344v16q0 76 -53.5 112t-130.5 36q-137 0 -252 -105l-170 183q90 86 209.5 129t246.5 43q253 0 360 -129.5t107 -409.5v-514h-127q-184 -144 -184 -242
q0 -33 21.5 -53t65.5 -20t102 41l65 -127q-110 -82 -250 -82q-139 0 -178 68.5t-39 115.5q0 81 65 163.5t152 139.5v105h-6q-39 -63 -118 -98.5t-155 -35.5q-159 0 -272.5 77t-113.5 243z" />
    <glyph glyph-name="Cacute" unicode="&#x106;" horiz-adv-x="1425" 
d="M928 1565h-254l213 295h340zM82 729q0 172 60.5 313.5t224.5 294t501 152.5q154 0 302.5 -54.5t240.5 -158.5l-237 -238q-49 68 -129 100.5t-168 32.5q-180 0 -297 -125.5t-117 -320.5t115.5 -318.5t295.5 -123.5q104 0 182.5 41t125.5 106l243 -229q-208 -240 -554 -240
t-567.5 214t-221.5 554z" />
    <glyph glyph-name="cacute" unicode="&#x107;" horiz-adv-x="1030" 
d="M731 1171h-254l213 295h340zM654 772q-52 0 -95 -21.5t-73.5 -57.5t-48 -83t-17.5 -129t66 -156.5t173 -74.5q51 0 101.5 19.5t81.5 56.5l186 -228q-63 -61 -163.5 -96t-217.5 -35q-244 0 -405.5 148t-161.5 394t162.5 395t406.5 149q104 0 209.5 -37t169.5 -101
l-194 -225q-29 37 -78.5 59.5t-101.5 22.5z" />
    <glyph glyph-name="Ccircumflex" unicode="&#x108;" horiz-adv-x="1425" 
d="M1014 1565l-140 166l-139 -166h-262l254 295h303l250 -295h-266zM82 729q0 172 60.5 313.5t224.5 294t501 152.5q154 0 302.5 -54.5t240.5 -158.5l-237 -238q-49 68 -129 100.5t-168 32.5q-180 0 -297 -125.5t-117 -320.5t115.5 -318.5t295.5 -123.5q104 0 182.5 41
t125.5 106l243 -229q-208 -240 -554 -240t-567.5 214t-221.5 554z" />
    <glyph glyph-name="ccircumflex" unicode="&#x109;" horiz-adv-x="1030" 
d="M791 1171l-140 166l-139 -166h-262l254 295h303l250 -295h-266zM654 772q-52 0 -95 -21.5t-73.5 -57.5t-48 -83t-17.5 -129t66 -156.5t173 -74.5q51 0 101.5 19.5t81.5 56.5l186 -228q-63 -61 -163.5 -96t-217.5 -35q-244 0 -405.5 148t-161.5 394t162.5 395t406.5 149
q104 0 209.5 -37t169.5 -101l-194 -225q-29 37 -78.5 59.5t-101.5 22.5z" />
    <glyph glyph-name="Cdotaccent" unicode="&#x10a;" horiz-adv-x="1425" 
d="M1055 1738.5q0 -73.5 -53.5 -123.5t-131 -50t-130 51t-52.5 122.5t52.5 124t130 52.5t131 -51.5t53.5 -125zM82 729q0 172 60.5 313.5t224.5 294t501 152.5q154 0 302.5 -54.5t240.5 -158.5l-237 -238q-49 68 -129 100.5t-168 32.5q-180 0 -297 -125.5t-117 -320.5
t115.5 -318.5t295.5 -123.5q104 0 182.5 41t125.5 106l243 -229q-208 -240 -554 -240t-567.5 214t-221.5 554z" />
    <glyph glyph-name="cdotaccent" unicode="&#x10b;" horiz-adv-x="1030" 
d="M840 1345.5q0 -73.5 -53.5 -124t-131 -50.5t-130 51.5t-52.5 123t52.5 124t130 52.5t131 -51.5t53.5 -125zM654 772q-52 0 -95 -21.5t-73.5 -57.5t-48 -83t-17.5 -129t66 -156.5t173 -74.5q51 0 101.5 19.5t81.5 56.5l186 -228q-63 -61 -163.5 -96t-217.5 -35
q-244 0 -405.5 148t-161.5 394t162.5 395t406.5 149q104 0 209.5 -37t169.5 -101l-194 -225q-29 37 -78.5 59.5t-101.5 22.5z" />
    <glyph glyph-name="Ccaron" unicode="&#x10c;" horiz-adv-x="1425" 
d="M1026 1565h-301l-254 295h266l140 -166l139 166h262zM82 729q0 172 60.5 313.5t224.5 294t501 152.5q154 0 302.5 -54.5t240.5 -158.5l-237 -238q-49 68 -129 100.5t-168 32.5q-180 0 -297 -125.5t-117 -320.5t115.5 -318.5t295.5 -123.5q104 0 182.5 41t125.5 106
l243 -229q-208 -240 -554 -240t-567.5 214t-221.5 554z" />
    <glyph glyph-name="ccaron" unicode="&#x10d;" horiz-adv-x="1030" 
d="M801 1171h-301l-254 295h266l139 -166l140 166h262zM654 772q-52 0 -95 -21.5t-73.5 -57.5t-48 -83t-17.5 -129t66 -156.5t173 -74.5q51 0 101.5 19.5t81.5 56.5l186 -228q-63 -61 -163.5 -96t-217.5 -35q-244 0 -405.5 148t-161.5 394t162.5 395t406.5 149
q104 0 209.5 -37t169.5 -101l-194 -225q-29 37 -78.5 59.5t-101.5 22.5z" />
    <glyph glyph-name="Dcaron" unicode="&#x10e;" horiz-adv-x="1585" 
d="M883 1565h-301l-254 295h266l139 -166l139 166h263zM1139 730q0 226 -135 323.5t-338 97.5h-174v-848h165q333 0 407.5 152.5t74.5 274.5zM1503 736q0 -366 -241 -551t-572 -185h-540v1450h524q351 0 518.5 -119t239 -258t71.5 -337z" />
    <glyph glyph-name="dcaron" unicode="&#x10f;" horiz-adv-x="1347" 
d="M1528 1051h-258l137 399h297zM891 512q0 102 -68 182t-178 80t-176 -76.5t-66 -184t65.5 -185.5t175.5 -78t178.5 80t68.5 182zM903 0v133h-4q-49 -78 -140 -120t-200 -42t-199 45t-152.5 120t-95 173.5t-32.5 262.5t132.5 320.5t348.5 156.5q113 0 190.5 -43t120.5 -95
h5v637h335v-1548h-309z" />
    <glyph glyph-name="Dcroat" unicode="&#x110;" horiz-adv-x="1585" 
d="M1141 726q0 211 -125 315t-338 104h-184v-293h370v-219h-370v-326h151q348 0 422 154.5t74 264.5zM1317 231.5q-182 -145.5 -323.5 -188.5t-284.5 -43h-557v633h-125v219h125v598h559q340 0 564 -179.5t224 -536.5t-182 -502.5z" />
    <glyph glyph-name="dcroat" unicode="&#x111;" horiz-adv-x="1347" 
d="M891 512q0 102 -68 182t-178 80t-176 -76.5t-66 -184t65.5 -185.5t175.5 -78t178.5 80t68.5 182zM903 0v133h-4q-49 -78 -140 -120t-200 -42t-199 45t-152.5 120t-95 173.5t-32.5 262.5t132.5 320.5t348.5 156.5q113 0 190.5 -43t120.5 -95h5v256h-306v183h306v198h335
v-198h95v-183h-95v-1167h-309z" />
    <glyph glyph-name="Emacron" unicode="&#x112;" horiz-adv-x="1243" 
d="M291 1624v176h688v-176h-688zM150 0v1450h974v-297h-637v-272h603v-281h-603v-301h674v-299h-1011z" />
    <glyph glyph-name="emacron" unicode="&#x113;" horiz-adv-x="1220" 
d="M295 1231v176h688v-176h-688zM641 -33q-238 0 -399.5 143.5t-161.5 392.5t157 399.5t390 150.5t374.5 -150t141.5 -405v-31q0 -31 -2 -49h-740q8 -82 80.5 -137.5t163.5 -55.5q148 0 225 107l234 -148q-150 -217 -463 -217zM834 627q0 80 -50.5 137t-148.5 57t-164 -57
t-70 -137h433z" />
    <glyph glyph-name="Ebreve" unicode="&#x114;" horiz-adv-x="1243" 
d="M635 1747q70 0 120 20.5t64 92.5h172q-11 -152 -108 -223.5t-250 -71.5q-236 0 -292 107.5t-62 187.5h172q21 -113 184 -113zM150 0v1450h974v-297h-637v-272h603v-281h-603v-301h674v-299h-1011z" />
    <glyph glyph-name="ebreve" unicode="&#x115;" horiz-adv-x="1220" 
d="M639 1354q70 0 120 20.5t64 91.5h172q-11 -151 -108 -223t-250 -72q-235 0 -291.5 107.5t-62.5 187.5h172q23 -112 184 -112zM641 -33q-238 0 -399.5 143.5t-161.5 392.5t157 399.5t390 150.5t374.5 -150t141.5 -405v-31t-2 -49h-740q8 -82 80.5 -137.5t163.5 -55.5
q148 0 225 107l234 -148q-150 -217 -463 -217zM834 627q0 80 -50.5 137t-148.5 57t-164 -57t-70 -137h433z" />
    <glyph glyph-name="Edotaccent" unicode="&#x116;" horiz-adv-x="1243" 
d="M819 1738.5q0 -73.5 -53 -123.5t-131 -50t-130 51t-52 122.5t52 124t130 52.5t131 -51.5t53 -125zM150 0v1450h974v-297h-637v-272h603v-281h-603v-301h674v-299h-1011z" />
    <glyph glyph-name="edotaccent" unicode="&#x117;" horiz-adv-x="1220" 
d="M821 1345.5q0 -73.5 -53 -124t-131 -50.5t-130 51.5t-52 123t52 124t130 52.5t131 -51.5t53 -125zM641 -33q-238 0 -399.5 143.5t-161.5 392.5t157 399.5t390 150.5t374.5 -150t141.5 -405v-31q0 -31 -2 -49h-740q8 -82 80.5 -137.5t163.5 -55.5q148 0 225 107l234 -148
q-150 -217 -463 -217zM834 627q0 80 -50.5 137t-148.5 57t-164 -57t-70 -137h433z" />
    <glyph glyph-name="Eogonek" unicode="&#x118;" horiz-adv-x="1243" 
d="M729 -300q0 147 209 300h-788v1450h974v-297h-637v-272h603v-281h-603v-301h674v-299h-35q-184 -144 -184 -242q0 -33 21.5 -53t65.5 -20t101 41l66 -127q-110 -82 -250 -82q-139 0 -178 68.5t-39 114.5z" />
    <glyph glyph-name="eogonek" unicode="&#x119;" horiz-adv-x="1220" 
d="M834 627q0 80 -50.5 137t-148.5 57t-164 -57t-70 -137h433zM422 -297q0 127 168 266q-222 13 -366 157t-144 385t157 391.5t390 150.5t374.5 -150t141.5 -405v-31q0 -31 -2 -49h-740q8 -82 80.5 -137.5t163.5 -55.5q148 0 225 107l234 -148q-104 -156 -305 -198
q-164 -138 -164 -228q0 -33 21.5 -53t65.5 -20t101 41l66 -127q-110 -82 -250 -82q-139 0 -178 68.5t-39 117.5z" />
    <glyph glyph-name="Ecaron" unicode="&#x11a;" horiz-adv-x="1243" 
d="M788 1565h-301l-254 295h267l139 -166l139 166h262zM150 0v1450h974v-297h-637v-272h603v-281h-603v-301h674v-299h-1011z" />
    <glyph glyph-name="ecaron" unicode="&#x11b;" horiz-adv-x="1220" 
d="M791 1171h-302l-253 295h266l139 -166l139 166h262zM641 -33q-238 0 -399.5 143.5t-161.5 392.5t157 399.5t390 150.5t374.5 -150t141.5 -405v-31q0 -31 -2 -49h-740q8 -82 80.5 -137.5t163.5 -55.5q148 0 225 107l234 -148q-150 -217 -463 -217zM834 627q0 80 -50.5 137
t-148.5 57t-164 -57t-70 -137h433z" />
    <glyph glyph-name="Gcircumflex" unicode="&#x11c;" horiz-adv-x="1574" 
d="M1022 1565l-139 166l-140 -166h-262l254 295h303l250 -295h-266zM82 727q0 174 60.5 315.5t224.5 294t501 152.5q172 0 319.5 -52.5t239.5 -140.5l-221 -252q-51 59 -135 97.5t-183 38.5q-190 0 -311.5 -127.5t-121.5 -330.5q0 -202 117 -327t325 -125q127 0 219 39v264
h-276v283h598v-768q-241 -125 -575 -125t-557.5 212t-223.5 552z" />
    <glyph glyph-name="gcircumflex" unicode="&#x11d;" horiz-adv-x="1347" 
d="M793 1171l-140 166l-139 -166h-262l254 295h303l250 -295h-266zM471.5 701q-65.5 -73 -65.5 -183t65.5 -186t175 -76t178 76t68.5 184t-69 183t-178 75t-174.5 -73zM877 125q-104 -135 -317 -135q-217 0 -348.5 150.5t-131.5 373t132 379t353 156.5q96 0 184.5 -39
t141.5 -121h4v131h317v-924q0 -289 -158.5 -438.5t-367.5 -149.5t-351 41t-247 119l168 240q145 -129 338 -129q147 0 218 77.5t71 206.5v62h-6z" />
    <glyph glyph-name="Gbreve" unicode="&#x11e;" horiz-adv-x="1574" 
d="M891 1565q-236 0 -292 107.5t-62 187.5h172q21 -113 184 -113q70 0 120 20.5t64 92.5h172q-11 -152 -108 -223.5t-250 -71.5zM82 727q0 174 60.5 315.5t224.5 294t501 152.5q172 0 319.5 -52.5t239.5 -140.5l-221 -252q-51 59 -135 97.5t-183 38.5q-190 0 -311.5 -127.5
t-121.5 -330.5q0 -202 117 -327t325 -125q127 0 219 39v264h-276v283h598v-768q-241 -125 -575 -125t-557.5 212t-223.5 552z" />
    <glyph glyph-name="gbreve" unicode="&#x11f;" horiz-adv-x="1347" 
d="M664 1171q-234 0 -291.5 107.5t-63.5 187.5h172q23 -112 185 -112q70 0 120 20.5t64 91.5h172q-11 -150 -108.5 -222.5t-249.5 -72.5zM471.5 701q-65.5 -73 -65.5 -183t65.5 -186t175 -76t178 76t68.5 184t-69 183t-178 75t-174.5 -73zM877 125q-104 -135 -317 -135
q-217 0 -348.5 150.5t-131.5 373t132 379t353 156.5q96 0 184.5 -39t141.5 -121h4v131h317v-924q0 -289 -158.5 -438.5t-367.5 -149.5t-351 41t-247 119l168 240q145 -129 338 -129q147 0 218 77.5t71 206.5v62h-6z" />
    <glyph glyph-name="Gdotaccent" unicode="&#x120;" horiz-adv-x="1574" 
d="M1067 1738.5q0 -73.5 -53 -123.5t-131 -50t-130.5 51t-52.5 122.5t52.5 124t130.5 52.5t131 -51.5t53 -125zM82 727q0 174 60.5 315.5t224.5 294t501 152.5q172 0 319.5 -52.5t239.5 -140.5l-221 -252q-51 59 -135 97.5t-183 38.5q-190 0 -311.5 -127.5t-121.5 -330.5
q0 -202 117 -327t325 -125q127 0 219 39v264h-276v283h598v-768q-241 -125 -575 -125t-557.5 212t-223.5 552z" />
    <glyph glyph-name="gdotaccent" unicode="&#x121;" horiz-adv-x="1347" 
d="M842 1345.5q0 -73.5 -53.5 -124t-131 -50.5t-130 51.5t-52.5 123t52.5 124t130 52.5t131 -51.5t53.5 -125zM471.5 701q-65.5 -73 -65.5 -183t65.5 -186t175 -76t178 76t68.5 184t-69 183t-178 75t-174.5 -73zM877 125q-104 -135 -317 -135q-217 0 -348.5 150.5
t-131.5 373t132 379t353 156.5q96 0 184.5 -39t141.5 -121h4v131h317v-924q0 -289 -158.5 -438.5t-367.5 -149.5t-351 41t-247 119l168 240q145 -129 338 -129q147 0 218 77.5t71 206.5v62h-6z" />
    <glyph glyph-name="Gcommaaccent" unicode="&#x122;" horiz-adv-x="1574" 
d="M860 -492h-258l137 400h297zM82 727q0 174 60.5 315.5t224.5 294t501 152.5q172 0 319.5 -52.5t239.5 -140.5l-221 -252q-51 59 -135 97.5t-183 38.5q-190 0 -311.5 -127.5t-121.5 -330.5q0 -202 117 -327t325 -125q127 0 219 39v264h-276v283h598v-768
q-241 -125 -575 -125t-557.5 212t-223.5 552z" />
    <glyph glyph-name="gcommaaccent" unicode="&#x123;" horiz-adv-x="1347" 
d="M682 1571h258l-137 -400h-297zM471.5 701q-65.5 -73 -65.5 -183t65.5 -186t175 -76t178 76t68.5 184t-69 183t-178 75t-174.5 -73zM877 125q-104 -135 -317 -135q-217 0 -348.5 150.5t-131.5 373t132 379t353 156.5q96 0 184.5 -39t141.5 -121h4v131h317v-924
q0 -289 -158.5 -438.5t-367.5 -149.5t-351 41t-247 119l168 240q145 -129 338 -129q147 0 218 77.5t71 206.5v62h-6z" />
    <glyph glyph-name="Hcircumflex" unicode="&#x124;" horiz-adv-x="1564" 
d="M926 1565l-140 166l-139 -166h-262l254 295h303l250 -295h-266zM1065 0v606h-565v-606h-350v1450h350v-549h565v549h350v-1450h-350z" />
    <glyph glyph-name="hcircumflex" unicode="&#x125;" horiz-adv-x="1263" 
d="M438 1630l-139 166l-139 -166h-262l254 295h303l250 -295h-267zM803 553q0 215 -150 215q-88 0 -135 -62.5t-47 -154.5v-551h-336v1548h336v-657h4q35 61 111 109.5t181 48.5q191 0 282.5 -121.5t91.5 -296.5v-631h-338v553z" />
    <glyph glyph-name="Hbar" unicode="&#x126;" horiz-adv-x="1564" 
d="M1065 901v123h-565v-123h565zM1065 0v606h-565v-606h-350v1450h350v-244h565v244h350v-1450h-350z" />
    <glyph glyph-name="hbar" unicode="&#x127;" horiz-adv-x="1263" 
d="M803 553q0 215 -150 215q-88 0 -135 -62.5t-47 -154.5v-551h-336v1167h-94v183h94v198h336v-198h305v-183h-305v-276h4q35 61 111 109.5t181 48.5q191 0 282.5 -121.5t91.5 -296.5v-631h-338v553z" />
    <glyph glyph-name="Itilde" unicode="&#x128;" horiz-adv-x="651" 
d="M45.5 1800.5q77.5 40.5 142.5 40.5t154 -41q88 -41 130 -41t60.5 23.5t28.5 60.5h146q-21 -184 -99 -227t-142 -43t-157 43q-73 41 -132 41t-83 -82h-147q21 185 98.5 225.5zM150 0v1450h352v-1450h-352z" />
    <glyph glyph-name="itilde" unicode="&#x129;" horiz-adv-x="606" 
d="M-74 1182q30 266 239 266q63 0 155 -41t133 -41t59 23.5t29 60.5h145q-21 -185 -98.5 -227.5t-141.5 -42.5t-157 43q-73 41 -131 41t-84 -82h-148zM135 0v1020h336v-1020h-336z" />
    <glyph glyph-name="Imacron" unicode="&#x12a;" horiz-adv-x="651" 
d="M-20 1624v176h688v-176h-688zM150 0v1450h352v-1450h-352z" />
    <glyph glyph-name="imacron" unicode="&#x12b;" horiz-adv-x="606" 
d="M-37 1231v176h688v-176h-688zM135 0v1020h336v-1020h-336z" />
    <glyph glyph-name="Ibreve" unicode="&#x12c;" horiz-adv-x="651" 
d="M326 1786q70 0 120 20.5t64 91.5h172q-11 -150 -108 -222t-250 -72q-235 0 -292 107.5t-63 186.5h172q23 -112 185 -112zM150 0v1450h352v-1450h-352z" />
    <glyph glyph-name="ibreve" unicode="&#x12d;" horiz-adv-x="606" 
d="M301 1174q-236 0 -292 107.5t-62 186.5h172q23 -112 184 -112q70 0 120 20.5t64 91.5h172q-11 -151 -107.5 -222.5t-250.5 -71.5zM135 0v1020h336v-1020h-336z" />
    <glyph glyph-name="Iogonek" unicode="&#x12e;" horiz-adv-x="651" 
d="M82 -300q0 147 209 300h-141v1450h352v-1450h-23q-184 -144 -184 -242q0 -33 21.5 -53t65.5 -20t101 41l66 -127q-110 -82 -250 -82q-139 0 -178 68.5t-39 114.5z" />
    <glyph glyph-name="iogonek" unicode="&#x12f;" horiz-adv-x="606" 
d="M496 1345.5q0 -76.5 -56 -130.5t-138 -54q-81 0 -136 54.5t-55 130.5q0 116 75.5 150t115.5 34t76 -14.5t77 -54t41 -116zM43 -300q0 147 209 300h-117v1020h336v-1020h-31q-184 -144 -184 -242q0 -33 21.5 -53t65.5 -20t101 41l66 -127q-110 -82 -250 -82
q-139 0 -178 68.5t-39 114.5z" />
    <glyph glyph-name="Idotaccent" unicode="&#x130;" horiz-adv-x="651" 
d="M510 1738.5q0 -73.5 -53.5 -123.5t-131 -50t-130 51t-52.5 122.5t52.5 124t130 52.5t131 -51.5t53.5 -125zM150 0v1450h352v-1450h-352z" />
    <glyph glyph-name="dotlessi" unicode="&#x131;" horiz-adv-x="606" 
d="M135 0v1020h336v-1020h-336z" />
    <glyph glyph-name="Jcircumflex" unicode="&#x134;" horiz-adv-x="1083" 
d="M901 1565l-139 166l-139 -166h-263l254 295h304l249 -295h-266zM942 496q0 -355 -165 -445t-331 -90t-288.5 95.5t-163.5 244.5l309 105q14 -57 52 -92t94 -35q86 0 113.5 59t27.5 156v956h352v-954z" />
    <glyph glyph-name="jcircumflex" unicode="&#x135;" horiz-adv-x="612" 
d="M442 1171l-139 166l-139 -166h-262l254 295h303l250 -295h-267zM18 -205q74 0 98.5 50.5t24.5 127.5v1047h336v-1047q0 -215 -88.5 -340t-318.5 -125q-84 0 -146 17l23 280q30 -10 71 -10z" />
    <glyph glyph-name="Kcommaaccent" unicode="&#x136;" horiz-adv-x="1456" 
d="M731 -492h-258l137 400h297zM494 668v-668h-344v1450h344v-590h6l518 590h438l-625 -668l662 -782h-457l-538 668h-4z" />
    <glyph glyph-name="kcommaaccent" unicode="&#x137;" horiz-adv-x="1218" 
d="M612 -492h-258l138 400h296zM471 489v-489h-338v1548h338v-942h6l326 414h407l-393 -461l410 -559h-416l-334 489h-6z" />
    <glyph glyph-name="Lacute" unicode="&#x139;" horiz-adv-x="1077" 
d="M449 1565h-254l213 295h340zM150 0v1450h352v-1145h561v-305h-913z" />
    <glyph glyph-name="lacute" unicode="&#x13a;" horiz-adv-x="610" 
d="M389 1622h-254l213 295h340zM135 0v1548h340v-1548h-340z" />
    <glyph glyph-name="Lcommaaccent" unicode="&#x13b;" horiz-adv-x="1077" 
d="M573 -492h-258l138 400h297zM150 0v1450h352v-1145h561v-305h-913z" />
    <glyph glyph-name="lcommaaccent" unicode="&#x13c;" horiz-adv-x="610" 
d="M281 -492h-258l137 400h297zM135 0v1548h340v-1548h-340z" />
    <glyph glyph-name="Lcaron" unicode="&#x13d;" horiz-adv-x="1077" 
d="M819 1051h-258l137 399h297zM150 0v1450h352v-1145h561v-305h-913z" />
    <glyph glyph-name="lcaron" unicode="&#x13e;" horiz-adv-x="610" 
d="M793 1051h-258l137 399h297zM135 0v1548h340v-1548h-340z" />
    <glyph glyph-name="Ldot" unicode="&#x13f;" horiz-adv-x="1077" 
d="M1040 710.5q0 -73.5 -53 -123.5t-131 -50t-130 51t-52 122.5t52 124t130 52.5t131 -51.5t53 -125zM150 0v1450h352v-1145h561v-305h-913z" />
    <glyph glyph-name="ldot" unicode="&#x140;" horiz-adv-x="917" 
d="M942 690q0 -74 -53 -124t-131 -50t-130.5 51t-52.5 123t52.5 124t130.5 52t131 -51t53 -125zM135 0v1548h340v-1548h-340z" />
    <glyph glyph-name="Lslash" unicode="&#x141;" horiz-adv-x="1077" 
d="M150 0v362l-132 -114v291l132 114v797h352v-537l391 342v-288l-391 -342v-320h561v-305h-913z" />
    <glyph glyph-name="lslash" unicode="&#x142;" horiz-adv-x="610" 
d="M475 0h-340v547l-119 -115v293l119 117v706h340v-444l119 117v-291l-119 -115v-815z" />
    <glyph glyph-name="Nacute" unicode="&#x143;" horiz-adv-x="1617" 
d="M905 1565h-254l213 295h340zM150 0v1450h399l581 -946h7l-9 946h340v-1450h-397l-584 948h-6l8 -948h-339z" />
    <glyph glyph-name="nacute" unicode="&#x144;" horiz-adv-x="1261" 
d="M692 1171h-254l213 295h340zM801 557q0 215 -119 215t-166 -63.5t-47 -155.5v-553h-338v1020h326v-141h4q61 112 156 141t173 29t213.5 -69.5t135.5 -348.5v-631h-338v557z" />
    <glyph glyph-name="Ncommaaccent" unicode="&#x145;" horiz-adv-x="1617" 
d="M776 -492h-258l137 400h297zM150 0v1450h399l581 -946h7l-9 946h340v-1450h-397l-584 948h-6l8 -948h-339z" />
    <glyph glyph-name="ncommaaccent" unicode="&#x146;" horiz-adv-x="1261" 
d="M600 -492h-258l137 400h297zM801 557q0 215 -119 215t-166 -63.5t-47 -155.5v-553h-338v1020h326v-141h4q61 112 156 141t173 29t213.5 -69.5t135.5 -348.5v-631h-338v557z" />
    <glyph glyph-name="Ncaron" unicode="&#x147;" horiz-adv-x="1617" 
d="M967 1565h-301l-254 295h266l139 -166l139 166h263zM150 0v1450h399l581 -946h7l-9 946h340v-1450h-397l-584 948h-6l8 -948h-339z" />
    <glyph glyph-name="ncaron" unicode="&#x148;" horiz-adv-x="1261" 
d="M786 1171h-301l-254 295h267l139 -166l139 166h262zM801 557q0 215 -119 215t-166 -63.5t-47 -155.5v-553h-338v1020h326v-141h4q61 112 156 141t173 29t213.5 -69.5t135.5 -348.5v-631h-338v557z" />
    <glyph glyph-name="Omacron" unicode="&#x14c;" horiz-adv-x="1742" 
d="M522 1624v176h688v-176h-688zM574.5 1050.5q-117.5 -123.5 -117.5 -320.5t115.5 -323t297.5 -126t299 125.5t117 321.5t-116.5 321t-297 125t-298 -123.5zM1661 732q0 -173 -59.5 -315.5t-165 -243.5t-251 -156.5t-315.5 -55.5t-314 55.5t-249.5 156.5t-165 243.5
t-59.5 315.5t59.5 313.5t165 238.5t249.5 151.5t314 53.5t315.5 -53.5t251 -151.5t165 -238.5t59.5 -313.5z" />
    <glyph glyph-name="omacron" unicode="&#x14d;" horiz-adv-x="1294" 
d="M301 1231v176h688v-176h-688zM889 514q0 49 -16.5 96t-47 83t-75.5 58.5t-104.5 22.5t-104.5 -22.5t-75 -58.5t-45 -83t-15 -96t15 -96t46 -85t76 -60.5t104.5 -22.5t104.5 22.5t75.5 60.5t46 85t15.5 96zM1046.5 117.5q-165.5 -150.5 -401.5 -150.5t-400.5 150.5
t-164.5 396t163 392.5t402 147t403 -147t164 -392.5t-165.5 -396z" />
    <glyph glyph-name="Obreve" unicode="&#x14e;" horiz-adv-x="1742" 
d="M866 1565q-234 0 -291 107.5t-63 187.5h172q21 -113 184 -113q70 0 120 20.5t65 92.5h172q-11 -151 -108 -223t-251 -72zM574.5 1050.5q-117.5 -123.5 -117.5 -320.5t115.5 -323t297.5 -126t299 125.5t117 321.5t-116.5 321t-297 125t-298 -123.5zM1661 732
q0 -173 -59.5 -315.5t-165 -243.5t-251 -156.5t-315.5 -55.5t-314 55.5t-249.5 156.5t-165 243.5t-59.5 315.5t59.5 313.5t165 238.5t249.5 151.5t314 53.5t315.5 -53.5t251 -151.5t165 -238.5t59.5 -313.5z" />
    <glyph glyph-name="obreve" unicode="&#x14f;" horiz-adv-x="1294" 
d="M643 1354q70 0 120 20.5t64 91.5h172q-11 -151 -108 -223t-250 -72q-235 0 -291.5 107.5t-62.5 187.5h172q23 -112 184 -112zM889 514q0 49 -16.5 96t-47 83t-75.5 58.5t-104.5 22.5t-104.5 -22.5t-75 -58.5t-45 -83t-15 -96t15 -96t46 -85t76 -60.5t104.5 -22.5
t104.5 22.5t75.5 60.5t46 85t15.5 96zM1046.5 117.5q-165.5 -150.5 -401.5 -150.5t-400.5 150.5t-164.5 396t163 392.5t402 147t403 -147t164 -392.5t-165.5 -396z" />
    <glyph glyph-name="Ohungarumlaut" unicode="&#x150;" horiz-adv-x="1742" 
d="M756 1565h-254l213 295h340zM1206 1565h-254l213 295h340zM574.5 1050.5q-117.5 -123.5 -117.5 -320.5t115.5 -323t297.5 -126t299 125.5t117 321.5t-116.5 321t-297 125t-298 -123.5zM1661 732q0 -173 -59.5 -315.5t-165 -243.5t-251 -156.5t-315.5 -55.5t-314 55.5
t-249.5 156.5t-165 243.5t-59.5 315.5t59.5 313.5t165 238.5t249.5 151.5t314 53.5t315.5 -53.5t251 -151.5t165 -238.5t59.5 -313.5z" />
    <glyph glyph-name="ohungarumlaut" unicode="&#x151;" horiz-adv-x="1294" 
d="M547 1171h-254l213 295h340zM997 1171h-254l213 295h340zM889 514q0 49 -16.5 96t-47 83t-75.5 58.5t-104.5 22.5t-104.5 -22.5t-75 -58.5t-45 -83t-15 -96t15 -96t46 -85t76 -60.5t104.5 -22.5t104.5 22.5t75.5 60.5t46 85t15.5 96zM1046.5 117.5
q-165.5 -150.5 -401.5 -150.5t-400.5 150.5t-164.5 396t163 392.5t402 147t403 -147t164 -392.5t-165.5 -396z" />
    <glyph glyph-name="OE" unicode="&#x152;" horiz-adv-x="2086" 
d="M1026 1153h-94q-330 0 -403.5 -152.5t-73.5 -274.5q0 -222 136.5 -324.5t332.5 -102.5h102v854zM905 0q-340 0 -581.5 179.5t-241.5 549.5t239 545.5t584 175.5h1065v-297h-610v-272h575v-281h-575v-301h645v-299h-1100z" />
    <glyph glyph-name="oe" unicode="&#x153;" horiz-adv-x="1992" 
d="M646 -33q-242 0 -404 150.5t-162 395.5t163 392.5t398 147.5q125 0 225.5 -50.5t157.5 -128.5q63 76 160.5 127.5t215.5 51.5q232 0 373.5 -150t141.5 -405v-31q0 -31 -2 -49h-739q18 -131 108 -162t135 -31q148 0 225 107l232 -148q-150 -217 -461 -217
q-129 0 -231.5 47t-159.5 123q-59 -78 -156.5 -124t-219.5 -46zM1606 627q0 80 -50.5 137t-148.5 57t-163.5 -57t-69.5 -137h432zM406 514q0 -49 15 -97t45 -85t75 -59.5t104.5 -22.5t104.5 22.5t75.5 59.5t46 85t15.5 97t-15.5 95t-46 83t-75.5 59.5t-104.5 22.5
t-104.5 -22.5t-75 -59.5t-45 -83t-15 -95z" />
    <glyph glyph-name="Racute" unicode="&#x154;" horiz-adv-x="1357" 
d="M717 1565h-254l213 295h340zM657 829q254 0 254 177q0 161 -233 161h-186v-338h165zM494 575v-575h-344v1450h552q380 0 467.5 -156.5t87.5 -292.5t-79.5 -236.5t-221.5 -143.5l379 -621h-409l-314 575h-118z" />
    <glyph glyph-name="racute" unicode="&#x155;" horiz-adv-x="811" 
d="M473 1171h-254l213 295h340zM695 756q-56 0 -102 -24.5t-86 -75.5t-40 -132v-524h-336v1020h324v-148h4q39 78 110.5 127.5t165.5 49.5q45 0 72 -9l-14 -295q-42 11 -98 11z" />
    <glyph glyph-name="Rcommaaccent" unicode="&#x156;" horiz-adv-x="1357" 
d="M670 -492h-258l137 400h297zM657 829q254 0 254 177q0 161 -233 161h-186v-338h165zM494 575v-575h-344v1450h552q380 0 467.5 -156.5t87.5 -292.5t-79.5 -236.5t-221.5 -143.5l379 -621h-409l-314 575h-118z" />
    <glyph glyph-name="rcommaaccent" unicode="&#x157;" horiz-adv-x="811" 
d="M283 -494h-258l137 400h297zM695 756q-56 0 -102 -24.5t-86 -75.5t-40 -132v-524h-336v1020h324v-148h4q39 78 110.5 127.5t165.5 49.5q45 0 72 -9l-14 -295q-42 11 -98 11z" />
    <glyph glyph-name="Rcaron" unicode="&#x158;" horiz-adv-x="1357" 
d="M807 1565h-301l-254 295h266l139 -166l140 166h262zM657 829q254 0 254 177q0 161 -233 161h-186v-338h165zM494 575v-575h-344v1450h552q380 0 467.5 -156.5t87.5 -292.5t-79.5 -236.5t-221.5 -143.5l379 -621h-409l-314 575h-118z" />
    <glyph glyph-name="rcaron" unicode="&#x159;" horiz-adv-x="811" 
d="M618 1171h-301l-254 295h267l139 -166l139 166h262zM695 756q-56 0 -102 -24.5t-86 -75.5t-40 -132v-524h-336v1020h324v-148h4q39 78 110.5 127.5t165.5 49.5q45 0 72 -9l-14 -295q-42 11 -98 11z" />
    <glyph glyph-name="Sacute" unicode="&#x15a;" horiz-adv-x="1210" 
d="M698 1565h-254l213 295h340zM513 1162.5q-58 -35.5 -58 -106.5t53.5 -104t148.5 -63q95 -31 174.5 -60.5t188 -111.5t108.5 -271q0 -236 -160.5 -359.5t-394.5 -123.5q-156 0 -301 54.5t-241 154.5l229 234q53 -66 140.5 -110t149.5 -44q113 0 168.5 37.5t55.5 120.5
q0 104 -114.5 144t-185.5 62q-173 55 -272.5 148t-99.5 268q0 224 165.5 339.5t396.5 115.5q123 0 250.5 -45t224.5 -133l-224 -236q-45 57 -117.5 91t-149.5 34t-135 -35.5z" />
    <glyph glyph-name="sacute" unicode="&#x15b;" horiz-adv-x="966" 
d="M569 1171h-254l213 295h340zM518 811q-47 0 -87 -18.5t-40 -62.5t44 -62.5t122 -35.5q158 -35 252 -107.5t94 -209.5q0 -178 -129.5 -263t-280.5 -85q-310 0 -470 158l188 199q45 -49 110 -82t123 -33q138 0 138 88q0 47 -50 70t-128 41q-159 37 -240.5 105t-81.5 198
q0 169 129.5 255.5t294.5 86.5q115 0 224.5 -36t184.5 -108l-184 -190q-97 92 -213 92z" />
    <glyph glyph-name="Scircumflex" unicode="&#x15c;" horiz-adv-x="1210" 
d="M795 1565l-140 166l-139 -166h-262l254 295h303l250 -295h-266zM513 1162.5q-58 -35.5 -58 -106.5t53.5 -104t148.5 -63q95 -31 174.5 -60.5t188 -111.5t108.5 -271q0 -236 -160.5 -359.5t-394.5 -123.5q-156 0 -301 54.5t-241 154.5l229 234q53 -66 140.5 -110
t149.5 -44q113 0 168.5 37.5t55.5 120.5q0 104 -114.5 144t-185.5 62q-173 55 -272.5 148t-99.5 268q0 224 165.5 339.5t396.5 115.5q123 0 250.5 -45t224.5 -133l-224 -236q-45 57 -117.5 91t-149.5 34t-135 -35.5z" />
    <glyph glyph-name="scircumflex" unicode="&#x15d;" horiz-adv-x="966" 
d="M645 1171l-139 166l-139 -166h-263l254 295h304l249 -295h-266zM518 811q-47 0 -87 -18.5t-40 -62.5t44 -62.5t122 -35.5q158 -35 252 -107.5t94 -209.5q0 -178 -129.5 -263t-280.5 -85q-310 0 -470 158l188 199q45 -49 110 -82t123 -33q138 0 138 88q0 47 -50 70
t-128 41q-159 37 -240.5 105t-81.5 198q0 169 129.5 255.5t294.5 86.5q115 0 224.5 -36t184.5 -108l-184 -190q-97 92 -213 92z" />
    <glyph glyph-name="Scedilla" unicode="&#x15e;" horiz-adv-x="1210" 
d="M543 -229q-43 0 -82 -13l-64 60l111 147q-139 10 -265 62.5t-212 144.5l229 234q53 -66 140.5 -110t149.5 -44q113 0 168.5 37.5t55.5 120.5q0 104 -114.5 144t-185.5 62q-173 55 -272.5 148t-99.5 268q0 224 165.5 339.5t396.5 115.5q123 0 250.5 -45t224.5 -133
l-224 -236q-45 57 -117 91t-124 34q-103 0 -161 -35.5t-58 -106.5t53.5 -104t148.5 -63q95 -31 174.5 -60.5t188 -111.5t108.5 -280t-123.5 -317.5t-326.5 -148.5l-72 -94q10 2 12 2h25q91 0 151 -37.5t60 -132.5q0 -155 -126 -178t-182 -23q-131 0 -237 52l56 123
q84 -39 179 -39t95 67q0 60 -96 60z" />
    <glyph glyph-name="scedilla" unicode="&#x15f;" horiz-adv-x="966" 
d="M532 -121q211 0 211 -170q0 -155 -125.5 -178t-181.5 -23q-130 0 -237 52l55 123q84 -39 179 -39t95 67q0 60 -96 60q-41 0 -82 -13l-63 60l114 153q-244 22 -378 154l188 199q45 -49 110 -82t123 -33q138 0 138 88q0 47 -50 70t-128 41q-159 37 -240.5 105t-81.5 198
q0 168 129 256t295 88q115 0 224.5 -37t184.5 -109l-184 -190q-97 92 -213 92q-47 0 -87 -18.5t-40 -62.5t44 -62.5t122 -35.5q158 -35 252 -107.5t94 -216.5t-95 -229t-237 -104l-75 -98q10 2 12 2h24z" />
    <glyph glyph-name="Scaron" unicode="&#x160;" horiz-adv-x="1210" 
d="M813 1565h-301l-254 295h266l140 -166l139 166h262zM513 1162.5q-58 -35.5 -58 -106.5t53.5 -104t148.5 -63q95 -31 174.5 -60.5t188 -111.5t108.5 -271q0 -236 -160.5 -359.5t-394.5 -123.5q-156 0 -301 54.5t-241 154.5l229 234q53 -66 140.5 -110t149.5 -44
q113 0 168.5 37.5t55.5 120.5q0 104 -114.5 144t-185.5 62q-173 55 -272.5 148t-99.5 268q0 224 165.5 339.5t396.5 115.5q123 0 250.5 -45t224.5 -133l-224 -236q-45 57 -117.5 91t-149.5 34t-135 -35.5z" />
    <glyph glyph-name="scaron" unicode="&#x161;" horiz-adv-x="966" 
d="M657 1171h-301l-254 295h267l139 -166l139 166h262zM518 811q-47 0 -87 -18.5t-40 -62.5t44 -62.5t122 -35.5q158 -35 252 -107.5t94 -209.5q0 -178 -129.5 -263t-280.5 -85q-310 0 -470 158l188 199q45 -49 110 -82t123 -33q138 0 138 88q0 47 -50 70t-128 41
q-159 37 -240.5 105t-81.5 198q0 169 129.5 255.5t294.5 86.5q115 0 224.5 -36t184.5 -108l-184 -190q-97 92 -213 92z" />
    <glyph glyph-name="Tcommaaccent" unicode="&#x162;" horiz-adv-x="1189" 
d="M535 -229q-43 0 -82 -13l-64 60l137 182h-106v1151h-410v299h1170v-299h-410v-1151h-76l-96 -123q10 2 12 2h25q91 0 151 -37.5t60 -139.5q0 -101 -93 -147.5t-182 -46.5q-164 0 -270 52l55 123q84 -39 180 -39q95 0 95 67q0 60 -96 60z" />
    <glyph glyph-name="tcommaaccent" unicode="&#x163;" horiz-adv-x="761" 
d="M617 236q66 0 104 16l4 -246q-51 -18 -123 -26l-80 -103q10 2 12 2h25q91 0 151 -37.5t60 -132.5q0 -155 -126 -178t-182 -23q-131 0 -237 52l56 123q84 -39 179 -39t95 67q0 60 -96 60q-43 0 -82 -13l-64 60l123 164q-268 43 -268 356v430h-164v252h162v268h330v-268
h239v-252h-239v-389q0 -72 27.5 -107.5t93.5 -35.5z" />
    <glyph glyph-name="Tcaron" unicode="&#x164;" horiz-adv-x="1189" 
d="M748 1565h-302l-253 295h266l139 -166l139 166h262zM770 1151v-1151h-350v1151h-410v299h1170v-299h-410z" />
    <glyph glyph-name="tcaron" unicode="&#x165;" horiz-adv-x="761" 
d="M811 1098h-258l137 399h297zM168 338v430h-164v252h162v268h330v-268h239v-252h-239v-389q0 -72 27.5 -107.5t93.5 -35.5t104 16l4 -246q-90 -31 -194 -31q-197 0 -280 95t-83 268z" />
    <glyph glyph-name="Tbar" unicode="&#x166;" horiz-adv-x="1189" 
d="M770 1151v-174h279v-182h-279v-795h-350v795h-268v182h268v174h-410v299h1170v-299h-410z" />
    <glyph glyph-name="tbar" unicode="&#x167;" horiz-adv-x="761" 
d="M168 338v102h-145v183h145v145h-164v252h162v268h330v-268h239v-252h-239v-145h198v-183h-198v-61q0 -72 27.5 -107.5t93.5 -35.5t104 16l4 -246q-90 -31 -194 -31q-197 0 -280 95t-83 268z" />
    <glyph glyph-name="Utilde" unicode="&#x168;" horiz-adv-x="1511" 
d="M483.5 1800.5q77.5 40.5 142.5 40.5t154 -41q88 -41 130 -41t60.5 23.5t28.5 60.5h146q-21 -185 -98.5 -227.5t-142.5 -42.5t-156 43q-73 41 -131 41t-85 -82h-147q21 185 98.5 225.5zM1378 547q0 -263 -172 -424.5t-454 -161.5t-449.5 161.5t-167.5 424.5v903h348v-875
q0 -124 66.5 -211.5t206 -87.5t206 85.5t66.5 213.5v875h350v-903z" />
    <glyph glyph-name="utilde" unicode="&#x169;" horiz-adv-x="1257" 
d="M344.5 1407.5q77.5 40.5 140.5 40.5t154 -41q92 -41 133 -41t59.5 23.5t28.5 60.5h146q-21 -184 -99 -227t-142 -43t-157 43q-73 41 -131 41t-84 -82h-147q21 185 98.5 225.5zM803 0v141h-4q-57 -110 -155 -140t-176 -30t-212.5 70t-134.5 348v631h338v-553
q0 -100 23.5 -141t52 -58.5t75.5 -17.5q88 0 134.5 65.5t46.5 153.5v551h335v-1020h-323z" />
    <glyph glyph-name="Umacron" unicode="&#x16a;" horiz-adv-x="1511" 
d="M422 1624v176h688v-176h-688zM1378 547q0 -263 -172 -424.5t-454 -161.5t-449.5 161.5t-167.5 424.5v903h348v-875q0 -124 66.5 -211.5t206 -87.5t206 85.5t66.5 213.5v875h350v-903z" />
    <glyph glyph-name="umacron" unicode="&#x16b;" horiz-adv-x="1257" 
d="M279 1231v176h688v-176h-688zM803 0v141h-4q-57 -110 -155 -140t-176 -30t-212.5 70t-134.5 348v631h338v-553q0 -100 23.5 -141t52 -58.5t75.5 -17.5q88 0 134.5 65.5t46.5 153.5v551h335v-1020h-323z" />
    <glyph glyph-name="Ubreve" unicode="&#x16c;" horiz-adv-x="1511" 
d="M756 1565q-236 0 -292 107.5t-63 187.5h172q21 -113 185 -113q70 0 120 20.5t64 92.5h172q-11 -152 -108 -223.5t-250 -71.5zM1378 547q0 -263 -172 -424.5t-454 -161.5t-449.5 161.5t-167.5 424.5v903h348v-875q0 -124 66.5 -211.5t206 -87.5t206 85.5t66.5 213.5v875
h350v-903z" />
    <glyph glyph-name="ubreve" unicode="&#x16d;" horiz-adv-x="1257" 
d="M625 1354q70 0 120 20.5t64 91.5h172q-11 -150 -108.5 -222.5t-249.5 -72.5q-234 0 -291.5 107.5t-63.5 187.5h172q23 -112 185 -112zM803 0v141h-4q-57 -110 -155 -140t-176 -30t-212.5 70t-134.5 348v631h338v-553q0 -100 23.5 -141t52 -58.5t75.5 -17.5
q88 0 134.5 65.5t46.5 153.5v551h335v-1020h-323z" />
    <glyph glyph-name="Uring" unicode="&#x16e;" horiz-adv-x="1511" 
d="M887 1753q0 51 -35 85t-87 34t-86 -35t-34 -85t35 -84t86 -34t86 34t35 85zM923.5 1595.5q-65.5 -61.5 -157.5 -61.5t-157.5 61.5t-65.5 156.5t64.5 157.5t157.5 62.5t158.5 -63t65.5 -157.5t-65.5 -156zM1378 547q0 -263 -172 -424.5t-454 -161.5t-449.5 161.5
t-167.5 424.5v903h348v-875q0 -124 66.5 -211.5t206 -87.5t206 85.5t66.5 213.5v875h350v-903z" />
    <glyph glyph-name="uring" unicode="&#x16f;" horiz-adv-x="1257" 
d="M745 1360q0 51 -34.5 85t-86.5 34t-86 -35t-34 -85t34.5 -84t86 -34t86 34t34.5 85zM782.5 1202.5q-65.5 -61.5 -157.5 -61.5q-91 0 -157.5 61t-66.5 157q0 95 64.5 157.5t158.5 62.5t159 -63t65 -157.5t-65.5 -156zM803 0v141h-4q-57 -110 -155 -140t-176 -30t-212.5 70
t-134.5 348v631h338v-553q0 -100 23.5 -141t52 -58.5t75.5 -17.5q88 0 134.5 65.5t46.5 153.5v551h335v-1020h-323z" />
    <glyph glyph-name="Uhungarumlaut" unicode="&#x170;" horiz-adv-x="1511" 
d="M655 1565h-254l213 295h340zM1106 1565h-254l213 295h340zM1378 547q0 -263 -172 -424.5t-454 -161.5t-449.5 161.5t-167.5 424.5v903h348v-875q0 -124 66.5 -211.5t206 -87.5t206 85.5t66.5 213.5v875h350v-903z" />
    <glyph glyph-name="uhungarumlaut" unicode="&#x171;" horiz-adv-x="1257" 
d="M524 1171h-254l213 295h340zM975 1171h-254l213 295h340zM803 0v141h-4q-57 -110 -155 -140t-176 -30t-212.5 70t-134.5 348v631h338v-553q0 -100 23.5 -141t52 -58.5t75.5 -17.5q88 0 134.5 65.5t46.5 153.5v551h335v-1020h-323z" />
    <glyph glyph-name="Uogonek" unicode="&#x172;" horiz-adv-x="1511" 
d="M522 -297q0 124 164 262q-253 20 -402 177t-149 405v903h348v-875q0 -124 66.5 -211.5t206 -87.5t206 85.5t66.5 213.5v875h350v-903q0 -228 -131 -382.5t-362 -193.5q-150 -131 -150 -213q0 -33 21.5 -53t65.5 -20t102 41l65 -127q-110 -82 -250 -82q-139 0 -178 68.5
t-39 117.5z" />
    <glyph glyph-name="uogonek" unicode="&#x173;" horiz-adv-x="1257" 
d="M594 -300q0 147 209 300v141h-4q-57 -110 -155 -140t-176 -30t-212.5 70t-134.5 348v631h338v-553q0 -100 23.5 -141t52 -58.5t75.5 -17.5q88 0 134.5 65.5t46.5 153.5v551h335v-1020h-135q-184 -144 -184 -242q0 -33 21.5 -53t65.5 -20t101 41l66 -127
q-110 -82 -250 -82q-139 0 -178 68.5t-39 114.5z" />
    <glyph glyph-name="Wcircumflex" unicode="&#x174;" horiz-adv-x="2099" 
d="M1192 1565l-139 166l-140 -166h-262l254 295h303l250 -295h-266zM1686 0h-347l-286 981h-6l-287 -981h-348l-412 1450h377l229 -965h6l258 965h365l260 -965h6l234 965h364z" />
    <glyph glyph-name="wcircumflex" unicode="&#x175;" horiz-adv-x="1783" 
d="M1034 1171l-139 166l-139 -166h-262l254 295h303l249 -295h-266zM1430 0h-338l-201 635h-4l-197 -635h-338l-352 1020h362l177 -645h6l182 645h338l188 -645h4l179 645h348z" />
    <glyph glyph-name="Ycircumflex" unicode="&#x176;" horiz-adv-x="1370" 
d="M829 1565l-139 166l-139 -166h-262l254 295h303l250 -295h-267zM854 0h-350v614l-545 836h424l309 -537l309 537h410l-557 -836v-614z" />
    <glyph glyph-name="ycircumflex" unicode="&#x177;" horiz-adv-x="1161" 
d="M735 1171l-139 166l-139 -166h-262l254 295h303l249 -295h-266zM234 -205q63 0 98 36t59 101l33 84l-426 1004h373l227 -655h6l203 655h356l-456 -1174q-65 -169 -165 -253.5t-284 -84.5q-99 0 -184 23l37 283q60 -19 123 -19z" />
    <glyph glyph-name="Ydieresis" unicode="&#x178;" horiz-adv-x="1370" 
d="M641 1740q0 -71 -50 -119t-122 -48t-121 49t-49 116t49 118t121 51t122 -48t50 -119zM1085 1740q0 -71 -50 -119t-121 -48t-120 49t-49 116t49 118t120 51t121 -48t50 -119zM854 0h-350v614l-545 836h424l309 -537l309 537h410l-557 -836v-614z" />
    <glyph glyph-name="Zacute" unicode="&#x179;" horiz-adv-x="1300" 
d="M760 1565h-254l213 295h340zM80 0v303l690 850h-674v297h1112v-281l-706 -866h721v-303h-1143z" />
    <glyph glyph-name="zacute" unicode="&#x17a;" horiz-adv-x="1048" 
d="M608 1171h-254l213 295h340zM70 0v262l479 500h-461v258h870v-252l-493 -508h514v-260h-909z" />
    <glyph glyph-name="Zdotaccent" unicode="&#x17b;" horiz-adv-x="1300" 
d="M856 1738.5q0 -73.5 -53 -123.5t-131 -50t-130.5 51t-52.5 122.5t52.5 124t130.5 52.5t131 -51.5t53 -125zM80 0v303l690 850h-674v297h1112v-281l-706 -866h721v-303h-1143z" />
    <glyph glyph-name="zdotaccent" unicode="&#x17c;" horiz-adv-x="1048" 
d="M715 1345.5q0 -73.5 -53.5 -124t-131 -50.5t-130 51.5t-52.5 123t52.5 124t130 52.5t131 -51.5t53.5 -125zM70 0v262l479 500h-461v258h870v-252l-493 -508h514v-260h-909z" />
    <glyph glyph-name="Zcaron" unicode="&#x17d;" horiz-adv-x="1300" 
d="M805 1565h-301l-254 295h266l139 -166l140 166h262zM80 0v303l690 850h-674v297h1112v-281l-706 -866h721v-303h-1143z" />
    <glyph glyph-name="zcaron" unicode="&#x17e;" horiz-adv-x="1048" 
d="M688 1171h-301l-254 295h266l140 -166l139 166h262zM70 0v262l479 500h-461v258h870v-252l-493 -508h514v-260h-909z" />
    <glyph glyph-name="florin" unicode="&#x192;" horiz-adv-x="1323" 
d="M225 -14q60 0 89.5 50t45.5 132l101 494h-234v231h275l33 160q40 199 132.5 313.5t293.5 114.5q163 0 280 -70l-123 -248q-61 37 -125 37t-95.5 -50t-45.5 -124l-29 -133h258v-231h-303l-112 -562q-37 -186 -136.5 -285.5t-263.5 -99.5t-270 58l119 245q50 -32 110 -32z
" />
    <glyph glyph-name="Ohorn" unicode="&#x1a0;" horiz-adv-x="1751" 
d="M1169 406.5q117 125.5 117 321.5t-116.5 321t-297 125t-298 -123.5t-117.5 -320.5t115.5 -323t297.5 -126t299 125.5zM1378 1389q134 0 133.5 113.5t-36.5 166.5l254 62q39 -76 38 -187q0 -294 -280 -315q174 -204 174 -498q0 -172 -59.5 -314.5t-165 -243.5t-251 -156.5
t-315.5 -55.5t-314 55.5t-249.5 156.5t-165 243.5t-59.5 315.5q0 343 222.5 550t565.5 207q167 0 263 -35t138.5 -50t106.5 -15z" />
    <glyph glyph-name="ohorn" unicode="&#x1a1;" horiz-adv-x="1314" 
d="M645.5 774q-59.5 0 -104.5 -22.5t-75 -58.5t-45 -83t-15 -96t15 -96t46 -85t76 -60.5t104.5 -22.5t104.5 22.5t75.5 60.5t46 85t15.5 96t-16.5 96t-47 83t-75.5 58.5t-104.5 22.5zM1378 1151q0 -288 -268 -313q102 -143 102 -324q0 -246 -165.5 -396.5t-401.5 -150.5
t-400.5 150.5t-164.5 396t164 393.5t401 148q103 0 169.5 -21.5t96 -31t60.5 -9.5q82 0 115.5 39t33.5 116t-35 128l254 61q39 -84 39 -186z" />
    <glyph glyph-name="Uhorn" unicode="&#x1af;" horiz-adv-x="1531" 
d="M1411 1605q0 75 -37 130l254 59q39 -76 39 -186q0 -160 -79 -234t-210 -82v-745q0 -263 -172 -424.5t-454 -161.5t-449.5 161.5t-167.5 424.5v903h348v-875q0 -124 66.5 -211.5t206 -87.5t206 85.5t66.5 213.5v875h217q92 0 129 40t37 115z" />
    <glyph glyph-name="uhorn" unicode="&#x1b0;" horiz-adv-x="1298" 
d="M1151 1174q0 74 -37 131l256 61q37 -78 37 -186q0 -160 -77 -234t-204 -82v-864h-323v141h-4q-57 -110 -155 -140t-176 -30t-212.5 70t-134.5 348v631h338v-553q0 -100 23.5 -141t52 -58.5t75.5 -17.5q88 0 134.5 65.5t46.5 153.5v551h202q86 0 122 40t36 114z" />
    <glyph glyph-name="clickdental" unicode="&#x1c0;" horiz-adv-x="493" 
d="M381 1536v-2048h-266l-2 2048h268z" />
    <glyph glyph-name="clicklateral" unicode="&#x1c1;" horiz-adv-x="987" 
d="M874 1536v-2048h-266l-2 2048h268zM381 1536v-2048h-266l-2 2048h268z" />
    <glyph glyph-name="clickretroflex" unicode="&#x1c3;" horiz-adv-x="731" 
d="M565 173q0 -128 -79.5 -160.5t-142.5 -32.5t-120 57t-57 136t57.5 136.5t139.5 57.5t142 -54.5t60 -139.5zM193 485v965h344v-965h-344z" />
    <glyph glyph-name="DZcaron" unicode="&#x1c4;" horiz-adv-x="3500" 
d="M2408 1604h-301l-254 294h267l139 -165l139 165h262zM1665 0v303l690 850h-674v297h1112v-281l-706 -866h721v-303h-1143zM1139 730q0 226 -135 323.5t-338 97.5h-174v-848h165q333 0 407.5 152.5t74.5 274.5zM1503 736q0 -366 -241 -551t-572 -185h-540v1450h524
q351 0 518.5 -119t239 -258t71.5 -337z" />
    <glyph glyph-name="Dzcaron" unicode="&#x1c5;" horiz-adv-x="3248" 
d="M2281 1174h-301l-254 294h267l139 -165l139 165h262zM1655 0v262l479 500h-461v258h871v-252l-494 -508h514v-260h-909zM1139 730q0 226 -135 323.5t-338 97.5h-174v-848h165q333 0 407.5 152.5t74.5 274.5zM1503 736q0 -366 -241 -551t-572 -185h-540v1450h524
q351 0 518.5 -119t239 -258t71.5 -337z" />
    <glyph glyph-name="dzcaron" unicode="&#x1c6;" horiz-adv-x="3010" 
d="M2044 1174h-301l-254 294h266l139 -165l140 165h262zM1417 0v262l479 500h-460v258h870v-252l-494 -508h515v-260h-910zM891 512q0 102 -68 182t-178 80t-176 -76.5t-66 -184t65.5 -185.5t175.5 -78t178.5 80t68.5 182zM903 0v133h-4q-49 -78 -140 -120t-200 -42t-199 45
t-152.5 120t-95 173.5t-32.5 262.5t132.5 320.5t348.5 156.5q113 0 190.5 -43t120.5 -95h5v637h335v-1548h-309z" />
    <glyph glyph-name="LJ" unicode="&#x1c7;" horiz-adv-x="2160" 
d="M2019 496q0 -355 -164.5 -445t-330.5 -90t-289 95.5t-164 244.5l309 105q14 -57 52 -92t94 -35q86 0 113.5 59t27.5 156v956h352v-954zM150 0v1450h352v-1145h561v-305h-913z" />
    <glyph glyph-name="Lj" unicode="&#x1c8;" horiz-adv-x="1689" 
d="M1096 -205q74 0 98.5 50.5t24.5 127.5v1047h335v-1047q0 -216 -88 -340.5t-319 -124.5q-84 0 -146 17l23 280q30 -10 72 -10zM1579 1345.5q0 -76.5 -56 -130.5t-138 -54q-81 0 -136 54.5t-55 130.5q0 117 76 150.5t116 33.5t75.5 -14.5t76.5 -54t41 -116zM150 0v1450h352
v-1145h561v-305h-913z" />
    <glyph glyph-name="lj" unicode="&#x1c9;" horiz-adv-x="1222" 
d="M629 -205q74 0 98.5 50.5t24.5 127.5v1047h335v-1047q0 -216 -88 -340.5t-319 -124.5q-85 0 -145 17l22 280q30 -10 72 -10zM1112 1345.5q0 -76.5 -56 -130.5t-137 -54t-136.5 54.5t-55.5 130.5q0 117 76 150.5t116 33.5t75.5 -14.5t76.5 -54t41 -116zM135 0v1548h340
v-1548h-340z" />
    <glyph glyph-name="NJ" unicode="&#x1ca;" horiz-adv-x="2701" 
d="M2560 496q0 -355 -165 -445t-331 -90t-288.5 95.5t-163.5 244.5l309 105q14 -57 52 -92t93 -35q86 0 114 59t28 156v956h352v-954zM150 0v1450h399l581 -946h7l-9 946h340v-1450h-397l-584 948h-6l8 -948h-339z" />
    <glyph glyph-name="Nj" unicode="&#x1cb;" horiz-adv-x="2230" 
d="M1636 -205q74 0 98.5 50.5t24.5 127.5v1047h336v-1047q0 -215 -88.5 -340t-318.5 -125q-84 0 -146 17l23 280q30 -10 71 -10zM2120 1345.5q0 -76.5 -56 -130.5t-138 -54q-81 0 -136 54.5t-55 130.5q0 116 75.5 150t115.5 34t76 -14.5t77 -54t41 -116zM150 0v1450h399
l581 -946h7l-9 946h340v-1450h-397l-584 948h-6l8 -948h-339z" />
    <glyph glyph-name="nj" unicode="&#x1cc;" horiz-adv-x="1873" 
d="M1280 -205q74 0 98.5 50.5t24.5 127.5v1047h336v-1047q0 -215 -88.5 -340t-319.5 -125q-85 0 -145 17l22 280q30 -10 72 -10zM1763 1345.5q0 -78.5 -56.5 -131.5t-136.5 -53q-81 0 -136.5 54.5t-55.5 130.5q0 117 76 150.5t116 33.5t75.5 -14.5t76.5 -53t41 -117z
M801 557q0 215 -119 215t-166 -63.5t-47 -155.5v-553h-338v1020h326v-141h4q61 112 156 141t173 29t213.5 -69.5t135.5 -348.5v-631h-338v557z" />
    <glyph glyph-name="Acaron" unicode="&#x1cd;" horiz-adv-x="1492" 
d="M897 1604h-301l-254 294h266l140 -165l139 165h262zM743 1063l-184 -498h365zM1133 0l-113 285h-561l-107 -285h-381l609 1450h340l602 -1450h-389z" />
    <glyph glyph-name="acaron" unicode="&#x1ce;" horiz-adv-x="1159" 
d="M705 1206h-302l-253 295h266l139 -166l139 166h262zM68 295q0 344 655 344v16q0 76 -53.5 112t-130.5 36q-137 0 -252 -105l-170 183q90 86 209.5 129t246.5 43q253 0 360 -129.5t107 -409.5v-514h-307v109h-6q-39 -63 -118 -98.5t-155 -35.5q-159 0 -272.5 77
t-113.5 243zM377 313q0 -112 145 -112q102 0 156.5 56t54.5 153v34h-43q-137 0 -225 -28t-88 -103z" />
    <glyph glyph-name="Icaron" unicode="&#x1cf;" horiz-adv-x="651" 
d="M477 1604h-301l-254 294h266l140 -165l139 165h262zM150 0v1450h352v-1450h-352z" />
    <glyph glyph-name="icaron" unicode="&#x1d0;" horiz-adv-x="606" 
d="M455 1174h-301l-254 294h266l139 -165l139 165h263zM135 0v1020h336v-1020h-336z" />
    <glyph glyph-name="Ocaron" unicode="&#x1d1;" horiz-adv-x="1742" 
d="M1022 1642h-301l-254 295h266l139 -165l140 165h262zM574.5 1050.5q-117.5 -123.5 -117.5 -320.5t115.5 -323t297.5 -126t299 125.5t117 321.5t-116.5 321t-297 125t-298 -123.5zM1661 732q0 -173 -59.5 -315.5t-165 -243.5t-251 -156.5t-315.5 -55.5t-314 55.5
t-249.5 156.5t-165 243.5t-59.5 315.5t59.5 313.5t165 238.5t249.5 151.5t314 53.5t315.5 -53.5t251 -151.5t165 -238.5t59.5 -313.5z" />
    <glyph glyph-name="ocaron" unicode="&#x1d2;" horiz-adv-x="1294" 
d="M797 1206h-301l-254 295h266l139 -166l139 166h263zM889 514q0 49 -16.5 96t-47 83t-75.5 58.5t-104.5 22.5t-104.5 -22.5t-75 -58.5t-45 -83t-15 -96t15 -96t46 -85t76 -60.5t104.5 -22.5t104.5 22.5t75.5 60.5t46 85t15.5 96zM1046.5 117.5
q-165.5 -150.5 -401.5 -150.5t-400.5 150.5t-164.5 396t163 392.5t402 147t403 -147t164 -392.5t-165.5 -396z" />
    <glyph glyph-name="Ucaron" unicode="&#x1d3;" horiz-adv-x="1511" 
d="M907 1604h-301l-254 294h266l140 -165l139 165h262zM1378 547q0 -263 -172 -424.5t-454 -161.5t-449.5 161.5t-167.5 424.5v903h348v-875q0 -124 66.5 -211.5t206 -87.5t206 85.5t66.5 213.5v875h350v-903z" />
    <glyph glyph-name="ucaron" unicode="&#x1d4;" horiz-adv-x="1257" 
d="M774 1174h-301l-254 294h266l140 -165l139 165h262zM803 0v141h-4q-57 -110 -155 -140t-176 -30t-212.5 70t-134.5 348v631h338v-553q0 -100 23.5 -141t52 -58.5t75.5 -17.5q88 0 134.5 65.5t46.5 153.5v551h335v-1020h-323z" />
    <glyph glyph-name="Udieresismacron" unicode="&#x1d5;" horiz-adv-x="1511" 
d="M412 2091v176h688v-176h-688zM705 1771q0 -71 -50.5 -119t-122 -48t-121 49t-49.5 116t48.5 117.5t120.5 50.5q73 0 123.5 -47.5t50.5 -118.5zM1149 1771q0 -71 -50 -119t-121 -48t-120 49t-49 116t48.5 117.5t119.5 50.5q72 0 122 -47.5t50 -118.5zM1378 547
q0 -263 -172 -424.5t-454 -161.5t-449.5 161.5t-167.5 424.5v903h348v-875q0 -124 66.5 -211.5t206 -87.5t206 85.5t66.5 213.5v875h350v-903z" />
    <glyph glyph-name="udieresismacron" unicode="&#x1d6;" horiz-adv-x="1257" 
d="M279 1661v176h688v-176h-688zM571 1340q0 -71 -50 -118.5t-121.5 -47.5t-121 49t-49.5 116t48.5 117.5t120.5 50.5q73 0 123 -48t50 -119zM1016 1340q0 -71 -51 -118.5t-121 -47.5t-119 49t-49 117t48.5 117.5t120.5 49.5q71 0 121 -48t50 -119zM803 0v141h-4
q-57 -110 -155 -140t-176 -30t-212.5 70t-134.5 348v631h338v-553q0 -100 23.5 -141t52 -58.5t75.5 -17.5q88 0 134.5 65.5t46.5 153.5v551h335v-1020h-323z" />
    <glyph glyph-name="Udieresisacute" unicode="&#x1d7;" horiz-adv-x="1511" 
d="M885 2091h-254l213 295h340zM713 1771q0 -71 -50.5 -119t-122 -48t-120.5 49t-49 116t48 117.5t121 50.5t123 -47.5t50 -118.5zM1157 1771q0 -71 -50 -119t-121 -48t-120 49t-49 116t48.5 117.5t119.5 50.5q72 0 122 -47.5t50 -118.5zM1378 547q0 -263 -172 -424.5
t-454 -161.5t-449.5 161.5t-167.5 424.5v903h348v-875q0 -124 66.5 -211.5t206 -87.5t206 85.5t66.5 213.5v875h350v-903z" />
    <glyph glyph-name="udieresisacute" unicode="&#x1d8;" horiz-adv-x="1257" 
d="M743 1661h-254l213 295h340zM571 1340q0 -71 -50 -118.5t-121.5 -47.5t-121 49t-49.5 116t48.5 117.5t120.5 50.5q73 0 123 -48t50 -119zM1016 1340q0 -71 -51 -118.5t-121 -47.5t-119 49t-49 117t48.5 117.5t120.5 49.5q71 0 121 -48t50 -119zM803 0v141h-4
q-57 -110 -155 -140t-176 -30t-212.5 70t-134.5 348v631h338v-553q0 -100 23.5 -141t52 -58.5t75.5 -17.5q88 0 134.5 65.5t46.5 153.5v551h335v-1020h-323z" />
    <glyph glyph-name="Udieresiscaron" unicode="&#x1d9;" horiz-adv-x="1511" 
d="M907 2091h-301l-254 295h266l140 -166l139 166h262zM705 1771q0 -71 -50.5 -119t-122 -48t-121 49t-49.5 116t48.5 117.5t120.5 50.5q73 0 123.5 -47.5t50.5 -118.5zM1149 1771q0 -71 -50 -119t-121 -48t-120 49t-49 116t48.5 117.5t119.5 50.5q72 0 122 -47.5t50 -118.5
zM1378 547q0 -263 -172 -424.5t-454 -161.5t-449.5 161.5t-167.5 424.5v903h348v-875q0 -124 66.5 -211.5t206 -87.5t206 85.5t66.5 213.5v875h350v-903z" />
    <glyph glyph-name="udieresiscaron" unicode="&#x1da;" horiz-adv-x="1257" 
d="M774 1661h-301l-254 295h266l140 -166l139 166h262zM571 1340q0 -71 -50 -118.5t-121.5 -47.5t-121 49t-49.5 116t48.5 117.5t120.5 50.5q73 0 123 -48t50 -119zM1016 1340q0 -71 -51 -118.5t-121 -47.5t-119 49t-49 117t48.5 117.5t120.5 49.5q71 0 121 -48t50 -119z
M803 0v141h-4q-57 -110 -155 -140t-176 -30t-212.5 70t-134.5 348v631h338v-553q0 -100 23.5 -141t52 -58.5t75.5 -17.5q88 0 134.5 65.5t46.5 153.5v551h335v-1020h-323z" />
    <glyph glyph-name="Udieresisgrave" unicode="&#x1db;" horiz-adv-x="1511" 
d="M635 2091l-299 295h340l213 -295h-254zM705 1771q0 -71 -50.5 -119t-122 -48t-121 49t-49.5 116t48.5 117.5t120.5 50.5q73 0 123.5 -47.5t50.5 -118.5zM1149 1771q0 -71 -50 -119t-121 -48t-120 49t-49 116t48.5 117.5t119.5 50.5q72 0 122 -47.5t50 -118.5zM1378 547
q0 -263 -172 -424.5t-454 -161.5t-449.5 161.5t-167.5 424.5v903h348v-875q0 -124 66.5 -211.5t206 -87.5t206 85.5t66.5 213.5v875h350v-903z" />
    <glyph glyph-name="udieresisgrave" unicode="&#x1dc;" horiz-adv-x="1257" 
d="M481 1661l-299 295h340l213 -295h-254zM571 1340q0 -71 -50 -118.5t-121.5 -47.5t-121 49t-49.5 116t48.5 117.5t120.5 50.5q73 0 123 -48t50 -119zM1016 1340q0 -71 -51 -118.5t-121 -47.5t-119 49t-49 117t48.5 117.5t120.5 49.5q71 0 121 -48t50 -119zM803 0v141h-4
q-57 -110 -155 -140t-176 -30t-212.5 70t-134.5 348v631h338v-553q0 -100 23.5 -141t52 -58.5t75.5 -17.5q88 0 134.5 65.5t46.5 153.5v551h335v-1020h-323z" />
    <glyph glyph-name="Adieresismacron" unicode="&#x1de;" horiz-adv-x="1492" 
d="M401 2091v176h689v-176h-689zM694 1771q0 -71 -50 -119t-121.5 -48t-121 49t-49.5 116t48.5 117.5t120.5 50.5q73 0 123 -47.5t50 -118.5zM1139 1771q0 -71 -50.5 -119t-120.5 -48t-119.5 49t-49.5 116t48 117.5t120 50.5t122 -47.5t50 -118.5zM743 1063l-184 -498h365z
M1133 0l-113 285h-561l-107 -285h-381l609 1450h340l602 -1450h-389z" />
    <glyph glyph-name="adieresismacron" unicode="&#x1df;" horiz-adv-x="1159" 
d="M209 1694v176h688v-176h-688zM502 1373q0 -71 -50.5 -119t-122 -48t-120.5 49.5t-49 116.5t48.5 117.5t120.5 50.5q73 0 123 -48t50 -119zM946 1373q0 -71 -50 -119t-121 -48t-120 49.5t-49 115.5t49 117.5t120 51.5t121 -48t50 -119zM68 295q0 344 655 344v16
q0 76 -53.5 112t-130.5 36q-137 0 -252 -105l-170 183q90 86 209.5 129t246.5 43q253 0 360 -129.5t107 -409.5v-514h-307v109h-6q-39 -63 -118 -98.5t-155 -35.5q-159 0 -272.5 77t-113.5 243zM377 313q0 -112 145 -112q102 0 156.5 56t54.5 153v34h-43q-137 0 -225 -28
t-88 -103z" />
    <glyph glyph-name="Adotmacron" unicode="&#x1e0;" horiz-adv-x="1492" 
d="M401 2107v177h689v-177h-689zM930 1777.5q0 -73.5 -53.5 -123.5t-131 -50t-130 51t-52.5 122.5t52.5 124t130 52.5t131 -51.5t53.5 -125zM743 1063l-184 -498h365zM1133 0l-113 285h-561l-107 -285h-381l609 1450h340l602 -1450h-389z" />
    <glyph glyph-name="adotmacron" unicode="&#x1e1;" horiz-adv-x="1159" 
d="M209 1710v176h688v-176h-688zM737 1380.5q0 -73.5 -53 -124t-131 -50.5t-130 51.5t-52 123t52 123.5t130 52t131 -51t53 -124.5zM68 295q0 344 655 344v16q0 76 -53.5 112t-130.5 36q-137 0 -252 -105l-170 183q90 86 209.5 129t246.5 43q253 0 360 -129.5t107 -409.5
v-514h-307v109h-6q-39 -63 -118 -98.5t-155 -35.5q-159 0 -272.5 77t-113.5 243zM377 313q0 -112 145 -112q102 0 156.5 56t54.5 153v34h-43q-137 0 -225 -28t-88 -103z" />
    <glyph glyph-name="AEmacron" unicode="&#x1e2;" horiz-adv-x="2115" 
d="M1098 1604v176h688v-176h-688zM1053 1153h-21l-313 -557h334v557zM1053 0v313h-473l-181 -313h-407l848 1450h1157v-297h-611v-272h576v-281h-576v-301h648v-299h-981z" />
    <glyph glyph-name="aemacron" unicode="&#x1e3;" horiz-adv-x="1841" 
d="M571 1206v176h689v-176h-689zM68 295q0 192 176.5 261t478.5 69v14q0 164 -182 164q-72 0 -139.5 -31t-114.5 -74l-168 183q88 86 207.5 129t245.5 43t207 -45t122 -105q55 66 145 108t204 42q230 0 371.5 -149t141.5 -406q0 -44 -4 -80h-737q10 -86 79.5 -139.5
t162.5 -53.5q150 0 225 107l231 -148q-150 -217 -463 -217q-121 0 -222 48t-161 137q-107 -177 -413 -177q-152 0 -272.5 79.5t-120.5 240.5zM1452 627q0 80 -50 137t-149 57t-164 -57.5t-69 -136.5h432zM377 305q0 -104 165 -104q82 0 136.5 51t54.5 139v33h-43
q-145 0 -229 -22.5t-84 -96.5z" />
    <glyph glyph-name="Gcaron" unicode="&#x1e6;" horiz-adv-x="1574" 
d="M993 1642h-301l-254 295h267l139 -165l139 165h262zM82 727q0 174 60.5 315.5t224.5 294t501 152.5q172 0 319.5 -52.5t239.5 -140.5l-221 -252q-51 59 -135 97.5t-183 38.5q-190 0 -311.5 -127.5t-121.5 -330.5q0 -202 117 -327t325 -125q127 0 219 39v264h-276v283h598
v-768q-241 -125 -575 -125t-557.5 212t-223.5 552z" />
    <glyph glyph-name="gcaron" unicode="&#x1e7;" horiz-adv-x="1347" 
d="M879 1202h-301l-254 295h266l139 -166l139 166h262zM471.5 701q-65.5 -73 -65.5 -183t65.5 -186t175 -76t178 76t68.5 184t-69 183t-178 75t-174.5 -73zM877 125q-104 -135 -317 -135q-217 0 -348.5 150.5t-131.5 373t132 379t353 156.5q96 0 184.5 -39t141.5 -121h4v131
h317v-924q0 -289 -158.5 -438.5t-367.5 -149.5t-351 41t-247 119l168 240q145 -129 338 -129q147 0 218 77.5t71 206.5v62h-6z" />
    <glyph glyph-name="Kcaron" unicode="&#x1e8;" horiz-adv-x="1456" 
d="M850 1604h-301l-254 294h266l139 -165l140 165h262zM494 668v-668h-344v1450h344v-590h6l518 590h438l-625 -668l662 -782h-457l-538 668h-4z" />
    <glyph glyph-name="kcaron" unicode="&#x1e9;" horiz-adv-x="1218" 
d="M457 1702h-301l-254 295h266l139 -166l139 166h263zM471 489v-489h-338v1548h338v-942h6l326 414h407l-393 -461l410 -559h-416l-334 489h-6z" />
    <glyph glyph-name="Oogonek" unicode="&#x1ea;" horiz-adv-x="1742" 
d="M574.5 1050.5q-117.5 -123.5 -117.5 -320.5t115.5 -323t297.5 -126t299 125.5t117 321.5t-116.5 321t-297 125t-298 -123.5zM637 -289q0 104 194 252q-329 12 -539 225.5t-210 550.5t222.5 543.5t567 206.5t567 -207t222.5 -551q0 -294 -170.5 -499.5t-454.5 -256.5
q-186 -145 -186 -264q0 -33 21.5 -53t65.5 -20t101 40l66 -127q-109 -81 -249 -81t-179 68.5t-39 172.5z" />
    <glyph glyph-name="oogonek" unicode="&#x1eb;" horiz-adv-x="1294" 
d="M889 514q0 49 -16.5 96t-47 83t-75.5 58.5t-104.5 22.5t-104.5 -22.5t-75 -58.5t-45 -83t-15 -96t15 -96t46 -85t76 -60.5t104.5 -22.5t104.5 22.5t75.5 60.5t46 85t15.5 96zM391 -282q0 105 197 251q-216 16 -362 167.5t-146 386.5t163 382.5t402 147.5t403 -147
t164 -392q0 -204 -116 -345.5t-301 -182.5q-78 -63 -134.5 -130t-56.5 -139q0 -33 21.5 -53t65.5 -20t102 41l65 -127q-110 -82 -250 -82q-139 0 -178 68.5t-39 173.5z" />
    <glyph glyph-name="Oogonekmacron" unicode="&#x1ec;" horiz-adv-x="1742" 
d="M526 1642v177h688v-177h-688zM574.5 1050.5q-117.5 -123.5 -117.5 -320.5t115.5 -323t297.5 -126t299 125.5t117 321.5t-116.5 321t-297 125t-298 -123.5zM637 -289q0 104 194 252q-329 12 -539 225.5t-210 550.5t222.5 543.5t567 206.5t567 -207t222.5 -551
q0 -294 -170.5 -499.5t-454.5 -256.5q-186 -145 -186 -264q0 -33 21.5 -53t65.5 -20t101 40l66 -127q-109 -81 -249 -81t-179 68.5t-39 172.5z" />
    <glyph glyph-name="oogonekmacron" unicode="&#x1ed;" horiz-adv-x="1294" 
d="M301 1206v176h688v-176h-688zM889 514q0 49 -16.5 96t-47 83t-75.5 58.5t-104.5 22.5t-104.5 -22.5t-75 -58.5t-45 -83t-15 -96t15 -96t46 -85t76 -60.5t104.5 -22.5t104.5 22.5t75.5 60.5t46 85t15.5 96zM391 -282q0 105 197 251q-216 16 -362 167.5t-146 386.5
t163 382.5t402 147.5t403 -147t164 -392q0 -204 -116 -345.5t-301 -182.5q-78 -63 -134.5 -130t-56.5 -139q0 -33 21.5 -53t65.5 -20t102 41l65 -127q-110 -82 -250 -82q-139 0 -178 68.5t-39 173.5z" />
    <glyph glyph-name="DZ" unicode="&#x1f1;" horiz-adv-x="2885" 
d="M1665 0v303l690 850h-674v297h1112v-281l-706 -866h721v-303h-1143zM1139 730q0 226 -135 323.5t-338 97.5h-174v-848h165q333 0 407.5 152.5t74.5 274.5zM1503 736q0 -366 -241 -551t-572 -185h-540v1450h524q351 0 518.5 -119t239 -258t71.5 -337z" />
    <glyph glyph-name="Dz" unicode="&#x1f2;" horiz-adv-x="2633" 
d="M1655 0v262l479 500h-461v258h871v-252l-494 -508h514v-260h-909zM1139 730q0 226 -135 323.5t-338 97.5h-174v-848h165q333 0 407.5 152.5t74.5 274.5zM1503 736q0 -366 -241 -551t-572 -185h-540v1450h524q351 0 518.5 -119t239 -258t71.5 -337z" />
    <glyph glyph-name="dz" unicode="&#x1f3;" horiz-adv-x="2396" 
d="M1417 0v262l479 500h-460v258h870v-252l-494 -508h515v-260h-910zM891 512q0 102 -68 182t-178 80t-176 -76.5t-66 -184t65.5 -185.5t175.5 -78t178.5 80t68.5 182zM903 0v133h-4q-49 -78 -140 -120t-200 -42t-199 45t-152.5 120t-95 173.5t-32.5 262.5t132.5 320.5
t348.5 156.5q113 0 190.5 -43t120.5 -95h5v637h335v-1548h-309z" />
    <glyph glyph-name="Gacute" unicode="&#x1f4;" horiz-adv-x="1574" 
d="M860 1642h-254l213 295h340zM82 727q0 174 60.5 315.5t224.5 294t501 152.5q172 0 319.5 -52.5t239.5 -140.5l-221 -252q-51 59 -135 97.5t-183 38.5q-190 0 -311.5 -127.5t-121.5 -330.5q0 -202 117 -327t325 -125q127 0 219 39v264h-276v283h598v-768
q-241 -125 -575 -125t-557.5 212t-223.5 552z" />
    <glyph glyph-name="gacute" unicode="&#x1f5;" horiz-adv-x="1347" 
d="M766 1202h-254l213 295h340zM471.5 701q-65.5 -73 -65.5 -183t65.5 -186t175 -76t178 76t68.5 184t-69 183t-178 75t-174.5 -73zM877 125q-104 -135 -317 -135q-217 0 -348.5 150.5t-131.5 373t132 379t353 156.5q96 0 184.5 -39t141.5 -121h4v131h317v-924
q0 -289 -158.5 -438.5t-367.5 -149.5t-351 41t-247 119l168 240q145 -129 338 -129q147 0 218 77.5t71 206.5v62h-6z" />
    <glyph glyph-name="Ngrave" unicode="&#x1f8;" horiz-adv-x="1617" 
d="M729 1604l-299 294h340l213 -294h-254zM150 0v1450h399l581 -946h7l-9 946h340v-1450h-397l-584 948h-6l8 -948h-339z" />
    <glyph glyph-name="ngrave" unicode="&#x1f9;" horiz-adv-x="1261" 
d="M555 1202l-299 295h340l213 -295h-254zM801 557q0 215 -119 215t-166 -63.5t-47 -155.5v-553h-338v1020h326v-141h4q61 112 156 141t173 29t213.5 -69.5t135.5 -348.5v-631h-338v557z" />
    <glyph glyph-name="Aringacute" unicode="&#x1fa;" horiz-adv-x="1492" 
d="M723 2195h-254l213 295h340zM866 1823q0 51 -35 85t-87 34t-85.5 -35t-33.5 -85t34.5 -84t86 -34t86 34t34.5 85zM903.5 1665.5q-65.5 -61.5 -158.5 -61.5t-158 61.5t-65 156.5t64.5 157.5t157.5 62.5t159 -62.5t66 -157.5t-65.5 -156.5zM743 1063l-184 -498h365zM1133 0
l-113 285h-561l-107 -285h-381l609 1450h340l602 -1450h-389z" />
    <glyph glyph-name="aringacute" unicode="&#x1fb;" horiz-adv-x="1159" 
d="M530 1798h-254l213 295h340zM674 1425.5q0 51.5 -35 85t-87 33.5t-86 -35t-34 -85t35 -83.5t86 -33.5t86 33.5t35 85zM710.5 1267.5q-65.5 -61.5 -157.5 -61.5t-157.5 61.5t-65.5 156.5t64.5 158t158.5 63t158.5 -63.5t64.5 -158t-65.5 -156zM68 295q0 344 655 344v16
q0 76 -53.5 112t-130.5 36q-137 0 -252 -105l-170 183q90 86 209.5 129t246.5 43q253 0 360 -129.5t107 -409.5v-514h-307v109h-6q-39 -63 -118 -98.5t-155 -35.5q-159 0 -272.5 77t-113.5 243zM377 313q0 -112 145 -112q102 0 156.5 56t54.5 153v34h-43q-137 0 -225 -28
t-88 -103z" />
    <glyph glyph-name="AEacute" unicode="&#x1fc;" horiz-adv-x="2115" 
d="M1440 1604h-254l213 294h340zM1053 1153h-21l-313 -557h334v557zM1053 0v313h-473l-181 -313h-407l848 1450h1157v-297h-611v-272h576v-281h-576v-301h648v-299h-981z" />
    <glyph glyph-name="aeacute" unicode="&#x1fd;" horiz-adv-x="1841" 
d="M975 1206h-254l213 295h340zM68 295q0 192 176.5 261t478.5 69v14q0 164 -182 164q-72 0 -139.5 -31t-114.5 -74l-168 183q88 86 207.5 129t245.5 43t207 -45t122 -105q55 66 145 108t204 42q230 0 371.5 -149t141.5 -406q0 -44 -4 -80h-737q10 -86 79.5 -139.5
t162.5 -53.5q150 0 225 107l231 -148q-150 -217 -463 -217q-121 0 -222 48t-161 137q-107 -177 -413 -177q-152 0 -272.5 79.5t-120.5 240.5zM1452 627q0 80 -50 137t-149 57t-164 -57.5t-69 -136.5h432zM377 305q0 -104 165 -104q82 0 136.5 51t54.5 139v33h-43
q-145 0 -229 -22.5t-84 -96.5z" />
    <glyph glyph-name="Oslashacute" unicode="&#x1fe;" horiz-adv-x="1742" 
d="M930 1720h-254l213 295h340zM438 727q0 -150 64 -246l594 645q-85 60 -206 60q-218 0 -335 -132.5t-117 -326.5zM868 268q192 0 312 130.5t120 313.5t-77 283l-598 -651q94 -76 243 -76zM262 225q-180 192 -180 520t222.5 535t565.5 207q258 0 449 -119l178 199l137 -121
l-176 -191q203 -207 203 -536t-166 -486t-311.5 -213.5t-315.5 -56.5h-10q-275 0 -459 141l-182 -194l-137 117z" />
    <glyph glyph-name="oslashacute" unicode="&#x1ff;" horiz-adv-x="1294" 
d="M705 1255h-254l213 295h340zM893 491q0 94 -27 136l-342 -344q47 -41 116 -41q124 0 188.5 77.5t64.5 171.5zM393 538q0 -92 29 -135l340 345q-55 38 -117 38q-117 0 -184.5 -78t-67.5 -170zM80 512q0 243 163.5 393t401.5 150q193 0 328 -101l147 148l123 -119
l-143 -141q113 -131 112 -330q0 -240 -163 -392.5t-404 -152.5q-188 0 -321 96l-154 -151l-121 119l148 145q-117 135 -117 336z" />
    <glyph glyph-name="Adblgrave" unicode="&#x200;" horiz-adv-x="1492" 
d="M424 1604l-299 294h340l213 -294h-254zM909 1604l-299 294h340l213 -294h-254zM743 1063l-184 -498h365zM1133 0l-113 285h-561l-107 -285h-381l609 1450h340l602 -1450h-389z" />
    <glyph glyph-name="adblgrave" unicode="&#x201;" horiz-adv-x="1159" 
d="M252 1206l-299 295h340l213 -295h-254zM737 1206l-299 295h340l213 -295h-254zM68 295q0 344 655 344v16q0 76 -53.5 112t-130.5 36q-137 0 -252 -105l-170 183q90 86 209.5 129t246.5 43q253 0 360 -129.5t107 -409.5v-514h-307v109h-6q-39 -63 -118 -98.5t-155 -35.5
q-159 0 -272.5 77t-113.5 243zM377 313q0 -112 145 -112q102 0 156.5 56t54.5 153v34h-43q-137 0 -225 -28t-88 -103z" />
    <glyph glyph-name="Ainvertedbreve" unicode="&#x202;" horiz-adv-x="1492" 
d="M745 1716q-159 0 -184 -112h-172q11 150 105 222t249 72q235 0 294 -107.5t65 -186.5h-172q-14 72 -64.5 92t-120.5 20zM743 1063l-184 -498h365zM1133 0l-113 285h-561l-107 -285h-381l609 1450h340l602 -1450h-389z" />
    <glyph glyph-name="ainvertedbreve" unicode="&#x203;" horiz-adv-x="1159" 
d="M553 1319q-161 0 -184 -113h-172q11 153 105.5 224t248.5 71q236 0 294 -107.5t64 -187.5h-172q-14 72 -64 92.5t-120 20.5zM68 295q0 344 655 344v16q0 76 -53.5 112t-130.5 36q-137 0 -252 -105l-170 183q90 86 209.5 129t246.5 43q253 0 360 -129.5t107 -409.5v-514
h-307v109h-6q-39 -63 -118 -98.5t-155 -35.5q-159 0 -272.5 77t-113.5 243zM377 313q0 -112 145 -112q102 0 156.5 56t54.5 153v34h-43q-137 0 -225 -28t-88 -103z" />
    <glyph glyph-name="Edblgrave" unicode="&#x204;" horiz-adv-x="1243" 
d="M293 1604l-299 294h340l213 -294h-254zM778 1604l-299 294h340l213 -294h-254zM150 0v1450h974v-297h-637v-272h603v-281h-603v-301h674v-299h-1011z" />
    <glyph glyph-name="edblgrave" unicode="&#x205;" horiz-adv-x="1220" 
d="M268 1206l-299 295h340l213 -295h-254zM754 1206l-299 295h340l213 -295h-254zM641 -33q-238 0 -399.5 143.5t-161.5 392.5t157 399.5t390 150.5t374.5 -150t141.5 -405v-31q0 -31 -2 -49h-740q8 -82 80.5 -137.5t163.5 -55.5q148 0 225 107l234 -148
q-150 -217 -463 -217zM834 627q0 80 -50.5 137t-148.5 57t-164 -57t-70 -137h433z" />
    <glyph glyph-name="Einvertedbreve" unicode="&#x206;" horiz-adv-x="1243" 
d="M655 1716q-159 0 -184 -112h-172q11 150 105 222t249 72q235 0 294 -107.5t65 -186.5h-172q-14 72 -64.5 92t-120.5 20zM150 0v1450h974v-297h-637v-272h603v-281h-603v-301h674v-299h-1011z" />
    <glyph glyph-name="einvertedbreve" unicode="&#x207;" horiz-adv-x="1220" 
d="M610 1319q-159 0 -184 -113h-172q11 153 106 224t248 71q235 0 294 -107.5t65 -187.5h-172q-14 72 -64.5 92.5t-120.5 20.5zM641 -33q-238 0 -399.5 143.5t-161.5 392.5t157 399.5t390 150.5t374.5 -150t141.5 -405v-31t-2 -49h-740q8 -82 80.5 -137.5t163.5 -55.5
q148 0 225 107l234 -148q-150 -217 -463 -217zM834 627q0 80 -50.5 137t-148.5 57t-164 -57t-70 -137h433z" />
    <glyph glyph-name="Idblgrave" unicode="&#x208;" horiz-adv-x="651" 
d="M45 1604l-299 294h340l213 -294h-254zM530 1604l-299 294h340l213 -294h-254zM150 0v1450h352v-1450h-352z" />
    <glyph glyph-name="idblgrave" unicode="&#x209;" horiz-adv-x="606" 
d="M2 1174l-299 294h340l213 -294h-254zM487 1174l-299 294h340l213 -294h-254zM135 0v1020h336v-1020h-336z" />
    <glyph glyph-name="Iinvertedbreve" unicode="&#x20a;" horiz-adv-x="651" 
d="M326 1716q-160 0 -185 -112h-172q11 150 105 222t250 72q234 0 293 -107.5t65 -186.5h-172q-14 72 -64.5 92t-119.5 20zM150 0v1450h352v-1450h-352z" />
    <glyph glyph-name="iinvertedbreve" unicode="&#x20b;" horiz-adv-x="606" 
d="M303 1286q-161 0 -184 -112h-172q11 151 104.5 222.5t249.5 71.5q236 0 294 -107.5t64 -186.5h-172q-14 72 -64 92t-120 20zM135 0v1020h336v-1020h-336z" />
    <glyph glyph-name="Odblgrave" unicode="&#x20c;" horiz-adv-x="1742" 
d="M549 1642l-299 295h340l213 -295h-254zM1034 1642l-299 295h340l213 -295h-254zM574.5 1050.5q-117.5 -123.5 -117.5 -320.5t115.5 -323t297.5 -126t299 125.5t117 321.5t-116.5 321t-297 125t-298 -123.5zM1661 732q0 -173 -59.5 -315.5t-165 -243.5t-251 -156.5
t-315.5 -55.5t-314 55.5t-249.5 156.5t-165 243.5t-59.5 315.5t59.5 313.5t165 238.5t249.5 151.5t314 53.5t315.5 -53.5t251 -151.5t165 -238.5t59.5 -313.5z" />
    <glyph glyph-name="odblgrave" unicode="&#x20d;" horiz-adv-x="1294" 
d="M324 1206l-299 295h340l213 -295h-254zM809 1206l-299 295h340l213 -295h-254zM889 514q0 49 -16.5 96t-47 83t-75.5 58.5t-104.5 22.5t-104.5 -22.5t-75 -58.5t-45 -83t-15 -96t15 -96t46 -85t76 -60.5t104.5 -22.5t104.5 22.5t75.5 60.5t46 85t15.5 96zM1046.5 117.5
q-165.5 -150.5 -401.5 -150.5t-400.5 150.5t-164.5 396t163 392.5t402 147t403 -147t164 -392.5t-165.5 -396z" />
    <glyph glyph-name="Oinvertedbreve" unicode="&#x20e;" horiz-adv-x="1742" 
d="M870 1755q-160 0 -184 -113h-172q11 151 105 223t249 72q235 0 294 -107.5t65 -187.5h-172q-14 72 -64.5 92.5t-120.5 20.5zM574.5 1050.5q-117.5 -123.5 -117.5 -320.5t115.5 -323t297.5 -126t299 125.5t117 321.5t-116.5 321t-297 125t-298 -123.5zM1661 732
q0 -173 -59.5 -315.5t-165 -243.5t-251 -156.5t-315.5 -55.5t-314 55.5t-249.5 156.5t-165 243.5t-59.5 315.5t59.5 313.5t165 238.5t249.5 151.5t314 53.5t315.5 -53.5t251 -151.5t165 -238.5t59.5 -313.5z" />
    <glyph glyph-name="oinvertedbreve" unicode="&#x20f;" horiz-adv-x="1294" 
d="M645 1319q-161 0 -184 -113h-172q11 153 106 224t248 71q236 0 294 -107.5t64 -187.5h-172q-14 72 -64 92.5t-120 20.5zM889 514q0 49 -16.5 96t-47 83t-75.5 58.5t-104.5 22.5t-104.5 -22.5t-75 -58.5t-45 -83t-15 -96t15 -96t46 -85t76 -60.5t104.5 -22.5t104.5 22.5
t75.5 60.5t46 85t15.5 96zM1046.5 117.5q-165.5 -150.5 -401.5 -150.5t-400.5 150.5t-164.5 396t163 392.5t402 147t403 -147t164 -392.5t-165.5 -396z" />
    <glyph glyph-name="Rdblgrave" unicode="&#x210;" horiz-adv-x="1357" 
d="M297 1604l-299 294h340l213 -294h-254zM782 1604l-299 294h340l213 -294h-254zM657 829q254 0 254 177q0 161 -233 161h-186v-338h165zM494 575v-575h-344v1450h552q380 0 467.5 -156.5t87.5 -292.5t-79.5 -236.5t-221.5 -143.5l379 -621h-409l-314 575h-118z" />
    <glyph glyph-name="rdblgrave" unicode="&#x211;" horiz-adv-x="811" 
d="M106 1202l-299 295h340l213 -295h-254zM592 1202l-299 295h340l213 -295h-254zM695 756q-56 0 -102 -24.5t-86 -75.5t-40 -132v-524h-336v1020h324v-148h4q39 78 110.5 127.5t165.5 49.5q45 0 72 -9l-14 -295q-42 11 -98 11z" />
    <glyph glyph-name="Rinvertedbreve" unicode="&#x212;" horiz-adv-x="1357" 
d="M598 1716q-161 0 -184 -112h-172q11 151 104.5 222.5t249.5 71.5q236 0 294 -107.5t64 -186.5h-172q-14 72 -64 92t-120 20zM657 829q254 0 254 177q0 161 -233 161h-186v-338h165zM494 575v-575h-344v1450h552q380 0 467.5 -156.5t87.5 -292.5t-79.5 -236.5
t-221.5 -143.5l379 -621h-409l-314 575h-118z" />
    <glyph glyph-name="rinvertedbreve" unicode="&#x213;" horiz-adv-x="811" 
d="M449 1315q-160 0 -185 -113h-172q11 152 106 223.5t248 71.5q235 0 294 -107.5t65 -187.5h-172q-14 72 -64.5 92.5t-119.5 20.5zM695 756q-56 0 -102 -24.5t-86 -75.5t-40 -132v-524h-336v1020h324v-148h4q39 78 110.5 127.5t165.5 49.5q45 0 72 -9l-14 -295
q-42 11 -98 11z" />
    <glyph glyph-name="Udblgrave" unicode="&#x214;" horiz-adv-x="1511" 
d="M434 1604l-299 294h340l213 -294h-254zM920 1604l-299 294h340l213 -294h-254zM1378 547q0 -263 -172 -424.5t-454 -161.5t-449.5 161.5t-167.5 424.5v903h348v-875q0 -124 66.5 -211.5t206 -87.5t206 85.5t66.5 213.5v875h350v-903z" />
    <glyph glyph-name="udblgrave" unicode="&#x215;" horiz-adv-x="1257" 
d="M260 1174l-299 294h340l213 -294h-254zM745 1174l-299 294h340l213 -294h-254zM803 0v141h-4q-57 -110 -155 -140t-176 -30t-212.5 70t-134.5 348v631h338v-553q0 -100 23.5 -141t52 -58.5t75.5 -17.5q88 0 134.5 65.5t46.5 153.5v551h335v-1020h-323z" />
    <glyph glyph-name="Uinvertedbreve" unicode="&#x216;" horiz-adv-x="1511" 
d="M756 1716q-160 0 -185 -112h-172q11 150 105 222t250 72q234 0 293 -107.5t65 -186.5h-172q-14 72 -64.5 92t-119.5 20zM1378 547q0 -263 -172 -424.5t-454 -161.5t-449.5 161.5t-167.5 424.5v903h348v-875q0 -124 66.5 -211.5t206 -87.5t206 85.5t66.5 213.5v875h350
v-903z" />
    <glyph glyph-name="uinvertedbreve" unicode="&#x217;" horiz-adv-x="1257" 
d="M623 1286q-160 0 -185 -112h-172q11 150 105 222t250 72q234 0 293 -107.5t65 -186.5h-172q-14 72 -64.5 92t-119.5 20zM803 0v141h-4q-57 -110 -155 -140t-176 -30t-212.5 70t-134.5 348v631h338v-553q0 -100 23.5 -141t52 -58.5t75.5 -17.5q88 0 134.5 65.5t46.5 153.5
v551h335v-1020h-323z" />
    <glyph glyph-name="Scommaaccent" unicode="&#x218;" horiz-adv-x="1210" 
d="M569 -492h-258l138 400h296zM513 1162.5q-58 -35.5 -58 -106.5t53.5 -104t148.5 -63q95 -31 174.5 -60.5t188 -111.5t108.5 -271q0 -236 -160.5 -359.5t-394.5 -123.5q-156 0 -301 54.5t-241 154.5l229 234q53 -66 140.5 -110t149.5 -44q113 0 168.5 37.5t55.5 120.5
q0 104 -114.5 144t-185.5 62q-173 55 -272.5 148t-99.5 268q0 224 165.5 339.5t396.5 115.5q123 0 250.5 -45t224.5 -133l-224 -236q-45 57 -117.5 91t-149.5 34t-135 -35.5z" />
    <glyph glyph-name="scommaaccent" unicode="&#x219;" horiz-adv-x="966" 
d="M446 -492h-258l138 400h297zM518 811q-47 0 -87 -18.5t-40 -62.5t44 -62.5t122 -35.5q158 -35 252 -107.5t94 -209.5q0 -178 -129.5 -263t-280.5 -85q-310 0 -470 158l188 199q45 -49 110 -82t123 -33q138 0 138 88q0 47 -50 70t-128 41q-159 37 -240.5 105t-81.5 198
q0 169 129.5 255.5t294.5 86.5q115 0 224.5 -36t184.5 -108l-184 -190q-97 92 -213 92z" />
    <glyph glyph-name="uni021A" unicode="&#x21a;" horiz-adv-x="1189" 
d="M571 -492h-258l138 400h297zM770 1151v-1151h-350v1151h-410v299h1170v-299h-410z" />
    <glyph glyph-name="uni021B" unicode="&#x21b;" horiz-adv-x="761" 
d="M414 -492h-258l137 400h297zM168 338v430h-164v252h162v268h330v-268h239v-252h-239v-389q0 -72 27.5 -107.5t93.5 -35.5t104 16l4 -246q-90 -31 -194 -31q-197 0 -280 95t-83 268z" />
    <glyph glyph-name="Hcaron" unicode="&#x21e;" horiz-adv-x="1564" 
d="M934 1604h-301l-254 294h266l139 -165l140 165h262zM1065 0v606h-565v-606h-350v1450h350v-549h565v549h350v-1450h-350z" />
    <glyph glyph-name="hcaron" unicode="&#x21f;" horiz-adv-x="1263" 
d="M455 1702h-301l-254 295h266l139 -166l139 166h263zM803 553q0 215 -150 215q-88 0 -135 -62.5t-47 -154.5v-551h-336v1548h336v-657h4q35 61 111 109.5t181 48.5q191 0 282.5 -121.5t91.5 -296.5v-631h-338v553z" />
    <glyph glyph-name="Adotaccent" unicode="&#x226;" horiz-adv-x="1492" 
d="M930 1777.5q0 -73.5 -53.5 -123.5t-131 -50t-130 51t-52.5 122.5t52.5 124t130 52.5t131 -51.5t53.5 -125zM743 1063l-184 -498h365zM1133 0l-113 285h-561l-107 -285h-381l609 1450h340l602 -1450h-389z" />
    <glyph glyph-name="adotaccent" unicode="&#x227;" horiz-adv-x="1159" 
d="M737 1380.5q0 -73.5 -53 -124t-131 -50.5t-130 51.5t-52 123t52 123.5t130 52t131 -51t53 -124.5zM68 295q0 344 655 344v16q0 76 -53.5 112t-130.5 36q-137 0 -252 -105l-170 183q90 86 209.5 129t246.5 43q253 0 360 -129.5t107 -409.5v-514h-307v109h-6
q-39 -63 -118 -98.5t-155 -35.5q-159 0 -272.5 77t-113.5 243zM377 313q0 -112 145 -112q102 0 156.5 56t54.5 153v34h-43q-137 0 -225 -28t-88 -103z" />
    <glyph glyph-name="Ecedilla" unicode="&#x228;" horiz-adv-x="1243" 
d="M717 -121q211 0 211 -174q0 -104 -93 -150.5t-182 -46.5q-164 0 -270 52l55 123q84 -39 180 -39q95 0 95 67q0 60 -97 60q-42 0 -81 -13l-64 60l137 182h-458v1450h974v-297h-637v-272h603v-281h-603v-301h674v-299h-385l-96 -123q10 2 12 2h25z" />
    <glyph glyph-name="ecedilla" unicode="&#x229;" horiz-adv-x="1220" 
d="M834 627q0 80 -50.5 137t-148.5 57t-164 -57t-70 -137h433zM672 -154q211 0 211 -174q0 -104 -92 -150t-182 -46q-167 0 -271 51l55 123q84 -39 145 -39q60 0 95 13.5t35 53.5q0 60 -97 60q-44 0 -82 -12l-63 59l131 188q-209 25 -343 165t-134 377t157 387.5t390 150.5
t374.5 -150t141.5 -405v-31q0 -31 -2 -49h-740q8 -82 80.5 -137.5t163.5 -55.5q148 0 225 107l234 -148q-129 -184 -379 -213l-90 -127q10 2 13 2h24z" />
    <glyph glyph-name="Odieresismacron" unicode="&#x22a;" horiz-adv-x="1742" 
d="M526 2130v176h688v-176h-688zM819 1809q0 -71 -50 -119t-122 -48t-121 49.5t-49 116.5t48.5 117.5t120.5 50.5q73 0 123 -48t50 -119zM1264 1809q0 -71 -51 -119t-121 -48t-119 49.5t-49 116.5t48 117.5t120 50.5t122 -48t50 -119zM574.5 1050.5
q-117.5 -123.5 -117.5 -320.5t115.5 -323t297.5 -126t299 125.5t117 321.5t-116.5 321t-297 125t-298 -123.5zM1661 732q0 -173 -59.5 -315.5t-165 -243.5t-251 -156.5t-315.5 -55.5t-314 55.5t-249.5 156.5t-165 243.5t-59.5 315.5t59.5 313.5t165 238.5t249.5 151.5
t314 53.5t315.5 -53.5t251 -151.5t165 -238.5t59.5 -313.5z" />
    <glyph glyph-name="odieresismacron" unicode="&#x22b;" horiz-adv-x="1294" 
d="M301 1694v176h688v-176h-688zM594 1373q0 -71 -50 -119t-122 -48t-121 49.5t-49 115.5t49 117.5t121 51.5t122 -48t50 -119zM1038 1373q0 -71 -50 -119t-121 -48t-120 49.5t-49 115.5t49 117.5t120 51.5t121 -48t50 -119zM889 514q0 49 -16.5 96t-47 83t-75.5 58.5
t-104.5 22.5t-104.5 -22.5t-75 -58.5t-45 -83t-15 -96t15 -96t46 -85t76 -60.5t104.5 -22.5t104.5 22.5t75.5 60.5t46 85t15.5 96zM1046.5 117.5q-165.5 -150.5 -401.5 -150.5t-400.5 150.5t-164.5 396t163 392.5t402 147t403 -147t164 -392.5t-165.5 -396z" />
    <glyph glyph-name="Otildemacron" unicode="&#x22c;" horiz-adv-x="1742" 
d="M526 2066v177h688v-177h-688zM590.5 1870.5q77.5 40.5 140.5 40.5t154 -41q92 -41 133 -41t59.5 23.5t28.5 60.5h145q-21 -184 -98.5 -227.5t-140.5 -43.5t-158 44q-71 40 -130 40t-85 -81h-147q21 185 98.5 225.5zM574.5 1050.5q-117.5 -123.5 -117.5 -320.5t115.5 -323
t297.5 -126t299 125.5t117 321.5t-116.5 321t-297 125t-298 -123.5zM1661 732q0 -173 -59.5 -315.5t-165 -243.5t-251 -156.5t-315.5 -55.5t-314 55.5t-249.5 156.5t-165 243.5t-59.5 315.5t59.5 313.5t165 238.5t249.5 151.5t314 53.5t315.5 -53.5t251 -151.5t165 -238.5
t59.5 -313.5z" />
    <glyph glyph-name="otildemacron" unicode="&#x22d;" horiz-adv-x="1294" 
d="M301 1630v176h688v-176h-688zM266 1208q30 267 239 267q63 0 155 -41t133 -41t59 23.5t29 60.5h145q-21 -186 -98.5 -228.5t-139.5 -42.5t-159 43q-73 41 -132 41t-83 -82h-148zM889 514q0 49 -16.5 96t-47 83t-75.5 58.5t-104.5 22.5t-104.5 -22.5t-75 -58.5t-45 -83
t-15 -96t15 -96t46 -85t76 -60.5t104.5 -22.5t104.5 22.5t75.5 60.5t46 85t15.5 96zM1046.5 117.5q-165.5 -150.5 -401.5 -150.5t-400.5 150.5t-164.5 396t163 392.5t402 147t403 -147t164 -392.5t-165.5 -396z" />
    <glyph glyph-name="Odotaccent" unicode="&#x22e;" horiz-adv-x="1742" 
d="M1055 1816.5q0 -73.5 -53.5 -124t-131 -50.5t-130 51.5t-52.5 123t52.5 124t130 52.5t131 -51.5t53.5 -125zM574.5 1050.5q-117.5 -123.5 -117.5 -320.5t115.5 -323t297.5 -126t299 125.5t117 321.5t-116.5 321t-297 125t-298 -123.5zM1661 732q0 -173 -59.5 -315.5
t-165 -243.5t-251 -156.5t-315.5 -55.5t-314 55.5t-249.5 156.5t-165 243.5t-59.5 315.5t59.5 313.5t165 238.5t249.5 151.5t314 53.5t315.5 -53.5t251 -151.5t165 -238.5t59.5 -313.5z" />
    <glyph glyph-name="odotaccent" unicode="&#x22f;" horiz-adv-x="1294" 
d="M829 1380.5q0 -73.5 -53 -124t-131 -50.5t-130 51.5t-52 123t52 123.5t130 52t131 -51t53 -124.5zM889 514q0 49 -16.5 96t-47 83t-75.5 58.5t-104.5 22.5t-104.5 -22.5t-75 -58.5t-45 -83t-15 -96t15 -96t46 -85t76 -60.5t104.5 -22.5t104.5 22.5t75.5 60.5t46 85
t15.5 96zM1046.5 117.5q-165.5 -150.5 -401.5 -150.5t-400.5 150.5t-164.5 396t163 392.5t402 147t403 -147t164 -392.5t-165.5 -396z" />
    <glyph glyph-name="Odotaccentmacron" unicode="&#x230;" horiz-adv-x="1742" 
d="M526 2146v176h688v-176h-688zM1055 1816.5q0 -73.5 -53.5 -124t-131 -50.5t-130 51.5t-52.5 123t52.5 124t130 52.5t131 -51.5t53.5 -125zM574.5 1050.5q-117.5 -123.5 -117.5 -320.5t115.5 -323t297.5 -126t299 125.5t117 321.5t-116.5 321t-297 125t-298 -123.5z
M1661 732q0 -173 -59.5 -315.5t-165 -243.5t-251 -156.5t-315.5 -55.5t-314 55.5t-249.5 156.5t-165 243.5t-59.5 315.5t59.5 313.5t165 238.5t249.5 151.5t314 53.5t315.5 -53.5t251 -151.5t165 -238.5t59.5 -313.5z" />
    <glyph glyph-name="odotaccentmacron" unicode="&#x231;" horiz-adv-x="1294" 
d="M301 1710v176h688v-176h-688zM829 1380.5q0 -73.5 -53 -124t-131 -50.5t-130 51.5t-52 123t52 123.5t130 52t131 -51t53 -124.5zM889 514q0 49 -16.5 96t-47 83t-75.5 58.5t-104.5 22.5t-104.5 -22.5t-75 -58.5t-45 -83t-15 -96t15 -96t46 -85t76 -60.5t104.5 -22.5
t104.5 22.5t75.5 60.5t46 85t15.5 96zM1046.5 117.5q-165.5 -150.5 -401.5 -150.5t-400.5 150.5t-164.5 396t163 392.5t402 147t403 -147t164 -392.5t-165.5 -396z" />
    <glyph glyph-name="Ymacron" unicode="&#x232;" horiz-adv-x="1370" 
d="M340 1604v176h688v-176h-688zM854 0h-350v614l-545 836h424l309 -537l309 537h410l-557 -836v-614z" />
    <glyph glyph-name="ymacron" unicode="&#x233;" horiz-adv-x="1161" 
d="M236 1174v176h688v-176h-688zM234 -205q63 0 98 36t59 101l33 84l-426 1004h373l227 -655h6l203 655h356l-456 -1174q-65 -169 -165 -253.5t-284 -84.5q-99 0 -184 23l37 283q60 -19 123 -19z" />
    <glyph glyph-name="dotlessj" unicode="&#x237;" horiz-adv-x="612" 
d="M18 -205q74 0 98.5 50.5t24.5 127.5v1047h336v-1047q0 -215 -88.5 -340t-318.5 -125q-84 0 -146 17l23 280q30 -10 71 -10z" />
    <glyph glyph-name="commaturnedmod" unicode="&#x2bb;" 
d="M383 895h-297l186 555h258z" />
    <glyph glyph-name="afii57929" unicode="&#x2bc;" 
d="M342 895h-258l147 555h297z" />
    <glyph glyph-name="circumflex" unicode="&#x2c6;" 
d="M444 1171l-139 166l-139 -166h-262l254 295h303l250 -295h-267z" />
    <glyph glyph-name="caron" unicode="&#x2c7;" 
d="M459 1171h-301l-254 295h266l139 -166l140 166h262z" />
    <glyph glyph-name="uni02C9" unicode="&#x2c9;" 
d="M-37 1624v176h688v-176h-688z" />
    <glyph glyph-name="breve" unicode="&#x2d8;" 
d="M307 1354q70 0 120 20.5t65 91.5h172q-11 -150 -108.5 -222.5t-250.5 -72.5q-235 0 -291.5 107.5t-62.5 187.5h172q23 -112 184 -112z" />
    <glyph glyph-name="dotaccent" unicode="&#x2d9;" 
d="M492 1345.5q0 -73.5 -53.5 -124t-131.5 -50.5t-130 51.5t-52 123t52 124t130 52.5t131.5 -51.5t53.5 -125z" />
    <glyph glyph-name="ring" unicode="&#x2da;" 
d="M428 1360q0 51 -35 85t-87 34t-86 -35t-34 -85t35 -84t86 -34t86 34t35 85zM464 1201.5q-66 -60.5 -157 -60.5t-157 61.5t-66 156.5t64.5 157.5t157.5 62.5t158.5 -62t65.5 -158.5t-66 -157z" />
    <glyph glyph-name="ogonek" unicode="&#x2db;" 
d="M25 -299q0 152 221 307h186q-194 -153 -194 -250q0 -33 21.5 -53t64.5 -20t102 41l66 -127q-110 -82 -250 -82q-139 0 -178 68.5t-39 115.5z" />
    <glyph glyph-name="tilde" unicode="&#x2dc;" 
d="M-74 1182q30 266 239 266q63 0 155 -41t133 -41t59 23.5t29 60.5h145q-21 -185 -98.5 -227.5t-141.5 -42.5t-157 43q-73 41 -131 41t-84 -82h-148z" />
    <glyph glyph-name="hungarumlaut" unicode="&#x2dd;" 
d="M184 1171h-254l213 295h340zM635 1171h-254l213 295h340z" />
    <glyph glyph-name="uni02EE" unicode="&#x2ee;" horiz-adv-x="1038" 
d="M342 895h-258l147 555h293zM768 895h-260l151 555h293z" />
    <glyph glyph-name="gravecmb" unicode="&#x300;" horiz-adv-x="0" 
d="M-315 1171l-299 295h340l213 -295h-254z" />
    <glyph glyph-name="acutecmb" unicode="&#x301;" horiz-adv-x="0" 
d="M-360 1171h-254l213 295h340z" />
    <glyph glyph-name="circumflexcmb" unicode="&#x302;" horiz-adv-x="0" 
d="M-74 1171l-139 166l-139 -166h-262l254 295h303l250 -295h-267z" />
    <glyph glyph-name="tildecmb" unicode="&#x303;" horiz-adv-x="0" 
d="M-515.5 1407.5q77.5 40.5 140.5 40.5t154 -41q92 -41 133 -41t59.5 23.5t28.5 60.5h145q-21 -185 -98.5 -227.5t-141.5 -42.5t-157 43q-73 41 -131 41t-84 -82h-147q21 185 98.5 225.5z" />
    <glyph glyph-name="macroncmb" unicode="&#x304;" horiz-adv-x="0" 
d="M-614 1231v176h688v-176h-688z" />
    <glyph glyph-name="brevecmb" unicode="&#x306;" horiz-adv-x="0" 
d="M-260 1171q-235 0 -291.5 107.5t-62.5 187.5h172q23 -112 184 -112q70 0 120 20.5t64 91.5h172q-11 -151 -108 -223t-250 -72z" />
    <glyph glyph-name="dotaccentcmb" unicode="&#x307;" horiz-adv-x="0" 
d="M-248 1345.5q0 -73.5 -53 -124t-131 -50.5t-130 51.5t-52 123t52 124t130 52.5t131 -51.5t53 -125z" />
    <glyph glyph-name="dieresiscmb" unicode="&#x308;" horiz-adv-x="0" 
d="M-272 1347q0 -71 -50.5 -119t-122 -48t-120.5 49t-49 116t48 117.5t121 50.5t123 -47.5t50 -118.5zM172 1347q0 -71 -50 -119t-121 -48t-120 49t-49 116t48.5 117.5t119.5 50.5q72 0 122 -47.5t50 -118.5z" />
    <glyph glyph-name="hookabovecomb" unicode="&#x309;" 
d="M315 1593q129 0 198 -57.5t69 -127.5t-28 -109t-75 -61t-59 -41t-12 -46h-189q0 53 20.5 87t78.5 68t59 78q0 62 -69 62t-81 -98l-200 22q32 223 288 223z" />
    <glyph glyph-name="ringcmb" unicode="&#x30a;" horiz-adv-x="0" 
d="M-270 1360q0 51 -35 85t-87 34t-86 -35t-34 -85t35 -84t86 -34t86 34t35 85zM-233.5 1202.5q-65.5 -61.5 -157.5 -61.5q-91 0 -157 60.5t-66 156.5t64.5 158.5t157.5 62.5t158.5 -63t65.5 -157.5t-65.5 -156z" />
    <glyph glyph-name="hungarumlautcmb" unicode="&#x30b;" horiz-adv-x="0" 
d="M-360 1171h-254l213 295h340zM90 1171h-254l213 295h340z" />
    <glyph glyph-name="caroncmb" unicode="&#x30c;" horiz-adv-x="0" 
d="M-59 1171h-301l-254 295h266l139 -166l139 166h263z" />
    <glyph glyph-name="doublegravecmb" unicode="&#x30f;" horiz-adv-x="0" 
d="M-801 1171l-299 295h340l213 -295h-254zM-315 1171l-299 295h340l213 -295h-254z" />
    <glyph glyph-name="invertedbrevecmb" unicode="&#x311;" horiz-adv-x="0" 
d="M-356 1284q-161 0 -185 -113h-172q11 151 105 223t250 72q234 0 293 -107.5t65 -187.5h-172q-14 72 -64.5 92.5t-119.5 20.5z" />
    <glyph glyph-name="horncmb" unicode="&#x31b;" horiz-adv-x="0" 
d="M-500 993q78 0 110 39t32 114t-35 130l254 61q39 -84 39 -186q0 -147 -78 -240.5t-210 -93.5t-222 57q-41 25 -68 58l4 149q96 -88 174 -88z" />
    <glyph glyph-name="dotbelowcmb" unicode="&#x323;" horiz-adv-x="0" 
d="M-201 -344q0 -86 -60.5 -143.5t-144.5 -57.5t-146 56.5t-62 141.5t62.5 144.5t145.5 59.5q84 0 144.5 -57.5t60.5 -143.5z" />
    <glyph glyph-name="dieresisbelowcmb" unicode="&#x324;" horiz-adv-x="0" 
d="M-272 -310q0 -71 -50.5 -119t-122 -48t-120.5 49t-49 116t48.5 118t120.5 51q73 0 123 -48t50 -119zM172 -310q0 -71 -50 -119t-121 -48t-120 49t-49 116t49 118t120 51t121 -48t50 -119z" />
    <glyph glyph-name="ringbelowcmb" unicode="&#x325;" horiz-adv-x="0" 
d="M-270 -362.5q0 51.5 -35 85t-87 33.5t-86 -35t-34 -85t35 -83.5t86 -33.5t86 33.5t35 85zM-233.5 -520.5q-65.5 -61.5 -157.5 -61.5q-91 0 -157 60.5t-66 156.5t64.5 159t158.5 63t158.5 -63.5t64.5 -158t-65.5 -156z" />
    <glyph glyph-name="commabelowcmb" unicode="&#x326;" horiz-adv-x="0" 
d="M-338 -725h-276l153 582h322z" />
    <glyph glyph-name="cedillacmb" unicode="&#x327;" horiz-adv-x="0" 
d="M-381 -229q-41 0 -82 -13l-63 60l137 182h168l-96 -123q10 2 12 2h24q91 0 151 -37.5t60 -132.5q0 -155 -126 -178t-182 -23q-130 0 -236 52l55 123q84 -39 179 -39t95 67q0 60 -96 60z" />
    <glyph glyph-name="ogonekcmb" unicode="&#x328;" horiz-adv-x="0" 
d="M-614 -299q0 152 221 307h186q-194 -153 -194 -250q0 -33 21.5 -53t64.5 -20t102 41l66 -127q-110 -82 -250 -82q-139 0 -178 68.5t-39 115.5z" />
    <glyph glyph-name="circumflexbelowcmb" unicode="&#x32d;" horiz-adv-x="0" 
d="M-74 -438l-139 166l-139 -166h-262l254 295h303l250 -295h-267z" />
    <glyph glyph-name="brevebelowcmb" unicode="&#x32e;" horiz-adv-x="0" 
d="M-260 -438q-236 0 -292 107.5t-62 187.5h172q23 -113 184 -113q70 0 120 20.5t64 92.5h172q-11 -152 -107.5 -223.5t-250.5 -71.5z" />
    <glyph glyph-name="tildebelowcmb" unicode="&#x330;" horiz-adv-x="0" 
d="M-614 -412q30 267 239 267q63 0 154 -41q92 -41 133 -41t59.5 23.5t28.5 60.5h145q-21 -186 -98.5 -228.5t-139.5 -42.5t-159 43q-73 41 -132 41t-83 -82h-147z" />
    <glyph glyph-name="macronbelowcmb" unicode="&#x331;" horiz-adv-x="0" 
d="M-614 -319v176h688v-176h-688z" />
    <glyph glyph-name="gravetonecmb" unicode="&#x340;" horiz-adv-x="0" 
d="M-315 1171l-299 295h340l213 -295h-254z" />
    <glyph glyph-name="acutetonecmb" unicode="&#x341;" horiz-adv-x="0" 
d="M-360 1171h-254l213 295h340z" />
    <glyph glyph-name="dialytikatonoscmb" unicode="&#x344;" horiz-adv-x="0" 
d="M-244 1667h-254l213 295h340zM-272 1347q0 -71 -50.5 -119t-122 -48t-120.5 49t-49 116t48 117.5t121 50.5t123 -47.5t50 -118.5zM172 1347q0 -71 -50 -119t-121 -48t-120 49t-49 116t48.5 117.5t119.5 50.5q72 0 122 -47.5t50 -118.5z" />
    <glyph glyph-name="combininggraphemejoiner" unicode="&#x34f;" horiz-adv-x="1024" 
 />
    <glyph glyph-name="uni037E" unicode="&#x37e;" horiz-adv-x="679" 
d="M344 -254h-283l154 582h328zM482.5 701.5q-58.5 -56.5 -140.5 -56.5t-141.5 57t-59.5 137.5t58.5 137.5t141.5 57t141.5 -57t58.5 -138t-58.5 -137.5z" />
    <glyph glyph-name="u0384" unicode="&#x384;" horiz-adv-x="532" 
d="M135 1585h260l-20 -457h-217z" />
    <glyph glyph-name="u0385" unicode="&#x385;" horiz-adv-x="491" 
d="M121 1587h219l-21 -457h-176zM434 1255.5q0 49.5 37 89t92 39.5t92 -39.5t37 -89t-37 -89.5t-92 -40t-92 40t-37 89.5zM-242 1255.5q0 49.5 37 89t92.5 39.5t92 -39.5t36.5 -89t-36.5 -89.5t-92 -40t-92.5 40t-37 89.5z" />
    <glyph glyph-name="u0386" unicode="&#x386;" horiz-adv-x="1542" 
d="M94 1585h260l-20 -457h-217zM793 1063l-185 -498h365zM1182 0l-113 285h-561l-107 -285h-381l609 1450h340l602 -1450h-389z" />
    <glyph glyph-name="anoteleia" unicode="&#x387;" 
d="M514 596q0 -86 -60.5 -143.5t-145.5 -57.5t-146.5 57.5t-61.5 140.5q0 84 62 144t147 60q84 0 144.5 -57.5t60.5 -143.5z" />
    <glyph glyph-name="u0388" unicode="&#x388;" horiz-adv-x="1466" 
d="M0 1585h260l-20 -457h-217zM373 0v1450h975v-297h-637v-272h602v-281h-602v-301h673v-299h-1011z" />
    <glyph glyph-name="u0389" unicode="&#x389;" horiz-adv-x="1800" 
d="M0 1585h260l-20 -457h-217zM1300 0v606h-565v-606h-350v1450h350v-549h565v549h351v-1450h-351z" />
    <glyph glyph-name="u038A" unicode="&#x38a;" horiz-adv-x="886" 
d="M0 1585h260l-20 -457h-217zM385 0v1450h352v-1450h-352z" />
    <glyph glyph-name="u038C" unicode="&#x38c;" horiz-adv-x="1951" 
d="M0 1585h260l-20 -457h-217zM783.5 1050.5q-117.5 -123.5 -117.5 -320.5t115.5 -323t297.5 -126t299 125.5t117 321.5t-116.5 321t-297 125t-298 -123.5zM1870 732q0 -173 -59.5 -315.5t-165 -243.5t-251 -156.5t-315.5 -55.5t-314 55.5t-249.5 156.5t-165 243.5
t-59.5 315.5t59.5 313.5t165 238.5t249.5 151.5t314 53.5t315.5 -53.5t251 -151.5t165 -238.5t59.5 -313.5z" />
    <glyph glyph-name="u038E" unicode="&#x38e;" horiz-adv-x="1765" 
d="M0 1585h260l-20 -457h-217zM1249 0h-350v614l-545 836h424l309 -537l310 537h409l-557 -836v-614z" />
    <glyph glyph-name="u038F" unicode="&#x38f;" horiz-adv-x="1861" 
d="M-2 1448h260l-20 -457h-218zM1130 0v401q137 45 216 137.5t79 268.5t-99 275.5t-280 99.5t-292 -102t-111 -275t93 -278t225 -124v-403h-642v256h367v14q-68 10 -141.5 54.5t-175 162.5t-101.5 332q0 154 60.5 280t225 262t491.5 136t541 -193t214 -485
q0 -206 -108.5 -328t-182 -166t-131.5 -55v-14h391v-256h-639z" />
    <glyph glyph-name="u0390" unicode="&#x390;" horiz-adv-x="1015" 
d="M403 1628h220l-21 -457h-176zM717 1296.5q0 49.5 37 89t92 39.5t92 -39.5t37 -89t-37 -89.5t-92 -40t-92 40t-37 89.5zM41 1296.5q0 49.5 37 89t92 39.5t92 -39.5t37 -89t-37 -89.5t-92 -40t-92 40t-37 89.5zM336 0v1020h336v-1020h-336z" />
    <glyph glyph-name="u0391" unicode="&#x391;" horiz-adv-x="1492" 
d="M743 1063l-184 -498h365zM1133 0l-113 285h-561l-107 -285h-381l609 1450h340l602 -1450h-389z" />
    <glyph glyph-name="u0392" unicode="&#x392;" horiz-adv-x="1361" 
d="M684 283q246 0 246 172q0 90 -67.5 124.5t-180.5 34.5h-195v-331h197zM883 1028q0 76 -56.5 109.5t-167.5 33.5h-172v-299h189q98 0 152.5 40t54.5 116zM1280 398q0 -96 -88 -247t-465 -151h-577v1450h577q327 0 410.5 -131t83.5 -247t-65.5 -194.5t-172.5 -113.5v-4
q128 -21 189 -86.5t84.5 -122.5t23.5 -153z" />
    <glyph glyph-name="u0393" unicode="&#x393;" horiz-adv-x="1073" 
d="M1063 1450v-305h-561v-1145h-352v1450h913z" />
    <glyph glyph-name="u0394" unicode="&#x394;" horiz-adv-x="1617" 
d="M803 1073l-357 -776h707zM98 0v301l543 1149h340l539 -1145v-305h-1422z" />
    <glyph glyph-name="u0395" unicode="&#x395;" horiz-adv-x="1243" 
d="M150 0v1450h974v-297h-637v-272h603v-281h-603v-301h674v-299h-1011z" />
    <glyph glyph-name="u0396" unicode="&#x396;" horiz-adv-x="1300" 
d="M80 0v303l690 850h-674v297h1112v-281l-706 -866h721v-303h-1143z" />
    <glyph glyph-name="u0397" unicode="&#x397;" horiz-adv-x="1564" 
d="M1065 0v606h-565v-606h-350v1450h350v-549h565v549h350v-1450h-350z" />
    <glyph glyph-name="u0398" unicode="&#x398;" horiz-adv-x="1742" 
d="M870.5 1174q-153.5 0 -259 -88.5t-140.5 -229.5h799q-35 141 -140.5 229.5t-259 88.5zM870.5 281q155.5 0 263 92t140.5 243h-807q33 -152 140.5 -243.5t263 -91.5zM1661 732q0 -173 -59.5 -315.5t-165 -243.5t-251 -156.5t-315.5 -55.5t-314 55.5t-249.5 156.5
t-165 243.5t-59.5 315.5t59.5 313.5t165 238.5t249.5 151.5t314 53.5t315.5 -53.5t251 -151.5t165 -238.5t59.5 -313.5z" />
    <glyph glyph-name="u0399" unicode="&#x399;" horiz-adv-x="651" 
d="M150 0v1450h352v-1450h-352z" />
    <glyph glyph-name="u039A" unicode="&#x39a;" horiz-adv-x="1456" 
d="M494 668v-668h-344v1450h344v-590h6l518 590h438l-625 -668l662 -782h-457l-538 668h-4z" />
    <glyph glyph-name="u039B" unicode="&#x39b;" horiz-adv-x="1492" 
d="M373 0h-375l563 1450h359l575 -1450h-383l-369 967z" />
    <glyph glyph-name="u039C" unicode="&#x39c;" horiz-adv-x="1955" 
d="M150 0v1450h497l330 -930h8l315 930h506v-1450h-342l9 1026h-7l-376 -1026h-246l-367 1026h-6l8 -1026h-329z" />
    <glyph glyph-name="u039D" unicode="&#x39d;" horiz-adv-x="1617" 
d="M150 0v1450h399l581 -946h7l-9 946h340v-1450h-397l-584 948h-6l8 -948h-339z" />
    <glyph glyph-name="u039E" unicode="&#x39e;" horiz-adv-x="1216" 
d="M1135 295v-295h-1053v295h1053zM1030 866v-266h-854v266h854zM1130 1450v-295h-1048v295h1048z" />
    <glyph glyph-name="u039F" unicode="&#x39f;" horiz-adv-x="1742" 
d="M574.5 1050.5q-117.5 -123.5 -117.5 -320.5t115.5 -323t297.5 -126t299 125.5t117 321.5t-116.5 321t-297 125t-298 -123.5zM1661 732q0 -173 -59.5 -315.5t-165 -243.5t-251 -156.5t-315.5 -55.5t-314 55.5t-249.5 156.5t-165 243.5t-59.5 315.5t59.5 313.5t165 238.5
t249.5 151.5t314 53.5t315.5 -53.5t251 -151.5t165 -238.5t59.5 -313.5z" />
    <glyph glyph-name="u03A0" unicode="&#x3a0;" horiz-adv-x="1527" 
d="M1378 1450v-1450h-348v1155h-532v-1155h-348v1450h1228z" />
    <glyph glyph-name="u03A1" unicode="&#x3a1;" horiz-adv-x="1310" 
d="M899 1023q0 73 -67 108.5t-179 35.5h-153v-342h147q176 0 214 62.5t38 135.5zM1249 1003q0 -239 -164 -347.5t-411 -108.5h-174v-547h-350v1450h532q400 0 483.5 -160.5t83.5 -286.5z" />
    <glyph glyph-name="u03A3" unicode="&#x3a3;" horiz-adv-x="1257" 
d="M123 0v246l463 477v12l-463 467v248h1042v-285h-610l442 -417v-31l-401 -432h580v-285h-1053z" />
    <glyph glyph-name="u03A4" unicode="&#x3a4;" horiz-adv-x="1189" 
d="M770 1151v-1151h-350v1151h-410v299h1170v-299h-410z" />
    <glyph glyph-name="u03A5" unicode="&#x3a5;" horiz-adv-x="1370" 
d="M854 0h-350v614l-545 836h424l309 -537l309 537h410l-557 -836v-614z" />
    <glyph glyph-name="u03A6" unicode="&#x3a6;" horiz-adv-x="1945" 
d="M1489 724.5q0 149.5 -87 260.5t-263 150v-820q176 37 263 148.5t87 261zM457 728q0 -155 88 -266.5t266 -148.5v822q-169 -34 -261.5 -143t-92.5 -264zM1661 234.5q-203 -201.5 -522 -242.5v-137h-328v137q-321 40 -525 240t-204 492.5t204.5 491t524.5 238.5v127h328
v-127q328 -48 526.5 -245t198.5 -485t-203 -489.5z" />
    <glyph glyph-name="u03A7" unicode="&#x3a7;" horiz-adv-x="1439" 
d="M1024 0l-317 512l-306 -512h-417l508 766l-467 684h421l271 -451l266 451h408l-459 -684l524 -766h-432z" />
    <glyph glyph-name="u03A8" unicode="&#x3a8;" horiz-adv-x="1818" 
d="M1083 551h31q182 0 211 110.5t29 169.5v619h348v-688q0 -251 -162.5 -387.5t-415.5 -136.5h-41v-238h-348v238h-41q-249 0 -413 136t-164 388v688h348v-619q0 -197 87 -238.5t153 -41.5h30v899h348v-899z" />
    <glyph glyph-name="u03A9" unicode="&#x3a9;" horiz-adv-x="1654" 
d="M924 0v401q137 45 216 137.5t79 268.5t-99.5 275.5t-280.5 99.5t-292 -102.5t-111 -274.5t93 -277.5t225 -124.5v-403h-641v256h366v14q-68 10 -141.5 54.5t-175 162.5t-101.5 332q0 154 60.5 280t225 262t491.5 136t541 -193t214 -485q0 -206 -108.5 -328t-182 -166
t-131.5 -55v-14h392v-256h-639z" />
    <glyph glyph-name="u03AA" unicode="&#x3aa;" horiz-adv-x="651" 
d="M274 1740q0 -71 -50 -119t-121.5 -48t-121 49t-49.5 116t49 118t121 51t122 -48t50 -119zM719 1740q0 -71 -50.5 -119t-120.5 -48t-119.5 49t-49.5 116t49 118t120 51t121 -48t50 -119zM150 0v1450h352v-1450h-352z" />
    <glyph glyph-name="u03AB" unicode="&#x3ab;" horiz-adv-x="1370" 
d="M641 1740q0 -71 -50 -119t-122 -48t-121 49t-49 116t49 118t121 51t122 -48t50 -119zM1085 1740q0 -71 -50 -119t-121 -48t-120 49t-49 116t49 118t120 51t121 -48t50 -119zM854 0h-350v614l-545 836h424l309 -537l309 537h410l-557 -836v-614z" />
    <glyph glyph-name="u03AC" unicode="&#x3ac;" horiz-adv-x="1318" 
d="M545 1585h260l-21 -457h-217zM455.5 328.5q64.5 -78.5 175.5 -78.5q110 0 179 79.5t69 182.5t-69 182.5t-179 79.5t-175 -77t-65 -183.5t64.5 -185zM546 -29q-108 0 -198 45t-152.5 120t-95 173.5t-32.5 262.5t132.5 320.5t348.5 156.5q113 0 190.5 -43t120.5 -95h4v113
h336v-1024h-309v133h-4q-49 -78 -141 -120t-200 -42z" />
    <glyph glyph-name="u03AD" unicode="&#x3ad;" horiz-adv-x="1165" 
d="M705 1585l-21 -457h-217l-23 457h261zM618 778q-86 0 -139 -19.5t-53 -53.5q0 -82 240 -82h149v-228h-149q-113 0 -181.5 -15t-68.5 -61q0 -71 210 -71t310 80l162 -201q-89 -99 -238.5 -129.5t-255.5 -30.5q-228 0 -375 74t-147 227q0 110 74.5 173.5t156.5 74.5v6
q-126 41 -163 110.5t-37 131.5t37.5 117t141.5 111.5t311 56.5q208 0 318.5 -52.5t155.5 -119.5l-174 -185q-108 86 -285 86z" />
    <glyph glyph-name="u03AE" unicode="&#x3ae;" horiz-adv-x="1267" 
d="M494 1585h260l-21 -457h-217zM457 1020v-141h4q60 110 158.5 140t176.5 30t217.5 -70.5t139.5 -347.5v-1123h-334v1049q0 97 -39 156t-127 59t-136 -65.5t-48 -153.5v-553h-338v1020h326z" />
    <glyph glyph-name="u03AF" unicode="&#x3af;" horiz-adv-x="557" 
d="M150 1722h260l-21 -456h-217zM111 0v1020h335v-1020h-335z" />
    <glyph glyph-name="u03B0" unicode="&#x3b0;" horiz-adv-x="1259" 
d="M516 1587h219l-20 -457h-176zM829 1255.5q0 49.5 37 89t92.5 39.5t92 -39.5t36.5 -89t-36.5 -89.5t-92 -40t-92.5 40t-37 89.5zM154 1255.5q0 49.5 36.5 89t92 39.5t92.5 -39.5t37 -89t-37 -89.5t-92.5 -40t-92 40t-36.5 89.5zM123 408v612h336v-539q0 -111 26.5 -152.5
t59.5 -59t84 -17.5q102 0 139 64.5t37 164.5v539h336v-612q0 -185 -124 -312t-390 -127t-385 125.5t-119 313.5z" />
    <glyph glyph-name="u03B1" unicode="&#x3b1;" horiz-adv-x="1318" 
d="M455.5 328.5q64.5 -78.5 175.5 -78.5q110 0 179 79.5t69 182.5t-69 182.5t-179 79.5t-175 -77t-65 -183.5t64.5 -185zM546 -29q-108 0 -198 45t-152.5 120t-95 173.5t-32.5 262.5t132.5 320.5t348.5 156.5q113 0 190.5 -43t120.5 -95h4v113h336v-1024h-309v133h-4
q-49 -78 -141 -120t-200 -42z" />
    <glyph glyph-name="u03B2" unicode="&#x3b2;" horiz-adv-x="1357" 
d="M459 1063v-447q0 -201 61.5 -274.5t163.5 -73.5t165.5 48.5t63.5 143.5t-58 154.5t-189 59.5h-82v274h61q68 0 117 40t49 121t-53 121t-124 40t-123 -46t-52 -161zM459 -492h-336v1590q0 216 142.5 336t371.5 120t372.5 -104.5t143.5 -288.5q0 -130 -70.5 -223.5
t-164.5 -108.5v-6q125 -5 241.5 -100.5t116.5 -292.5t-132.5 -323.5t-324.5 -126.5q-279 0 -360 194v-666z" />
    <glyph glyph-name="u03B3" unicode="&#x3b3;" horiz-adv-x="1269" 
d="M815 -492h-338v529l-473 983h373l270 -682l256 682h363l-451 -983v-529z" />
    <glyph glyph-name="u03B4" unicode="&#x3b4;" horiz-adv-x="1298" 
d="M650 774q-112 0 -176 -75.5t-64 -186.5q0 -175 93 -218.5t175.5 -43.5t148.5 74.5t66 188.5t-65.5 187.5t-177.5 73.5zM705 1280q-80 0 -112 -16.5t-32 -36.5q0 -37 48.5 -58.5t134.5 -53.5q194 -72 333.5 -227.5t139.5 -379.5t-152 -382.5t-408 -158.5
q-255 0 -414 153.5t-159 381.5t116.5 336t185.5 139t108 31l8 16l-36 9q-312 76 -312 231q0 141 150.5 214.5t397.5 73.5t465 -88l-65 -278q-199 94 -397 94z" />
    <glyph glyph-name="u03B5" unicode="&#x3b5;" horiz-adv-x="1165" 
d="M618 778q-86 0 -139 -19.5t-53 -53.5q0 -82 240 -82h149v-228h-149q-113 0 -181.5 -15t-68.5 -61q0 -71 210 -71t310 80l162 -201q-89 -99 -238.5 -129.5t-255.5 -30.5q-228 0 -375 74t-147 227q0 110 74.5 173.5t156.5 74.5v6q-126 41 -163 110.5t-37 131.5t37.5 117
t141.5 111.5t311 56.5q208 0 318.5 -52.5t155.5 -119.5l-174 -185q-108 86 -285 86z" />
    <glyph glyph-name="u03B6" unicode="&#x3b6;" horiz-adv-x="1107" 
d="M216.5 999q132.5 170 320.5 269h-422v280h950v-217q-137 -82 -396 -249.5t-259 -483.5q0 -129 65.5 -213t224.5 -138t231.5 -106.5t109 -110.5t36.5 -142q0 -157 -95 -262t-218 -150l-248 143q129 69 183.5 114t54.5 122t-134 124.5t-220.5 91.5t-201 152t-114.5 357
t132.5 419z" />
    <glyph glyph-name="u03B7" unicode="&#x3b7;" horiz-adv-x="1267" 
d="M457 1020v-141h4q60 110 158.5 140t176.5 30t217.5 -70.5t139.5 -347.5v-1123h-334v1049q0 97 -39 156t-127 59t-136 -65.5t-48 -153.5v-553h-338v1020h326z" />
    <glyph glyph-name="u03B8" unicode="&#x3b8;" horiz-adv-x="1359" 
d="M430 643q27 -399 250 -399q167 0 204.5 155.5t43.5 243.5h-498zM679 1280q-116 0 -176.5 -107.5t-72.5 -285.5h496q-19 278 -103 335.5t-144 57.5zM680 1556q139 0 247.5 -60t184.5 -167.5t115 -253t39 -315.5t-36 -315.5t-107.5 -251t-182.5 -166t-260.5 -60.5
t-260 59.5t-182 166t-107.5 252t-36 315.5t39 316.5t115 253t184.5 166.5t247.5 60z" />
    <glyph glyph-name="u03B9" unicode="&#x3b9;" horiz-adv-x="606" 
d="M135 0v1020h336v-1020h-336z" />
    <glyph glyph-name="u03BA" unicode="&#x3ba;" horiz-adv-x="1255" 
d="M469 606h6l326 414h387l-393 -461l409 -559h-395l-334 489h-6v-489h-334v1020h334v-414z" />
    <glyph glyph-name="u03BB" unicode="&#x3bb;" horiz-adv-x="1220" 
d="M269 1255q-44 0 -86 -20.5t-58 -42.5l-39 268q29 29 101.5 60.5t170.5 31.5t159 -22.5t105 -65.5t75.5 -106.5t62.5 -143.5l461 -1214h-355l-256 709h-4l-252 -709h-354l438 1102l-26 61q-27 61 -63 76.5t-80 15.5z" />
    <glyph glyph-name="u03BC" unicode="&#x3bc;" horiz-adv-x="1333" 
d="M1192 211q0 -78 10 -211h-332l-12 135h-4q-27 -84 -74 -122t-123 -38q-158 0 -196 156h-4v-623h-326v1512h336v-485q0 -150 47 -211.5t149.5 -61.5t148.5 61.5t46 211.5v485h334v-809z" />
    <glyph glyph-name="u03BD" unicode="&#x3bd;" horiz-adv-x="1161" 
d="M762 0h-363l-401 1020h371l215 -662h6l215 662h358z" />
    <glyph glyph-name="u03BE" unicode="&#x3be;" horiz-adv-x="1089" 
d="M690 -180v40q0 40 -77.5 78t-151.5 52t-132.5 31.5t-152.5 86t-94 245.5q0 178 134.5 276.5t348.5 122.5q-218 24 -303.5 67t-124.5 94t-39 123q0 128 81.5 175.5t242.5 78.5v10q-12 -2 -49 -2h-264v246h854v-260q-294 0 -399 -38.5t-105 -153.5q0 -187 278 -187h221
v-321h-268q-133 0 -195.5 -51.5t-62.5 -116.5q0 -96 57.5 -139t177.5 -65q382 -68 382 -300q0 -163 -97.5 -263.5t-236.5 -148.5l-275 107q250 93 250 213z" />
    <glyph glyph-name="u03BF" unicode="&#x3bf;" horiz-adv-x="1296" 
d="M891 514q0 49 -16.5 96t-47 83t-75.5 58.5t-104.5 22.5t-104.5 -22.5t-75 -58.5t-45 -83t-15 -96t15 -96t46 -85t76 -60.5t104.5 -22.5t104.5 22.5t75.5 60.5t46 85t15.5 96zM1048.5 117.5q-165.5 -150.5 -401.5 -150.5t-400.5 150.5t-164.5 396t163 392.5t402 147
t403 -147t164 -392.5t-165.5 -396z" />
    <glyph glyph-name="u03C0" unicode="&#x3c0;" horiz-adv-x="1275" 
d="M467 0h-336v1020h1014v-1020h-336v760h-342v-760z" />
    <glyph glyph-name="u03C1" unicode="&#x3c1;" horiz-adv-x="1341" 
d="M942 512q0 113 -61.5 186.5t-177.5 73.5t-184 -73.5t-68 -191.5t70.5 -189.5t184.5 -71.5t175 76.5t61 189.5zM455 37v-529h-324v971q0 263 157.5 418.5t424.5 155.5q228 0 388.5 -154t160.5 -393.5t-159 -387t-410 -147.5q-132 0 -232 66h-6z" />
    <glyph glyph-name="u03C2" unicode="&#x3c2;" horiz-adv-x="1107" 
d="M941 -373.5q-95 -105.5 -218 -150.5l-248 143q129 69 164 98t54.5 62t19.5 87.5t-46.5 81t-114.5 42.5t-146 40.5t-201 117.5t-123 350t167.5 406t380.5 149t309.5 -61.5t127.5 -102.5l-190 -225q-29 45 -86 77.5t-123 32.5q-122 0 -192 -64.5t-70 -193.5
q0 -181 102 -218.5t156 -51.5t121 -40t159 -94t92 -224t-95 -261.5z" />
    <glyph glyph-name="u03C3" unicode="&#x3c3;" horiz-adv-x="1345" 
d="M881 510q0 55 -17.5 103.5t-50.5 84t-78 56t-102.5 20.5t-103.5 -20.5t-77.5 -56t-49 -84t-17.5 -103.5t17.5 -102.5t49 -83t77.5 -56t103.5 -20.5t102.5 20.5t78 56t50.5 83t17.5 102.5zM1188 506q0 -121 -41 -218.5t-115 -169t-176 -112.5t-223 -41t-222.5 41t-174 115
t-113.5 173t-41 274t153.5 332t397.5 157q88 0 177 -14.5t196 -14.5h335v-272h-223v-8q70 -121 70 -242z" />
    <glyph glyph-name="u03C4" unicode="&#x3c4;" horiz-adv-x="952" 
d="M4 1020h944v-260h-305v-760h-336v760h-303v260z" />
    <glyph glyph-name="u03C5" unicode="&#x3c5;" horiz-adv-x="1259" 
d="M121 408v612h336v-539q0 -111 26.5 -152.5t59 -59t84.5 -17.5q102 0 139 64.5t37 164.5v539h336v-612q0 -185 -124 -312t-390 -127t-385 125.5t-119 313.5z" />
    <glyph glyph-name="u03C6" unicode="&#x3c6;" horiz-adv-x="1748" 
d="M1044 743v-485q160 2 228.5 70t68.5 181t-72.5 175.5t-170.5 58.5h-54zM82 494q0 230 113.5 361t289.5 187l152 -235q-96 -29 -163.5 -101.5t-67.5 -196.5t94 -185.5t241 -65.5v764h369q234 0 395.5 -135t161.5 -386t-185.5 -388.5t-437.5 -137.5v-467h-303v467
q-462 7 -560.5 197.5t-98.5 321.5z" />
    <glyph glyph-name="u03C7" unicode="&#x3c7;" horiz-adv-x="1257" 
d="M393 1020l240 -465l237 465h357l-379 -711l420 -798h-363l-276 559l-277 -559h-362l418 802l-377 707h362z" />
    <glyph glyph-name="u03C8" unicode="&#x3c8;" horiz-adv-x="1769" 
d="M1311 631v389h336v-500q0 -279 -170.5 -422.5t-423.5 -148.5v-441h-336v441q-254 4 -424 147.5t-170 423.5v500h336v-389q0 -197 56.5 -279t201.5 -98v766h336v-766q145 16 201.5 99t56.5 278z" />
    <glyph glyph-name="u03C9" unicode="&#x3c9;" horiz-adv-x="1675" 
d="M82 469q0 420 338 575l221 -190q-131 -65 -182 -137t-51 -206t42 -190.5t100 -56.5t89 58t31 202v183h336v-183q0 -148 21.5 -191.5t43 -56t49.5 -12.5q66 0 107 56.5t41 188.5t-52 208t-178 137l217 190q238 -112 288 -290.5t50 -284.5q0 -236 -106.5 -362.5
t-315.5 -126.5q-252 0 -329 219h-8q-80 -219 -334 -219q-199 0 -308.5 121.5t-109.5 367.5z" />
    <glyph glyph-name="u03CA" unicode="&#x3ca;" horiz-adv-x="606" 
d="M256 1347q0 -71 -50 -119t-122 -48t-121 49t-49 116t48.5 117.5t120.5 50.5q73 0 123 -47.5t50 -118.5zM700 1347q0 -71 -50 -119t-121 -48t-120 49t-49 116t48.5 117.5t119.5 50.5q72 0 122 -47.5t50 -118.5zM135 0v1020h336v-1020h-336z" />
    <glyph glyph-name="u03CB" unicode="&#x3cb;" horiz-adv-x="1263" 
d="M674 -31q-205 0 -324 126t-119 313v612h336v-539q0 -110 27 -152t59.5 -59.5t83.5 -17.5q102 0 139 64.5t37 164.5v539h336v-612q0 -296 -185 -367.5t-390 -71.5zM682 1347q0 -71 -50 -119t-122 -48t-121 49t-49 116t48.5 117.5t120.5 50.5q73 0 123 -47.5t50 -118.5z
M1126 1347q0 -71 -50 -119t-121 -48t-120 49t-49 116t48.5 117.5t119.5 50.5q72 0 122 -47.5t50 -118.5z" />
    <glyph glyph-name="u03CC" unicode="&#x3cc;" horiz-adv-x="1296" 
d="M512 1585h260l-20 -457h-217zM891 514q0 49 -16.5 96t-47 83t-75.5 58.5t-104.5 22.5t-104.5 -22.5t-75 -58.5t-45 -83t-15 -96t15 -96t46 -85t76 -60.5t104.5 -22.5t104.5 22.5t75.5 60.5t46 85t15.5 96zM1048.5 117.5q-165.5 -150.5 -401.5 -150.5t-400.5 150.5
t-164.5 396t163 392.5t402 147t403 -147t164 -392.5t-165.5 -396z" />
    <glyph glyph-name="u03CD" unicode="&#x3cd;" horiz-adv-x="1263" 
d="M123 408v612h336v-539q0 -111 26.5 -152.5t59.5 -59t84 -17.5q102 0 139 64.5t37 164.5v539h336v-612q0 -185 -124 -312t-390 -127t-385 125.5t-119 313.5zM500 1585h260l-21 -457h-217z" />
    <glyph glyph-name="u03CE" unicode="&#x3ce;" horiz-adv-x="1675" 
d="M969 1585l-21 -457h-217l-22 457h260zM82 469q0 420 338 575l221 -190q-131 -65 -182 -137t-51 -206t42 -190.5t100 -56.5t89 58t31 202v183h336v-183q0 -148 21.5 -191.5t43 -56t49.5 -12.5q66 0 107 56.5t41 188.5t-52 208t-178 137l217 190q238 -112 288 -290.5
t50 -284.5q0 -236 -106.5 -362.5t-315.5 -126.5q-252 0 -329 219h-8q-80 -219 -334 -219q-199 0 -308.5 121.5t-109.5 367.5z" />
    <glyph glyph-name="u0401" unicode="&#x401;" horiz-adv-x="1243" 
d="M594 1740q0 -71 -50 -119t-122 -48t-121 49t-49 116t49 118t121 51t122 -48t50 -119zM1038 1740q0 -71 -50 -119t-121 -48t-120 49t-49 116t49 118t120 51t121 -48t50 -119zM150 0v1450h974v-297h-637v-272h603v-281h-603v-301h674v-299h-1011z" />
    <glyph glyph-name="u0402" unicode="&#x402;" horiz-adv-x="1468" 
d="M10 1155v295h1096v-295h-424v-192h176q268 0 408.5 -125t140.5 -371q0 -203 -142.5 -335t-400.5 -132h-55v283h39q98 0 153.5 51.5t55.5 145.5t-57.5 140t-198.5 46h-119v-666h-348v1155h-324z" />
    <glyph glyph-name="u0403" unicode="&#x403;" horiz-adv-x="1140" 
d="M977 1860l-299 -295h-254l213 295h340zM1063 1450v-305h-561v-1145h-352v1450h913z" />
    <glyph glyph-name="u0404" unicode="&#x404;" horiz-adv-x="1425" 
d="M880 -37q-186 0 -331.5 57.5t-248.5 159t-160.5 240.5t-57.5 388t221 464t584 215q362 0 524 -211l-223 -256q-99 151 -314 151q-216 0 -295 -111.5t-100 -189.5h666v-272h-670q34 -160 149 -237.5t248 -77.5q193 0 334 151l219 -219q-82 -111 -220.5 -181.5
t-324.5 -70.5z" />
    <glyph glyph-name="u0405" unicode="&#x405;" horiz-adv-x="1210" 
d="M513 1162.5q-58 -35.5 -58 -106.5t53.5 -104t148.5 -63q95 -31 174.5 -60.5t188 -111.5t108.5 -271q0 -236 -160.5 -359.5t-394.5 -123.5q-156 0 -301 54.5t-241 154.5l229 234q53 -66 140.5 -110t149.5 -44q113 0 168.5 37.5t55.5 120.5q0 104 -114.5 144t-185.5 62
q-173 55 -272.5 148t-99.5 268q0 224 165.5 339.5t396.5 115.5q123 0 250.5 -45t224.5 -133l-224 -236q-45 57 -117.5 91t-149.5 34t-135 -35.5z" />
    <glyph glyph-name="u0406" unicode="&#x406;" horiz-adv-x="651" 
d="M150 0v1450h352v-1450h-352z" />
    <glyph glyph-name="u0407" unicode="&#x407;" horiz-adv-x="694" 
d="M307 1740q0 -71 -50 -119t-122 -48t-121 49t-49 116t49 118t121 51t122 -48t50 -119zM752 1740q0 -71 -51 -119t-121 -48t-119 49t-49 116t48.5 118t119.5 51q72 0 122 -48t50 -119zM182 0v1450h353v-1450h-353z" />
    <glyph glyph-name="u0408" unicode="&#x408;" horiz-adv-x="1083" 
d="M942 496q0 -355 -165 -445t-331 -90t-288.5 95.5t-163.5 244.5l309 105q14 -57 52 -92t94 -35q86 0 113.5 59t27.5 156v956h352v-954z" />
    <glyph glyph-name="u0409" unicode="&#x409;" horiz-adv-x="2043" 
d="M1569.5 604.5q-79.5 30.5 -238.5 30.5h-100l135 -344q124 0 203.5 33t79.5 142q0 108 -79.5 138.5zM1335 922q315 0 491.5 -105.5t176.5 -346.5t-171 -355.5t-480 -114.5h-254l-373 1061l-379 -1061h-375l590 1450h340l215 -528h219z" />
    <glyph glyph-name="u040A" unicode="&#x40a;" horiz-adv-x="2142" 
d="M1708 459q0 168 -250 168h-137v-328h143q112 0 178 34t66 126zM498 1450v-528h475v528h348v-528h164q245 0 410 -113.5t165 -350.5t-155 -347.5t-412 -110.5h-520v627h-475v-627h-348v1450h348z" />
    <glyph glyph-name="u040B" unicode="&#x40b;" horiz-adv-x="1497" 
d="M682 668v-668h-348v1155h-324v295h1096v-295h-424v-192h215q410 0 464 -234.5t54 -368.5v-360h-352v268q0 220 -57 310t-252 90h-72z" />
    <glyph glyph-name="u040C" unicode="&#x40c;" horiz-adv-x="1460" 
d="M879 1565h-254l213 295h340zM498 924q58 0 110 -4l445 530h381l-486 -612q288 -141 378.5 -402.5t123.5 -435.5h-381q-64 341 -194.5 489t-376.5 140v-629h-348v1450h348v-526z" />
    <glyph glyph-name="u040E" unicode="&#x40e;" horiz-adv-x="1331" 
d="M207 344q86 -92 164 -92q79 0 133 67l-510 1131h389l303 -721l291 721h375l-494 -1135q-74 -171 -187 -263.5t-309 -92.5q-237 0 -295.5 61.5t-76.5 79.5zM669.5 1747q67.5 0 131 40t94.5 103l180 -98q-36 -94 -150.5 -162.5t-254.5 -68.5q-214 0 -300.5 92t-105.5 139
l180 98q31 -63 94.5 -103t131 -40z" />
    <glyph glyph-name="u040F" unicode="&#x40f;" horiz-adv-x="1548" 
d="M1051 295v1155h348v-1450h-465v-285h-287v285h-497v1450h348v-1155h553z" />
    <glyph glyph-name="u0410" unicode="&#x410;" horiz-adv-x="1492" 
d="M559 565h365l-181 498zM352 0h-381l609 1450h340l602 -1450h-389l-113 285h-561z" />
    <glyph glyph-name="u0411" unicode="&#x411;" horiz-adv-x="1376" 
d="M662 295q170 0 209.5 61.5t39.5 107.5q0 161 -243 161h-170v-330h164zM150 0v1450h1036v-295h-688v-235h198q399 0 483.5 -165t84.5 -291q0 -236 -163.5 -350t-412.5 -114h-538z" />
    <glyph glyph-name="u0412" unicode="&#x412;" horiz-adv-x="1361" 
d="M684 283q246 0 246 172q0 90 -67.5 124.5t-180.5 34.5h-195v-331h197zM883 1028q0 76 -56.5 109.5t-167.5 33.5h-172v-299h189q98 0 152.5 40t54.5 116zM1280 398q0 -96 -88 -247t-465 -151h-577v1450h577q327 0 410.5 -131t83.5 -247t-65.5 -194.5t-172.5 -113.5v-4
q128 -21 189 -86.5t84.5 -122.5t23.5 -153z" />
    <glyph glyph-name="u0413" unicode="&#x413;" horiz-adv-x="1124" 
d="M1063 1450v-305h-561v-1145h-352v1450h913z" />
    <glyph glyph-name="u0414" unicode="&#x414;" horiz-adv-x="1699" 
d="M600 295h479l-239 762zM276 0v-285h-286v580h250l438 1155h340l434 -1155h258v-580h-287v285h-1147z" />
    <glyph glyph-name="u0415" unicode="&#x415;" horiz-adv-x="1243" 
d="M150 0v1450h974v-297h-637v-272h603v-281h-603v-301h674v-299h-1011z" />
    <glyph glyph-name="u0416" unicode="&#x416;" horiz-adv-x="2068" 
d="M860 913v537h348v-537q51 0 105 -6l364 543h381l-416 -657q338 -222 412 -793h-381q-31 253 -149.5 435.5t-315.5 182.5v-618h-348v618q-194 0 -312 -181t-153 -437h-381q71 571 410 793l-414 657h381l363 -543q51 6 106 6z" />
    <glyph glyph-name="u0417" unicode="&#x417;" horiz-adv-x="1271" 
d="M625 254q98 0 153.5 43t55.5 121q0 203 -318 203h-201v245h220q139 0 192 48t53 120t-51 117t-133 45q-160 0 -201 -178l-309 100q53 166 190.5 267.5t353.5 101.5t367.5 -105.5t151.5 -298.5q0 -132 -87.5 -215t-193.5 -102v-4q204 -24 263 -139t59 -213t-46 -183.5
t-165.5 -174.5t-352.5 -89q-232 0 -370 105t-184 278l311 96q66 -188 242 -188z" />
    <glyph glyph-name="u0418" unicode="&#x418;" horiz-adv-x="1650" 
d="M1501 1450v-1450h-348v954h-6l-604 -954h-393v1450h348v-967h6l602 967h395z" />
    <glyph glyph-name="u0419" unicode="&#x419;" horiz-adv-x="1646" 
d="M823.5 1747q67.5 0 131 40t94.5 103l180 -98q-35 -93 -150 -162t-256 -69q-212 0 -299.5 92t-105.5 139l180 98q31 -63 94.5 -103t131 -40zM1497 1450v-1450h-348l2 948h-6l-584 -948h-411v1450h348l-2 -946h6l581 946h414z" />
    <glyph glyph-name="u041A" unicode="&#x41a;" horiz-adv-x="1460" 
d="M498 924q58 0 110 -4l445 530h381l-486 -612q288 -141 378.5 -402.5t123.5 -435.5h-381q-64 341 -194.5 489t-376.5 140v-629h-348v1450h348v-526z" />
    <glyph glyph-name="u041B" unicode="&#x41b;" horiz-adv-x="1439" 
d="M346 0h-375l564 1450h358l575 -1450h-383l-368 967z" />
    <glyph glyph-name="u041C" unicode="&#x41c;" horiz-adv-x="1955" 
d="M150 0v1450h497l330 -930h8l315 930h506v-1450h-342l9 1026h-7l-376 -1026h-246l-367 1026h-6l8 -1026h-329z" />
    <glyph glyph-name="u041D" unicode="&#x41d;" horiz-adv-x="1564" 
d="M1065 0v606h-565v-606h-350v1450h350v-549h565v549h350v-1450h-350z" />
    <glyph glyph-name="u041E" unicode="&#x41e;" horiz-adv-x="1742" 
d="M574.5 1050.5q-117.5 -123.5 -117.5 -320.5t115.5 -323t297.5 -126t299 125.5t117 321.5t-116.5 321t-297 125t-298 -123.5zM1661 732q0 -173 -59.5 -315.5t-165 -243.5t-251 -156.5t-315.5 -55.5t-314 55.5t-249.5 156.5t-165 243.5t-59.5 315.5t59.5 313.5t165 238.5
t249.5 151.5t314 53.5t315.5 -53.5t251 -151.5t165 -238.5t59.5 -313.5z" />
    <glyph glyph-name="u041F" unicode="&#x41f;" horiz-adv-x="1527" 
d="M1378 1450v-1450h-348v1155h-532v-1155h-348v1450h1228z" />
    <glyph glyph-name="u0420" unicode="&#x420;" horiz-adv-x="1310" 
d="M899 1023q0 73 -67 108.5t-179 35.5h-153v-342h147q176 0 214 62.5t38 135.5zM1249 1003q0 -239 -164 -347.5t-411 -108.5h-174v-547h-350v1450h532q400 0 483.5 -160.5t83.5 -286.5z" />
    <glyph glyph-name="u0421" unicode="&#x421;" horiz-adv-x="1425" 
d="M82 729q0 172 60.5 313.5t224.5 294t501 152.5q154 0 302.5 -54.5t240.5 -158.5l-237 -238q-49 68 -129 100.5t-168 32.5q-180 0 -297 -125.5t-117 -320.5t115.5 -318.5t295.5 -123.5q104 0 182.5 41t125.5 106l243 -229q-208 -240 -554 -240t-567.5 214t-221.5 554z" />
    <glyph glyph-name="u0422" unicode="&#x422;" horiz-adv-x="1189" 
d="M770 1151v-1151h-350v1151h-410v299h1170v-299h-410z" />
    <glyph glyph-name="u0423" unicode="&#x423;" horiz-adv-x="1331" 
d="M207 344q86 -92 164 -92q79 0 133 67l-510 1131h389l303 -721l291 721h375l-494 -1135q-74 -171 -187 -263.5t-309 -92.5q-237 0 -295.5 61.5t-76.5 79.5z" />
    <glyph glyph-name="u0424" unicode="&#x424;" horiz-adv-x="1945" 
d="M1489 724.5q0 149.5 -87 260.5t-263 150v-820q176 37 263 148.5t87 261zM457 728q0 -155 88 -266.5t266 -148.5v822q-169 -34 -261.5 -143t-92.5 -264zM1661 234.5q-203 -201.5 -522 -242.5v-137h-328v137q-321 40 -525 240t-204 492.5t204.5 491t524.5 238.5v127h328
v-127q328 -48 526.5 -245t198.5 -485t-203 -489.5z" />
    <glyph glyph-name="u0425" unicode="&#x425;" horiz-adv-x="1439" 
d="M1024 0l-317 512l-306 -512h-417l508 766l-467 684h421l271 -451l266 451h408l-459 -684l524 -766h-432z" />
    <glyph glyph-name="u0426" unicode="&#x426;" horiz-adv-x="1605" 
d="M150 0v1450h348v-1155h553v1155h348v-1155h155v-580h-286v285h-1118z" />
    <glyph glyph-name="u0427" unicode="&#x427;" horiz-adv-x="1376" 
d="M881 1450h346v-1450h-344v539h-262q-283 0 -411 150.5t-128 422.5v338h348v-264q0 -193 46.5 -272.5t197.5 -79.5h207v616z" />
    <glyph glyph-name="u0428" unicode="&#x428;" horiz-adv-x="2062" 
d="M864 295v1155h348v-1155h353v1155h348v-1450h-1763v1450h348v-1155h366z" />
    <glyph glyph-name="u0429" unicode="&#x429;" horiz-adv-x="2213" 
d="M150 0v1450h348v-1155h366v1155h348v-1155h365v1155h348v-1155h238v-580h-287v285h-1726z" />
    <glyph glyph-name="u042A" unicode="&#x42a;" horiz-adv-x="1470" 
d="M694 295h113q131 0 180 50t49 123t-49 116t-180 43h-113v-332zM780 922q609 0 609 -337.5t-174 -461t-441 -123.5h-428v1155h-336v295h684v-528h86z" />
    <glyph glyph-name="u042B" unicode="&#x42b;" horiz-adv-x="1783" 
d="M1634 1450v-1450h-348v1450h348zM842 467q0 160 -228 160h-116v-332h116q131 0 179.5 47t48.5 125zM588 922q608 0 608 -338t-173.5 -461t-440.5 -123h-432v1450h348v-528h90z" />
    <glyph glyph-name="u042C" unicode="&#x42c;" horiz-adv-x="1318" 
d="M150 1450h348v-528h131q428 0 518 -156t90 -280q0 -240 -173.5 -363t-440.5 -123h-473v1450zM498 627v-332h157q131 0 180.5 46t49.5 124t-49.5 120t-180.5 42h-157z" />
    <glyph glyph-name="u042D" unicode="&#x42d;" horiz-adv-x="1431" 
d="M287 598v272h684q-37 145 -149 223t-249 78q-230 0 -329 -151l-207 235q84 109 229.5 170.5t327.5 61.5t320.5 -57.5t235.5 -159t148.5 -240.5t51.5 -387.5t-219.5 -464t-569.5 -215.5q-388 0 -561 234l219 219q126 -133 350 -133t305.5 114.5t100.5 200.5h-688z" />
    <glyph glyph-name="u042E" unicode="&#x42e;" horiz-adv-x="2379" 
d="M1507 281q182 0 299 125.5t117 321.5t-116.5 321t-297 125t-298 -123.5t-117.5 -320.5t115.5 -323t297.5 -126zM498 1450v-573h231q39 275 255 443.5t542 168.5t549 -207t223 -551q0 -172 -59.5 -314.5t-165 -243.5t-251 -156.5t-306.5 -55.5q-314 0 -527.5 171
t-259.5 450h-231v-582h-348v1450h348z" />
    <glyph glyph-name="u042F" unicode="&#x42f;" horiz-adv-x="1415" 
d="M457 983q0 -162 313 -162h148v334h-152q-164 0 -236.5 -43t-72.5 -129zM82 1001q0 213 165 331t488 118h531v-1450h-348v526h-125q-154 0 -260.5 -135t-141.5 -391h-381q15 237 124.5 401.5t275.5 251.5v4q-147 25 -237.5 112t-90.5 232z" />
    <glyph glyph-name="u0430" unicode="&#x430;" horiz-adv-x="1159" 
d="M68 295q0 344 655 344v16q0 76 -53.5 112t-130.5 36q-137 0 -252 -105l-170 183q90 86 209.5 129t246.5 43q253 0 360 -129.5t107 -409.5v-514h-307v109h-6q-39 -63 -118 -98.5t-155 -35.5q-159 0 -272.5 77t-113.5 243zM377 313q0 -112 145 -112q102 0 156.5 56
t54.5 153v34h-43q-137 0 -225 -28t-88 -103z" />
    <glyph glyph-name="u0431" unicode="&#x431;" horiz-adv-x="1286" 
d="M668 1020q132 0 225.5 -36t162 -102.5t108.5 -162.5t40 -277.5t-157 -328t-408 -146.5q-303 0 -424 201t-122 435q-2 452 174 648.5t552 196.5h332v-252h-336q-320 0 -356 -229q77 53 209 53zM889 495.5q0 108.5 -63.5 180.5t-168 72t-173 -61.5t-68.5 -183.5
t65.5 -190.5t172 -68.5t171 71.5t64.5 180z" />
    <glyph glyph-name="u0432" unicode="&#x432;" horiz-adv-x="1191" 
d="M602 612q120 0 143 30t23 58q0 57 -51 74t-119 17h-131v-179h135zM467 229h127q114 0 148 9.5t52.5 28t18.5 67.5t-55.5 66.5t-161.5 17.5h-129v-189zM721 0h-590v1020h563q195 0 300.5 -75t105.5 -200q0 -147 -91 -181t-137 -46q195 -14 237 -98t42 -148
q0 -123 -114.5 -197.5t-315.5 -74.5z" />
    <glyph glyph-name="u0433" unicode="&#x433;" horiz-adv-x="888" 
d="M467 0h-336v1020h717v-258h-381v-762z" />
    <glyph glyph-name="u0434" unicode="&#x434;" horiz-adv-x="1331" 
d="M526 260h283l-117 385h-41zM285 -285h-275v545h168l287 760h409l271 -760h176v-545h-274v285h-762v-285z" />
    <glyph glyph-name="u0435" unicode="&#x435;" horiz-adv-x="1220" 
d="M641 -33q-238 0 -399.5 143.5t-161.5 392.5t157 399.5t390 150.5t374.5 -150t141.5 -405v-31q0 -31 -2 -49h-740q8 -82 80.5 -137.5t163.5 -55.5q148 0 225 107l234 -148q-150 -217 -463 -217zM834 627q0 80 -50.5 137t-148.5 57t-164 -57t-70 -137h433z" />
    <glyph glyph-name="u0436" unicode="&#x436;" horiz-adv-x="1830" 
d="M748 1020h335v-361q81 -14 88 -16l207 377h371l-301 -502q249 -178 332 -518h-371q-64 289 -166 340t-160 61v-401h-335v401q-124 -21 -203.5 -110.5t-122.5 -290.5h-371q83 340 332 518l-301 502h371l204 -377q2 1 91 16v361z" />
    <glyph glyph-name="u0437" unicode="&#x437;" horiz-adv-x="1015" 
d="M442 213q203 -1 203 99t-233 100h-168v209h168q153 0 178.5 26.5t25.5 62.5t-51 71.5t-129 35.5t-141.5 -31t-95.5 -94l-191 144q76 147 213 185t244 38q219 0 341 -76t122 -215q0 -168 -185 -246v-6q81 -10 156.5 -78t75.5 -178q0 -301 -508 -301q-273 0 -457 152
l146 200q78 -60 160.5 -79t125.5 -19z" />
    <glyph glyph-name="u0438" unicode="&#x438;" horiz-adv-x="1382" 
d="M131 0v1020h336v-586l448 586h336v-1020h-336v590l-448 -590h-336z" />
    <glyph glyph-name="u0439" unicode="&#x439;" horiz-adv-x="1382" 
d="M727 1352q43 0 76 27.5t43 76.5l225 -39q-73 -266 -344 -266q-137 0 -225 69.5t-119 196.5l225 39q10 -51 43 -77.5t76 -26.5zM915 0v590l-448 -590h-336v1020h336v-586l448 586h336v-1020h-336z" />
    <glyph glyph-name="u043A" unicode="&#x43a;" horiz-adv-x="1214" 
d="M467 0h-336v1020h336v-371q45 -2 88 -12l233 383h371l-321 -494q129 -86 204.5 -219t120.5 -307h-370q-45 207 -121 290.5t-205 100.5v-391z" />
    <glyph glyph-name="u043B" unicode="&#x43b;" horiz-adv-x="1210" 
d="M829 0l-215 621l-231 -621h-363l396 1020h401l375 -1020h-363z" />
    <glyph glyph-name="u043C" unicode="&#x43c;" horiz-adv-x="1521" 
d="M1391 1020v-1020h-336v555l-264 -360h-58l-266 356v-551h-336v1020h295l338 -412l332 412h295z" />
    <glyph glyph-name="u043D" unicode="&#x43d;" horiz-adv-x="1275" 
d="M467 0h-336v1020h336v-377h342v377h336v-1020h-336v385h-342v-385z" />
    <glyph glyph-name="u043E" unicode="&#x43e;" horiz-adv-x="1296" 
d="M891 514q0 49 -16.5 96t-47 83t-75.5 58.5t-104.5 22.5t-104.5 -22.5t-75 -58.5t-45 -83t-15 -96t15 -96t46 -85t76 -60.5t104.5 -22.5t104.5 22.5t75.5 60.5t46 85t15.5 96zM1048.5 117.5q-165.5 -150.5 -401.5 -150.5t-400.5 150.5t-164.5 396t163 392.5t402 147
t403 -147t164 -392.5t-165.5 -396z" />
    <glyph glyph-name="u043F" unicode="&#x43f;" horiz-adv-x="1259" 
d="M467 0h-336v1020h997v-1020h-335v760h-326v-760z" />
    <glyph glyph-name="u0440" unicode="&#x440;" horiz-adv-x="1345" 
d="M876.5 696.5q-63.5 77.5 -173.5 77.5q-111 0 -179.5 -79t-68.5 -183t68.5 -183t179.5 -79t174 79t63 184.5t-63.5 183zM1133 130.5q-133 -159.5 -353 -159.5q-94 0 -178 38t-131 104h-4v-605h-336v1512h320v-125h6q47 61 130 107.5t195 46.5t201.5 -43t186 -157.5
t96.5 -336.5t-133 -381.5z" />
    <glyph glyph-name="u0441" unicode="&#x441;" horiz-adv-x="1030" 
d="M654 772q-52 0 -95 -21.5t-73.5 -57.5t-48 -83t-17.5 -129t66 -156.5t173 -74.5q51 0 101.5 19.5t81.5 56.5l186 -228q-63 -61 -163.5 -96t-217.5 -35q-244 0 -405.5 148t-161.5 394t162.5 395t406.5 149q104 0 209.5 -37t169.5 -101l-194 -225q-29 37 -78.5 59.5
t-101.5 22.5z" />
    <glyph glyph-name="u0442" unicode="&#x442;" horiz-adv-x="985" 
d="M41 1020h903v-260h-285v-760h-335v760h-283v260z" />
    <glyph glyph-name="u0443" unicode="&#x443;" horiz-adv-x="1161" 
d="M234 -205q63 0 98 36t59 101l33 84l-426 1004h373l227 -655h6l203 655h356l-456 -1174q-65 -169 -165 -253.5t-284 -84.5q-99 0 -184 23l37 283q60 -19 123 -19z" />
    <glyph glyph-name="u0444" unicode="&#x444;" horiz-adv-x="1531" 
d="M393 581q0 -188 48 -262.5t165 -82.5v544q-213 -11 -213 -199zM1139 506q0 113 -48.5 189.5t-166.5 84.5v-544q119 8 167 82.5t48 187.5zM1303 131.5q-147 -152.5 -379 -156.5v-467h-318v467q-221 4 -372.5 156.5t-151.5 377t146.5 375t377.5 158.5v506h318v-506
q229 -4 377.5 -156.5t148.5 -377t-147 -377z" />
    <glyph glyph-name="u0445" unicode="&#x445;" horiz-adv-x="1216" 
d="M827 0l-219 313l-225 -313h-389l407 535l-368 485h391l190 -272l193 272h379l-367 -485l404 -535h-396z" />
    <glyph glyph-name="u0446" unicode="&#x446;" horiz-adv-x="1302" 
d="M131 1020h336v-760h330v760h336v-760h159v-545h-274v285h-887v1020z" />
    <glyph glyph-name="u0447" unicode="&#x447;" horiz-adv-x="1239" 
d="M84 1020h336v-137q0 -193 23.5 -245t57.5 -71.5t93 -19.5h178v473h336v-1020h-336v248l-227 2q-258 4 -359.5 126t-101.5 367v277z" />
    <glyph glyph-name="u0448" unicode="&#x448;" horiz-adv-x="1812" 
d="M131 0v1020h336v-760h270v760h336v-760h273v760h335v-1020h-1550z" />
    <glyph glyph-name="u0449" unicode="&#x449;" horiz-adv-x="1777" 
d="M131 1020h336v-760h233v760h334v-760h234v760h336v-760h163v-545h-274v285h-1362v1020z" />
    <glyph glyph-name="u044A" unicode="&#x44a;" horiz-adv-x="1308" 
d="M621 236h155q70 0 114 25.5t44 95t-46 94t-116 24.5h-151v-239zM621 1020v-309h219q320 0 368.5 -139.5t48.5 -214.5q0 -155 -106.5 -256t-302.5 -101h-563v760h-244v260h580z" />
    <glyph glyph-name="u044B" unicode="&#x44b;" horiz-adv-x="1667" 
d="M1536 1020v-1020h-336v1020h336zM467 236h164q70 0 113.5 25.5t43.5 95t-46 94t-115 24.5h-160v-239zM467 1020v-309h227q321 0 369.5 -139.5t48.5 -214.5q0 -155 -107 -256t-303 -101h-571v1020h336z" />
    <glyph glyph-name="u044C" unicode="&#x44c;" horiz-adv-x="1163" 
d="M467 236h164q70 0 113.5 25.5t43.5 95t-46 94t-115 24.5h-160v-239zM467 1020v-309h227q321 0 369.5 -139.5t48.5 -214.5q0 -155 -107 -256t-303 -101h-571v1020h336z" />
    <glyph glyph-name="u044D" unicode="&#x44d;" horiz-adv-x="1153" 
d="M498 1055q150 0 254 -41t174.5 -114t107.5 -173t37 -275.5t-156 -330t-401 -154.5q-281 0 -453 219l222 179q29 -49 88 -87t151 -38t145.5 42t75.5 134h-391v202h391q-52 166 -231 166q-154 0 -225 -129l-215 185q59 88 167.5 151.5t258.5 63.5z" />
    <glyph glyph-name="u044E" unicode="&#x44e;" horiz-adv-x="1792" 
d="M1386 514q0 49 -16 96t-47 83t-76 58.5t-104.5 22.5t-104.5 -22.5t-74.5 -58.5t-45 -83t-15.5 -96t15.5 -96t46 -85t75.5 -60.5t104.5 -22.5t104.5 22.5t76 60.5t46 85t15 96zM1544 117q-166 -150 -387 -150t-378.5 120t-192.5 319h-119v-406h-336v1020h336v-354h129
q49 177 199 282t348 105q238 0 402.5 -146.5t164.5 -393t-166 -396.5z" />
    <glyph glyph-name="u044F" unicode="&#x44f;" horiz-adv-x="1085" 
d="M389 637q0 -39 36 -55.5t138 -16.5h113v174h-115q-108 0 -134 -14t-32 -31.5t-6 -56.5zM473 1020h539v-1020h-336v305h-68q-104 0 -157.5 -56.5t-79.5 -248.5h-371q35 197 122 303t185 131v6q-239 29 -239 305q0 275 405 275z" />
    <glyph glyph-name="u0451" unicode="&#x451;" horiz-adv-x="1171" 
d="M625 1347q0 -71 -50.5 -119t-122 -48t-120.5 49t-49 116t48 117.5t121 50.5t123 -47.5t50 -118.5zM1069 1347q0 -71 -50 -119t-121 -48t-120 49t-49 116t48.5 117.5t119.5 50.5q72 0 122 -47.5t50 -118.5zM676 -33q-240 0 -400.5 144t-160.5 392t157 399t390 151
t374.5 -150t141.5 -405v-31q0 -31 -2 -49h-740q8 -84 81 -138.5t163 -54.5q145 0 225 107l234 -148q-150 -217 -463 -217zM868 627q0 80 -50 137t-148 57t-164 -57t-70 -137h432z" />
    <glyph glyph-name="u0452" unicode="&#x452;" horiz-adv-x="1277" 
d="M809 53v477q0 199 -59.5 218.5t-90.5 19.5q-182 0 -182 -240v-528h-336v1167h-141v183h141v198h336v-198h303v-183h-303v-280h4q79 162 303 162q178 0 270.5 -122.5t92.5 -318.5v-559q0 -326 -165.5 -402.5t-279.5 -76.5q-188 0 -331 104l135 195q64 -45 143 -45
q160 0 160 229z" />
    <glyph glyph-name="u0453" unicode="&#x453;" horiz-adv-x="931" 
d="M592 1171h-254l213 295h340zM467 0h-336v1020h717v-258h-381v-762z" />
    <glyph glyph-name="u0454" unicode="&#x454;" horiz-adv-x="1153" 
d="M641 784q-181 0 -231 -166h391v-202h-391q41 -176 243 -176q72 0 130.5 37.5t86.5 87.5l222 -179q-168 -219 -438 -219t-421 152.5t-151 391.5t147 391.5t406 152.5q170 0 278.5 -63.5t167.5 -151.5l-215 -185q-71 129 -225 129z" />
    <glyph glyph-name="u0455" unicode="&#x455;" horiz-adv-x="1056" 
d="M446 730q0 -44 44 -62.5t122 -35.5q158 -35 252 -107.5t94 -209.5q0 -178 -129 -263t-281 -85q-308 0 -470 158l188 199q45 -49 110.5 -82t123.5 -33q138 0 137 88q0 47 -49 70t-128 41q-159 37 -241 105t-82 198q0 169 129.5 255.5t294.5 86.5q115 0 224.5 -36
t185.5 -108l-185 -190q-97 92 -213 92q-47 0 -87 -18.5t-40 -62.5z" />
    <glyph glyph-name="u0456" unicode="&#x456;" horiz-adv-x="606" 
d="M135 0v1020h336v-1020h-336zM496 1345.5q0 -76.5 -56 -130.5t-138 -54q-81 0 -136 54.5t-55 130.5q0 116 75.5 150t115.5 34t76 -14.5t77 -54t41 -116z" />
    <glyph glyph-name="u0457" unicode="&#x457;" horiz-adv-x="606" 
d="M256 1347q0 -71 -50 -119t-122 -48t-121 49t-49 116t48.5 117.5t120.5 50.5q73 0 123 -47.5t50 -118.5zM700 1347q0 -71 -50 -119t-121 -48t-120 49t-49 116t48.5 117.5t119.5 50.5q72 0 122 -47.5t50 -118.5zM135 0v1020h336v-1020h-336z" />
    <glyph glyph-name="u0458" unicode="&#x458;" horiz-adv-x="612" 
d="M18 -205q74 0 98.5 50.5t24.5 127.5v1047h336v-1047q0 -215 -88.5 -340t-318.5 -125q-84 0 -146 17l23 280q30 -10 71 -10zM502 1345.5q0 -76.5 -56 -130.5t-138 -54q-81 0 -136 54.5t-55 130.5q0 116 75.5 150t115.5 34t76 -14.5t77 -54t41 -116z" />
    <glyph glyph-name="u0459" unicode="&#x459;" horiz-adv-x="1585" 
d="M1044 236q145 0 161 46t16 70q0 59 -37 91t-140 32h-98l76 -239h22zM1122 711q226 0 324 -100t98 -265t-118 -255.5t-318 -90.5h-342l-184 621l-199 -621h-334l342 1020h385l96 -309h250z" />
    <glyph glyph-name="u045A" unicode="&#x45a;" horiz-adv-x="1849" 
d="M1317 236q158 0 158 109.5t-162 109.5h-152v-219h156zM467 1020v-330h358v330h336v-330h219q320 0 369 -136t49 -207q0 -148 -108 -247.5t-301 -99.5h-564v430h-358v-430h-336v1020h336z" />
    <glyph glyph-name="u045B" unicode="&#x45b;" horiz-adv-x="1269" 
d="M809 553q0 215 -150 215q-88 0 -135 -62.5t-47 -154.5v-551h-336v1167h-141v183h141v198h336v-198h303v-183h-303v-276h4q35 61 111 109.5t181 48.5q191 0 282.5 -121.5t91.5 -296.5v-631h-338v553z" />
    <glyph glyph-name="u045C" unicode="&#x45c;" horiz-adv-x="1214" 
d="M737 1171h-254l213 295h340zM467 0h-336v1020h336v-371q45 -2 88 -12l233 383h371l-321 -494q129 -86 204.5 -219t120.5 -307h-370q-45 207 -121 290.5t-205 100.5v-391z" />
    <glyph glyph-name="u045E" unicode="&#x45e;" horiz-adv-x="1161" 
d="M234 -205q63 0 98 36t59 101l33 84l-426 1004h373l227 -655h6l203 655h356l-456 -1174q-65 -169 -165 -253.5t-284 -84.5q-99 0 -184 23l37 283q60 -19 123 -19zM579.5 1356q61.5 0 118 35.5t84.5 93.5l162 -88q-32 -86 -136 -147.5t-262 -61.5t-236.5 83t-94.5 126
l162 88q29 -57 85 -93t117.5 -36z" />
    <glyph glyph-name="u045F" unicode="&#x45f;" horiz-adv-x="1265" 
d="M770 0v-285h-274v285h-365v1020h336v-760h332v760h336v-1020h-365z" />
    <glyph glyph-name="u0490" unicode="&#x490;" horiz-adv-x="1089" 
d="M760 1714h258v-569h-561v-1145h-353v1450h656v264z" />
    <glyph glyph-name="u0491" unicode="&#x491;" horiz-adv-x="909" 
d="M465 0h-334v1020h438v278h279v-538h-383v-760z" />
    <glyph glyph-name="palochkacyrillic" unicode="&#x4c0;" horiz-adv-x="651" 
d="M150 0v1450h352v-1450h-352z" />
    <glyph glyph-name="Aiecyrillic" unicode="&#x4d4;" horiz-adv-x="2115" 
d="M1053 1153h-21l-313 -557h334v557zM1053 0v313h-473l-181 -313h-407l848 1450h1157v-297h-611v-272h576v-281h-576v-301h648v-299h-981z" />
    <glyph glyph-name="aiecyrillic" unicode="&#x4d5;" horiz-adv-x="1841" 
d="M68 295q0 192 176.5 261t478.5 69v14q0 164 -182 164q-72 0 -139.5 -31t-114.5 -74l-168 183q88 86 207.5 129t245.5 43t207 -45t122 -105q55 66 145 108t204 42q230 0 371.5 -149t141.5 -406q0 -44 -4 -80h-737q10 -86 79.5 -139.5t162.5 -53.5q150 0 225 107l231 -148
q-150 -217 -463 -217q-121 0 -222 48t-161 137q-107 -177 -413 -177q-152 0 -272.5 79.5t-120.5 240.5zM1452 627q0 80 -50 137t-149 57t-164 -57.5t-69 -136.5h432zM377 305q0 -104 165 -104q82 0 136.5 51t54.5 139v33h-43q-145 0 -229 -22.5t-84 -96.5z" />
    <glyph glyph-name="Aringbelow" unicode="&#x1e00;" horiz-adv-x="1492" 
d="M866 -373q0 51 -35 85t-87 34t-85.5 -35t-33.5 -85t34.5 -84t86 -34t86 34t34.5 85zM902.5 -531q-66.5 -61 -157.5 -61t-157 61.5t-66 156.5t64.5 157.5t158.5 62.5t159 -63t65 -158t-66.5 -156zM743 1063l-184 -498h365zM1133 0l-113 285h-561l-107 -285h-381l609 1450
h340l602 -1450h-389z" />
    <glyph glyph-name="aringbelow" unicode="&#x1e01;" horiz-adv-x="1159" 
d="M674 -397.5q0 51.5 -35 85t-87 33.5t-86 -34.5t-34 -84.5t35 -84t86 -34t86 33.5t35 85zM711 -554.5q-65 -61.5 -158 -61.5t-158 61.5t-65 156.5t64.5 157.5t157.5 62.5t158.5 -63t65.5 -157.5t-65 -156zM68 295q0 344 655 344v16q0 76 -53.5 112t-130.5 36
q-137 0 -252 -105l-170 183q90 86 209.5 129t246.5 43q253 0 360 -129.5t107 -409.5v-514h-307v109h-6q-39 -63 -118 -98.5t-155 -35.5q-159 0 -272.5 77t-113.5 243zM377 313q0 -112 145 -112q102 0 156.5 56t54.5 153v34h-43q-137 0 -225 -28t-88 -103z" />
    <glyph glyph-name="uni1E02" unicode="&#x1e02;" horiz-adv-x="1361" 
d="M838 1738.5q0 -73.5 -53.5 -123.5t-131.5 -50t-130 51t-52 122.5t52 124t130 52.5t131.5 -51.5t53.5 -125zM684 283q246 0 246 172q0 90 -67.5 124.5t-180.5 34.5h-195v-331h197zM883 1028q0 76 -56.5 109.5t-167.5 33.5h-172v-299h189q98 0 152.5 40t54.5 116zM1280 398
q0 -96 -88 -247t-465 -151h-577v1450h577q327 0 410.5 -131t83.5 -247t-65.5 -194.5t-172.5 -113.5v-4q128 -21 189 -86.5t84.5 -122.5t23.5 -153z" />
    <glyph glyph-name="uni1E03" unicode="&#x1e03;" horiz-adv-x="1349" 
d="M489 1800q0 -74 -53 -124t-131 -50t-130 51.5t-52 123t52 123.5t130 52t131 -51t53 -125zM879 697q-65 77 -175 77t-178.5 -80t-68.5 -182t68 -182t179 -80t175.5 78.5t64.5 185t-65 183.5zM1135 130.5q-133 -159.5 -353 -159.5q-102 0 -193 42t-140 120h-5v-133h-309
v1548h336v-637h4q43 51 121 94.5t190 43.5t200.5 -43t185 -157.5t96.5 -336.5t-133 -381.5z" />
    <glyph glyph-name="Bdotbelow" unicode="&#x1e04;" horiz-adv-x="1361" 
d="M879 -329.5q0 -73.5 -53.5 -124t-131.5 -50.5t-130 51.5t-52 123t52 123.5t130 52t131.5 -51t53.5 -124.5zM684 283q246 0 246 172q0 90 -67.5 124.5t-180.5 34.5h-195v-331h197zM883 1028q0 76 -56.5 109.5t-167.5 33.5h-172v-299h189q98 0 152.5 40t54.5 116zM1280 398
q0 -96 -88 -247t-465 -151h-577v1450h577q327 0 410.5 -131t83.5 -247t-65.5 -194.5t-172.5 -113.5v-4q128 -21 189 -86.5t84.5 -122.5t23.5 -153z" />
    <glyph glyph-name="bdotbelow" unicode="&#x1e05;" horiz-adv-x="1349" 
d="M926 -358.5q0 -73.5 -53.5 -123.5t-131 -50t-130 51t-52.5 122.5t52.5 124t130 52.5t131 -51.5t53.5 -125zM879 697q-65 77 -175 77t-178.5 -80t-68.5 -182t68 -182t179 -80t175.5 78.5t64.5 185t-65 183.5zM1135 130.5q-133 -159.5 -353 -159.5q-102 0 -193 42t-140 120
h-5v-133h-309v1548h336v-637h4q43 51 121 94.5t190 43.5t200.5 -43t185 -157.5t96.5 -336.5t-133 -381.5z" />
    <glyph glyph-name="Blinebelow" unicode="&#x1e06;" horiz-adv-x="1361" 
d="M268 -330v176h688v-176h-688zM684 283q246 0 246 172q0 90 -67.5 124.5t-180.5 34.5h-195v-331h197zM883 1028q0 76 -56.5 109.5t-167.5 33.5h-172v-299h189q98 0 152.5 40t54.5 116zM1280 398q0 -96 -88 -247t-465 -151h-577v1450h577q327 0 410.5 -131t83.5 -247
t-65.5 -194.5t-172.5 -113.5v-4q128 -21 189 -86.5t84.5 -122.5t23.5 -153z" />
    <glyph glyph-name="blinebelow" unicode="&#x1e07;" horiz-adv-x="1349" 
d="M295 -358v176h688v-176h-688zM879 697q-65 77 -175 77t-178.5 -80t-68.5 -182t68 -182t179 -80t175.5 78.5t64.5 185t-65 183.5zM1135 130.5q-133 -159.5 -353 -159.5q-102 0 -193 42t-140 120h-5v-133h-309v1548h336v-637h4q43 51 121 94.5t190 43.5t200.5 -43
t185 -157.5t96.5 -336.5t-133 -381.5z" />
    <glyph glyph-name="Ccedillaacute" unicode="&#x1e08;" horiz-adv-x="1425" 
d="M895 1642h-254l213 295h340zM877 -121q210 0 210 -174q0 -104 -92.5 -150.5t-182.5 -46.5q-163 0 -269 52l55 123q84 -39 179 -39t95 67q0 60 -96 60q-41 0 -82 -13l-63 60l112 151q-290 36 -475.5 242.5t-185.5 515.5q0 174 60.5 315.5t224.5 294t501 152.5
q154 0 302.5 -54.5t240.5 -158.5l-237 -238q-49 68 -129 100.5t-168 32.5q-180 0 -297 -125.5t-117 -320.5t115.5 -318.5t295.5 -123.5q104 0 182.5 41t125.5 106l243 -229q-192 -222 -520 -238l-65 -86q10 2 12 2h25z" />
    <glyph glyph-name="ccedillaacute" unicode="&#x1e09;" horiz-adv-x="1030" 
d="M592 1206h-254l213 295h340zM670 -121q211 0 211 -174q0 -104 -93 -150.5t-182 -46.5q-164 0 -270 52l55 123q84 -39 180 -39q95 0 95 67q0 60 -97 60q-41 0 -82 -13l-63 60l119 157q-205 29 -334 174t-129 376t162.5 379.5t406.5 148.5q104 0 209.5 -37t169.5 -101
l-194 -225q-29 37 -78.5 59.5t-101.5 22.5t-95 -21.5t-73.5 -57.5t-48 -83t-17.5 -129t66 -156.5t173 -74.5q51 0 101.5 19.5t81.5 56.5l186 -228q-116 -112 -323 -129l-72 -92q10 2 12 2h25z" />
    <glyph glyph-name="uni1E0A" unicode="&#x1e0a;" horiz-adv-x="1585" 
d="M903 1738.5q0 -73.5 -53 -123.5t-131 -50t-130 51t-52 122.5t52 124t130 52.5t131 -51.5t53 -125zM1139 730q0 226 -135 323.5t-338 97.5h-174v-848h165q333 0 407.5 152.5t74.5 274.5zM1503 736q0 -366 -241 -551t-572 -185h-540v1450h524q351 0 518.5 -119t239 -258
t71.5 -337z" />
    <glyph glyph-name="uni1E0B" unicode="&#x1e0b;" horiz-adv-x="1347" 
d="M1229 1800q0 -74 -53.5 -124t-131 -50t-130 51.5t-52.5 123t52.5 123.5t130 52t131 -51t53.5 -125zM891 512q0 102 -68 182t-178 80t-176 -76.5t-66 -184t65.5 -185.5t175.5 -78t178.5 80t68.5 182zM903 0v133h-4q-49 -78 -140 -120t-200 -42t-199 45t-152.5 120
t-95 173.5t-32.5 262.5t132.5 320.5t348.5 156.5q113 0 190.5 -43t120.5 -95h5v637h335v-1548h-309z" />
    <glyph glyph-name="Ddotbelow" unicode="&#x1e0c;" horiz-adv-x="1585" 
d="M907 -329.5q0 -73.5 -53 -124t-131 -50.5t-130 51.5t-52 123t52 123.5t130 52t131 -51t53 -124.5zM1139 730q0 226 -135 323.5t-338 97.5h-174v-848h165q333 0 407.5 152.5t74.5 274.5zM1503 736q0 -366 -241 -551t-572 -185h-540v1450h524q351 0 518.5 -119t239 -258
t71.5 -337z" />
    <glyph glyph-name="ddotbelow" unicode="&#x1e0d;" horiz-adv-x="1347" 
d="M965 -358.5q0 -73.5 -53.5 -123.5t-131.5 -50t-130 51t-52 122.5t52 124t130 52.5t131.5 -51.5t53.5 -125zM891 512q0 102 -68 182t-178 80t-176 -76.5t-66 -184t65.5 -185.5t175.5 -78t178.5 80t68.5 182zM903 0v133h-4q-49 -78 -140 -120t-200 -42t-199 45t-152.5 120
t-95 173.5t-32.5 262.5t132.5 320.5t348.5 156.5q113 0 190.5 -43t120.5 -95h5v637h335v-1548h-309z" />
    <glyph glyph-name="Dlinebelow" unicode="&#x1e0e;" horiz-adv-x="1585" 
d="M317 -330v176h689v-176h-689zM1139 730q0 226 -135 323.5t-338 97.5h-174v-848h165q333 0 407.5 152.5t74.5 274.5zM1503 736q0 -366 -241 -551t-572 -185h-540v1450h524q351 0 518.5 -119t239 -258t71.5 -337z" />
    <glyph glyph-name="dlinebelow" unicode="&#x1e0f;" horiz-adv-x="1347" 
d="M403 -358v176h689v-176h-689zM891 512q0 102 -68 182t-178 80t-176 -76.5t-66 -184t65.5 -185.5t175.5 -78t178.5 80t68.5 182zM903 0v133h-4q-49 -78 -140 -120t-200 -42t-199 45t-152.5 120t-95 173.5t-32.5 262.5t132.5 320.5t348.5 156.5q113 0 190.5 -43t120.5 -95
h5v637h335v-1548h-309z" />
    <glyph glyph-name="Dcommaaccent" unicode="&#x1e10;" horiz-adv-x="1585" 
d="M700 -735h-276l154 581h321zM1139 730q0 226 -135 323.5t-338 97.5h-174v-848h165q333 0 407.5 152.5t74.5 274.5zM1503 736q0 -366 -241 -551t-572 -185h-540v1450h524q351 0 518.5 -119t239 -258t71.5 -337z" />
    <glyph glyph-name="dcommaaccent" unicode="&#x1e11;" horiz-adv-x="1347" 
d="M766 -764h-277l154 582h322zM891 512q0 102 -68 182t-178 80t-176 -76.5t-66 -184t65.5 -185.5t175.5 -78t178.5 80t68.5 182zM903 0v133h-4q-49 -78 -140 -120t-200 -42t-199 45t-152.5 120t-95 173.5t-32.5 262.5t132.5 320.5t348.5 156.5q113 0 190.5 -43t120.5 -95h5
v637h335v-1548h-309z" />
    <glyph glyph-name="Dcircumflexbelow" unicode="&#x1e12;" horiz-adv-x="1585" 
d="M819 -449l-139 166l-139 -166h-262l253 295h304l249 -295h-266zM1139 730q0 226 -135 323.5t-338 97.5h-174v-848h165q333 0 407.5 152.5t74.5 274.5zM1503 736q0 -366 -241 -551t-572 -185h-540v1450h524q351 0 518.5 -119t239 -258t71.5 -337z" />
    <glyph glyph-name="dcircumflexbelow" unicode="&#x1e13;" horiz-adv-x="1347" 
d="M905 -477l-139 166l-139 -166h-262l253 295h304l249 -295h-266zM891 512q0 102 -68 182t-178 80t-176 -76.5t-66 -184t65.5 -185.5t175.5 -78t178.5 80t68.5 182zM903 0v133h-4q-49 -78 -140 -120t-200 -42t-199 45t-152.5 120t-95 173.5t-32.5 262.5t132.5 320.5
t348.5 156.5q113 0 190.5 -43t120.5 -95h5v637h335v-1548h-309z" />
    <glyph glyph-name="Emacrongrave" unicode="&#x1e14;" horiz-adv-x="1243" 
d="M559 1933l-299 295h340l213 -295h-254zM311 1604v176h688v-176h-688zM150 0v1450h974v-297h-637v-272h603v-281h-603v-301h674v-299h-1011z" />
    <glyph glyph-name="emacrongrave" unicode="&#x1e15;" horiz-adv-x="1220" 
d="M551 1536l-299 295h340l213 -295h-254zM266 1206v176h688v-176h-688zM641 -33q-238 0 -399.5 143.5t-161.5 392.5t157 399.5t390 150.5t374.5 -150t141.5 -405v-31q0 -31 -2 -49h-740q8 -82 80.5 -137.5t163.5 -55.5q148 0 225 107l234 -148q-150 -217 -463 -217z
M834 627q0 80 -50.5 137t-148.5 57t-164 -57t-70 -137h433z" />
    <glyph glyph-name="Emacronacute" unicode="&#x1e16;" horiz-adv-x="1243" 
d="M776 1933h-254l213 295h340zM311 1604v176h688v-176h-688zM150 0v1450h974v-297h-637v-272h603v-281h-603v-301h674v-299h-1011z" />
    <glyph glyph-name="emacronacute" unicode="&#x1e17;" horiz-adv-x="1220" 
d="M731 1536h-254l213 295h340zM266 1206v176h688v-176h-688zM641 -33q-238 0 -399.5 143.5t-161.5 392.5t157 399.5t390 150.5t374.5 -150t141.5 -405v-31q0 -31 -2 -49h-740q8 -82 80.5 -137.5t163.5 -55.5q148 0 225 107l234 -148q-150 -217 -463 -217zM834 627
q0 80 -50.5 137t-148.5 57t-164 -57t-70 -137h433z" />
    <glyph glyph-name="Ecircumflexbelow" unicode="&#x1e18;" horiz-adv-x="1243" 
d="M793 -449l-140 166l-139 -166h-262l254 295h303l250 -295h-266zM150 0v1450h974v-297h-637v-272h603v-281h-603v-301h674v-299h-1011z" />
    <glyph glyph-name="ecircumflexbelow" unicode="&#x1e19;" horiz-adv-x="1220" 
d="M748 -481l-140 166l-139 -166h-262l254 295h303l250 -295h-266zM641 -33q-238 0 -399.5 143.5t-161.5 392.5t157 399.5t390 150.5t374.5 -150t141.5 -405v-31q0 -31 -2 -49h-740q8 -82 80.5 -137.5t163.5 -55.5q148 0 225 107l234 -148q-150 -217 -463 -217zM834 627
q0 80 -50.5 137t-148.5 57t-164 -57t-70 -137h433z" />
    <glyph glyph-name="Etildebelow" unicode="&#x1e1a;" horiz-adv-x="1243" 
d="M375 -197q78 41 143 41t154 -41q88 -41 130 -41t60.5 24t28.5 60h145q-21 -185 -98.5 -227.5t-139.5 -42.5t-159 43q-73 41 -132 41t-83 -82h-148q21 184 99 225zM150 0v1450h974v-297h-637v-272h603v-281h-603v-301h674v-299h-1011z" />
    <glyph glyph-name="etildebelow" unicode="&#x1e1b;" horiz-adv-x="1220" 
d="M330 -229q78 41 141 41t154 -41q92 -41 133 -41t59.5 23.5t28.5 60.5h145q-21 -186 -98.5 -228.5t-139.5 -42.5t-159 43q-73 41 -132 41t-83 -82h-148q21 185 99 226zM641 -33q-238 0 -399.5 143.5t-161.5 392.5t157 399.5t390 150.5t374.5 -150t141.5 -405v-31
q0 -31 -2 -49h-740q8 -82 80.5 -137.5t163.5 -55.5q148 0 225 107l234 -148q-150 -217 -463 -217zM834 627q0 80 -50.5 137t-148.5 57t-164 -57t-70 -137h433z" />
    <glyph glyph-name="Ecedillabreve" unicode="&#x1e1c;" horiz-adv-x="1243" 
d="M655 1786q70 0 120 20.5t65 91.5h172q-11 -150 -108 -222t-251 -72q-234 0 -291 107.5t-63 186.5h172q23 -112 184 -112zM717 -121q211 0 211 -174q0 -104 -93 -150.5t-182 -46.5q-164 0 -270 52l55 123q84 -39 180 -39q95 0 95 67q0 60 -97 60q-42 0 -81 -13l-64 60
l137 182h-458v1450h974v-297h-637v-272h603v-281h-603v-301h674v-299h-385l-96 -123q10 2 12 2h25z" />
    <glyph glyph-name="ecedillabreve" unicode="&#x1e1d;" horiz-adv-x="1220" 
d="M834 627q0 80 -50.5 137t-148.5 57t-164 -57t-70 -137h433zM610 1389q70 0 120 20.5t65 91.5h172q-11 -150 -108.5 -222.5t-250.5 -72.5q-235 0 -291.5 107.5t-62.5 187.5h172q23 -112 184 -112zM672 -154q211 0 211 -174q0 -104 -92 -150t-182 -46q-167 0 -271 51
l55 123q84 -39 145 -39q60 0 95 13.5t35 53.5q0 60 -97 60q-44 0 -82 -12l-63 59l129 188q-210 25 -342.5 166t-132.5 377t157 386.5t390 150.5t374.5 -150t141.5 -405v-31q0 -31 -2 -49h-740q8 -82 80.5 -137.5t163.5 -55.5q148 0 225 107l234 -148q-129 -184 -381 -213
l-88 -127q10 2 13 2h24z" />
    <glyph glyph-name="uni1E1E" unicode="&#x1e1e;" horiz-adv-x="1179" 
d="M809 1738.5q0 -73.5 -53.5 -123.5t-131 -50t-130 51t-52.5 122.5t52.5 124t130 52.5t131 -51.5t53.5 -125zM496 1151v-299h561v-289h-561v-563h-346v1450h954v-299h-608z" />
    <glyph glyph-name="uni1E1F" unicode="&#x1e1f;" horiz-adv-x="745" 
d="M563 1824.5q0 -73.5 -53 -123.5t-131 -50t-130 51t-52 122.5t52 124t130 52.5t131 -51.5t53 -125zM672 1315q-150 0 -150 -193v-102h228v-252h-228v-768h-336v768h-186v252h186v98q0 330 156 399.5t266 69.5t178 -20l-22 -267q-45 15 -92 15z" />
    <glyph glyph-name="Gmacron" unicode="&#x1e20;" horiz-adv-x="1574" 
d="M477 1642v177h688v-177h-688zM82 727q0 174 60.5 315.5t224.5 294t501 152.5q172 0 319.5 -52.5t239.5 -140.5l-221 -252q-51 59 -135 97.5t-183 38.5q-190 0 -311.5 -127.5t-121.5 -330.5q0 -202 117 -327t325 -125q127 0 219 39v264h-276v283h598v-768
q-241 -125 -575 -125t-557.5 212t-223.5 552z" />
    <glyph glyph-name="gmacron" unicode="&#x1e21;" horiz-adv-x="1347" 
d="M383 1202v176h688v-176h-688zM471.5 701q-65.5 -73 -65.5 -183t65.5 -186t175 -76t178 76t68.5 184t-69 183t-178 75t-174.5 -73zM877 125q-104 -135 -317 -135q-217 0 -348.5 150.5t-131.5 373t132 379t353 156.5q96 0 184.5 -39t141.5 -121h4v131h317v-924
q0 -289 -158.5 -438.5t-367.5 -149.5t-351 41t-247 119l168 240q145 -129 338 -129q147 0 218 77.5t71 206.5v62h-6z" />
    <glyph glyph-name="uni1E22" unicode="&#x1e22;" horiz-adv-x="1564" 
d="M967 1738.5q0 -73.5 -53.5 -123.5t-131 -50t-130 51t-52.5 122.5t52.5 124t130 52.5t131 -51.5t53.5 -125zM1065 0v606h-565v-606h-350v1450h350v-549h565v549h350v-1450h-350z" />
    <glyph glyph-name="uni1E23" unicode="&#x1e23;" horiz-adv-x="1263" 
d="M498 1800q0 -74 -53.5 -124t-131 -50t-130 51.5t-52.5 123t52.5 123.5t130 52t131 -51t53.5 -125zM803 553q0 215 -150 215q-88 0 -135 -62.5t-47 -154.5v-551h-336v1548h336v-657h4q35 61 111 109.5t181 48.5q191 0 282.5 -121.5t91.5 -296.5v-631h-338v553z" />
    <glyph glyph-name="Hdotbelow" unicode="&#x1e24;" horiz-adv-x="1564" 
d="M967 -329.5q0 -73.5 -53.5 -124t-131 -50.5t-130 51.5t-52.5 123t52.5 123.5t130 52t131 -51t53.5 -124.5zM1065 0v606h-565v-606h-350v1450h350v-549h565v549h350v-1450h-350z" />
    <glyph glyph-name="hdotbelow" unicode="&#x1e25;" horiz-adv-x="1263" 
d="M821 -329.5q0 -73.5 -53 -124t-131 -50.5t-130 51.5t-52 123t52 123.5t130 52t131 -51t53 -124.5zM803 553q0 215 -150 215q-88 0 -135 -62.5t-47 -154.5v-551h-336v1548h336v-657h4q35 61 111 109.5t181 48.5q191 0 282.5 -121.5t91.5 -296.5v-631h-338v553z" />
    <glyph glyph-name="Hdieresis" unicode="&#x1e26;" horiz-adv-x="1564" 
d="M731 1771q0 -71 -50 -119t-122 -48t-121 49t-49 116t48.5 117.5t120.5 50.5q73 0 123 -47.5t50 -118.5zM1176 1771q0 -71 -51 -119t-121 -48t-119 49t-49 116t48 117.5t120 50.5t122 -47.5t50 -118.5zM1065 0v606h-565v-606h-350v1450h350v-549h565v549h350v-1450h-350z
" />
    <glyph glyph-name="hdieresis" unicode="&#x1e27;" horiz-adv-x="1263" 
d="M254 1869q0 -71 -50 -119t-122 -48t-121 49t-49 116t49 118t121 51t122 -48t50 -119zM698 1869q0 -71 -50 -119t-121 -48t-120 49t-49 116t49 118t120 51t121 -48t50 -119zM803 553q0 215 -150 215q-88 0 -135 -62.5t-47 -154.5v-551h-336v1548h336v-657h4
q35 61 111 109.5t181 48.5q191 0 282.5 -121.5t91.5 -296.5v-631h-338v553z" />
    <glyph glyph-name="Hcedilla" unicode="&#x1e28;" horiz-adv-x="1564" 
d="M340 -229q-43 0 -82 -13l-63 60l137 182h-182v1450h350v-549h565v549h350v-1450h-350v606h-565v-606l-97 -123q10 2 13 2h24q91 0 151 -37.5t60 -132.5q0 -155 -126 -178t-182 -23q-128 0 -237 52l56 123q84 -39 179 -39t95 67q0 60 -96 60z" />
    <glyph glyph-name="hcedilla" unicode="&#x1e29;" horiz-adv-x="1263" 
d="M412 -121q211 0 211 -174q0 -104 -93 -150.5t-182 -46.5q-164 0 -270 52l55 123q84 -39 180 -39q95 0 95 67q0 60 -97 60q-41 0 -82 -13l-63 60l137 182h-168v1548h336v-657h4q35 61 111 109.5t181 48.5q191 0 282.5 -121.5t91.5 -296.5v-631h-338v553q0 215 -150 215
q-88 0 -135 -62.5t-47 -154.5v-551l-96 -123q10 2 12 2h25z" />
    <glyph glyph-name="Hbrevebelow" unicode="&#x1e2a;" horiz-adv-x="1564" 
d="M782 -266q70 0 120 20.5t65 91.5h172q-11 -150 -108.5 -222.5t-250.5 -72.5q-233 0 -290.5 108t-63.5 187h172q23 -112 184 -112zM1065 0v606h-565v-606h-350v1450h350v-549h565v549h350v-1450h-350z" />
    <glyph glyph-name="hbrevebelow" unicode="&#x1e2b;" horiz-adv-x="1263" 
d="M637 -266q70 0 120 20.5t64 91.5h172q-11 -151 -109 -223t-249 -72q-235 0 -291.5 108t-62.5 187h172q23 -112 184 -112zM803 553q0 215 -150 215q-88 0 -135 -62.5t-47 -154.5v-551h-336v1548h336v-657h4q35 61 111 109.5t181 48.5q191 0 282.5 -121.5t91.5 -296.5v-631
h-338v553z" />
    <glyph glyph-name="Itildebelow" unicode="&#x1e2c;" horiz-adv-x="651" 
d="M45.5 -196.5q77.5 40.5 142.5 40.5t154 -41q88 -41 130 -41t60.5 24t28.5 60h146q-21 -184 -99 -227t-140 -43t-159 43q-73 41 -132 41t-83 -82h-147q21 185 98.5 225.5zM150 0v1450h352v-1450h-352z" />
    <glyph glyph-name="itildebelow" unicode="&#x1e2d;" horiz-adv-x="606" 
d="M22.5 -196.5q77.5 40.5 143.5 40.5t154 -41q87 -41 129 -41q43 0 61 24t29 60h145q-21 -185 -98.5 -227.5t-139.5 -42.5t-159 43q-73 41 -132 41t-83 -82h-148q21 185 98.5 225.5zM135 0v1020h336v-1020h-336zM496 1345.5q0 -76.5 -56 -130.5t-138 -54q-81 0 -136 54.5
t-55 130.5q0 116 75.5 150t115.5 34t76 -14.5t77 -54t41 -116z" />
    <glyph glyph-name="Idieresisacute" unicode="&#x1e2e;" horiz-adv-x="651" 
d="M446 2091h-253l213 295h339zM274 1771q0 -71 -50 -119t-121.5 -48t-121 49t-49.5 116t48.5 117.5t120.5 50.5q73 0 123 -47.5t50 -118.5zM719 1771q0 -71 -50.5 -119t-120.5 -48t-119.5 49t-49.5 116t48.5 117.5t119.5 50.5q72 0 122 -47.5t50 -118.5zM150 0v1450h352
v-1450h-352z" />
    <glyph glyph-name="idieresisacute" unicode="&#x1e2f;" horiz-adv-x="606" 
d="M424 1661h-254l213 295h340zM252 1340q0 -71 -50 -118.5t-122 -47.5t-121 49t-49 116t48.5 117.5t120.5 50.5q73 0 123 -48t50 -119zM696 1340q0 -71 -50 -118.5t-121 -47.5t-120 49t-49 116t48.5 117.5t119.5 50.5q72 0 122 -48t50 -119zM135 0v1020h336v-1020h-336z
" />
    <glyph glyph-name="Kacute" unicode="&#x1e30;" horiz-adv-x="1456" 
d="M834 1604h-254l213 294h340zM494 668v-668h-344v1450h344v-590h6l518 590h438l-625 -668l662 -782h-457l-538 668h-4z" />
    <glyph glyph-name="kacute" unicode="&#x1e31;" horiz-adv-x="1218" 
d="M426 1702h-254l213 295h340zM471 489v-489h-338v1548h338v-942h6l326 414h407l-393 -461l410 -559h-416l-334 489h-6z" />
    <glyph glyph-name="Kdotbelow" unicode="&#x1e32;" horiz-adv-x="1456" 
d="M915 -329.5q0 -73.5 -53 -124t-131 -50.5t-130 51.5t-52 123t52 123.5t130 52t131 -51t53 -124.5zM494 668v-668h-344v1450h344v-590h6l518 590h438l-625 -668l662 -782h-457l-538 668h-4z" />
    <glyph glyph-name="kdotbelow" unicode="&#x1e33;" horiz-adv-x="1218" 
d="M805 -329.5q0 -73.5 -53.5 -124t-131 -50.5t-130 51.5t-52.5 123t52.5 123.5t130 52t131 -51t53.5 -124.5zM471 489v-489h-338v1548h338v-942h6l326 414h407l-393 -461l410 -559h-416l-334 489h-6z" />
    <glyph glyph-name="Klinebelow" unicode="&#x1e34;" horiz-adv-x="1456" 
d="M416 -330v176h688v-176h-688zM494 668v-668h-344v1450h344v-590h6l518 590h438l-625 -668l662 -782h-457l-538 668h-4z" />
    <glyph glyph-name="klinebelow" unicode="&#x1e35;" horiz-adv-x="1218" 
d="M295 -330v176h688v-176h-688zM471 489v-489h-338v1548h338v-942h6l326 414h407l-393 -461l410 -559h-416l-334 489h-6z" />
    <glyph glyph-name="Ldotbelow" unicode="&#x1e36;" horiz-adv-x="1077" 
d="M750 -329.5q0 -73.5 -53.5 -124t-131.5 -50.5t-130 51.5t-52 123t52 123.5t130 52t131.5 -51t53.5 -124.5zM150 0v1450h352v-1145h561v-305h-913z" />
    <glyph glyph-name="ldotbelow" unicode="&#x1e37;" horiz-adv-x="610" 
d="M489 -329.5q0 -73.5 -53 -124t-131 -50.5t-130 51.5t-52 123t52 123.5t130 52t131 -51t53 -124.5zM135 0v1548h340v-1548h-340z" />
    <glyph glyph-name="Ldotbelowmacron" unicode="&#x1e38;" horiz-adv-x="1077" 
d="M-14 1604v176h688v-176h-688zM770 -329.5q0 -73.5 -53 -124t-131 -50.5t-130.5 51.5t-52.5 123t52.5 123.5t130.5 52t131 -51t53 -124.5zM150 0v1450h352v-1145h561v-305h-913z" />
    </font>
</defs>
</svg>
