<svg xmlns="http://www.w3.org/2000/svg" xmlns:xlink="http://www.w3.org/1999/xlink" viewBox="0 0 529.5 859" enable-background="new 0 0 529.5 859"><defs><path id="a" d="M0 0h529.5v859H0z"/></defs><clipPath id="b"><use xlink:href="#a" overflow="visible"/></clipPath><path d="M499.8 586.7C318.5 394.9 138.4 204.4-41.6 14c-.5.3-1 .7-1.5 1C-24.9 46.2-6 77 12.6 107.9c18.6 31 37.3 62 55.9 93 18.8 31.2 37.6 62.5 56.4 93.7 18.8 31.2 37.6 62.5 56.3 93.7 18.6 31 37.3 62 56 93 18.7 31.1 37.4 62.3 57.1 95-182.7.4-363.4.7-544.6 1.1-22.6 62.3-44.9 123.8-67.8 187.1 273.2-59.4 544.6-118.4 817.9-177.8z" clip-path="url(#b)" fill="#fff"/></svg>