<svg xmlns="http://www.w3.org/2000/svg" xmlns:xlink="http://www.w3.org/1999/xlink" viewBox="0 0 610 664" enable-background="new 0 0 610 664"><defs><path id="a" d="M0 0h610v664H0z"/></defs><clipPath id="b"><use xlink:href="#a" overflow="visible"/></clipPath><path d="M10.4 440.9C157.3 285.6 303.2 131.3 449-23c.4.3.8.6 1.2.8-14.7 25.3-30 50.2-45.1 75.3l-45.3 75.3c-15.2 25.3-30.5 50.6-45.7 75.9l-45.6 75.9-45.3 75.3c-15.2 25.2-30.3 50.5-46.2 77 148 .3 294.4.6 441.1.9 18.3 50.4 36.3 100.3 54.9 151.6-221.4-48.2-441.1-96-662.6-144.1z" clip-path="url(#b)" fill="#BB292B"/></svg>